//Event file generated from Sappy .s format.
        #include "MPlayDef.event"

        #define    OutIntoTheOpenSky_grp  voicegroup000
        #define    OutIntoTheOpenSky_pri  0
        #define    OutIntoTheOpenSky_rev  0
        #define    OutIntoTheOpenSky_key  0

        // .rodata
        // OutIntoTheOpenSky
        ALIGN 4

//****************** Track 0 (Midi-Chn.0) ******************//

OutIntoTheOpenSky_0:
        BYTE   KEYSH   OutIntoTheOpenSky_key+0
// 000   ----------------------------------------
        BYTE   TEMPO   80/2
        BYTE           VOICE   21
        BYTE           VOL     51
        BYTE           PAN     c_v-26
        BYTE   W96
// 001   ----------------------------------------
        BYTE   W96
// 002   ----------------------------------------
        BYTE   W96
// 003   ----------------------------------------
        BYTE   W96
// 004   ----------------------------------------
        BYTE   W96
// 005   ----------------------------------------
        BYTE   W96
// 006   ----------------------------------------
OutIntoTheOpenSky_0_LOOP:
        BYTE           N24     An3   v104
        BYTE   W24
        BYTE                   Fn3
        BYTE   W24
        BYTE                   Dn4
        BYTE   W24
        BYTE                   As3
        BYTE   W24
// 007   ----------------------------------------
OutIntoTheOpenSky_0_7:
        BYTE           N24     Dn3   v104
        BYTE   W24
        BYTE                   Gn3
        BYTE   W24
        BYTE                   Cs4
        BYTE   W24
        BYTE                   An3
        BYTE   W24
        BYTE   PEND
// 008   ----------------------------------------
OutIntoTheOpenSky_0_8:
        BYTE           N24     An3   v104
        BYTE   W24
        BYTE                   Fn3
        BYTE   W24
        BYTE                   Dn4
        BYTE   W24
        BYTE                   As3
        BYTE   W24
        BYTE   PEND
// 009   ----------------------------------------
        BYTE   PATT
         POIN2  OutIntoTheOpenSky_0_7
// 010   ----------------------------------------
        BYTE   PATT
         POIN2  OutIntoTheOpenSky_0_8
// 011   ----------------------------------------
        BYTE   PATT
         POIN2  OutIntoTheOpenSky_0_7
// 012   ----------------------------------------
        BYTE   PATT
         POIN2  OutIntoTheOpenSky_0_8
// 013   ----------------------------------------
        BYTE   PATT
         POIN2  OutIntoTheOpenSky_0_7
// 014   ----------------------------------------
        BYTE   PATT
         POIN2  OutIntoTheOpenSky_0_8
// 015   ----------------------------------------
        BYTE   PATT
         POIN2  OutIntoTheOpenSky_0_7
// 016   ----------------------------------------
        BYTE   PATT
         POIN2  OutIntoTheOpenSky_0_8
// 017   ----------------------------------------
        BYTE   PATT
         POIN2  OutIntoTheOpenSky_0_7
// 018   ----------------------------------------
        BYTE   PATT
         POIN2  OutIntoTheOpenSky_0_8
// 019   ----------------------------------------
        BYTE   PATT
         POIN2  OutIntoTheOpenSky_0_7
// 020   ----------------------------------------
        BYTE   W96
// 021   ----------------------------------------
        BYTE   W96
// 022   ----------------------------------------
        BYTE   W96
// 023   ----------------------------------------
        BYTE   W96
// 024   ----------------------------------------
        BYTE   PATT
         POIN2  OutIntoTheOpenSky_0_8
// 025   ----------------------------------------
        BYTE   PATT
         POIN2  OutIntoTheOpenSky_0_7
// 026   ----------------------------------------
        BYTE   PATT
         POIN2  OutIntoTheOpenSky_0_8
// 027   ----------------------------------------
        BYTE   PATT
         POIN2  OutIntoTheOpenSky_0_7
// 028   ----------------------------------------
        BYTE   PATT
         POIN2  OutIntoTheOpenSky_0_8
// 029   ----------------------------------------
        BYTE   PATT
         POIN2  OutIntoTheOpenSky_0_7
// 030   ----------------------------------------
        BYTE   PATT
         POIN2  OutIntoTheOpenSky_0_8
// 031   ----------------------------------------
        BYTE   PATT
         POIN2  OutIntoTheOpenSky_0_7
// 032   ----------------------------------------
        BYTE   GoTo
         POIN2  OutIntoTheOpenSky_0_LOOP
        BYTE   W96
// 033   ----------------------------------------
        BYTE   W96
// 034   ----------------------------------------
        BYTE   W96
// 035   ----------------------------------------
        BYTE   FINE

//****************** Track 1 (Midi-Chn.1) ******************//

OutIntoTheOpenSky_1:
        BYTE   KEYSH   OutIntoTheOpenSky_key+0
// 000   ----------------------------------------
        BYTE           VOICE   24
        BYTE           PAN     c_v-19
        BYTE           VOL     59
        BYTE   W96
// 001   ----------------------------------------
        BYTE   W96
// 002   ----------------------------------------
        BYTE   W96
// 003   ----------------------------------------
        BYTE   W96
// 004   ----------------------------------------
        BYTE   W96
// 005   ----------------------------------------
        BYTE   W96
// 006   ----------------------------------------
OutIntoTheOpenSky_1_LOOP:
        BYTE   W96
// 007   ----------------------------------------
        BYTE   W96
// 008   ----------------------------------------
OutIntoTheOpenSky_1_8:
        BYTE           N06     Dn3   v102
        BYTE   W06
        BYTE                   An2
        BYTE   W06
        BYTE                   Dn3
        BYTE   W24
        BYTE           N12
        BYTE   W12
        BYTE                   An2
        BYTE   W12
        BYTE                   Dn3
        BYTE   W12
        BYTE           N24     An3
        BYTE           N24     Fn3
        BYTE   W24
        BYTE   PEND
// 009   ----------------------------------------
        BYTE           N06     Dn3
        BYTE   W06
        BYTE                   An2
        BYTE   W06
        BYTE                   Dn3
        BYTE   W24
        BYTE           N12
        BYTE   W12
        BYTE                   An2
        BYTE   W12
        BYTE                   Dn3
        BYTE   W12
        BYTE           N24     Fn3
        BYTE           N24     As3
        BYTE   W24
// 010   ----------------------------------------
        BYTE   PATT
         POIN2  OutIntoTheOpenSky_1_8
// 011   ----------------------------------------
        BYTE           N06     Dn3   v102
        BYTE   W06
        BYTE                   An2
        BYTE   W06
        BYTE                   Dn3
        BYTE   W24
        BYTE           N12
        BYTE   W12
        BYTE                   An2
        BYTE   W12
        BYTE                   Dn3
        BYTE   W12
        BYTE           N24     An3
        BYTE           N24     En3
        BYTE   W24
// 012   ----------------------------------------
        BYTE           N12     An2   v116
        BYTE   W12
        BYTE                   An2
        BYTE   W12
        BYTE           N06
        BYTE   W06
        BYTE           N12
        BYTE   W12
        BYTE                   An2
        BYTE   W18
        BYTE                   An2
        BYTE   W12
        BYTE           N06
        BYTE   W06
        BYTE           N12
        BYTE   W12
        BYTE                   As2
        BYTE   W06
// 013   ----------------------------------------
        BYTE   W12
        BYTE                   As2
        BYTE   W12
        BYTE           N06
        BYTE   W06
        BYTE           N12
        BYTE   W12
        BYTE                   An2
        BYTE   W12
        BYTE                   An2
        BYTE   W12
        BYTE           N06
        BYTE   W06
        BYTE           N12     As2
        BYTE   W12
        BYTE                   An2
        BYTE   W12
// 014   ----------------------------------------
        BYTE                   An2
        BYTE   W12
        BYTE           N06
        BYTE   W06
        BYTE           N12
        BYTE   W18
        BYTE           N06
        BYTE   W06
        BYTE           N12
        BYTE   W12
        BYTE                   An2
        BYTE   W12
        BYTE           N06
        BYTE   W06
        BYTE           N12
        BYTE   W12
        BYTE                   As2
        BYTE   W12
// 015   ----------------------------------------
        BYTE           N06
        BYTE   W06
        BYTE           N12
        BYTE   W18
        BYTE           N06
        BYTE   W06
        BYTE           N12
        BYTE   W12
        BYTE                   As2
        BYTE   W12
        BYTE                   An2
        BYTE   W12
        BYTE           N06
        BYTE   W06
        BYTE           N12
        BYTE   W18
        BYTE           N06
        BYTE   W06
// 016   ----------------------------------------
        BYTE           N12     Dn3
        BYTE   W12
        BYTE                   An2
        BYTE   W12
        BYTE           N06
        BYTE   W06
        BYTE           N12
        BYTE   W12
        BYTE                   Dn3
        BYTE   W18
        BYTE                   An2
        BYTE   W12
        BYTE           N06
        BYTE   W06
        BYTE           N12
        BYTE   W12
        BYTE                   As2
        BYTE   W06
// 017   ----------------------------------------
        BYTE   W12
        BYTE                   As2
        BYTE   W12
        BYTE           N06
        BYTE   W06
        BYTE           N12
        BYTE   W12
        BYTE                   As2
        BYTE   W12
        BYTE                   Cs3
        BYTE   W12
        BYTE           N06
        BYTE   W06
        BYTE           N12     As2
        BYTE   W12
        BYTE                   An2
        BYTE   W12
// 018   ----------------------------------------
        BYTE                   Dn3
        BYTE   W12
        BYTE                   An2
        BYTE   W12
        BYTE           N06
        BYTE   W06
        BYTE           N12
        BYTE   W12
        BYTE                   Dn3
        BYTE   W18
        BYTE                   An2
        BYTE   W12
        BYTE           N06
        BYTE   W06
        BYTE           N12     Cs3
        BYTE   W12
        BYTE           N06     En3
        BYTE   W06
// 019   ----------------------------------------
        BYTE           N12     As3   v102
        BYTE   W12
        BYTE           N06     An3
        BYTE   W06
        BYTE                   Gn3
        BYTE   W06
        BYTE           N12     An3
        BYTE   W12
        BYTE           N06     Gn3
        BYTE   W06
        BYTE                   Fn3
        BYTE   W06
        BYTE                   Gn3
        BYTE   W06
        BYTE                   Fn3
        BYTE   W06
        BYTE                   En3
        BYTE   W06
        BYTE                   Dn3
        BYTE   W06
        BYTE           N12     Cs3
        BYTE   W12
        BYTE                   An2
        BYTE   W12
// 020   ----------------------------------------
        BYTE                   Fn3   v116
        BYTE   W12
        BYTE                   Dn3
        BYTE   W12
        BYTE           N06
        BYTE   W06
        BYTE           N12
        BYTE   W12
        BYTE                   Fn3
        BYTE   W18
        BYTE                   An2
        BYTE   W12
        BYTE           N06
        BYTE   W06
        BYTE           N12
        BYTE   W18
// 021   ----------------------------------------
        BYTE           N06     Fn3
        BYTE   W06
        BYTE           N12
        BYTE   W12
        BYTE                   Fn3
        BYTE   W12
        BYTE           N06
        BYTE   W06
        BYTE           N12
        BYTE   W12
        BYTE           N06
        BYTE   W06
        BYTE           N12     En3
        BYTE   W12
        BYTE                   En3
        BYTE   W12
        BYTE           N06     An2
        BYTE   W06
        BYTE           N12
        BYTE   W12
// 022   ----------------------------------------
        BYTE                   As2
        BYTE   W12
        BYTE                   Fn2
        BYTE   W12
        BYTE           N06
        BYTE   W06
        BYTE           N12
        BYTE   W12
        BYTE                   As2
        BYTE   W18
        BYTE                   Gn2
        BYTE   W12
        BYTE           N06
        BYTE   W06
        BYTE           N12
        BYTE   W18
// 023   ----------------------------------------
        BYTE           N06     As2
        BYTE   W06
        BYTE           N12
        BYTE   W12
        BYTE                   As2
        BYTE   W12
        BYTE           N06
        BYTE   W06
        BYTE           N12
        BYTE   W12
        BYTE           N06
        BYTE   W06
        BYTE           N12     An2
        BYTE   W12
        BYTE           N06
        BYTE   W06
        BYTE           N12
        BYTE   W12
        BYTE                   An2
        BYTE   W12
// 024   ----------------------------------------
        BYTE                   An2
        BYTE   W12
        BYTE           N06
        BYTE   W06
        BYTE           N12
        BYTE   W12
        BYTE                   As2
        BYTE   W18
        BYTE                   As2
        BYTE   W12
        BYTE           N06
        BYTE   W06
        BYTE           N12
        BYTE   W12
        BYTE                   An2
        BYTE   W12
        BYTE                   An2
        BYTE   W06
// 025   ----------------------------------------
        BYTE   W06
        BYTE           N06
        BYTE   W06
        BYTE           N12     As2
        BYTE   W12
        BYTE                   As2
        BYTE   W12
        BYTE                   As2
        BYTE   W12
        BYTE           N06
        BYTE   W06
        BYTE           N12
        BYTE   W12
        BYTE                   An2
        BYTE   W30
// 026   ----------------------------------------
        BYTE   W06
        BYTE                   Fn2
        BYTE   W12
        BYTE           N06
        BYTE   W06
        BYTE           N12
        BYTE   W12
        BYTE                   As2
        BYTE   W18
        BYTE                   Gn2
        BYTE   W12
        BYTE           N06
        BYTE   W06
        BYTE           N12
        BYTE   W12
        BYTE                   As2
        BYTE   W12
// 027   ----------------------------------------
        BYTE   W06
        BYTE                   As2
        BYTE   W12
        BYTE           N06
        BYTE   W06
        BYTE           N12
        BYTE   W12
        BYTE                   As2
        BYTE   W12
        BYTE           N06
        BYTE   W06
        BYTE           N12
        BYTE   W12
        BYTE           N06
        BYTE   W06
        BYTE           N12     An2
        BYTE   W12
        BYTE                   An2
        BYTE   W12
// 028   ----------------------------------------
OutIntoTheOpenSky_1_28:
        BYTE   W12
        BYTE           N12     An2   v116
        BYTE   W12
        BYTE           N06
        BYTE   W06
        BYTE           N12
        BYTE   W18
        BYTE           N06
        BYTE   W06
        BYTE           N12
        BYTE   W12
        BYTE                   An2
        BYTE   W12
        BYTE           N06
        BYTE   W06
        BYTE           N12
        BYTE   W12
        BYTE   PEND
// 029   ----------------------------------------
        BYTE                   As2
        BYTE   W12
        BYTE           N06
        BYTE   W06
        BYTE           N12
        BYTE   W12
        BYTE           N06
        BYTE   W06
        BYTE           N12
        BYTE   W12
        BYTE           N06
        BYTE   W06
        BYTE           N12
        BYTE   W12
        BYTE           N06
        BYTE   W06
        BYTE           N12     An2
        BYTE   W12
        BYTE           N06
        BYTE   W12
// 030   ----------------------------------------
        BYTE   PATT
         POIN2  OutIntoTheOpenSky_1_28
// 031   ----------------------------------------
        BYTE           N12     An2   v102
        BYTE   W12
        BYTE           N06     Gn2
        BYTE   W06
        BYTE                   En2
        BYTE   W06
        BYTE           N12     Dn2
        BYTE   W12
        BYTE           N06     Cs2
        BYTE   W06
        BYTE                   Bn1
        BYTE   W06
        BYTE           N12     An1
        BYTE   W12
        BYTE                   Cs2
        BYTE   W12
        BYTE           N24     An1
        BYTE           N24     Dn2
        BYTE           N24     Fn2
        BYTE   W24
// 032   ----------------------------------------
        BYTE   GoTo
         POIN2  OutIntoTheOpenSky_1_LOOP
        BYTE   W96
// 033   ----------------------------------------
        BYTE   W96
// 034   ----------------------------------------
        BYTE   W96
// 035   ----------------------------------------
        BYTE   FINE

//****************** Track 2 (Midi-Chn.2) ******************//

OutIntoTheOpenSky_2:
        BYTE   KEYSH   OutIntoTheOpenSky_key+0
// 000   ----------------------------------------
        BYTE           VOICE   25
        BYTE           VOL     45
        BYTE           N24     Dn3   v100
        BYTE   W06
        BYTE           N30     An2
        BYTE   W18
        BYTE           N18     Dn3
        BYTE   W12
        BYTE           N12     An2
        BYTE   W12
        BYTE           N24     As2
        BYTE   W06
        BYTE           N30     Fn2
        BYTE   W18
        BYTE           N18     As2
        BYTE   W12
        BYTE           N12     Fn2
        BYTE   W12
// 001   ----------------------------------------
OutIntoTheOpenSky_2_1:
        BYTE           N24     As2   v100
        BYTE   W06
        BYTE           N30     Gn2
        BYTE   W18
        BYTE           N18     As2
        BYTE   W12
        BYTE           N12     Gn2
        BYTE   W12
        BYTE           N24     Cs3
        BYTE   W06
        BYTE           N30     An2
        BYTE   W18
        BYTE           N18     Cs3
        BYTE   W12
        BYTE           N12     An2
        BYTE   W12
        BYTE   PEND
// 002   ----------------------------------------
OutIntoTheOpenSky_2_2:
        BYTE           N24     Dn3   v100
        BYTE   W06
        BYTE           N30     An2
        BYTE   W18
        BYTE           N18     Dn3
        BYTE   W12
        BYTE           N12     An2
        BYTE   W12
        BYTE           N24     As2
        BYTE   W06
        BYTE           N30     Fn2
        BYTE   W18
        BYTE           N18     As2
        BYTE   W12
        BYTE           N12     Fn2
        BYTE   W12
        BYTE   PEND
// 003   ----------------------------------------
        BYTE   PATT
         POIN2  OutIntoTheOpenSky_2_1
// 004   ----------------------------------------
        BYTE   PATT
         POIN2  OutIntoTheOpenSky_2_2
// 005   ----------------------------------------
        BYTE   PATT
         POIN2  OutIntoTheOpenSky_2_1
// 006   ----------------------------------------
OutIntoTheOpenSky_2_LOOP:
        BYTE           N24     Dn3   v100
        BYTE   W06
        BYTE           N30     An2
        BYTE   W18
        BYTE           N18     Dn3
        BYTE   W12
        BYTE           N12     An2
        BYTE   W12
        BYTE           N24     As2
        BYTE   W06
        BYTE           N30     Fn2
        BYTE   W18
        BYTE           N18     As2
        BYTE   W12
        BYTE           N12     Fn2
        BYTE   W12
// 007   ----------------------------------------
        BYTE   PATT
         POIN2  OutIntoTheOpenSky_2_1
// 008   ----------------------------------------
        BYTE   PATT
         POIN2  OutIntoTheOpenSky_2_2
// 009   ----------------------------------------
        BYTE   PATT
         POIN2  OutIntoTheOpenSky_2_1
// 010   ----------------------------------------
        BYTE   PATT
         POIN2  OutIntoTheOpenSky_2_2
// 011   ----------------------------------------
        BYTE   PATT
         POIN2  OutIntoTheOpenSky_2_1
// 012   ----------------------------------------
        BYTE   PATT
         POIN2  OutIntoTheOpenSky_2_2
// 013   ----------------------------------------
        BYTE   PATT
         POIN2  OutIntoTheOpenSky_2_1
// 014   ----------------------------------------
        BYTE   PATT
         POIN2  OutIntoTheOpenSky_2_2
// 015   ----------------------------------------
        BYTE   PATT
         POIN2  OutIntoTheOpenSky_2_1
// 016   ----------------------------------------
        BYTE   PATT
         POIN2  OutIntoTheOpenSky_2_2
// 017   ----------------------------------------
        BYTE   PATT
         POIN2  OutIntoTheOpenSky_2_1
// 018   ----------------------------------------
        BYTE   PATT
         POIN2  OutIntoTheOpenSky_2_2
// 019   ----------------------------------------
        BYTE   PATT
         POIN2  OutIntoTheOpenSky_2_1
// 020   ----------------------------------------
        BYTE           N24     Fn3   v100
        BYTE           N36     An2
        BYTE   W24
        BYTE           N18     Fn3
        BYTE   W12
        BYTE           N12     An2
        BYTE   W12
        BYTE           N24     Dn3
        BYTE           N36     Fn2
        BYTE   W24
        BYTE           N18     Dn3
        BYTE   W12
        BYTE           N12     Fn2
        BYTE   W12
// 021   ----------------------------------------
        BYTE           N24     Dn3
        BYTE           N36     Gn2
        BYTE   W24
        BYTE           N18     Dn3
        BYTE   W12
        BYTE           N12     Gn2
        BYTE   W12
        BYTE           N24     Cs3
        BYTE           N36     An2
        BYTE   W24
        BYTE           N18     Cs3
        BYTE   W12
        BYTE           N12     An2
        BYTE   W12
// 022   ----------------------------------------
        BYTE           N24     Dn3
        BYTE           N36     Fn2
        BYTE   W24
        BYTE           N18     Dn3
        BYTE   W12
        BYTE           N12     Fn2
        BYTE   W12
        BYTE           N24     Dn3
        BYTE           N36     Gn2
        BYTE   W24
        BYTE           N18     Dn3
        BYTE   W12
        BYTE           N12     Gn2
        BYTE   W12
// 023   ----------------------------------------
        BYTE           N24     Cs3
        BYTE           N36     En2
        BYTE   W24
        BYTE           N18     Cs3
        BYTE   W12
        BYTE           N12     En2
        BYTE   W12
        BYTE           N24     Dn3
        BYTE           N36     Fn2
        BYTE   W24
        BYTE           N18     Dn3
        BYTE   W12
        BYTE           N12     Fn2
        BYTE   W12
// 024   ----------------------------------------
        BYTE   PATT
         POIN2  OutIntoTheOpenSky_2_2
// 025   ----------------------------------------
        BYTE   PATT
         POIN2  OutIntoTheOpenSky_2_1
// 026   ----------------------------------------
        BYTE   PATT
         POIN2  OutIntoTheOpenSky_2_2
// 027   ----------------------------------------
        BYTE   PATT
         POIN2  OutIntoTheOpenSky_2_1
// 028   ----------------------------------------
        BYTE   PATT
         POIN2  OutIntoTheOpenSky_2_2
// 029   ----------------------------------------
        BYTE   PATT
         POIN2  OutIntoTheOpenSky_2_1
// 030   ----------------------------------------
        BYTE   PATT
         POIN2  OutIntoTheOpenSky_2_2
// 031   ----------------------------------------
        BYTE   PATT
         POIN2  OutIntoTheOpenSky_2_1
// 032   ----------------------------------------
        BYTE   GoTo
         POIN2  OutIntoTheOpenSky_2_LOOP
        BYTE   W96
// 033   ----------------------------------------
        BYTE   W96
// 034   ----------------------------------------
        BYTE   W96
// 035   ----------------------------------------
        BYTE   FINE

//****************** Track 3 (Midi-Chn.3) ******************//

OutIntoTheOpenSky_3:
        BYTE   KEYSH   OutIntoTheOpenSky_key+0
// 000   ----------------------------------------
        BYTE           VOICE   75
        BYTE           PAN     c_v+18
        BYTE           VOL     45
        BYTE   W96
// 001   ----------------------------------------
        BYTE   W96
// 002   ----------------------------------------
        BYTE   W96
// 003   ----------------------------------------
        BYTE   W96
// 004   ----------------------------------------
        BYTE   W96
// 005   ----------------------------------------
        BYTE   W96
// 006   ----------------------------------------
OutIntoTheOpenSky_3_LOOP:
        BYTE   W96
// 007   ----------------------------------------
        BYTE   W96
// 008   ----------------------------------------
        BYTE   W96
// 009   ----------------------------------------
        BYTE   W96
// 010   ----------------------------------------
        BYTE   W96
// 011   ----------------------------------------
        BYTE   W96
// 012   ----------------------------------------
        BYTE   W96
// 013   ----------------------------------------
        BYTE   W96
// 014   ----------------------------------------
        BYTE   W96
// 015   ----------------------------------------
        BYTE   W96
// 016   ----------------------------------------
        BYTE   W96
// 017   ----------------------------------------
        BYTE   W96
// 018   ----------------------------------------
        BYTE   W96
// 019   ----------------------------------------
        BYTE   W96
// 020   ----------------------------------------
        BYTE           N48     Gn4   v100
        BYTE   W48
        BYTE                   Fn4
        BYTE   W48
// 021   ----------------------------------------
        BYTE                   Fn4
        BYTE   W48
        BYTE                   En4
        BYTE   W48
// 022   ----------------------------------------
        BYTE                   Fn4
        BYTE   W48
        BYTE                   Fn4
        BYTE   W48
// 023   ----------------------------------------
        BYTE                   En4
        BYTE   W48
        BYTE                   Fn4
        BYTE   W48
// 024   ----------------------------------------
        BYTE   W96
// 025   ----------------------------------------
        BYTE   W96
// 026   ----------------------------------------
        BYTE   W96
// 027   ----------------------------------------
        BYTE   W96
// 028   ----------------------------------------
        BYTE   W96
// 029   ----------------------------------------
        BYTE   W96
// 030   ----------------------------------------
        BYTE   W96
// 031   ----------------------------------------
        BYTE   W96
// 032   ----------------------------------------
        BYTE   GoTo
         POIN2  OutIntoTheOpenSky_3_LOOP
        BYTE   W96
// 033   ----------------------------------------
        BYTE   W96
// 034   ----------------------------------------
        BYTE   W96
// 035   ----------------------------------------
        BYTE   FINE

//****************** Track 4 (Midi-Chn.4) ******************//

OutIntoTheOpenSky_4:
        BYTE   KEYSH   OutIntoTheOpenSky_key+0
// 000   ----------------------------------------
        BYTE           VOICE   40
        BYTE           VOL     44
        BYTE           PAN     c_v-32
        BYTE   W96
// 001   ----------------------------------------
        BYTE   W96
// 002   ----------------------------------------
        BYTE           N48     Dn5   v116
        BYTE           N48     Dn4
        BYTE   W48
        BYTE           N06     Cs5
        BYTE           N06     Cs4
        BYTE   W06
        BYTE                   As4
        BYTE           N06     As3
        BYTE   W06
        BYTE                   An4
        BYTE           N06     An3
        BYTE   W06
        BYTE                   Gn4
        BYTE           N06     Gn3
        BYTE   W06
        BYTE           N24     As4
        BYTE           N24     As3
        BYTE   W24
// 003   ----------------------------------------
        BYTE           N60     Gn4
        BYTE           N60     Gn3
        BYTE   W60
        BYTE           N12     Fn4
        BYTE           N12     Fn3
        BYTE   W12
        BYTE                   Dn4
        BYTE           N12     Dn3
        BYTE   W12
        BYTE                   Cs4
        BYTE           N12     Cs3
        BYTE   W12
// 004   ----------------------------------------
OutIntoTheOpenSky_4_4:
        BYTE           N48     Dn4   v092
        BYTE           N48     Dn3
        BYTE   W48
        BYTE                   As4
        BYTE           N48     As3
        BYTE   W48
        BYTE   PEND
// 005   ----------------------------------------
OutIntoTheOpenSky_4_5:
        BYTE           N48     Gn4   v092
        BYTE           N48     Gn3
        BYTE   W48
        BYTE                   An4
        BYTE           N48     An3
        BYTE   W48
        BYTE   PEND
// 006   ----------------------------------------
OutIntoTheOpenSky_4_LOOP:
        BYTE           N48     Dn4   v092
        BYTE           N48     Dn3
        BYTE   W48
        BYTE                   As4
        BYTE           N48     As3
        BYTE   W48
// 007   ----------------------------------------
        BYTE   PATT
         POIN2  OutIntoTheOpenSky_4_5
// 008   ----------------------------------------
        BYTE           N48     Dn4   v070
        BYTE           N48     Dn3
        BYTE   W48
        BYTE                   As4
        BYTE           N48     As3
        BYTE   W48
// 009   ----------------------------------------
        BYTE                   Gn4
        BYTE           N48     Gn3
        BYTE   W48
        BYTE                   An4
        BYTE           N48     An3
        BYTE   W48
// 010   ----------------------------------------
        BYTE                   Dn4   v038
        BYTE           N48     Dn3
        BYTE   W48
        BYTE                   As4
        BYTE           N48     As3
        BYTE   W48
// 011   ----------------------------------------
        BYTE                   Gn4
        BYTE           N48     Gn3
        BYTE   W48
        BYTE                   An4
        BYTE           N48     An3
        BYTE   W48
// 012   ----------------------------------------
        BYTE   W96
// 013   ----------------------------------------
        BYTE   W96
// 014   ----------------------------------------
        BYTE   W96
// 015   ----------------------------------------
        BYTE   W96
// 016   ----------------------------------------
        BYTE   W96
// 017   ----------------------------------------
        BYTE   W96
// 018   ----------------------------------------
        BYTE   W96
// 019   ----------------------------------------
        BYTE   W96
// 020   ----------------------------------------
        BYTE                   Fn3   v092
        BYTE           N48     An2
        BYTE   W48
        BYTE                   Dn3
        BYTE           N48     Fn2
        BYTE   W48
// 021   ----------------------------------------
        BYTE                   Dn3
        BYTE           N48     Gn2
        BYTE   W48
        BYTE                   Cs3
        BYTE           N48     An2
        BYTE   W48
// 022   ----------------------------------------
        BYTE                   Dn3
        BYTE           N48     As2
        BYTE           N48     Fn2
        BYTE   W48
        BYTE                   Dn3
        BYTE           N48     As2
        BYTE           N48     Gn2
        BYTE   W48
// 023   ----------------------------------------
        BYTE                   Cs3
        BYTE           N48     An2
        BYTE           N48     En2
        BYTE   W48
        BYTE                   Dn3
        BYTE           N48     An2
        BYTE           N48     Fn2
        BYTE   W48
// 024   ----------------------------------------
        BYTE   PATT
         POIN2  OutIntoTheOpenSky_4_4
// 025   ----------------------------------------
        BYTE           N48     Gn4   v092
        BYTE           N48     Gn3
        BYTE   W48
        BYTE                   An4
        BYTE           N48     An3
        BYTE   W44
        BYTE   W03
        BYTE                   Dn4
        BYTE           N48     Dn3
        BYTE   W01
// 026   ----------------------------------------
        BYTE   W44
        BYTE   W03
        BYTE                   As4
        BYTE           N48     As3
        BYTE   W48
        BYTE                   Gn4
        BYTE           N48     Gn3
        BYTE   W01
// 027   ----------------------------------------
        BYTE   W44
        BYTE   W03
        BYTE                   An4
        BYTE           N48     An3
        BYTE   W48
        BYTE   W01
// 028   ----------------------------------------
        BYTE                   Dn5
        BYTE           N48     Dn4
        BYTE   W48
        BYTE           N06     Cs5
        BYTE           N06     Cs4
        BYTE   W06
        BYTE                   As4
        BYTE           N06     As3
        BYTE   W06
        BYTE                   An4
        BYTE           N06     An3
        BYTE   W06
        BYTE                   Gn4
        BYTE           N06     Gn3
        BYTE   W06
        BYTE           N24     As4
        BYTE           N24     As3
        BYTE   W24
// 029   ----------------------------------------
        BYTE           N60     Gn4
        BYTE           N60     Gn3
        BYTE   W60
        BYTE           N12     Fn4
        BYTE           N12     Fn3
        BYTE   W12
        BYTE                   Dn4
        BYTE           N12     Dn3
        BYTE   W12
        BYTE                   Cs4
        BYTE           N12     Cs3
        BYTE   W12
// 030   ----------------------------------------
        BYTE                   Dn4
        BYTE           N12     Dn3
        BYTE   W12
        BYTE                   Cs4
        BYTE           N12     Cs3
        BYTE   W12
        BYTE                   Dn4
        BYTE           N12     Dn3
        BYTE   W12
        BYTE                   Cs4
        BYTE           N12     Cs3
        BYTE   W12
        BYTE           N06     Gn4
        BYTE           N06     Gn3
        BYTE   W06
        BYTE                   An4
        BYTE           N06     An3
        BYTE   W06
        BYTE           N24     As4
        BYTE           N24     As3
        BYTE   W24
        BYTE           N06     As4
        BYTE           N06     As3
        BYTE   W06
        BYTE                   Cs5
        BYTE           N06     Cs4
        BYTE   W06
// 031   ----------------------------------------
        BYTE           N48     Dn5
        BYTE           N48     Dn4
        BYTE   W48
        BYTE           N06     Cs5
        BYTE           N06     Cs4
        BYTE   W06
        BYTE                   As4
        BYTE           N06     As3
        BYTE   W06
        BYTE                   An4
        BYTE           N06     An3
        BYTE   W06
        BYTE                   Gn4
        BYTE           N06     Gn3
        BYTE   W06
        BYTE           N24     An4
        BYTE           N24     An3
        BYTE   W24
// 032   ----------------------------------------
        BYTE   GoTo
         POIN2  OutIntoTheOpenSky_4_LOOP
        BYTE   W96
// 033   ----------------------------------------
        BYTE   W96
// 034   ----------------------------------------
        BYTE   W96
// 035   ----------------------------------------
        BYTE   FINE

//****************** Track 5 (Midi-Chn.5) ******************//

OutIntoTheOpenSky_5:
        BYTE   KEYSH   OutIntoTheOpenSky_key+0
// 000   ----------------------------------------
        BYTE           VOICE   6
        BYTE           VOL     44
        BYTE           PAN     c_v+31
        BYTE   W96
// 001   ----------------------------------------
        BYTE   W96
// 002   ----------------------------------------
        BYTE   W96
// 003   ----------------------------------------
        BYTE   W96
// 004   ----------------------------------------
OutIntoTheOpenSky_5_4:
        BYTE           N12     Dn3   v100
        BYTE   W12
        BYTE                   Fn3
        BYTE           N12     Dn3
        BYTE           N12     An2
        BYTE   W12
        BYTE                   An2
        BYTE   W12
        BYTE                   Fn3
        BYTE           N12     Dn3
        BYTE           N12     An2
        BYTE   W12
        BYTE                   As2
        BYTE   W12
        BYTE                   Fn3
        BYTE           N12     Dn3
        BYTE           N12     As2
        BYTE   W12
        BYTE                   Fn2
        BYTE   W12
        BYTE                   Fn3
        BYTE           N12     Dn3
        BYTE           N12     As2
        BYTE   W12
        BYTE   PEND
// 005   ----------------------------------------
OutIntoTheOpenSky_5_5:
        BYTE           N12     Gn2   v100
        BYTE   W12
        BYTE                   Gn3
        BYTE           N12     Dn3
        BYTE           N12     As2
        BYTE   W12
        BYTE                   As2
        BYTE   W12
        BYTE                   Gn3
        BYTE           N12     Dn3
        BYTE           N12     As2
        BYTE   W12
        BYTE                   An2
        BYTE   W12
        BYTE                   An3
        BYTE           N12     En3
        BYTE           N12     Cs3
        BYTE   W12
        BYTE                   Cs3
        BYTE   W12
        BYTE                   An3
        BYTE           N12     En3
        BYTE           N12     Cs3
        BYTE   W12
        BYTE   PEND
// 006   ----------------------------------------
OutIntoTheOpenSky_5_LOOP:
        BYTE           N12     Dn3   v100
        BYTE   W12
        BYTE                   Fn3
        BYTE           N12     Dn3
        BYTE           N12     An2
        BYTE   W12
        BYTE                   An2
        BYTE   W12
        BYTE                   Fn3
        BYTE           N12     Dn3
        BYTE           N12     An2
        BYTE   W12
        BYTE                   As2
        BYTE   W12
        BYTE                   Fn3
        BYTE           N12     Dn3
        BYTE           N12     As2
        BYTE   W12
        BYTE                   Fn2
        BYTE   W12
        BYTE                   Fn3
        BYTE           N12     Dn3
        BYTE           N12     As2
        BYTE   W12
// 007   ----------------------------------------
        BYTE   PATT
         POIN2  OutIntoTheOpenSky_5_5
// 008   ----------------------------------------
        BYTE           N12     Dn3   v070
        BYTE   W12
        BYTE                   Fn3
        BYTE           N12     Dn3
        BYTE           N12     An2
        BYTE   W12
        BYTE                   An2
        BYTE   W12
        BYTE                   Fn3
        BYTE           N12     Dn3
        BYTE           N12     An2
        BYTE   W12
        BYTE                   As2
        BYTE   W12
        BYTE                   Fn3
        BYTE           N12     Dn3
        BYTE           N12     As2
        BYTE   W12
        BYTE                   Fn2
        BYTE   W12
        BYTE                   Fn3
        BYTE           N12     Dn3
        BYTE           N12     As2
        BYTE   W12
// 009   ----------------------------------------
        BYTE                   Gn2
        BYTE   W12
        BYTE                   Gn3
        BYTE           N12     Dn3
        BYTE           N12     As2
        BYTE   W12
        BYTE                   As2
        BYTE   W12
        BYTE                   Gn3
        BYTE           N12     Dn3
        BYTE           N12     As2
        BYTE   W12
        BYTE                   An2
        BYTE   W12
        BYTE                   An3
        BYTE           N12     En3
        BYTE           N12     Cs3
        BYTE   W12
        BYTE                   Cs3
        BYTE   W12
        BYTE                   An3
        BYTE           N12     En3
        BYTE           N12     Cs3
        BYTE   W12
// 010   ----------------------------------------
        BYTE                   Dn3   v038
        BYTE   W12
        BYTE                   Fn3
        BYTE           N12     Dn3
        BYTE           N12     An2
        BYTE   W12
        BYTE                   An2
        BYTE   W12
        BYTE                   Fn3
        BYTE           N12     Dn3
        BYTE           N12     An2
        BYTE   W12
        BYTE                   As2
        BYTE   W12
        BYTE                   Fn3
        BYTE           N12     Dn3
        BYTE           N12     As2
        BYTE   W12
        BYTE                   Fn2
        BYTE   W12
        BYTE                   Fn3
        BYTE           N12     Dn3
        BYTE           N12     As2
        BYTE   W12
// 011   ----------------------------------------
        BYTE                   Gn2
        BYTE   W12
        BYTE                   Gn3
        BYTE           N12     Dn3
        BYTE           N12     As2
        BYTE   W12
        BYTE                   As2
        BYTE   W12
        BYTE                   Gn3
        BYTE           N12     Dn3
        BYTE           N12     As2
        BYTE   W12
        BYTE                   An2
        BYTE   W12
        BYTE                   An3
        BYTE           N12     En3
        BYTE           N12     Cs3
        BYTE   W12
        BYTE                   Cs3
        BYTE   W12
        BYTE                   An3
        BYTE           N12     En3
        BYTE           N12     Cs3
        BYTE   W12
// 012   ----------------------------------------
        BYTE   W96
// 013   ----------------------------------------
        BYTE   W96
// 014   ----------------------------------------
        BYTE   W96
// 015   ----------------------------------------
        BYTE   W96
// 016   ----------------------------------------
        BYTE   W96
// 017   ----------------------------------------
        BYTE   W96
// 018   ----------------------------------------
        BYTE   W96
// 019   ----------------------------------------
        BYTE   W96
// 020   ----------------------------------------
        BYTE           N48     Fn3   v100
        BYTE   W48
        BYTE                   Dn3
        BYTE   W48
// 021   ----------------------------------------
        BYTE                   Dn3
        BYTE   W48
        BYTE                   Cs3
        BYTE   W48
// 022   ----------------------------------------
        BYTE                   Dn3
        BYTE   W48
        BYTE                   Dn3
        BYTE   W48
// 023   ----------------------------------------
        BYTE                   Cs3
        BYTE   W48
        BYTE                   Dn3
        BYTE   W48
// 024   ----------------------------------------
        BYTE   PATT
         POIN2  OutIntoTheOpenSky_5_4
// 025   ----------------------------------------
        BYTE   PATT
         POIN2  OutIntoTheOpenSky_5_5
// 026   ----------------------------------------
        BYTE   PATT
         POIN2  OutIntoTheOpenSky_5_4
// 027   ----------------------------------------
        BYTE   PATT
         POIN2  OutIntoTheOpenSky_5_5
// 028   ----------------------------------------
        BYTE   PATT
         POIN2  OutIntoTheOpenSky_5_4
// 029   ----------------------------------------
        BYTE   PATT
         POIN2  OutIntoTheOpenSky_5_5
// 030   ----------------------------------------
        BYTE   PATT
         POIN2  OutIntoTheOpenSky_5_4
// 031   ----------------------------------------
        BYTE   PATT
         POIN2  OutIntoTheOpenSky_5_5
// 032   ----------------------------------------
        BYTE   GoTo
         POIN2  OutIntoTheOpenSky_5_LOOP
        BYTE   W96
// 033   ----------------------------------------
        BYTE   W96
// 034   ----------------------------------------
        BYTE   W96
// 035   ----------------------------------------
        BYTE   FINE

//****************** Track 6 (Midi-Chn.6) ******************//

OutIntoTheOpenSky_6:
        BYTE   KEYSH   OutIntoTheOpenSky_key+0
// 000   ----------------------------------------
        BYTE           VOICE   124
        BYTE           VOL     56
        BYTE   W96
// 001   ----------------------------------------
        BYTE   W96
// 002   ----------------------------------------
        BYTE           N24     As1   v108
        BYTE   W24
        BYTE                   Fs1
        BYTE   W24
        BYTE                   As1
        BYTE   W24
        BYTE                   Fs1
        BYTE   W24
// 003   ----------------------------------------
        BYTE                   As1
        BYTE   W24
        BYTE                   Fs1
        BYTE   W24
        BYTE                   Cn1
        BYTE   W24
        BYTE           N06     Gn1
        BYTE   W06
        BYTE                   Gn1
        BYTE   W06
        BYTE                   Cs1
        BYTE   W06
        BYTE                   Cn1
        BYTE   W06
// 004   ----------------------------------------
OutIntoTheOpenSky_6_4:
        BYTE           N12     Cn1   v108
        BYTE   W12
        BYTE                   As1
        BYTE   W12
        BYTE                   Fs1
        BYTE           N12     Cn1
        BYTE   W12
        BYTE                   Dn1
        BYTE   W12
        BYTE                   Cn1
        BYTE   W12
        BYTE                   As1
        BYTE   W12
        BYTE                   Fs1
        BYTE           N12     Cn1
        BYTE   W12
        BYTE                   Dn1
        BYTE   W12
        BYTE   PEND
// 005   ----------------------------------------
        BYTE   PATT
         POIN2  OutIntoTheOpenSky_6_4
// 006   ----------------------------------------
OutIntoTheOpenSky_6_LOOP:
        BYTE           N12     Cn1   v108
        BYTE   W12
        BYTE                   As1
        BYTE   W12
        BYTE                   Fs1
        BYTE           N12     Cn1
        BYTE   W12
        BYTE                   Dn1
        BYTE   W12
        BYTE                   Cn1
        BYTE   W12
        BYTE                   As1
        BYTE   W12
        BYTE                   Fs1
        BYTE           N12     Cn1
        BYTE   W12
        BYTE                   Dn1
        BYTE   W12
// 007   ----------------------------------------
        BYTE   PATT
         POIN2  OutIntoTheOpenSky_6_4
// 008   ----------------------------------------
OutIntoTheOpenSky_6_8:
        BYTE           N36     As1   v108
        BYTE           N24     Cn1
        BYTE   W12
        BYTE                   Dn1
        BYTE   W12
        BYTE           N06     Fs1
        BYTE           N06     Cn1
        BYTE   W06
        BYTE                   Cn1
        BYTE   W06
        BYTE           N12     Dn1
        BYTE   W12
        BYTE           N36     As1
        BYTE           N24     Cn1
        BYTE   W12
        BYTE                   Dn1
        BYTE   W12
        BYTE           N06     Fs1
        BYTE           N06     Cn1
        BYTE   W06
        BYTE                   Cn1
        BYTE   W06
        BYTE           N12     Dn1
        BYTE   W12
        BYTE   PEND
// 009   ----------------------------------------
        BYTE   PATT
         POIN2  OutIntoTheOpenSky_6_8
// 010   ----------------------------------------
        BYTE   PATT
         POIN2  OutIntoTheOpenSky_6_8
// 011   ----------------------------------------
        BYTE   PATT
         POIN2  OutIntoTheOpenSky_6_8
// 012   ----------------------------------------
        BYTE   PATT
         POIN2  OutIntoTheOpenSky_6_8
// 013   ----------------------------------------
        BYTE   PATT
         POIN2  OutIntoTheOpenSky_6_8
// 014   ----------------------------------------
        BYTE   PATT
         POIN2  OutIntoTheOpenSky_6_8
// 015   ----------------------------------------
        BYTE   PATT
         POIN2  OutIntoTheOpenSky_6_8
// 016   ----------------------------------------
        BYTE   PATT
         POIN2  OutIntoTheOpenSky_6_8
// 017   ----------------------------------------
        BYTE   PATT
         POIN2  OutIntoTheOpenSky_6_8
// 018   ----------------------------------------
        BYTE   PATT
         POIN2  OutIntoTheOpenSky_6_8
// 019   ----------------------------------------
        BYTE   PATT
         POIN2  OutIntoTheOpenSky_6_8
// 020   ----------------------------------------
        BYTE   W96
// 021   ----------------------------------------
        BYTE   W96
// 022   ----------------------------------------
        BYTE   W96
// 023   ----------------------------------------
        BYTE   W48
        BYTE           N06     Cn1   v108
        BYTE   W12
        BYTE                   Cn1
        BYTE   W12
        BYTE                   Cn1
        BYTE   W06
        BYTE                   Cn1
        BYTE   W06
        BYTE                   Dn1
        BYTE   W06
        BYTE                   Cn1
        BYTE   W06
// 024   ----------------------------------------
        BYTE   PATT
         POIN2  OutIntoTheOpenSky_6_8
// 025   ----------------------------------------
        BYTE   PATT
         POIN2  OutIntoTheOpenSky_6_8
// 026   ----------------------------------------
        BYTE   PATT
         POIN2  OutIntoTheOpenSky_6_8
// 027   ----------------------------------------
        BYTE   PATT
         POIN2  OutIntoTheOpenSky_6_8
// 028   ----------------------------------------
        BYTE   PATT
         POIN2  OutIntoTheOpenSky_6_8
// 029   ----------------------------------------
        BYTE   PATT
         POIN2  OutIntoTheOpenSky_6_8
// 030   ----------------------------------------
        BYTE   PATT
         POIN2  OutIntoTheOpenSky_6_8
// 031   ----------------------------------------
        BYTE   PATT
         POIN2  OutIntoTheOpenSky_6_8
// 032   ----------------------------------------
        BYTE   GoTo
         POIN2  OutIntoTheOpenSky_6_LOOP
        BYTE   W96
// 033   ----------------------------------------
        BYTE   W96
// 034   ----------------------------------------
        BYTE   W96
// 035   ----------------------------------------
        BYTE   FINE

//****************** Track 7 (Midi-Chn.7) ******************//

OutIntoTheOpenSky_7:
        BYTE   KEYSH   OutIntoTheOpenSky_key+0
// 000   ----------------------------------------
        BYTE           VOICE   103
        BYTE           VOL     59
        BYTE           PAN     c_v+20
        BYTE   W96
// 001   ----------------------------------------
        BYTE   W96
// 002   ----------------------------------------
        BYTE   W96
// 003   ----------------------------------------
        BYTE   W96
// 004   ----------------------------------------
        BYTE   W96
// 005   ----------------------------------------
        BYTE   W96
// 006   ----------------------------------------
OutIntoTheOpenSky_7_LOOP:
        BYTE   W96
// 007   ----------------------------------------
        BYTE   W96
// 008   ----------------------------------------
OutIntoTheOpenSky_7_8:
        BYTE           N06     Dn4   v102
        BYTE   W06
        BYTE                   En4
        BYTE   W06
        BYTE           N12     Fn4
        BYTE   W12
        BYTE                   As4
        BYTE   W12
        BYTE                   Dn4
        BYTE   W12
        BYTE           N06     Cs4
        BYTE   W06
        BYTE                   Dn4
        BYTE   W06
        BYTE           N12     En4
        BYTE   W12
        BYTE                   Cs4
        BYTE   W12
        BYTE                   An3
        BYTE   W12
        BYTE   PEND
// 009   ----------------------------------------
OutIntoTheOpenSky_7_9:
        BYTE           N06     Cs4   v102
        BYTE   W06
        BYTE                   Dn4
        BYTE   W06
        BYTE           N12     En4
        BYTE   W12
        BYTE                   Cs4
        BYTE   W12
        BYTE                   As4
        BYTE   W12
        BYTE           N06     An4
        BYTE   W06
        BYTE                   Gn4
        BYTE   W06
        BYTE                   Fn4
        BYTE   W06
        BYTE                   En4
        BYTE   W06
        BYTE                   Dn4
        BYTE   W06
        BYTE                   Cs4
        BYTE   W06
        BYTE                   Bn3
        BYTE   W06
        BYTE                   Cs4
        BYTE   W06
        BYTE   PEND
// 010   ----------------------------------------
OutIntoTheOpenSky_7_10:
        BYTE           N06     Dn4   v102
        BYTE   W06
        BYTE                   En4
        BYTE   W06
        BYTE           N12     Fn4
        BYTE   W12
        BYTE                   Dn4
        BYTE   W12
        BYTE                   As4
        BYTE   W12
        BYTE           N06     En4
        BYTE   W06
        BYTE                   Dn4
        BYTE   W06
        BYTE           N12     Cs4
        BYTE   W12
        BYTE                   An3
        BYTE   W12
        BYTE                   Cs4
        BYTE   W12
        BYTE   PEND
// 011   ----------------------------------------
        BYTE                   Dn4
        BYTE   W12
        BYTE                   An3
        BYTE   W12
        BYTE                   Dn4
        BYTE   W12
        BYTE                   An3
        BYTE   W12
        BYTE           N06     An4
        BYTE   W06
        BYTE                   Gn4
        BYTE   W06
        BYTE                   Fn4
        BYTE   W06
        BYTE                   En4
        BYTE   W06
        BYTE                   Fn4
        BYTE   W06
        BYTE                   En4
        BYTE   W06
        BYTE                   Dn4
        BYTE   W06
        BYTE                   Cs4
        BYTE   W06
// 012   ----------------------------------------
OutIntoTheOpenSky_7_12:
        BYTE           N72     Dn4   v102
        BYTE   W72
        BYTE           N12     Fn4
        BYTE   W12
        BYTE                   En4
        BYTE   W12
        BYTE   PEND
// 013   ----------------------------------------
OutIntoTheOpenSky_7_13:
        BYTE           N48     Dn4   v102
        BYTE   W48
        BYTE                   Cs4
        BYTE   W48
        BYTE   PEND
// 014   ----------------------------------------
        BYTE   PATT
         POIN2  OutIntoTheOpenSky_7_12
// 015   ----------------------------------------
OutIntoTheOpenSky_7_15:
        BYTE           N48     Dn4   v102
        BYTE   W48
        BYTE                   An4
        BYTE   W48
        BYTE   PEND
// 016   ----------------------------------------
        BYTE   PATT
         POIN2  OutIntoTheOpenSky_7_8
// 017   ----------------------------------------
        BYTE   PATT
         POIN2  OutIntoTheOpenSky_7_9
// 018   ----------------------------------------
        BYTE   PATT
         POIN2  OutIntoTheOpenSky_7_10
// 019   ----------------------------------------
        BYTE           N12     As4   v102
        BYTE   W12
        BYTE           N06     An4
        BYTE   W06
        BYTE                   Gn4
        BYTE   W06
        BYTE           N12     An4
        BYTE   W12
        BYTE           N06     Gn4
        BYTE   W06
        BYTE                   Fn4
        BYTE   W06
        BYTE                   Gn4
        BYTE   W06
        BYTE                   Fn4
        BYTE   W06
        BYTE                   En4
        BYTE   W06
        BYTE                   Dn4
        BYTE   W06
        BYTE           N12     Cs4
        BYTE   W12
        BYTE                   An3
        BYTE   W12
// 020   ----------------------------------------
        BYTE   W96
// 021   ----------------------------------------
        BYTE   W96
// 022   ----------------------------------------
        BYTE   W96
// 023   ----------------------------------------
        BYTE   W96
// 024   ----------------------------------------
        BYTE   PATT
         POIN2  OutIntoTheOpenSky_7_12
// 025   ----------------------------------------
        BYTE   PATT
         POIN2  OutIntoTheOpenSky_7_13
// 026   ----------------------------------------
        BYTE   PATT
         POIN2  OutIntoTheOpenSky_7_12
// 027   ----------------------------------------
        BYTE   PATT
         POIN2  OutIntoTheOpenSky_7_15
// 028   ----------------------------------------
        BYTE   PATT
         POIN2  OutIntoTheOpenSky_7_8
// 029   ----------------------------------------
        BYTE   PATT
         POIN2  OutIntoTheOpenSky_7_9
// 030   ----------------------------------------
        BYTE   PATT
         POIN2  OutIntoTheOpenSky_7_10
// 031   ----------------------------------------
        BYTE           N12     An4   v102
        BYTE   W12
        BYTE           N06     Gn4
        BYTE   W06
        BYTE                   En4
        BYTE   W06
        BYTE           N12     Dn4
        BYTE   W12
        BYTE           N06     Cs4
        BYTE   W06
        BYTE                   Bn3
        BYTE   W06
        BYTE           N12     An3
        BYTE   W12
        BYTE                   Cs4
        BYTE   W12
        BYTE           N24     An3
        BYTE           N24     Dn4
        BYTE           N24     Fn4
        BYTE   W24
// 032   ----------------------------------------
        BYTE   GoTo
         POIN2  OutIntoTheOpenSky_7_LOOP
        BYTE   W96
// 033   ----------------------------------------
        BYTE   W96
// 034   ----------------------------------------
        BYTE   W96
// 035   ----------------------------------------
        BYTE   FINE

//****************** Track 8 (Midi-Chn.8) ******************//

OutIntoTheOpenSky_8:
        BYTE   KEYSH   OutIntoTheOpenSky_key+0
// 000   ----------------------------------------
        BYTE           VOICE   21
        BYTE           VOL     38
        BYTE           PAN     c_v+24
        BYTE   W96
// 001   ----------------------------------------
        BYTE   W96
// 002   ----------------------------------------
        BYTE   W96
// 003   ----------------------------------------
        BYTE   W96
// 004   ----------------------------------------
        BYTE   W96
// 005   ----------------------------------------
        BYTE   W96
// 006   ----------------------------------------
OutIntoTheOpenSky_8_LOOP:
        BYTE           N24     Dn4   v104
        BYTE   W24
        BYTE                   An3
        BYTE   W24
        BYTE                   As3
        BYTE   W24
        BYTE                   Fn3
        BYTE   W24
// 007   ----------------------------------------
OutIntoTheOpenSky_8_7:
        BYTE           N24     Gn3   v104
        BYTE   W24
        BYTE                   As3
        BYTE   W24
        BYTE                   An3
        BYTE   W24
        BYTE                   Cs4
        BYTE   W24
        BYTE   PEND
// 008   ----------------------------------------
OutIntoTheOpenSky_8_8:
        BYTE           N24     Dn4   v104
        BYTE   W24
        BYTE                   An3
        BYTE   W24
        BYTE                   As3
        BYTE   W24
        BYTE                   Fn3
        BYTE   W24
        BYTE   PEND
// 009   ----------------------------------------
        BYTE   PATT
         POIN2  OutIntoTheOpenSky_8_7
// 010   ----------------------------------------
        BYTE   PATT
         POIN2  OutIntoTheOpenSky_8_8
// 011   ----------------------------------------
        BYTE   PATT
         POIN2  OutIntoTheOpenSky_8_7
// 012   ----------------------------------------
        BYTE   PATT
         POIN2  OutIntoTheOpenSky_8_8
// 013   ----------------------------------------
        BYTE   PATT
         POIN2  OutIntoTheOpenSky_8_7
// 014   ----------------------------------------
        BYTE   PATT
         POIN2  OutIntoTheOpenSky_8_8
// 015   ----------------------------------------
        BYTE   PATT
         POIN2  OutIntoTheOpenSky_8_7
// 016   ----------------------------------------
        BYTE   PATT
         POIN2  OutIntoTheOpenSky_8_8
// 017   ----------------------------------------
        BYTE   PATT
         POIN2  OutIntoTheOpenSky_8_7
// 018   ----------------------------------------
        BYTE   PATT
         POIN2  OutIntoTheOpenSky_8_8
// 019   ----------------------------------------
        BYTE   PATT
         POIN2  OutIntoTheOpenSky_8_7
// 020   ----------------------------------------
        BYTE   W96
// 021   ----------------------------------------
        BYTE   W96
// 022   ----------------------------------------
        BYTE   W96
// 023   ----------------------------------------
        BYTE   W96
// 024   ----------------------------------------
        BYTE   PATT
         POIN2  OutIntoTheOpenSky_8_8
// 025   ----------------------------------------
        BYTE   PATT
         POIN2  OutIntoTheOpenSky_8_7
// 026   ----------------------------------------
        BYTE   PATT
         POIN2  OutIntoTheOpenSky_8_8
// 027   ----------------------------------------
        BYTE           N24     Gn3   v104
        BYTE   W24
        BYTE                   As3
        BYTE   W24
        BYTE                   An3
        BYTE   W24
        BYTE                   Cs4
        BYTE   W23
        BYTE                   Dn4
        BYTE   W01
// 028   ----------------------------------------
        BYTE   W23
        BYTE                   An3
        BYTE   W24
        BYTE                   As3
        BYTE   W24
        BYTE                   Fn3
        BYTE   W24
        BYTE                   Gn3
        BYTE   W01
// 029   ----------------------------------------
        BYTE   W23
        BYTE                   As3
        BYTE   W24
        BYTE                   An3
        BYTE   W24
        BYTE                   Cs4
        BYTE   W24
        BYTE   W01
// 030   ----------------------------------------
        BYTE   PATT
         POIN2  OutIntoTheOpenSky_8_8
// 031   ----------------------------------------
        BYTE   PATT
         POIN2  OutIntoTheOpenSky_8_7
// 032   ----------------------------------------
        BYTE   GoTo
         POIN2  OutIntoTheOpenSky_8_LOOP
        BYTE   W96
// 033   ----------------------------------------
        BYTE   W96
// 034   ----------------------------------------
        BYTE   W96
// 035   ----------------------------------------
        BYTE   FINE


//********************** End of Song ***********************//

        ALIGN 4
OutIntoTheOpenSky:
        BYTE   9                       // Num Tracks
        BYTE   0                       // Unknown
        BYTE   OutIntoTheOpenSky_pri   // Priority
        BYTE   OutIntoTheOpenSky_rev   // Reverb

        POIN2   OutIntoTheOpenSky_grp  

        POIN2   OutIntoTheOpenSky_0
        POIN2   OutIntoTheOpenSky_1
        POIN2   OutIntoTheOpenSky_2
        POIN2   OutIntoTheOpenSky_3
        POIN2   OutIntoTheOpenSky_4
        POIN2   OutIntoTheOpenSky_5
        POIN2   OutIntoTheOpenSky_6
        POIN2   OutIntoTheOpenSky_7
        POIN2   OutIntoTheOpenSky_8

        
