//Event file generated from Sappy .s format.
        #include "MPlayDef.event"

        #define    CloudsYearning_grp  voicegroup000
        #define    CloudsYearning_pri  0
        #define    CloudsYearning_rev  0
        #define    CloudsYearning_key  0

        // .rodata
        // CloudsYearning
        ALIGN 4

//****************** Track 0 (Midi-Chn.0) ******************//

CloudsYearning_0:
        BYTE   KEYSH   CloudsYearning_key+0
// 000   ----------------------------------------
        BYTE   TEMPO   100/2
        BYTE           VOICE   24
        BYTE           VOL     45
        BYTE           PAN     c_v+5
        BYTE           N56     Fn2   v080   gtp3
        BYTE   W60
        BYTE           N11     Gs2
        BYTE   W12
        BYTE                   Gn2
        BYTE   W12
        BYTE                   Fn2
        BYTE   W12
// 001   ----------------------------------------
        BYTE           N23     Ds2
        BYTE   W24
        BYTE                   As2
        BYTE   W24
        BYTE                   Gs2
        BYTE   W24
        BYTE                   Gn2
        BYTE   W24
// 002   ----------------------------------------
        BYTE   TEMPO   110/2
CloudsYearning_0_LOOP:
        BYTE           N17     Fn2   v080
        BYTE   W18
        BYTE                   Gs2
        BYTE   W18
        BYTE           N23     Cn3
        BYTE   W24
        BYTE           N11     As2
        BYTE   W12
        BYTE                   Gs2
        BYTE   W12
        BYTE                   Gn2
        BYTE   W12
// 003   ----------------------------------------
CloudsYearning_0_3:
        BYTE           N17     Ds2   v080
        BYTE   W18
        BYTE                   Gn2
        BYTE   W18
        BYTE           N23     As2
        BYTE   W24
        BYTE           N11     Gs2
        BYTE   W12
        BYTE                   Gn2
        BYTE   W12
        BYTE                   Fn2
        BYTE   W12
        BYTE   PEND
// 004   ----------------------------------------
CloudsYearning_0_4:
        BYTE           N17     Cs2   v080
        BYTE   W18
        BYTE                   Fn2
        BYTE   W18
        BYTE           N23     Gs2
        BYTE   W24
        BYTE           N11     Gn2
        BYTE   W12
        BYTE                   Fn2
        BYTE   W12
        BYTE                   Cs2
        BYTE   W12
        BYTE   PEND
// 005   ----------------------------------------
CloudsYearning_0_5:
        BYTE           N17     Ds2   v080
        BYTE   W18
        BYTE                   Gn2
        BYTE   W18
        BYTE           N23     As2
        BYTE   W24
        BYTE           N11     Gs2
        BYTE   W12
        BYTE           N23     Gn2
        BYTE   W24
        BYTE   PEND
// 006   ----------------------------------------
        BYTE           N17     Fn2
        BYTE   W18
        BYTE                   Gs2
        BYTE   W18
        BYTE           N23     Cn3
        BYTE   W24
        BYTE           N11     As2
        BYTE   W12
        BYTE                   Gs2
        BYTE   W12
        BYTE                   Gn2
        BYTE   W12
// 007   ----------------------------------------
        BYTE   PATT
         POIN2  CloudsYearning_0_3
// 008   ----------------------------------------
        BYTE   PATT
         POIN2  CloudsYearning_0_4
// 009   ----------------------------------------
        BYTE   PATT
         POIN2  CloudsYearning_0_5
// 010   ----------------------------------------
        BYTE           N17     Cs3   v080
        BYTE   W18
        BYTE                   Gs2
        BYTE   W18
        BYTE           N23     Cn3
        BYTE   W24
        BYTE           N11     Cs3
        BYTE   W12
        BYTE                   Cn3
        BYTE   W12
        BYTE                   Cs3
        BYTE   W12
// 011   ----------------------------------------
        BYTE           N17     Ds3
        BYTE   W18
        BYTE                   Cs3
        BYTE   W18
        BYTE           N23     Cn3
        BYTE   W24
        BYTE           N11     Gs2
        BYTE   W12
        BYTE                   As2
        BYTE   W12
        BYTE                   Cn3
        BYTE   W12
// 012   ----------------------------------------
        BYTE           N17     As2
        BYTE   W18
        BYTE                   Gs2
        BYTE   W18
        BYTE           N23     Gn2
        BYTE   W24
        BYTE           N11     Gs2
        BYTE   W12
        BYTE                   Gn2
        BYTE   W12
        BYTE                   Fn2
        BYTE   W12
// 013   ----------------------------------------
        BYTE           N17     Ds2
        BYTE   W18
        BYTE                   Cs2
        BYTE   W18
        BYTE           N23     Cn2
        BYTE   W24
        BYTE           N11     Fn2
        BYTE   W12
        BYTE                   Gs2
        BYTE   W12
        BYTE                   Cs3
        BYTE   W12
// 014   ----------------------------------------
CloudsYearning_0_14:
        BYTE           N17     Cn3   v080
        BYTE   W18
        BYTE                   Cs3
        BYTE   W18
        BYTE           N23     Cn3
        BYTE   W24
        BYTE           N11     Ds3
        BYTE   W12
        BYTE                   Cs3
        BYTE   W12
        BYTE                   Cn3
        BYTE   W12
        BYTE   PEND
// 015   ----------------------------------------
        BYTE           N32     Gs2   v080   gtp3
        BYTE   W36
        BYTE           N56     Cn3   v080   gtp3
        BYTE   W60
// 016   ----------------------------------------
CloudsYearning_0_16:
        BYTE           N17     As2   v080
        BYTE   W18
        BYTE                   Gn2
        BYTE   W18
        BYTE           N23     As2
        BYTE   W24
        BYTE           N11     Ds3
        BYTE   W12
        BYTE                   Cs3
        BYTE   W12
        BYTE                   Cn3
        BYTE   W12
        BYTE   PEND
// 017   ----------------------------------------
        BYTE           N32     As2   v080   gtp3
        BYTE   W36
        BYTE           N56     Gn2   v080   gtp3
        BYTE   W60
// 018   ----------------------------------------
        BYTE   W96
// 019   ----------------------------------------
        BYTE   W96
// 020   ----------------------------------------
        BYTE   W96
// 021   ----------------------------------------
        BYTE   W96
// 022   ----------------------------------------
        BYTE   W96
// 023   ----------------------------------------
        BYTE   W96
// 024   ----------------------------------------
        BYTE   W96
// 025   ----------------------------------------
        BYTE   W96
// 026   ----------------------------------------
        BYTE           N32     Fn2   v080   gtp3
        BYTE                   Gs2
        BYTE           N32     Cn3   v080   gtp3
        BYTE   W36
        BYTE           N56     Gn2   v080   gtp3
        BYTE                   As2
        BYTE           N56     Cs3   v080   gtp3
        BYTE   W60
// 027   ----------------------------------------
        BYTE           N32     Ds2   v080   gtp3
        BYTE                   Gn2
        BYTE           N32     As2   v080   gtp3
        BYTE   W36
        BYTE           N56     Cn2   v080   gtp3
        BYTE                   Ds2
        BYTE           N56     Gn2   v080   gtp3
        BYTE   W60
// 028   ----------------------------------------
        BYTE   W96
// 029   ----------------------------------------
        BYTE   W96
// 030   ----------------------------------------
        BYTE   W96
// 031   ----------------------------------------
        BYTE   W96
// 032   ----------------------------------------
CloudsYearning_0_32:
        BYTE           N23     Fn2   v080
        BYTE   W24
        BYTE           N11     Gs2
        BYTE   W12
        BYTE           N32     Cn3   v080   gtp3
        BYTE   W36
        BYTE           N23     Cs3
        BYTE   W24
        BYTE   PEND
// 033   ----------------------------------------
        BYTE           N11
        BYTE   W12
        BYTE                   Cn3
        BYTE   W12
        BYTE                   As2
        BYTE   W12
        BYTE           N32     Cn3   v080   gtp3
        BYTE   W36
        BYTE           N23     Gn2
        BYTE   W24
// 034   ----------------------------------------
        BYTE   PATT
         POIN2  CloudsYearning_0_32
// 035   ----------------------------------------
        BYTE           N11     Cn3   v080
        BYTE   W12
        BYTE                   As2
        BYTE   W12
        BYTE                   Cn3
        BYTE   W12
        BYTE                   Cs3
        BYTE   W12
        BYTE                   Ds2
        BYTE   W12
        BYTE                   Fn2
        BYTE   W12
        BYTE                   Gs2
        BYTE   W12
        BYTE                   Gn2
        BYTE   W12
// 036   ----------------------------------------
        BYTE           N23     Fn2
        BYTE   W24
        BYTE           N11
        BYTE   W12
        BYTE                   Fn2
        BYTE   W12
        BYTE           N23
        BYTE   W24
        BYTE           N11
        BYTE   W12
        BYTE                   Fn2
        BYTE   W12
// 037   ----------------------------------------
        BYTE           N23
        BYTE   W24
        BYTE           N11
        BYTE   W12
        BYTE                   Fn2
        BYTE   W12
        BYTE                   Gs2
        BYTE   W12
        BYTE                   As2
        BYTE   W12
        BYTE                   Gn2
        BYTE   W12
        BYTE                   Gs2
        BYTE   W12
// 038   ----------------------------------------
        BYTE           N23     Ds2
        BYTE           N23     Gn2
        BYTE   W24
        BYTE                   Fn2
        BYTE   W24
        BYTE                   Ds2
        BYTE           N23     Gn2
        BYTE   W24
        BYTE           N11     Ds2
        BYTE   W12
        BYTE                   Ds2
        BYTE   W12
// 039   ----------------------------------------
        BYTE           N23
        BYTE           N23     Gn2
        BYTE   W24
        BYTE           N11     Ds2
        BYTE   W12
        BYTE                   Ds2
        BYTE   W12
        BYTE           N23     Fn2
        BYTE   W24
        BYTE                   Gn2
        BYTE   W24
// 040   ----------------------------------------
        BYTE                   Cs2
        BYTE           N23     Fn2
        BYTE   W24
        BYTE           N11
        BYTE   W12
        BYTE                   Fn2
        BYTE   W12
        BYTE           N23     Cs2
        BYTE           N23     Fn2
        BYTE   W24
        BYTE           N11
        BYTE   W12
        BYTE                   Fn2
        BYTE   W12
// 041   ----------------------------------------
        BYTE           N23     Cs2
        BYTE           N23     Fn2
        BYTE   W24
        BYTE           N11
        BYTE   W12
        BYTE                   Fn2
        BYTE   W12
        BYTE                   Gs2
        BYTE   W12
        BYTE                   As2
        BYTE   W12
        BYTE                   Gn2
        BYTE   W12
        BYTE                   Gs2
        BYTE   W12
// 042   ----------------------------------------
        BYTE           N23     Cn2
        BYTE           N23     Ds2
        BYTE   W24
        BYTE           N11
        BYTE   W12
        BYTE                   Ds2
        BYTE   W12
        BYTE           N23
        BYTE   W24
        BYTE           N11
        BYTE   W12
        BYTE                   Ds2
        BYTE   W12
// 043   ----------------------------------------
        BYTE           N23
        BYTE   W24
        BYTE                   Gs2
        BYTE   W24
        BYTE                   As2
        BYTE   W24
        BYTE                   Gs2
        BYTE   W24
// 044   ----------------------------------------
        BYTE   W96
// 045   ----------------------------------------
        BYTE   W96
// 046   ----------------------------------------
        BYTE   W96
// 047   ----------------------------------------
        BYTE   W96
// 048   ----------------------------------------
        BYTE   W96
// 049   ----------------------------------------
        BYTE   W96
// 050   ----------------------------------------
        BYTE   W96
// 051   ----------------------------------------
        BYTE   W96
// 052   ----------------------------------------
CloudsYearning_0_52:
        BYTE           N23     Cn3   v080
        BYTE   W24
        BYTE                   Gs2
        BYTE   W24
        BYTE                   Cn3
        BYTE   W24
        BYTE                   Gs2
        BYTE   W24
        BYTE   PEND
// 053   ----------------------------------------
CloudsYearning_0_53:
        BYTE           N11     Fn2   v080
        BYTE   W12
        BYTE                   Cn2
        BYTE   W12
        BYTE                   Fn2
        BYTE   W12
        BYTE                   Cn3
        BYTE   W12
        BYTE                   Gs2
        BYTE   W12
        BYTE                   Gn2
        BYTE   W12
        BYTE                   Fn2
        BYTE   W12
        BYTE                   Gn2
        BYTE   W12
        BYTE   PEND
// 054   ----------------------------------------
        BYTE   W96
// 055   ----------------------------------------
        BYTE   W96
// 056   ----------------------------------------
        BYTE   PATT
         POIN2  CloudsYearning_0_52
// 057   ----------------------------------------
        BYTE   PATT
         POIN2  CloudsYearning_0_53
// 058   ----------------------------------------
        BYTE   W96
// 059   ----------------------------------------
        BYTE   W96
// 060   ----------------------------------------
        BYTE           N23     Fn3   v108
        BYTE   W24
        BYTE           N11
        BYTE   W12
        BYTE                   Fn3
        BYTE   W12
        BYTE           N23
        BYTE   W24
        BYTE           N11     Cn3
        BYTE   W12
        BYTE                   Gs2
        BYTE   W12
// 061   ----------------------------------------
        BYTE           N23     Cs3
        BYTE   W24
        BYTE                   Cn3
        BYTE   W24
        BYTE                   As2
        BYTE   W24
        BYTE                   Cn3
        BYTE   W24
// 062   ----------------------------------------
        BYTE                   Cs3
        BYTE   W24
        BYTE           N11
        BYTE   W12
        BYTE                   Cs3
        BYTE   W12
        BYTE           N23
        BYTE   W24
        BYTE           N11     Cn3
        BYTE   W12
        BYTE                   As2
        BYTE   W12
// 063   ----------------------------------------
        BYTE           N23     Cn3
        BYTE   W24
        BYTE                   Gs2
        BYTE   W24
        BYTE                   As2
        BYTE   W24
        BYTE                   Gn2
        BYTE   W24
// 064   ----------------------------------------
        BYTE   GoTo
         POIN2  CloudsYearning_0_LOOP
        BYTE   FINE

//****************** Track 1 (Midi-Chn.1) ******************//

CloudsYearning_1:
        BYTE   KEYSH   CloudsYearning_key+0
// 000   ----------------------------------------
        BYTE           VOICE   3
        BYTE           VOL     40
        BYTE   W96
// 001   ----------------------------------------
        BYTE   W96
// 002   ----------------------------------------
CloudsYearning_1_LOOP:
        BYTE           N32     Fn3   v080   gtp3
        BYTE   W36
        BYTE           N56     Fn3   v080   gtp3
        BYTE                   Gs3
        BYTE   W60
// 003   ----------------------------------------
CloudsYearning_1_3:
        BYTE           N32     Gn3   v080   gtp3
        BYTE   W36
        BYTE           N56     Ds3   v080   gtp3
        BYTE                   Gn3
        BYTE   W60
        BYTE   PEND
// 004   ----------------------------------------
CloudsYearning_1_4:
        BYTE           N32     Fn3   v080   gtp3
        BYTE   W36
        BYTE           N56     Fn3   v080   gtp3
        BYTE                   Gs3
        BYTE   W60
        BYTE   PEND
// 005   ----------------------------------------
CloudsYearning_1_5:
        BYTE           N32     Gn3   v080   gtp3
        BYTE   W36
        BYTE           N56     Gn3   v080   gtp3
        BYTE                   As3
        BYTE   W60
        BYTE   PEND
// 006   ----------------------------------------
        BYTE   PATT
         POIN2  CloudsYearning_1_4
// 007   ----------------------------------------
        BYTE   PATT
         POIN2  CloudsYearning_1_3
// 008   ----------------------------------------
CloudsYearning_1_8:
        BYTE           N32     Gs3   v080   gtp3
        BYTE   W36
        BYTE           N56     Gs3   v080   gtp3
        BYTE                   Cn4
        BYTE   W60
        BYTE   PEND
// 009   ----------------------------------------
        BYTE   PATT
         POIN2  CloudsYearning_1_5
// 010   ----------------------------------------
CloudsYearning_1_10:
        BYTE           N32     As2   v080   gtp3
        BYTE   W36
        BYTE           N56     Gs2   v080   gtp3
        BYTE                   Cn3
        BYTE   W60
        BYTE   PEND
// 011   ----------------------------------------
CloudsYearning_1_11:
        BYTE           N32     Gn2   v080   gtp3
        BYTE   W36
        BYTE           N56     Gs2   v080   gtp3
        BYTE                   Cn3
        BYTE   W60
        BYTE   PEND
// 012   ----------------------------------------
CloudsYearning_1_12:
        BYTE           N32     Cs3   v080   gtp3
        BYTE   W36
        BYTE           N56     As2   v080   gtp3
        BYTE                   Cs3
        BYTE   W60
        BYTE   PEND
// 013   ----------------------------------------
        BYTE           N32     Cs3   v080   gtp3
        BYTE   W36
        BYTE           N56     Cn3   v080   gtp3
        BYTE                   Ds3
        BYTE   W60
// 014   ----------------------------------------
        BYTE   PATT
         POIN2  CloudsYearning_1_10
// 015   ----------------------------------------
        BYTE           N32     Fn2   v080   gtp3
        BYTE   W36
        BYTE           N56     Gs2   v080   gtp3
        BYTE                   Cn3
        BYTE   W60
// 016   ----------------------------------------
CloudsYearning_1_16:
        BYTE           N32     Cs3   v080   gtp3
        BYTE   W36
        BYTE           N56     Cs3   v080   gtp3
        BYTE                   Fn3
        BYTE   W60
        BYTE   PEND
// 017   ----------------------------------------
        BYTE   PATT
         POIN2  CloudsYearning_1_16
// 018   ----------------------------------------
CloudsYearning_1_18:
        BYTE           N32     Gs2   v080   gtp3
        BYTE   W36
        BYTE           N56     Gs2   v080   gtp3
        BYTE                   Cn3
        BYTE   W60
        BYTE   PEND
// 019   ----------------------------------------
        BYTE           N32     Gn2   v080   gtp3
        BYTE   W36
        BYTE           N56     Gn2   v080   gtp3
        BYTE                   As2
        BYTE   W60
// 020   ----------------------------------------
        BYTE           N32     Cn3   v080   gtp3
        BYTE   W36
        BYTE           N56     Cn3   v080   gtp3
        BYTE                   Ds3
        BYTE   W60
// 021   ----------------------------------------
        BYTE           N11     Gs2
        BYTE           N11     Cn3
        BYTE   W12
        BYTE                   Cn3
        BYTE   W12
        BYTE                   Cs3
        BYTE           N11     Fn3
        BYTE   W12
        BYTE                   Cn3
        BYTE   W12
        BYTE                   As2
        BYTE           N11     Cs3
        BYTE   W12
        BYTE                   Cn3
        BYTE   W12
        BYTE                   As2
        BYTE           N11     Cs3
        BYTE   W12
        BYTE                   Gs2
        BYTE   W12
// 022   ----------------------------------------
        BYTE   PATT
         POIN2  CloudsYearning_1_18
// 023   ----------------------------------------
        BYTE   PATT
         POIN2  CloudsYearning_1_11
// 024   ----------------------------------------
CloudsYearning_1_24:
        BYTE           N32     Fn3   v080   gtp3
        BYTE   W36
        BYTE           N56     Cs3   v080   gtp3
        BYTE                   Fn3
        BYTE   W60
        BYTE   PEND
// 025   ----------------------------------------
        BYTE   W96
// 026   ----------------------------------------
        BYTE   W96
// 027   ----------------------------------------
        BYTE   W96
// 028   ----------------------------------------
        BYTE   PATT
         POIN2  CloudsYearning_1_24
// 029   ----------------------------------------
        BYTE   PATT
         POIN2  CloudsYearning_1_8
// 030   ----------------------------------------
        BYTE   PATT
         POIN2  CloudsYearning_1_4
// 031   ----------------------------------------
CloudsYearning_1_31:
        BYTE           N32     Gs3   v080   gtp3
        BYTE   W36
        BYTE           N56     Fn3   v080   gtp3
        BYTE                   Gs3
        BYTE   W60
        BYTE   PEND
// 032   ----------------------------------------
        BYTE   PATT
         POIN2  CloudsYearning_1_4
// 033   ----------------------------------------
        BYTE           N32     As3   v080   gtp3
        BYTE   W36
        BYTE           N56     Gn3   v080   gtp3
        BYTE                   As3
        BYTE   W60
// 034   ----------------------------------------
        BYTE   PATT
         POIN2  CloudsYearning_1_4
// 035   ----------------------------------------
        BYTE           N32     Ds3   v080   gtp3
        BYTE   W36
        BYTE           N56     Cn3   v080   gtp3
        BYTE                   Ds3
        BYTE   W60
// 036   ----------------------------------------
        BYTE   PATT
         POIN2  CloudsYearning_1_8
// 037   ----------------------------------------
        BYTE   PATT
         POIN2  CloudsYearning_1_31
// 038   ----------------------------------------
        BYTE   PATT
         POIN2  CloudsYearning_1_5
// 039   ----------------------------------------
        BYTE   PATT
         POIN2  CloudsYearning_1_3
// 040   ----------------------------------------
        BYTE           N32     Gs3   v080   gtp3
        BYTE   W36
        BYTE           N56     As3   v080   gtp3
        BYTE                   Cs4
        BYTE   W60
// 041   ----------------------------------------
        BYTE   PATT
         POIN2  CloudsYearning_1_31
// 042   ----------------------------------------
        BYTE   PATT
         POIN2  CloudsYearning_1_5
// 043   ----------------------------------------
        BYTE           N32     Gn3   v080   gtp3
        BYTE   W36
        BYTE           N56     Cs3   v080   gtp3
        BYTE                   Fn3
        BYTE   W60
// 044   ----------------------------------------
CloudsYearning_1_44:
        BYTE           N23     Fn3   v080
        BYTE           N23     Gs3
        BYTE   W24
        BYTE                   Gs3
        BYTE   W24
        BYTE                   Cn4
        BYTE           N23     Ds4
        BYTE   W24
        BYTE                   Gs3
        BYTE   W24
        BYTE   PEND
// 045   ----------------------------------------
CloudsYearning_1_45:
        BYTE           N23     Cs3   v080
        BYTE           N23     Fn3
        BYTE   W24
        BYTE                   Gs3
        BYTE   W24
        BYTE                   Gs3
        BYTE           N23     Cn4
        BYTE   W24
        BYTE                   Gs3
        BYTE   W24
        BYTE   PEND
// 046   ----------------------------------------
        BYTE   PATT
         POIN2  CloudsYearning_1_44
// 047   ----------------------------------------
        BYTE   PATT
         POIN2  CloudsYearning_1_45
// 048   ----------------------------------------
        BYTE   W96
// 049   ----------------------------------------
        BYTE   W96
// 050   ----------------------------------------
        BYTE   W96
// 051   ----------------------------------------
        BYTE   W96
// 052   ----------------------------------------
        BYTE   PATT
         POIN2  CloudsYearning_1_44
// 053   ----------------------------------------
        BYTE   PATT
         POIN2  CloudsYearning_1_45
// 054   ----------------------------------------
        BYTE   PATT
         POIN2  CloudsYearning_1_44
// 055   ----------------------------------------
        BYTE   PATT
         POIN2  CloudsYearning_1_45
// 056   ----------------------------------------
        BYTE   W96
// 057   ----------------------------------------
        BYTE   W96
// 058   ----------------------------------------
        BYTE   W96
// 059   ----------------------------------------
        BYTE   W96
// 060   ----------------------------------------
        BYTE   PATT
         POIN2  CloudsYearning_1_16
// 061   ----------------------------------------
        BYTE           N32     As2   v080   gtp3
        BYTE   W36
        BYTE           N56     As2   v080   gtp3
        BYTE                   Cs3
        BYTE   W60
// 062   ----------------------------------------
        BYTE   PATT
         POIN2  CloudsYearning_1_12
// 063   ----------------------------------------
        BYTE   PATT
         POIN2  CloudsYearning_1_3
// 064   ----------------------------------------
        BYTE   GoTo
         POIN2  CloudsYearning_1_LOOP
        BYTE   FINE

//****************** Track 2 (Midi-Chn.2) ******************//

CloudsYearning_2:
        BYTE   KEYSH   CloudsYearning_key+0
// 000   ----------------------------------------
        BYTE           VOICE   69
        BYTE           VOL     50
        BYTE           PAN     c_v-15
        BYTE   W96
// 001   ----------------------------------------
        BYTE   W96
// 002   ----------------------------------------
CloudsYearning_2_LOOP:
        BYTE   W96
// 003   ----------------------------------------
        BYTE   W96
// 004   ----------------------------------------
        BYTE   W96
// 005   ----------------------------------------
        BYTE   W96
// 006   ----------------------------------------
        BYTE           N17     Cn3   v080
        BYTE   W18
        BYTE                   As2
        BYTE   W18
        BYTE           N56     Cn3   v080   gtp3
        BYTE   W60
// 007   ----------------------------------------
        BYTE           N17     As2
        BYTE   W18
        BYTE                   Gs2
        BYTE   W18
        BYTE           N56     Gn2   v080   gtp3
        BYTE   W60
// 008   ----------------------------------------
        BYTE           N17     Cs3
        BYTE   W18
        BYTE                   As2
        BYTE   W18
        BYTE           N56     Cn3   v080   gtp3
        BYTE   W60
// 009   ----------------------------------------
        BYTE           N17     Gs2
        BYTE   W18
        BYTE                   Gn2
        BYTE   W18
        BYTE           N56     Fn2   v080   gtp3
        BYTE   W60
// 010   ----------------------------------------
        BYTE   W96
// 011   ----------------------------------------
        BYTE   W96
// 012   ----------------------------------------
        BYTE   W96
// 013   ----------------------------------------
        BYTE   W96
// 014   ----------------------------------------
        BYTE   W96
// 015   ----------------------------------------
        BYTE   PATT
         POIN2  CloudsYearning_0_14
// 016   ----------------------------------------
        BYTE   W96
// 017   ----------------------------------------
        BYTE   PATT
         POIN2  CloudsYearning_0_16
// 018   ----------------------------------------
CloudsYearning_2_18:
        BYTE           N17     Fn2   v080
        BYTE   W18
        BYTE                   Gs2
        BYTE   W18
        BYTE           N23     Cn3
        BYTE   W24
        BYTE           N11     Cs3
        BYTE   W12
        BYTE                   Cn3
        BYTE   W12
        BYTE                   As2
        BYTE   W12
        BYTE   PEND
// 019   ----------------------------------------
        BYTE           N92     Gn2   v080   gtp3
        BYTE   W96
// 020   ----------------------------------------
        BYTE   PATT
         POIN2  CloudsYearning_2_18
// 021   ----------------------------------------
        BYTE           N44     Gs2   v080   gtp3
        BYTE   W48
        BYTE                   Gn2
        BYTE   W48
// 022   ----------------------------------------
        BYTE           N17     Fn2
        BYTE   W18
        BYTE                   Gs2
        BYTE   W18
        BYTE           N23     Cn3
        BYTE   W24
        BYTE           N11     Fn3
        BYTE   W12
        BYTE                   Ds3
        BYTE   W12
        BYTE                   Cs3
        BYTE   W12
// 023   ----------------------------------------
        BYTE           N17     Cn3
        BYTE   W18
        BYTE                   Cs3
        BYTE   W18
        BYTE           N23     Cn3
        BYTE   W24
        BYTE           N11     Fn3
        BYTE   W12
        BYTE                   Fn3
        BYTE   W12
        BYTE                   Gn3
        BYTE   W12
// 024   ----------------------------------------
CloudsYearning_2_24:
        BYTE           N17     Gs3   v080
        BYTE   W18
        BYTE                   As3
        BYTE   W18
        BYTE                   Gs3
        BYTE   W18
        BYTE                   As3
        BYTE   W18
        BYTE           N23     Cn4
        BYTE   W24
        BYTE   PEND
// 025   ----------------------------------------
CloudsYearning_2_25:
        BYTE           N05     Gn3   v080
        BYTE   W06
        BYTE                   Gn3
        BYTE   W06
        BYTE                   Fn3
        BYTE   W06
        BYTE                   Fn3
        BYTE   W06
        BYTE                   Ds3
        BYTE   W06
        BYTE                   Ds3
        BYTE   W06
        BYTE                   Cs3
        BYTE   W06
        BYTE                   Cs3
        BYTE   W06
        BYTE           N11     Cn3
        BYTE   W12
        BYTE                   As2
        BYTE   W12
        BYTE                   Gs2
        BYTE   W12
        BYTE                   Gn2
        BYTE   W12
        BYTE   PEND
// 026   ----------------------------------------
        BYTE   W96
// 027   ----------------------------------------
        BYTE   W96
// 028   ----------------------------------------
        BYTE   W96
// 029   ----------------------------------------
        BYTE   W96
// 030   ----------------------------------------
        BYTE   W96
// 031   ----------------------------------------
        BYTE   W96
// 032   ----------------------------------------
        BYTE   W96
// 033   ----------------------------------------
        BYTE   W96
// 034   ----------------------------------------
        BYTE   W96
// 035   ----------------------------------------
        BYTE   W96
// 036   ----------------------------------------
        BYTE   W96
// 037   ----------------------------------------
        BYTE   W96
// 038   ----------------------------------------
        BYTE   W96
// 039   ----------------------------------------
        BYTE   W96
// 040   ----------------------------------------
CloudsYearning_2_40:
        BYTE           N23     Fn3   v080
        BYTE   W24
        BYTE           N11     Gs3
        BYTE   W12
        BYTE           N32     Fn3   v080   gtp3
        BYTE   W36
        BYTE           N23
        BYTE   W24
        BYTE   PEND
// 041   ----------------------------------------
        BYTE   W96
// 042   ----------------------------------------
CloudsYearning_2_42:
        BYTE           N23     Ds3   v080
        BYTE   W24
        BYTE           N11     Fn3
        BYTE   W12
        BYTE           N32     Ds3   v080   gtp3
        BYTE   W36
        BYTE           N23
        BYTE   W24
        BYTE   PEND
// 043   ----------------------------------------
        BYTE                   Cn2
        BYTE   W24
        BYTE                   Fn2
        BYTE   W24
        BYTE                   Gn2
        BYTE   W24
        BYTE                   Gs2
        BYTE   W24
// 044   ----------------------------------------
        BYTE           N11     Fn2
        BYTE   W12
        BYTE                   Gs2
        BYTE   W12
        BYTE                   Gn2
        BYTE   W12
        BYTE                   Gs2
        BYTE   W12
        BYTE                   As2
        BYTE   W12
        BYTE                   Gs2
        BYTE   W12
        BYTE                   Gn2
        BYTE   W12
        BYTE                   Gs2
        BYTE   W12
// 045   ----------------------------------------
        BYTE   W96
// 046   ----------------------------------------
        BYTE                   Ds2
        BYTE   W12
        BYTE                   Cs2
        BYTE   W12
        BYTE                   Ds2
        BYTE   W12
        BYTE                   Gs2
        BYTE   W12
        BYTE                   As2
        BYTE   W12
        BYTE                   Ds3
        BYTE   W12
        BYTE                   Cs3
        BYTE   W12
        BYTE                   Cn3
        BYTE   W12
// 047   ----------------------------------------
        BYTE   W96
// 048   ----------------------------------------
        BYTE   PATT
         POIN2  CloudsYearning_0_52
// 049   ----------------------------------------
        BYTE   PATT
         POIN2  CloudsYearning_0_53
// 050   ----------------------------------------
        BYTE   PATT
         POIN2  CloudsYearning_0_52
// 051   ----------------------------------------
        BYTE           N11     Fn2   v080
        BYTE   W12
        BYTE           N05     Cn2
        BYTE   W06
        BYTE                   Fn2
        BYTE   W06
        BYTE           N11     Cs3
        BYTE   W12
        BYTE           N05     Cn2
        BYTE   W06
        BYTE                   Ds3
        BYTE   W06
        BYTE           N44     Fn3   v080   gtp3
        BYTE   W48
// 052   ----------------------------------------
CloudsYearning_2_52:
        BYTE           N32     Cn3   v080   gtp3
        BYTE   W36
        BYTE           N56     Gs2   v080   gtp3
        BYTE   W60
        BYTE   PEND
// 053   ----------------------------------------
        BYTE   PATT
         POIN2  CloudsYearning_2_52
// 054   ----------------------------------------
        BYTE           N23     Fn2   v080
        BYTE   W24
        BYTE           N11     Cn2
        BYTE   W12
        BYTE           N32     Fn2   v080   gtp3
        BYTE   W36
        BYTE           N23     Cn3
        BYTE   W24
// 055   ----------------------------------------
        BYTE                   Gs2
        BYTE   W24
        BYTE                   Gn2
        BYTE   W24
        BYTE                   Fn2
        BYTE   W24
        BYTE                   Gn2
        BYTE   W24
// 056   ----------------------------------------
        BYTE   PATT
         POIN2  CloudsYearning_2_52
// 057   ----------------------------------------
        BYTE   PATT
         POIN2  CloudsYearning_2_52
// 058   ----------------------------------------
        BYTE           N23     Fn2   v080
        BYTE   W24
        BYTE           N11     Cn2
        BYTE   W12
        BYTE                   Fn2
        BYTE   W12
        BYTE           N23     Cs3
        BYTE   W24
        BYTE           N11     Cn2
        BYTE   W12
        BYTE                   Ds3
        BYTE   W12
// 059   ----------------------------------------
        BYTE           N44     Fn3   v080   gtp3
        BYTE   W48
        BYTE                   Gn3
        BYTE   W48
// 060   ----------------------------------------
        BYTE   W96
// 061   ----------------------------------------
        BYTE   W96
// 062   ----------------------------------------
        BYTE           N56     Fn2   v080   gtp3
        BYTE   W60
        BYTE           N11     Gs2
        BYTE   W12
        BYTE                   Gn2
        BYTE   W12
        BYTE                   Fn2
        BYTE   W12
// 063   ----------------------------------------
        BYTE   W96
// 064   ----------------------------------------
        BYTE   GoTo
         POIN2  CloudsYearning_2_LOOP
        BYTE   FINE

//****************** Track 3 (Midi-Chn.3) ******************//

CloudsYearning_3:
        BYTE   KEYSH   CloudsYearning_key+0
// 000   ----------------------------------------
        BYTE           VOICE   60
        BYTE           VOL     50
        BYTE           PAN     c_v+15
        BYTE   W96
// 001   ----------------------------------------
        BYTE   W96
// 002   ----------------------------------------
CloudsYearning_3_LOOP:
        BYTE   W96
// 003   ----------------------------------------
        BYTE   W96
// 004   ----------------------------------------
        BYTE   W96
// 005   ----------------------------------------
        BYTE   W96
// 006   ----------------------------------------
        BYTE   W96
// 007   ----------------------------------------
        BYTE   W96
// 008   ----------------------------------------
        BYTE   W96
// 009   ----------------------------------------
        BYTE   W96
// 010   ----------------------------------------
        BYTE   W96
// 011   ----------------------------------------
        BYTE   W96
// 012   ----------------------------------------
        BYTE   W96
// 013   ----------------------------------------
        BYTE   W96
// 014   ----------------------------------------
        BYTE   W96
// 015   ----------------------------------------
        BYTE   W96
// 016   ----------------------------------------
        BYTE   W96
// 017   ----------------------------------------
        BYTE   W96
// 018   ----------------------------------------
CloudsYearning_3_18:
        BYTE           N17     Fn3   v080
        BYTE   W18
        BYTE                   Gs3
        BYTE   W18
        BYTE           N23     Cn4
        BYTE   W24
        BYTE           N11     Cs4
        BYTE   W12
        BYTE                   Cn4
        BYTE   W12
        BYTE                   As3
        BYTE   W12
        BYTE   PEND
// 019   ----------------------------------------
        BYTE           N92     Gn3   v080   gtp3
        BYTE   W96
// 020   ----------------------------------------
        BYTE   PATT
         POIN2  CloudsYearning_3_18
// 021   ----------------------------------------
CloudsYearning_3_21:
        BYTE           N44     Gs3   v080   gtp3
        BYTE   W48
        BYTE                   Gn3
        BYTE   W48
        BYTE   PEND
// 022   ----------------------------------------
CloudsYearning_3_22:
        BYTE           N17     Fn3   v080
        BYTE   W18
        BYTE                   Gs3
        BYTE   W18
        BYTE           N23     Cn4
        BYTE   W24
        BYTE           N11     Fn4
        BYTE   W12
        BYTE                   Ds4
        BYTE   W12
        BYTE                   Cs4
        BYTE   W12
        BYTE   PEND
// 023   ----------------------------------------
CloudsYearning_3_23:
        BYTE           N17     Cn4   v080
        BYTE   W18
        BYTE                   Cs4
        BYTE   W18
        BYTE           N23     Cn4
        BYTE   W24
        BYTE           N11     Fn4
        BYTE   W12
        BYTE                   Fn4
        BYTE   W12
        BYTE                   Gn4
        BYTE   W12
        BYTE   PEND
// 024   ----------------------------------------
        BYTE   PATT
         POIN2  CloudsYearning_2_24
// 025   ----------------------------------------
        BYTE   W96
// 026   ----------------------------------------
        BYTE   W96
// 027   ----------------------------------------
        BYTE   W96
// 028   ----------------------------------------
CloudsYearning_3_28:
        BYTE           N23     Fn3   v080
        BYTE   W24
        BYTE           N11     Gs3
        BYTE   W12
        BYTE           N32     Cn4   v080   gtp3
        BYTE   W36
        BYTE           N23     Cs4
        BYTE   W24
        BYTE   PEND
// 029   ----------------------------------------
CloudsYearning_3_29:
        BYTE           N11     Cs4   v080
        BYTE   W12
        BYTE                   Cn4
        BYTE   W12
        BYTE                   As3
        BYTE   W12
        BYTE           N32     Cn4   v080   gtp3
        BYTE   W36
        BYTE           N23     Gn3
        BYTE   W24
        BYTE   PEND
// 030   ----------------------------------------
        BYTE   PATT
         POIN2  CloudsYearning_3_28
// 031   ----------------------------------------
        BYTE           N11     Cn4   v080
        BYTE   W12
        BYTE                   As3
        BYTE   W12
        BYTE                   Cn4
        BYTE   W12
        BYTE                   Cs4
        BYTE   W12
        BYTE                   Ds4
        BYTE   W12
        BYTE                   Cs4
        BYTE   W12
        BYTE                   Cn4
        BYTE   W12
        BYTE                   As3
        BYTE   W12
// 032   ----------------------------------------
        BYTE           N23     Cn4
        BYTE   W24
        BYTE           N11     Gs3
        BYTE   W12
        BYTE           N32     Fn3   v080   gtp3
        BYTE   W36
        BYTE           N11     Cs4
        BYTE   W12
        BYTE                   Ds4
        BYTE   W12
// 033   ----------------------------------------
        BYTE                   Fn4
        BYTE   W12
        BYTE                   Gn4
        BYTE   W12
        BYTE                   Fn4
        BYTE   W12
        BYTE           N32     Cn4   v080   gtp3
        BYTE   W36
        BYTE           N11     Cs4
        BYTE   W12
        BYTE                   Ds4
        BYTE   W12
// 034   ----------------------------------------
        BYTE                   Fn4
        BYTE   W12
        BYTE                   As3
        BYTE   W12
        BYTE                   Cn4
        BYTE   W12
        BYTE                   Cs4
        BYTE   W12
        BYTE                   Ds4
        BYTE   W12
        BYTE                   Cs4
        BYTE   W12
        BYTE           N23     Cn4
        BYTE   W24
// 035   ----------------------------------------
        BYTE           N11     Gn4
        BYTE   W12
        BYTE                   Gs4
        BYTE   W12
        BYTE                   Gn4
        BYTE   W12
        BYTE                   Fn4
        BYTE   W12
        BYTE           N44     Gn4   v080   gtp3
        BYTE   W48
// 036   ----------------------------------------
        BYTE   PATT
         POIN2  CloudsYearning_2_40
// 037   ----------------------------------------
        BYTE   W96
// 038   ----------------------------------------
        BYTE   PATT
         POIN2  CloudsYearning_2_42
// 039   ----------------------------------------
        BYTE   W96
// 040   ----------------------------------------
        BYTE   W96
// 041   ----------------------------------------
        BYTE   W96
// 042   ----------------------------------------
        BYTE   W96
// 043   ----------------------------------------
        BYTE           N23     Gn3   v080
        BYTE   W24
        BYTE                   Cn4
        BYTE   W24
        BYTE                   Cs4
        BYTE   W24
        BYTE                   Cn4
        BYTE   W24
// 044   ----------------------------------------
        BYTE   W96
// 045   ----------------------------------------
CloudsYearning_3_45:
        BYTE           N11     Fn3   v080
        BYTE   W12
        BYTE                   Gs3
        BYTE   W12
        BYTE                   Gn3
        BYTE   W12
        BYTE                   Gs3
        BYTE   W12
        BYTE                   As3
        BYTE   W12
        BYTE                   Gs3
        BYTE   W12
        BYTE                   Gn3
        BYTE   W12
        BYTE                   Gs3
        BYTE   W12
        BYTE   PEND
// 046   ----------------------------------------
        BYTE   W96
// 047   ----------------------------------------
CloudsYearning_3_47:
        BYTE           N11     Ds3   v080
        BYTE   W12
        BYTE                   Cs3
        BYTE   W12
        BYTE                   Ds3
        BYTE   W12
        BYTE                   Gs3
        BYTE   W12
        BYTE                   As3
        BYTE   W12
        BYTE                   Ds4
        BYTE   W12
        BYTE                   Cs4
        BYTE   W12
        BYTE                   Cn4
        BYTE   W12
        BYTE   PEND
// 048   ----------------------------------------
CloudsYearning_3_48:
        BYTE           N23     Ds4   v080
        BYTE   W24
        BYTE                   Cn4
        BYTE   W24
        BYTE                   Ds4
        BYTE   W24
        BYTE                   Cn4
        BYTE   W24
        BYTE   PEND
// 049   ----------------------------------------
        BYTE           N11     Gs3
        BYTE   W12
        BYTE                   Ds3
        BYTE   W12
        BYTE                   Gs3
        BYTE   W12
        BYTE                   Ds4
        BYTE   W12
        BYTE                   Cn4
        BYTE   W12
        BYTE                   As3
        BYTE   W12
        BYTE                   Gs3
        BYTE   W12
        BYTE                   As3
        BYTE   W12
// 050   ----------------------------------------
        BYTE   PATT
         POIN2  CloudsYearning_3_48
// 051   ----------------------------------------
        BYTE           N11     Gs3   v080
        BYTE   W12
        BYTE           N05     Ds3
        BYTE   W06
        BYTE                   Gs3
        BYTE   W06
        BYTE           N11     Fn4
        BYTE   W12
        BYTE           N05     Ds3
        BYTE   W06
        BYTE                   Gn4
        BYTE   W06
        BYTE           N44     Gs4   v080   gtp3
        BYTE   W48
// 052   ----------------------------------------
        BYTE   W96
// 053   ----------------------------------------
        BYTE   W96
// 054   ----------------------------------------
        BYTE   PATT
         POIN2  CloudsYearning_3_18
// 055   ----------------------------------------
        BYTE           N11     Gs3   v080
        BYTE   W12
        BYTE                   Gs3
        BYTE   W12
        BYTE           N23
        BYTE   W24
        BYTE           N11     Gn3
        BYTE   W12
        BYTE                   Gn3
        BYTE   W12
        BYTE           N23
        BYTE   W24
// 056   ----------------------------------------
        BYTE   W96
// 057   ----------------------------------------
        BYTE   W96
// 058   ----------------------------------------
        BYTE           N17     Fn3
        BYTE   W18
        BYTE                   Gs3
        BYTE   W18
        BYTE           N23     Cn4
        BYTE   W24
        BYTE           N11     As3
        BYTE   W12
        BYTE                   Gs3
        BYTE   W12
        BYTE                   Gn3
        BYTE   W12
// 059   ----------------------------------------
CloudsYearning_3_59:
        BYTE           N17     Ds3   v080
        BYTE   W18
        BYTE                   Gn3
        BYTE   W18
        BYTE           N23     As3
        BYTE   W24
        BYTE           N11     Gs3
        BYTE   W12
        BYTE           N23     Gn3
        BYTE   W24
        BYTE   PEND
// 060   ----------------------------------------
        BYTE   W96
// 061   ----------------------------------------
        BYTE   W96
// 062   ----------------------------------------
        BYTE   W96
// 063   ----------------------------------------
        BYTE                   Ds3
        BYTE   W24
        BYTE                   As3
        BYTE   W24
        BYTE                   Gn3
        BYTE   W24
        BYTE                   Ds3
        BYTE   W24
// 064   ----------------------------------------
        BYTE   GoTo
         POIN2  CloudsYearning_3_LOOP
        BYTE   FINE

//****************** Track 4 (Midi-Chn.4) ******************//

CloudsYearning_4:
        BYTE   KEYSH   CloudsYearning_key+0
// 000   ----------------------------------------
        BYTE           VOICE   33
        BYTE           VOL     40
        BYTE           N92     Fn1   v080   gtp3
        BYTE   W96
// 001   ----------------------------------------
        BYTE                   Ds1
        BYTE   W96
// 002   ----------------------------------------
CloudsYearning_4_LOOP:
        BYTE           N23     Fn1   v080
        BYTE   W24
        BYTE           N11
        BYTE   W12
        BYTE                   Fn1
        BYTE   W12
        BYTE           N23
        BYTE   W24
        BYTE           N11
        BYTE   W12
        BYTE                   Fn1
        BYTE   W12
// 003   ----------------------------------------
CloudsYearning_4_3:
        BYTE           N11     Gs1   v080
        BYTE   W12
        BYTE                   Fn1
        BYTE   W12
        BYTE                   Gs1
        BYTE   W12
        BYTE           N23     As1
        BYTE   W24
        BYTE           N11     Gs1
        BYTE   W12
        BYTE           N23     Fn1
        BYTE   W24
        BYTE   PEND
// 004   ----------------------------------------
CloudsYearning_4_4:
        BYTE           N23     Fn1   v080
        BYTE   W24
        BYTE           N11
        BYTE   W12
        BYTE                   Fn1
        BYTE   W12
        BYTE           N23
        BYTE   W24
        BYTE           N11
        BYTE   W12
        BYTE                   Fn1
        BYTE   W12
        BYTE   PEND
// 005   ----------------------------------------
CloudsYearning_4_5:
        BYTE           N11     Cn2   v080
        BYTE   W12
        BYTE                   As1
        BYTE   W12
        BYTE                   Gs1
        BYTE   W12
        BYTE           N23     As1
        BYTE   W24
        BYTE           N11     Gs1
        BYTE   W12
        BYTE           N23     Fn1
        BYTE   W24
        BYTE   PEND
// 006   ----------------------------------------
        BYTE   PATT
         POIN2  CloudsYearning_4_4
// 007   ----------------------------------------
        BYTE   PATT
         POIN2  CloudsYearning_4_3
// 008   ----------------------------------------
        BYTE   PATT
         POIN2  CloudsYearning_4_4
// 009   ----------------------------------------
        BYTE   PATT
         POIN2  CloudsYearning_4_5
// 010   ----------------------------------------
        BYTE   PATT
         POIN2  CloudsYearning_4_4
// 011   ----------------------------------------
        BYTE           N11     Ds1   v080
        BYTE   W12
        BYTE                   Gn1
        BYTE   W12
        BYTE                   Gs1
        BYTE   W12
        BYTE           N23     Gn1
        BYTE   W24
        BYTE           N11     Cn2
        BYTE   W12
        BYTE                   As1
        BYTE   W12
        BYTE                   Gs1
        BYTE   W12
// 012   ----------------------------------------
        BYTE           N23     Ds1
        BYTE   W24
        BYTE           N11
        BYTE   W12
        BYTE                   Ds1
        BYTE   W12
        BYTE           N23
        BYTE   W24
        BYTE           N11
        BYTE   W12
        BYTE                   Ds1
        BYTE   W12
// 013   ----------------------------------------
        BYTE                   Cn1
        BYTE   W12
        BYTE                   Ds1
        BYTE   W12
        BYTE                   Fn1
        BYTE   W12
        BYTE           N23     Gn1
        BYTE   W24
        BYTE           N11     Gs1
        BYTE   W12
        BYTE           N23     As1
        BYTE   W24
// 014   ----------------------------------------
        BYTE   PATT
         POIN2  CloudsYearning_4_4
// 015   ----------------------------------------
        BYTE   PATT
         POIN2  CloudsYearning_4_3
// 016   ----------------------------------------
        BYTE   PATT
         POIN2  CloudsYearning_4_4
// 017   ----------------------------------------
        BYTE           N11     Cs2   v080
        BYTE   W12
        BYTE                   As1
        BYTE   W12
        BYTE                   Gs1
        BYTE   W12
        BYTE           N23     As1
        BYTE   W24
        BYTE           N11     Gn1
        BYTE   W12
        BYTE           N23     Cs1
        BYTE   W24
// 018   ----------------------------------------
        BYTE           N92     Fn1   v080   gtp3
        BYTE   W96
// 019   ----------------------------------------
        BYTE                   Ds1
        BYTE   W96
// 020   ----------------------------------------
        BYTE                   Cs1
        BYTE   W96
// 021   ----------------------------------------
        BYTE                   Ds1
        BYTE   W96
// 022   ----------------------------------------
        BYTE                   Fn1
        BYTE   W96
// 023   ----------------------------------------
        BYTE                   Ds1
        BYTE   W96
// 024   ----------------------------------------
        BYTE                   Cs1
        BYTE   W96
// 025   ----------------------------------------
        BYTE                   Cn1
        BYTE   W96
// 026   ----------------------------------------
        BYTE           N32     Cn1   v080   gtp3
        BYTE   W36
        BYTE           N56     Cs1   v080   gtp3
        BYTE   W60
// 027   ----------------------------------------
        BYTE           N32     As0   v080   gtp3
        BYTE   W36
        BYTE           N56     Gn0   v080   gtp3
        BYTE   W60
// 028   ----------------------------------------
CloudsYearning_4_28:
        BYTE           N23     Fn1   v080
        BYTE   W24
        BYTE           N11     Gn1
        BYTE   W12
        BYTE           N32     Fn1   v080   gtp3
        BYTE   W36
        BYTE           N23
        BYTE   W24
        BYTE   PEND
// 029   ----------------------------------------
CloudsYearning_4_29:
        BYTE           N11     Gs1   v080
        BYTE   W12
        BYTE                   Gn1
        BYTE   W12
        BYTE                   Fn1
        BYTE   W12
        BYTE           N32     Ds1   v080   gtp3
        BYTE   W36
        BYTE           N23     Cn1
        BYTE   W24
        BYTE   PEND
// 030   ----------------------------------------
CloudsYearning_4_30:
        BYTE           N23     Ds1   v080
        BYTE   W24
        BYTE           N11     Gn1
        BYTE   W12
        BYTE           N32     Ds1   v080   gtp3
        BYTE   W36
        BYTE           N23     Gn1
        BYTE   W24
        BYTE   PEND
// 031   ----------------------------------------
CloudsYearning_4_31:
        BYTE           N11     As1   v080
        BYTE   W12
        BYTE                   As1
        BYTE   W12
        BYTE                   Gn1
        BYTE   W12
        BYTE           N32     Fn1   v080   gtp3
        BYTE   W36
        BYTE           N23     Cn1
        BYTE   W24
        BYTE   PEND
// 032   ----------------------------------------
        BYTE   PATT
         POIN2  CloudsYearning_4_28
// 033   ----------------------------------------
        BYTE   PATT
         POIN2  CloudsYearning_4_29
// 034   ----------------------------------------
        BYTE   PATT
         POIN2  CloudsYearning_4_30
// 035   ----------------------------------------
        BYTE   PATT
         POIN2  CloudsYearning_4_31
// 036   ----------------------------------------
        BYTE   PATT
         POIN2  CloudsYearning_4_28
// 037   ----------------------------------------
        BYTE   PATT
         POIN2  CloudsYearning_4_29
// 038   ----------------------------------------
        BYTE   PATT
         POIN2  CloudsYearning_4_30
// 039   ----------------------------------------
        BYTE   PATT
         POIN2  CloudsYearning_4_31
// 040   ----------------------------------------
        BYTE   PATT
         POIN2  CloudsYearning_4_28
// 041   ----------------------------------------
        BYTE   PATT
         POIN2  CloudsYearning_4_29
// 042   ----------------------------------------
        BYTE   PATT
         POIN2  CloudsYearning_4_30
// 043   ----------------------------------------
        BYTE   PATT
         POIN2  CloudsYearning_4_31
// 044   ----------------------------------------
        BYTE   PATT
         POIN2  CloudsYearning_4_28
// 045   ----------------------------------------
        BYTE   PATT
         POIN2  CloudsYearning_4_29
// 046   ----------------------------------------
        BYTE   PATT
         POIN2  CloudsYearning_4_30
// 047   ----------------------------------------
        BYTE   PATT
         POIN2  CloudsYearning_4_31
// 048   ----------------------------------------
        BYTE   PATT
         POIN2  CloudsYearning_4_28
// 049   ----------------------------------------
        BYTE   PATT
         POIN2  CloudsYearning_4_29
// 050   ----------------------------------------
        BYTE   PATT
         POIN2  CloudsYearning_4_30
// 051   ----------------------------------------
        BYTE   PATT
         POIN2  CloudsYearning_4_31
// 052   ----------------------------------------
        BYTE   PATT
         POIN2  CloudsYearning_4_28
// 053   ----------------------------------------
        BYTE   PATT
         POIN2  CloudsYearning_4_29
// 054   ----------------------------------------
        BYTE   PATT
         POIN2  CloudsYearning_4_30
// 055   ----------------------------------------
        BYTE   PATT
         POIN2  CloudsYearning_4_31
// 056   ----------------------------------------
        BYTE   PATT
         POIN2  CloudsYearning_4_28
// 057   ----------------------------------------
        BYTE   PATT
         POIN2  CloudsYearning_4_29
// 058   ----------------------------------------
        BYTE   PATT
         POIN2  CloudsYearning_4_30
// 059   ----------------------------------------
        BYTE   PATT
         POIN2  CloudsYearning_4_31
// 060   ----------------------------------------
        BYTE           N92     Gs1   v080   gtp3
        BYTE   W96
// 061   ----------------------------------------
        BYTE                   Gn1
        BYTE   W96
// 062   ----------------------------------------
        BYTE                   Fn1
        BYTE   W96
// 063   ----------------------------------------
        BYTE           N44     Gn1   v080   gtp3
        BYTE   W48
        BYTE           N11     Cs1
        BYTE   W12
        BYTE           N05     Fn1
        BYTE   W06
        BYTE                   Cs1
        BYTE   W06
        BYTE           N11     Cn1
        BYTE   W12
        BYTE           N05     Ds1
        BYTE   W06
        BYTE                   Cn1
        BYTE   W06
// 064   ----------------------------------------
        BYTE   GoTo
         POIN2  CloudsYearning_4_LOOP
        BYTE   FINE

//****************** Track 5 (Midi-Chn.5) ******************//

CloudsYearning_5:
        BYTE   KEYSH   CloudsYearning_key+0
// 000   ----------------------------------------
        BYTE           VOICE   124
        BYTE           VOL     50
        BYTE   W96
// 001   ----------------------------------------
CloudsYearning_5_1:
        BYTE           N11     En1   v080
        BYTE           N11     Dn2
        BYTE   W12
        BYTE           N05
        BYTE   W06
        BYTE                   Dn2
        BYTE   W06
        BYTE           N11     Dn1
        BYTE           N11     Cn2
        BYTE   W12
        BYTE           N05
        BYTE   W06
        BYTE                   Cn2
        BYTE   W06
        BYTE           N11     En1
        BYTE           N11     Bn1
        BYTE   W12
        BYTE           N05
        BYTE   W06
        BYTE                   Bn1
        BYTE   W06
        BYTE           N11     Dn1
        BYTE           N11     An1
        BYTE   W12
        BYTE           N05
        BYTE   W06
        BYTE                   An1
        BYTE   W06
        BYTE   PEND
// 002   ----------------------------------------
CloudsYearning_5_LOOP:
        BYTE           N11     Cn1   v080
        BYTE           N11     En1
        BYTE   W12
        BYTE           N05     Cn1
        BYTE   W06
        BYTE                   Cn1
        BYTE   W06
        BYTE           N11
        BYTE           N11     Dn1
        BYTE   W12
        BYTE           N05     Cn1
        BYTE   W06
        BYTE                   Cn1
        BYTE   W06
        BYTE                   Cn1
        BYTE   W06
        BYTE                   Cn1
        BYTE   W06
        BYTE           N11
        BYTE           N11     Fs1
        BYTE   W12
        BYTE                   Cn1
        BYTE           N11     Dn1
        BYTE   W12
        BYTE           N05     Cn1
        BYTE   W06
        BYTE                   Cn1
        BYTE   W06
// 003   ----------------------------------------
CloudsYearning_5_3:
        BYTE           N11     Cn1   v080
        BYTE           N11     En1
        BYTE   W12
        BYTE           N05     Cn1
        BYTE   W06
        BYTE                   Cn1
        BYTE   W06
        BYTE                   Cn1
        BYTE   W06
        BYTE                   Cn1
        BYTE   W06
        BYTE           N11
        BYTE           N11     Fs1
        BYTE   W12
        BYTE                   Cn1
        BYTE           N11     En1
        BYTE   W12
        BYTE           N05     Cn1
        BYTE   W06
        BYTE                   Cn1
        BYTE   W06
        BYTE           N11
        BYTE           N11     Dn1
        BYTE   W12
        BYTE           N05     Cn1
        BYTE   W06
        BYTE                   Cn1
        BYTE   W06
        BYTE   PEND
// 004   ----------------------------------------
CloudsYearning_5_4:
        BYTE           N11     Cn1   v080
        BYTE           N11     En1
        BYTE   W12
        BYTE           N05     Cn1
        BYTE   W06
        BYTE                   Cn1
        BYTE   W06
        BYTE                   Cn1
        BYTE   W06
        BYTE                   Cn1
        BYTE   W06
        BYTE           N11
        BYTE           N11     Fs1
        BYTE   W12
        BYTE           N05     Cn1
        BYTE   W06
        BYTE                   Cn1
        BYTE   W06
        BYTE           N11
        BYTE           N11     Fs1
        BYTE   W12
        BYTE                   Cn1
        BYTE           N11     Dn1
        BYTE   W12
        BYTE           N05     Cn1
        BYTE   W06
        BYTE                   Cn1
        BYTE   W06
        BYTE   PEND
// 005   ----------------------------------------
CloudsYearning_5_5:
        BYTE           N05     Cn1   v080
        BYTE   W06
        BYTE                   Cn1
        BYTE   W06
        BYTE           N11
        BYTE           N11     Fs1
        BYTE   W12
        BYTE           N05     Cn1
        BYTE   W06
        BYTE                   Cn1
        BYTE   W06
        BYTE           N11
        BYTE           N11     Fs1
        BYTE   W12
        BYTE                   Cn1
        BYTE           N11     En1
        BYTE   W12
        BYTE                   Cn1
        BYTE           N11     Dn1
        BYTE   W12
        BYTE           N23     Cn1
        BYTE           N23     An2
        BYTE   W24
        BYTE   PEND
// 006   ----------------------------------------
CloudsYearning_5_6:
        BYTE           N11     Cn1   v080
        BYTE           N11     En1
        BYTE   W12
        BYTE           N05     Cn1
        BYTE   W06
        BYTE                   Cn1
        BYTE   W06
        BYTE           N11
        BYTE           N11     Dn1
        BYTE   W12
        BYTE           N05     Cn1
        BYTE   W06
        BYTE                   Cn1
        BYTE   W06
        BYTE                   Cn1
        BYTE   W06
        BYTE                   Cn1
        BYTE   W06
        BYTE           N11
        BYTE           N11     Fs1
        BYTE   W12
        BYTE                   Cn1
        BYTE           N11     Dn1
        BYTE   W12
        BYTE           N05     Cn1
        BYTE   W06
        BYTE                   Cn1
        BYTE   W06
        BYTE   PEND
// 007   ----------------------------------------
        BYTE   PATT
         POIN2  CloudsYearning_5_3
// 008   ----------------------------------------
        BYTE   PATT
         POIN2  CloudsYearning_5_4
// 009   ----------------------------------------
        BYTE   PATT
         POIN2  CloudsYearning_5_5
// 010   ----------------------------------------
        BYTE   PATT
         POIN2  CloudsYearning_5_6
// 011   ----------------------------------------
        BYTE   PATT
         POIN2  CloudsYearning_5_3
// 012   ----------------------------------------
        BYTE   PATT
         POIN2  CloudsYearning_5_4
// 013   ----------------------------------------
        BYTE   PATT
         POIN2  CloudsYearning_5_5
// 014   ----------------------------------------
        BYTE   PATT
         POIN2  CloudsYearning_5_6
// 015   ----------------------------------------
        BYTE   PATT
         POIN2  CloudsYearning_5_3
// 016   ----------------------------------------
        BYTE   PATT
         POIN2  CloudsYearning_5_4
// 017   ----------------------------------------
        BYTE   PATT
         POIN2  CloudsYearning_5_5
// 018   ----------------------------------------
        BYTE   PATT
         POIN2  CloudsYearning_5_6
// 019   ----------------------------------------
        BYTE   PATT
         POIN2  CloudsYearning_5_3
// 020   ----------------------------------------
        BYTE   PATT
         POIN2  CloudsYearning_5_4
// 021   ----------------------------------------
        BYTE   PATT
         POIN2  CloudsYearning_5_5
// 022   ----------------------------------------
        BYTE   PATT
         POIN2  CloudsYearning_5_6
// 023   ----------------------------------------
        BYTE   PATT
         POIN2  CloudsYearning_5_3
// 024   ----------------------------------------
        BYTE   PATT
         POIN2  CloudsYearning_5_4
// 025   ----------------------------------------
        BYTE   PATT
         POIN2  CloudsYearning_5_1
// 026   ----------------------------------------
        BYTE   W48
        BYTE           N11     Cn1   v080
        BYTE           N11     En1
        BYTE   W12
        BYTE           N05     Cn1
        BYTE   W06
        BYTE                   Cn1
        BYTE   W06
        BYTE                   Cn1
        BYTE   W06
        BYTE                   Cn1
        BYTE   W06
        BYTE           N11
        BYTE           N11     Fs1
        BYTE   W12
// 027   ----------------------------------------
        BYTE   PATT
         POIN2  CloudsYearning_5_3
// 028   ----------------------------------------
CloudsYearning_5_28:
        BYTE           N23     En1   v080
        BYTE           N23     Cn1
        BYTE   W24
        BYTE           N11
        BYTE   W12
        BYTE           N32     Bn0   v080   gtp3
        BYTE   W36
        BYTE           N23     Cn1
        BYTE           N23     Dn1
        BYTE   W24
        BYTE   PEND
// 029   ----------------------------------------
CloudsYearning_5_29:
        BYTE           N11     Cn1   v080
        BYTE   W12
        BYTE                   En1
        BYTE           N11     Cn1
        BYTE   W12
        BYTE                   Cn1
        BYTE   W12
        BYTE           N32     Bn0   v080   gtp3
        BYTE   W36
        BYTE           N23     Dn1
        BYTE           N23     Cn1
        BYTE   W24
        BYTE   PEND
// 030   ----------------------------------------
CloudsYearning_5_30:
        BYTE           N23     Dn1   v080
        BYTE           N23     Cn1
        BYTE   W24
        BYTE           N32     En1   v080   gtp3
        BYTE                   Bn0
        BYTE   W36
        BYTE           N11
        BYTE   W12
        BYTE           N23     Cn1
        BYTE           N23     Dn1
        BYTE   W24
        BYTE   PEND
// 031   ----------------------------------------
CloudsYearning_5_31:
        BYTE           N11     Cn1   v080
        BYTE   W12
        BYTE                   En1
        BYTE           N11     Cn1
        BYTE   W12
        BYTE                   Cn1
        BYTE   W12
        BYTE           N32     Bn0   v080   gtp3
        BYTE   W36
        BYTE           N23     Fs1
        BYTE           N23     Cn1
        BYTE   W24
        BYTE   PEND
// 032   ----------------------------------------
        BYTE   PATT
         POIN2  CloudsYearning_5_28
// 033   ----------------------------------------
        BYTE   PATT
         POIN2  CloudsYearning_5_29
// 034   ----------------------------------------
        BYTE   PATT
         POIN2  CloudsYearning_5_30
// 035   ----------------------------------------
        BYTE   PATT
         POIN2  CloudsYearning_5_31
// 036   ----------------------------------------
        BYTE   PATT
         POIN2  CloudsYearning_5_28
// 037   ----------------------------------------
        BYTE   PATT
         POIN2  CloudsYearning_5_29
// 038   ----------------------------------------
        BYTE   PATT
         POIN2  CloudsYearning_5_30
// 039   ----------------------------------------
        BYTE   PATT
         POIN2  CloudsYearning_5_31
// 040   ----------------------------------------
        BYTE   PATT
         POIN2  CloudsYearning_5_28
// 041   ----------------------------------------
        BYTE   PATT
         POIN2  CloudsYearning_5_29
// 042   ----------------------------------------
        BYTE   PATT
         POIN2  CloudsYearning_5_30
// 043   ----------------------------------------
        BYTE   PATT
         POIN2  CloudsYearning_5_31
// 044   ----------------------------------------
        BYTE   PATT
         POIN2  CloudsYearning_5_28
// 045   ----------------------------------------
        BYTE   PATT
         POIN2  CloudsYearning_5_29
// 046   ----------------------------------------
        BYTE   PATT
         POIN2  CloudsYearning_5_30
// 047   ----------------------------------------
        BYTE   PATT
         POIN2  CloudsYearning_5_31
// 048   ----------------------------------------
        BYTE   PATT
         POIN2  CloudsYearning_5_28
// 049   ----------------------------------------
        BYTE   PATT
         POIN2  CloudsYearning_5_29
// 050   ----------------------------------------
        BYTE   PATT
         POIN2  CloudsYearning_5_30
// 051   ----------------------------------------
        BYTE           N11     En1   v080
        BYTE           N11     Dn2
        BYTE           N11     Cn1
        BYTE   W12
        BYTE           N05     Dn2
        BYTE           N11     Cn1
        BYTE   W06
        BYTE           N05     Dn2
        BYTE   W06
        BYTE           N11     Dn1
        BYTE           N11     Cn2
        BYTE           N11     Cn1
        BYTE   W12
        BYTE           N05     Cn2
        BYTE           N32     Bn0   v080   gtp3
        BYTE   W06
        BYTE           N05     Cn2
        BYTE   W06
        BYTE           N11     En1
        BYTE           N11     Bn1
        BYTE   W12
        BYTE           N05
        BYTE   W06
        BYTE                   Bn1
        BYTE   W06
        BYTE           N11     Dn1
        BYTE           N11     An1
        BYTE           N23     Cn1
        BYTE   W12
        BYTE           N05     An1
        BYTE   W06
        BYTE                   An1
        BYTE   W06
// 052   ----------------------------------------
        BYTE   PATT
         POIN2  CloudsYearning_5_28
// 053   ----------------------------------------
        BYTE   PATT
         POIN2  CloudsYearning_5_29
// 054   ----------------------------------------
        BYTE   PATT
         POIN2  CloudsYearning_5_30
// 055   ----------------------------------------
        BYTE   PATT
         POIN2  CloudsYearning_5_31
// 056   ----------------------------------------
        BYTE   PATT
         POIN2  CloudsYearning_5_28
// 057   ----------------------------------------
        BYTE   PATT
         POIN2  CloudsYearning_5_29
// 058   ----------------------------------------
        BYTE   PATT
         POIN2  CloudsYearning_5_30
// 059   ----------------------------------------
        BYTE   PATT
         POIN2  CloudsYearning_5_31
// 060   ----------------------------------------
        BYTE   W96
// 061   ----------------------------------------
        BYTE   W96
// 062   ----------------------------------------
        BYTE   W96
// 063   ----------------------------------------
        BYTE   PATT
         POIN2  CloudsYearning_5_1
// 064   ----------------------------------------
        BYTE   GoTo
         POIN2  CloudsYearning_5_LOOP
        BYTE   FINE

//****************** Track 6 (Midi-Chn.6) ******************//

CloudsYearning_6:
        BYTE   KEYSH   CloudsYearning_key+0
// 000   ----------------------------------------
        BYTE           VOICE   122
        BYTE           VOL     50
        BYTE   W96
// 001   ----------------------------------------
        BYTE   W96
// 002   ----------------------------------------
CloudsYearning_6_LOOP:
        BYTE           N17     Dn2   v080
        BYTE   W18
        BYTE                   Cn2
        BYTE   W18
        BYTE           N23     Bn1
        BYTE   W36
        BYTE           N11     Cs1
        BYTE   W24
// 003   ----------------------------------------
CloudsYearning_6_3:
        BYTE           N17     Cn2   v080
        BYTE   W18
        BYTE                   Bn1
        BYTE   W18
        BYTE           N23     An1
        BYTE   W36
        BYTE           N11     Cs1
        BYTE   W24
        BYTE   PEND
// 004   ----------------------------------------
CloudsYearning_6_4:
        BYTE           N17     Bn1   v080
        BYTE   W18
        BYTE                   An1
        BYTE   W18
        BYTE           N23     Fn1
        BYTE   W36
        BYTE           N11     Cs1
        BYTE   W24
        BYTE   PEND
// 005   ----------------------------------------
CloudsYearning_6_5:
        BYTE           N17     An1   v080
        BYTE   W18
        BYTE                   Bn1
        BYTE   W18
        BYTE           N23     Cn2
        BYTE   W36
        BYTE           N11     Cs1
        BYTE   W24
        BYTE   PEND
// 006   ----------------------------------------
CloudsYearning_6_6:
        BYTE           N17     Dn2   v080
        BYTE   W18
        BYTE                   Cn2
        BYTE   W18
        BYTE           N23     Bn1
        BYTE   W36
        BYTE           N11     Cs1
        BYTE   W24
        BYTE   PEND
// 007   ----------------------------------------
        BYTE   PATT
         POIN2  CloudsYearning_6_3
// 008   ----------------------------------------
        BYTE   PATT
         POIN2  CloudsYearning_6_4
// 009   ----------------------------------------
        BYTE   PATT
         POIN2  CloudsYearning_6_5
// 010   ----------------------------------------
        BYTE   PATT
         POIN2  CloudsYearning_6_6
// 011   ----------------------------------------
        BYTE   PATT
         POIN2  CloudsYearning_6_3
// 012   ----------------------------------------
        BYTE   PATT
         POIN2  CloudsYearning_6_4
// 013   ----------------------------------------
        BYTE   PATT
         POIN2  CloudsYearning_6_5
// 014   ----------------------------------------
        BYTE   PATT
         POIN2  CloudsYearning_6_6
// 015   ----------------------------------------
        BYTE   PATT
         POIN2  CloudsYearning_6_3
// 016   ----------------------------------------
        BYTE   PATT
         POIN2  CloudsYearning_6_4
// 017   ----------------------------------------
        BYTE   PATT
         POIN2  CloudsYearning_6_5
// 018   ----------------------------------------
        BYTE   PATT
         POIN2  CloudsYearning_6_6
// 019   ----------------------------------------
        BYTE   PATT
         POIN2  CloudsYearning_6_3
// 020   ----------------------------------------
        BYTE   PATT
         POIN2  CloudsYearning_6_4
// 021   ----------------------------------------
        BYTE   PATT
         POIN2  CloudsYearning_6_5
// 022   ----------------------------------------
        BYTE   PATT
         POIN2  CloudsYearning_6_6
// 023   ----------------------------------------
        BYTE   PATT
         POIN2  CloudsYearning_6_3
// 024   ----------------------------------------
        BYTE   PATT
         POIN2  CloudsYearning_6_4
// 025   ----------------------------------------
        BYTE   PATT
         POIN2  CloudsYearning_6_5
// 026   ----------------------------------------
        BYTE   W96
// 027   ----------------------------------------
        BYTE   W96
// 028   ----------------------------------------
        BYTE   PATT
         POIN2  CloudsYearning_6_6
// 029   ----------------------------------------
        BYTE   PATT
         POIN2  CloudsYearning_6_3
// 030   ----------------------------------------
        BYTE   PATT
         POIN2  CloudsYearning_6_4
// 031   ----------------------------------------
        BYTE   PATT
         POIN2  CloudsYearning_6_5
// 032   ----------------------------------------
        BYTE   PATT
         POIN2  CloudsYearning_6_6
// 033   ----------------------------------------
        BYTE   PATT
         POIN2  CloudsYearning_6_3
// 034   ----------------------------------------
        BYTE   PATT
         POIN2  CloudsYearning_6_4
// 035   ----------------------------------------
        BYTE   PATT
         POIN2  CloudsYearning_6_5
// 036   ----------------------------------------
        BYTE   PATT
         POIN2  CloudsYearning_6_6
// 037   ----------------------------------------
        BYTE   PATT
         POIN2  CloudsYearning_6_3
// 038   ----------------------------------------
        BYTE   PATT
         POIN2  CloudsYearning_6_4
// 039   ----------------------------------------
        BYTE   PATT
         POIN2  CloudsYearning_6_5
// 040   ----------------------------------------
        BYTE   PATT
         POIN2  CloudsYearning_6_6
// 041   ----------------------------------------
        BYTE   PATT
         POIN2  CloudsYearning_6_3
// 042   ----------------------------------------
        BYTE   PATT
         POIN2  CloudsYearning_6_4
// 043   ----------------------------------------
        BYTE   PATT
         POIN2  CloudsYearning_6_5
// 044   ----------------------------------------
        BYTE   PATT
         POIN2  CloudsYearning_6_6
// 045   ----------------------------------------
        BYTE   PATT
         POIN2  CloudsYearning_6_3
// 046   ----------------------------------------
        BYTE   PATT
         POIN2  CloudsYearning_6_4
// 047   ----------------------------------------
        BYTE   PATT
         POIN2  CloudsYearning_6_5
// 048   ----------------------------------------
        BYTE   PATT
         POIN2  CloudsYearning_6_6
// 049   ----------------------------------------
        BYTE   PATT
         POIN2  CloudsYearning_6_3
// 050   ----------------------------------------
        BYTE   PATT
         POIN2  CloudsYearning_6_4
// 051   ----------------------------------------
        BYTE   PATT
         POIN2  CloudsYearning_6_5
// 052   ----------------------------------------
        BYTE   PATT
         POIN2  CloudsYearning_6_6
// 053   ----------------------------------------
        BYTE   PATT
         POIN2  CloudsYearning_6_3
// 054   ----------------------------------------
        BYTE   PATT
         POIN2  CloudsYearning_6_4
// 055   ----------------------------------------
        BYTE   PATT
         POIN2  CloudsYearning_6_5
// 056   ----------------------------------------
        BYTE   PATT
         POIN2  CloudsYearning_6_6
// 057   ----------------------------------------
        BYTE   PATT
         POIN2  CloudsYearning_6_3
// 058   ----------------------------------------
        BYTE   PATT
         POIN2  CloudsYearning_6_4
// 059   ----------------------------------------
        BYTE   PATT
         POIN2  CloudsYearning_6_5
// 060   ----------------------------------------
        BYTE   PATT
         POIN2  CloudsYearning_6_6
// 061   ----------------------------------------
        BYTE   PATT
         POIN2  CloudsYearning_6_3
// 062   ----------------------------------------
        BYTE   PATT
         POIN2  CloudsYearning_6_4
// 063   ----------------------------------------
        BYTE   PATT
         POIN2  CloudsYearning_6_5
// 064   ----------------------------------------
        BYTE   GoTo
         POIN2  CloudsYearning_6_LOOP
        BYTE   FINE

//****************** Track 7 (Midi-Chn.7) ******************//

CloudsYearning_7:
        BYTE   KEYSH   CloudsYearning_key+0
// 000   ----------------------------------------
        BYTE           VOICE   100
        BYTE           VOL     60
        BYTE           PAN     c_v+35
        BYTE   W96
// 001   ----------------------------------------
        BYTE   PATT
         POIN2  CloudsYearning_2_25
// 002   ----------------------------------------
CloudsYearning_7_LOOP:
        BYTE   W36
        BYTE           N05     Cn3   v080
        BYTE   W06
        BYTE                   Cs3
        BYTE   W06
        BYTE                   Cn3
        BYTE   W48
// 003   ----------------------------------------
        BYTE   W96
// 004   ----------------------------------------
CloudsYearning_7_4:
        BYTE   W36
        BYTE           N05     Gs2   v080
        BYTE   W06
        BYTE                   As2
        BYTE   W06
        BYTE                   Gs2
        BYTE   W48
        BYTE   PEND
// 005   ----------------------------------------
        BYTE   W96
// 006   ----------------------------------------
CloudsYearning_7_6:
        BYTE   W36
        BYTE           N05     Cn3   v080
        BYTE   W06
        BYTE                   Cs3
        BYTE   W06
        BYTE                   Cn3
        BYTE   W48
        BYTE   PEND
// 007   ----------------------------------------
        BYTE   W96
// 008   ----------------------------------------
        BYTE   PATT
         POIN2  CloudsYearning_7_4
// 009   ----------------------------------------
        BYTE   W96
// 010   ----------------------------------------
        BYTE   PATT
         POIN2  CloudsYearning_7_6
// 011   ----------------------------------------
        BYTE   W96
// 012   ----------------------------------------
CloudsYearning_7_12:
        BYTE   W36
        BYTE           N05     As2   v080
        BYTE   W06
        BYTE                   Cn3
        BYTE   W06
        BYTE                   As2
        BYTE   W48
        BYTE   PEND
// 013   ----------------------------------------
        BYTE   W96
// 014   ----------------------------------------
        BYTE   PATT
         POIN2  CloudsYearning_7_6
// 015   ----------------------------------------
        BYTE   W96
// 016   ----------------------------------------
CloudsYearning_7_16:
        BYTE   W36
        BYTE           N05     Ds3   v080
        BYTE   W06
        BYTE                   Fn3
        BYTE   W06
        BYTE                   Ds3
        BYTE   W48
        BYTE   PEND
// 017   ----------------------------------------
        BYTE   PATT
         POIN2  CloudsYearning_7_12
// 018   ----------------------------------------
        BYTE   PATT
         POIN2  CloudsYearning_7_6
// 019   ----------------------------------------
CloudsYearning_7_19:
        BYTE   W36
        BYTE           N05     Cn3   v080
        BYTE   W06
        BYTE                   Cs3
        BYTE   W06
        BYTE                   Cn3
        BYTE   W30
        BYTE                   Cn3
        BYTE   W06
        BYTE                   Cs3
        BYTE   W06
        BYTE                   Cn3
        BYTE   W06
        BYTE   PEND
// 020   ----------------------------------------
        BYTE   PATT
         POIN2  CloudsYearning_7_6
// 021   ----------------------------------------
        BYTE   W36
        BYTE           N05     Cn3   v080
        BYTE   W06
        BYTE                   Cs3
        BYTE   W06
        BYTE                   Cn3
        BYTE   W24
        BYTE                   As2
        BYTE   W06
        BYTE                   Cn3
        BYTE   W06
        BYTE                   Cs3
        BYTE   W06
        BYTE                   Cn3
        BYTE   W06
// 022   ----------------------------------------
        BYTE   PATT
         POIN2  CloudsYearning_7_6
// 023   ----------------------------------------
        BYTE   PATT
         POIN2  CloudsYearning_7_19
// 024   ----------------------------------------
        BYTE   PATT
         POIN2  CloudsYearning_7_6
// 025   ----------------------------------------
        BYTE   PATT
         POIN2  CloudsYearning_2_25
// 026   ----------------------------------------
        BYTE   W78
        BYTE           N05     Cn3   v080
        BYTE   W06
        BYTE                   Cs3
        BYTE   W06
        BYTE                   Cn3
        BYTE   W06
// 027   ----------------------------------------
        BYTE   W54
        BYTE                   Gs2
        BYTE   W06
        BYTE                   Gn2
        BYTE   W06
        BYTE                   Gs2
        BYTE   W06
        BYTE                   As2
        BYTE   W06
        BYTE                   Gs2
        BYTE   W06
        BYTE                   Gn2
        BYTE   W12
// 028   ----------------------------------------
        BYTE   PATT
         POIN2  CloudsYearning_7_4
// 029   ----------------------------------------
CloudsYearning_7_29:
        BYTE   W36
        BYTE           N05     Ds2   v080
        BYTE   W06
        BYTE                   Fn2
        BYTE   W06
        BYTE                   Ds2
        BYTE   W48
        BYTE   PEND
// 030   ----------------------------------------
        BYTE   PATT
         POIN2  CloudsYearning_7_12
// 031   ----------------------------------------
        BYTE   PATT
         POIN2  CloudsYearning_7_29
// 032   ----------------------------------------
        BYTE   PATT
         POIN2  CloudsYearning_7_4
// 033   ----------------------------------------
        BYTE   PATT
         POIN2  CloudsYearning_7_29
// 034   ----------------------------------------
        BYTE   PATT
         POIN2  CloudsYearning_7_12
// 035   ----------------------------------------
        BYTE   PATT
         POIN2  CloudsYearning_7_29
// 036   ----------------------------------------
        BYTE   PATT
         POIN2  CloudsYearning_7_4
// 037   ----------------------------------------
        BYTE   PATT
         POIN2  CloudsYearning_7_4
// 038   ----------------------------------------
CloudsYearning_7_38:
        BYTE   W36
        BYTE           N05     Gn2   v080
        BYTE   W06
        BYTE                   Gs2
        BYTE   W06
        BYTE                   Gn2
        BYTE   W48
        BYTE   PEND
// 039   ----------------------------------------
        BYTE   PATT
         POIN2  CloudsYearning_7_38
// 040   ----------------------------------------
        BYTE   PATT
         POIN2  CloudsYearning_7_4
// 041   ----------------------------------------
        BYTE   PATT
         POIN2  CloudsYearning_7_4
// 042   ----------------------------------------
        BYTE   PATT
         POIN2  CloudsYearning_7_38
// 043   ----------------------------------------
        BYTE   PATT
         POIN2  CloudsYearning_7_38
// 044   ----------------------------------------
CloudsYearning_7_44:
        BYTE   W36
        BYTE           N05     Fn3   v080
        BYTE   W06
        BYTE                   Gn3
        BYTE   W06
        BYTE                   Fn3
        BYTE   W48
        BYTE   PEND
// 045   ----------------------------------------
        BYTE   PATT
         POIN2  CloudsYearning_7_16
// 046   ----------------------------------------
CloudsYearning_7_46:
        BYTE   W36
        BYTE           N05     Cs3   v080
        BYTE   W06
        BYTE                   Ds3
        BYTE   W06
        BYTE                   Cs3
        BYTE   W48
        BYTE   PEND
// 047   ----------------------------------------
        BYTE   PATT
         POIN2  CloudsYearning_7_6
// 048   ----------------------------------------
        BYTE   PATT
         POIN2  CloudsYearning_7_44
// 049   ----------------------------------------
        BYTE   PATT
         POIN2  CloudsYearning_7_16
// 050   ----------------------------------------
        BYTE   PATT
         POIN2  CloudsYearning_7_46
// 051   ----------------------------------------
        BYTE           N05     As3   v080
        BYTE   W06
        BYTE                   As3
        BYTE   W06
        BYTE                   Gs3
        BYTE   W06
        BYTE                   Gs3
        BYTE   W06
        BYTE                   Gn3
        BYTE   W06
        BYTE                   Gn3
        BYTE   W06
        BYTE                   Fn3
        BYTE   W06
        BYTE                   Fn3
        BYTE   W06
        BYTE           N11     Ds3
        BYTE   W12
        BYTE                   Cs3
        BYTE   W12
        BYTE                   Cn3
        BYTE   W12
        BYTE                   As2
        BYTE   W12
// 052   ----------------------------------------
        BYTE   PATT
         POIN2  CloudsYearning_7_16
// 053   ----------------------------------------
        BYTE   PATT
         POIN2  CloudsYearning_7_6
// 054   ----------------------------------------
        BYTE   PATT
         POIN2  CloudsYearning_7_16
// 055   ----------------------------------------
        BYTE   PATT
         POIN2  CloudsYearning_7_44
// 056   ----------------------------------------
        BYTE   PATT
         POIN2  CloudsYearning_7_16
// 057   ----------------------------------------
        BYTE   PATT
         POIN2  CloudsYearning_7_6
// 058   ----------------------------------------
        BYTE   PATT
         POIN2  CloudsYearning_7_46
// 059   ----------------------------------------
        BYTE   PATT
         POIN2  CloudsYearning_7_44
// 060   ----------------------------------------
        BYTE   W96
// 061   ----------------------------------------
        BYTE   W96
// 062   ----------------------------------------
        BYTE   W96
// 063   ----------------------------------------
        BYTE   PATT
         POIN2  CloudsYearning_2_25
// 064   ----------------------------------------
        BYTE   GoTo
         POIN2  CloudsYearning_7_LOOP
        BYTE   FINE

//****************** Track 8 (Midi-Chn.8) ******************//

CloudsYearning_8:
        BYTE   KEYSH   CloudsYearning_key+0
// 000   ----------------------------------------
        BYTE           VOICE   14
        BYTE           VOL     60
        BYTE           PAN     c_v-35
        BYTE   W96
// 001   ----------------------------------------
        BYTE   W96
// 002   ----------------------------------------
CloudsYearning_8_LOOP:
        BYTE   W72
        BYTE           N23     Cn4   v080
        BYTE   W24
// 003   ----------------------------------------
CloudsYearning_8_3:
        BYTE   W72
        BYTE           N23     As3   v080
        BYTE   W24
        BYTE   PEND
// 004   ----------------------------------------
CloudsYearning_8_4:
        BYTE   W72
        BYTE           N23     Gs3   v080
        BYTE   W24
        BYTE   PEND
// 005   ----------------------------------------
        BYTE   PATT
         POIN2  CloudsYearning_8_3
// 006   ----------------------------------------
CloudsYearning_8_6:
        BYTE   W72
        BYTE           N23     Cn4   v080
        BYTE   W24
        BYTE   PEND
// 007   ----------------------------------------
        BYTE   PATT
         POIN2  CloudsYearning_8_3
// 008   ----------------------------------------
        BYTE   PATT
         POIN2  CloudsYearning_8_4
// 009   ----------------------------------------
        BYTE   PATT
         POIN2  CloudsYearning_8_3
// 010   ----------------------------------------
CloudsYearning_8_10:
        BYTE   W72
        BYTE           N23     Cs4   v080
        BYTE   W24
        BYTE   PEND
// 011   ----------------------------------------
        BYTE   PATT
         POIN2  CloudsYearning_8_4
// 012   ----------------------------------------
CloudsYearning_8_12:
        BYTE   W72
        BYTE           N23     Ds4   v080
        BYTE   W24
        BYTE   PEND
// 013   ----------------------------------------
        BYTE   PATT
         POIN2  CloudsYearning_8_4
// 014   ----------------------------------------
        BYTE   PATT
         POIN2  CloudsYearning_8_6
// 015   ----------------------------------------
        BYTE   PATT
         POIN2  CloudsYearning_8_10
// 016   ----------------------------------------
        BYTE   PATT
         POIN2  CloudsYearning_8_12
// 017   ----------------------------------------
CloudsYearning_8_17:
        BYTE   W72
        BYTE           N23     Gn3   v080
        BYTE   W24
        BYTE   PEND
// 018   ----------------------------------------
CloudsYearning_8_18:
        BYTE   W72
        BYTE           N23     Fn4   v080
        BYTE   W24
        BYTE   PEND
// 019   ----------------------------------------
        BYTE   PATT
         POIN2  CloudsYearning_8_3
// 020   ----------------------------------------
        BYTE   PATT
         POIN2  CloudsYearning_8_18
// 021   ----------------------------------------
CloudsYearning_8_21:
        BYTE   W24
        BYTE           N23     Fn4   v080
        BYTE   W48
        BYTE                   Ds4
        BYTE   W24
        BYTE   PEND
// 022   ----------------------------------------
        BYTE   PATT
         POIN2  CloudsYearning_8_6
// 023   ----------------------------------------
        BYTE   PATT
         POIN2  CloudsYearning_8_10
// 024   ----------------------------------------
        BYTE   PATT
         POIN2  CloudsYearning_8_12
// 025   ----------------------------------------
        BYTE   PATT
         POIN2  CloudsYearning_8_21
// 026   ----------------------------------------
        BYTE           N68     Fn4   v080   gtp3
        BYTE   W96
// 027   ----------------------------------------
        BYTE   PATT
         POIN2  CloudsYearning_8_12
// 028   ----------------------------------------
        BYTE   PATT
         POIN2  CloudsYearning_8_4
// 029   ----------------------------------------
        BYTE   PATT
         POIN2  CloudsYearning_8_12
// 030   ----------------------------------------
        BYTE   PATT
         POIN2  CloudsYearning_8_3
// 031   ----------------------------------------
        BYTE   PATT
         POIN2  CloudsYearning_8_12
// 032   ----------------------------------------
        BYTE   PATT
         POIN2  CloudsYearning_8_4
// 033   ----------------------------------------
        BYTE   PATT
         POIN2  CloudsYearning_8_12
// 034   ----------------------------------------
        BYTE   PATT
         POIN2  CloudsYearning_8_3
// 035   ----------------------------------------
        BYTE   PATT
         POIN2  CloudsYearning_8_12
// 036   ----------------------------------------
        BYTE   PATT
         POIN2  CloudsYearning_8_10
// 037   ----------------------------------------
        BYTE   PATT
         POIN2  CloudsYearning_8_12
// 038   ----------------------------------------
        BYTE   PATT
         POIN2  CloudsYearning_8_6
// 039   ----------------------------------------
        BYTE   PATT
         POIN2  CloudsYearning_8_10
// 040   ----------------------------------------
        BYTE   PATT
         POIN2  CloudsYearning_8_10
// 041   ----------------------------------------
        BYTE   PATT
         POIN2  CloudsYearning_8_12
// 042   ----------------------------------------
        BYTE   PATT
         POIN2  CloudsYearning_8_6
// 043   ----------------------------------------
        BYTE   PATT
         POIN2  CloudsYearning_8_10
// 044   ----------------------------------------
        BYTE   PATT
         POIN2  CloudsYearning_8_10
// 045   ----------------------------------------
        BYTE   PATT
         POIN2  CloudsYearning_8_6
// 046   ----------------------------------------
        BYTE   W72
        BYTE           N23     Gn4   v080
        BYTE   W24
// 047   ----------------------------------------
        BYTE   PATT
         POIN2  CloudsYearning_8_18
// 048   ----------------------------------------
        BYTE   PATT
         POIN2  CloudsYearning_8_18
// 049   ----------------------------------------
        BYTE   W72
        BYTE           N23     Gs4   v080
        BYTE   W24
// 050   ----------------------------------------
        BYTE   PATT
         POIN2  CloudsYearning_8_18
// 051   ----------------------------------------
        BYTE   W24
        BYTE           N23     As3   v080
        BYTE   W48
        BYTE                   Gs3
        BYTE   W24
// 052   ----------------------------------------
        BYTE   PATT
         POIN2  CloudsYearning_8_6
// 053   ----------------------------------------
        BYTE   PATT
         POIN2  CloudsYearning_8_4
// 054   ----------------------------------------
        BYTE   PATT
         POIN2  CloudsYearning_8_3
// 055   ----------------------------------------
        BYTE   PATT
         POIN2  CloudsYearning_8_17
// 056   ----------------------------------------
        BYTE   PATT
         POIN2  CloudsYearning_8_6
// 057   ----------------------------------------
        BYTE   PATT
         POIN2  CloudsYearning_8_4
// 058   ----------------------------------------
        BYTE   PATT
         POIN2  CloudsYearning_8_3
// 059   ----------------------------------------
        BYTE   PATT
         POIN2  CloudsYearning_8_12
// 060   ----------------------------------------
        BYTE   W96
// 061   ----------------------------------------
        BYTE   W96
// 062   ----------------------------------------
        BYTE   W96
// 063   ----------------------------------------
        BYTE   W24
        BYTE           N23     Fn4   v080
        BYTE   W48
        BYTE                   Gn4
        BYTE   W24
// 064   ----------------------------------------
        BYTE   GoTo
         POIN2  CloudsYearning_8_LOOP
        BYTE   FINE

//***************** Track 9 (Midi-Chn.10) ******************//

CloudsYearning_9:
        BYTE   KEYSH   CloudsYearning_key+0
// 000   ----------------------------------------
        BYTE           VOICE   77
        BYTE           VOL     45
        BYTE           PAN     c_v-5
        BYTE   W96
// 001   ----------------------------------------
        BYTE   W96
// 002   ----------------------------------------
CloudsYearning_9_LOOP:
        BYTE           N17     Fn3   v080
        BYTE   W18
        BYTE                   Gs3
        BYTE   W18
        BYTE           N23     Cn4
        BYTE   W24
        BYTE           N11     As3
        BYTE   W12
        BYTE                   Gs3
        BYTE   W12
        BYTE                   Gn3
        BYTE   W12
// 003   ----------------------------------------
        BYTE           N17     Ds3
        BYTE   W18
        BYTE                   Gn3
        BYTE   W18
        BYTE           N23     As3
        BYTE   W24
        BYTE           N11     Gs3
        BYTE   W12
        BYTE                   Gn3
        BYTE   W12
        BYTE                   Fn3
        BYTE   W12
// 004   ----------------------------------------
        BYTE           N17     Cs3
        BYTE   W18
        BYTE                   Fn3
        BYTE   W18
        BYTE           N23     Gs3
        BYTE   W24
        BYTE           N11     Gn3
        BYTE   W12
        BYTE                   Fn3
        BYTE   W12
        BYTE                   Cs3
        BYTE   W12
// 005   ----------------------------------------
        BYTE   PATT
         POIN2  CloudsYearning_3_59
// 006   ----------------------------------------
        BYTE           N17     Cn4   v080
        BYTE   W18
        BYTE                   As3
        BYTE   W18
        BYTE           N56     Cn4   v080   gtp3
        BYTE   W60
// 007   ----------------------------------------
        BYTE           N17     As3
        BYTE   W18
        BYTE                   Gs3
        BYTE   W18
        BYTE           N56     Gn3   v080   gtp3
        BYTE   W60
// 008   ----------------------------------------
        BYTE           N17     As3
        BYTE   W18
        BYTE                   Gs3
        BYTE   W18
        BYTE           N56     As3   v080   gtp3
        BYTE   W60
// 009   ----------------------------------------
        BYTE           N17     Gs3
        BYTE   W18
        BYTE                   Gn3
        BYTE   W18
        BYTE           N56     Fn3   v080   gtp3
        BYTE   W60
// 010   ----------------------------------------
        BYTE           N17     Cs4
        BYTE   W18
        BYTE                   Gs3
        BYTE   W18
        BYTE           N23     Cn4
        BYTE   W24
        BYTE           N11     Cs4
        BYTE   W12
        BYTE                   Cn4
        BYTE   W12
        BYTE                   Cs4
        BYTE   W12
// 011   ----------------------------------------
        BYTE           N17     Ds4
        BYTE   W18
        BYTE                   Cs4
        BYTE   W18
        BYTE           N23     Cn4
        BYTE   W24
        BYTE           N11     Gs3
        BYTE   W12
        BYTE                   As3
        BYTE   W12
        BYTE                   Cn4
        BYTE   W12
// 012   ----------------------------------------
        BYTE           N17     As3
        BYTE   W18
        BYTE                   Gs3
        BYTE   W18
        BYTE           N23     Gn3
        BYTE   W24
        BYTE           N11     Gs3
        BYTE   W12
        BYTE                   Gn3
        BYTE   W12
        BYTE                   Fn3
        BYTE   W12
// 013   ----------------------------------------
        BYTE           N17     Ds3
        BYTE   W18
        BYTE                   Cs3
        BYTE   W18
        BYTE           N23     Cn3
        BYTE   W24
        BYTE           N11     Fn3
        BYTE   W12
        BYTE                   Gs3
        BYTE   W12
        BYTE                   Cs4
        BYTE   W12
// 014   ----------------------------------------
        BYTE   W96
// 015   ----------------------------------------
        BYTE           N32     Gs3   v080   gtp3
        BYTE   W36
        BYTE           N56     Cn4   v080   gtp3
        BYTE   W60
// 016   ----------------------------------------
        BYTE   W96
// 017   ----------------------------------------
        BYTE           N32     As3   v080   gtp3
        BYTE   W36
        BYTE           N56     Gn3   v080   gtp3
        BYTE   W60
// 018   ----------------------------------------
        BYTE   PATT
         POIN2  CloudsYearning_3_18
// 019   ----------------------------------------
        BYTE           N92     Gn3   v080   gtp3
        BYTE   W96
// 020   ----------------------------------------
        BYTE   PATT
         POIN2  CloudsYearning_3_18
// 021   ----------------------------------------
        BYTE   PATT
         POIN2  CloudsYearning_3_21
// 022   ----------------------------------------
        BYTE   PATT
         POIN2  CloudsYearning_3_22
// 023   ----------------------------------------
        BYTE   PATT
         POIN2  CloudsYearning_3_23
// 024   ----------------------------------------
        BYTE   PATT
         POIN2  CloudsYearning_2_24
// 025   ----------------------------------------
        BYTE           N92     Gn4   v080   gtp3
        BYTE   W96
// 026   ----------------------------------------
        BYTE   W96
// 027   ----------------------------------------
        BYTE   W96
// 028   ----------------------------------------
        BYTE           N23     Fn3
        BYTE   W24
        BYTE           N11     Gn3
        BYTE   W12
        BYTE           N32     Fn3   v080   gtp3
        BYTE   W36
        BYTE           N23
        BYTE   W24
// 029   ----------------------------------------
CloudsYearning_9_29:
        BYTE           N11     Gs3   v080
        BYTE   W12
        BYTE                   Gn3
        BYTE   W12
        BYTE                   Fn3
        BYTE   W12
        BYTE           N32     Ds3   v080   gtp3
        BYTE   W36
        BYTE           N23     Cn3
        BYTE   W24
        BYTE   PEND
// 030   ----------------------------------------
        BYTE                   Ds3
        BYTE   W24
        BYTE           N11     Gn3
        BYTE   W12
        BYTE           N32     Ds3   v080   gtp3
        BYTE   W36
        BYTE           N23     Gn3
        BYTE   W24
// 031   ----------------------------------------
CloudsYearning_9_31:
        BYTE           N11     As3   v080
        BYTE   W12
        BYTE                   As3
        BYTE   W12
        BYTE                   Gn3
        BYTE   W12
        BYTE           N32     Fn3   v080   gtp3
        BYTE   W36
        BYTE           N23     Cn3
        BYTE   W24
        BYTE   PEND
// 032   ----------------------------------------
        BYTE   PATT
         POIN2  CloudsYearning_3_28
// 033   ----------------------------------------
        BYTE   PATT
         POIN2  CloudsYearning_3_29
// 034   ----------------------------------------
        BYTE   PATT
         POIN2  CloudsYearning_3_28
// 035   ----------------------------------------
        BYTE           N11     Cn4   v080
        BYTE   W12
        BYTE                   As3
        BYTE   W12
        BYTE                   Cn4
        BYTE   W12
        BYTE                   Cs4
        BYTE   W12
        BYTE                   Ds3
        BYTE   W12
        BYTE                   Fn3
        BYTE   W12
        BYTE                   Gs3
        BYTE   W12
        BYTE                   Gn3
        BYTE   W12
// 036   ----------------------------------------
        BYTE   W96
// 037   ----------------------------------------
        BYTE   PATT
         POIN2  CloudsYearning_2_40
// 038   ----------------------------------------
        BYTE   W96
// 039   ----------------------------------------
        BYTE   PATT
         POIN2  CloudsYearning_2_42
// 040   ----------------------------------------
        BYTE           N23     Cs3   v080
        BYTE   W24
        BYTE           N11     Fn3
        BYTE   W12
        BYTE                   Fn3
        BYTE   W12
        BYTE           N23     Gs3
        BYTE   W24
        BYTE           N11     Fn3
        BYTE   W12
        BYTE                   Fn3
        BYTE   W12
// 041   ----------------------------------------
        BYTE           N23     Cs3
        BYTE   W24
        BYTE           N11     Fn3
        BYTE   W12
        BYTE                   Fn3
        BYTE   W12
        BYTE                   Gs3
        BYTE   W12
        BYTE                   As3
        BYTE   W12
        BYTE                   Gn3
        BYTE   W12
        BYTE                   Gs3
        BYTE   W12
// 042   ----------------------------------------
        BYTE           N23     Cn3
        BYTE   W24
        BYTE           N11     Ds3
        BYTE   W12
        BYTE                   Ds3
        BYTE   W12
        BYTE           N23     Gn3
        BYTE   W24
        BYTE           N11     Ds3
        BYTE   W12
        BYTE                   Ds3
        BYTE   W12
// 043   ----------------------------------------
        BYTE           N23
        BYTE   W24
        BYTE                   Gs3
        BYTE   W24
        BYTE                   As3
        BYTE   W24
        BYTE                   Gs3
        BYTE   W24
// 044   ----------------------------------------
        BYTE   PATT
         POIN2  CloudsYearning_3_45
// 045   ----------------------------------------
        BYTE   PATT
         POIN2  CloudsYearning_3_45
// 046   ----------------------------------------
        BYTE   PATT
         POIN2  CloudsYearning_3_47
// 047   ----------------------------------------
        BYTE   PATT
         POIN2  CloudsYearning_3_47
// 048   ----------------------------------------
CloudsYearning_9_48:
        BYTE           N23     Cn4   v080
        BYTE   W24
        BYTE                   Gs3
        BYTE   W24
        BYTE                   Cn4
        BYTE   W24
        BYTE                   Gs3
        BYTE   W24
        BYTE   PEND
// 049   ----------------------------------------
        BYTE   PATT
         POIN2  CloudsYearning_9_29
// 050   ----------------------------------------
        BYTE   PATT
         POIN2  CloudsYearning_9_48
// 051   ----------------------------------------
        BYTE   PATT
         POIN2  CloudsYearning_9_31
// 052   ----------------------------------------
        BYTE   W96
// 053   ----------------------------------------
        BYTE   W96
// 054   ----------------------------------------
        BYTE   PATT
         POIN2  CloudsYearning_3_18
// 055   ----------------------------------------
        BYTE           N23     Gs3   v080
        BYTE   W24
        BYTE                   Gn3
        BYTE   W24
        BYTE                   Fn3
        BYTE   W24
        BYTE                   Gn3
        BYTE   W24
// 056   ----------------------------------------
        BYTE   W96
// 057   ----------------------------------------
        BYTE   W96
// 058   ----------------------------------------
        BYTE                   Fn3
        BYTE   W24
        BYTE           N11     Cn3
        BYTE   W12
        BYTE                   Fn3
        BYTE   W12
        BYTE           N23     Cs4
        BYTE   W24
        BYTE           N11     Cn3
        BYTE   W12
        BYTE                   Ds4
        BYTE   W12
// 059   ----------------------------------------
        BYTE   PATT
         POIN2  CloudsYearning_3_59
// 060   ----------------------------------------
        BYTE   PATT
         POIN2  CloudsYearning_9_48
// 061   ----------------------------------------
        BYTE           N11     Fn3   v080
        BYTE   W12
        BYTE                   Cn3
        BYTE   W12
        BYTE                   Fn3
        BYTE   W12
        BYTE                   Cn4
        BYTE   W12
        BYTE                   Gs3
        BYTE   W12
        BYTE                   Gn3
        BYTE   W12
        BYTE                   Fn3
        BYTE   W12
        BYTE                   Gn3
        BYTE   W12
// 062   ----------------------------------------
        BYTE   PATT
         POIN2  CloudsYearning_9_48
// 063   ----------------------------------------
        BYTE           N11     Fn3   v080
        BYTE   W12
        BYTE           N05     Cn3
        BYTE   W06
        BYTE                   Fn3
        BYTE   W06
        BYTE           N11     Cs4
        BYTE   W12
        BYTE           N05     Cn3
        BYTE   W06
        BYTE                   Ds4
        BYTE   W06
        BYTE           N44     Fn4   v080   gtp3
        BYTE   W48
// 064   ----------------------------------------
        BYTE   GoTo
         POIN2  CloudsYearning_9_LOOP
        BYTE   FINE


//********************** End of Song ***********************//

        ALIGN 4
CloudsYearning:
        BYTE   10                      // Num Tracks
        BYTE   0                       // Unknown
        BYTE   CloudsYearning_pri      // Priority
        BYTE   CloudsYearning_rev      // Reverb

        POIN2   CloudsYearning_grp     

        POIN2   CloudsYearning_0
        POIN2   CloudsYearning_1
        POIN2   CloudsYearning_2
        POIN2   CloudsYearning_3
        POIN2   CloudsYearning_4
        POIN2   CloudsYearning_5
        POIN2   CloudsYearning_6
        POIN2   CloudsYearning_7
        POIN2   CloudsYearning_8
        POIN2   CloudsYearning_9

        
