//Event file generated from Sappy .s format.
        #include "MPlayDef.event"

        #define    DeadWindsStillTides_grp  voicegroup000
        #define    DeadWindsStillTides_pri  0
        #define    DeadWindsStillTides_rev  0
        #define    DeadWindsStillTides_key  0

        // .rodata
        // DeadWindsStillTides
        ALIGN 4

//****************** Track 0 (Midi-Chn.0) ******************//

DeadWindsStillTides_0:
        BYTE   KEYSH   DeadWindsStillTides_key+0
// 000   ----------------------------------------
        BYTE   TEMPO   66/2
DeadWindsStillTides_0_LOOP:
        BYTE           VOICE   77
        BYTE           VOL     127
        BYTE   W96
// 001   ----------------------------------------
        BYTE   W96
// 002   ----------------------------------------
        BYTE   W96
// 003   ----------------------------------------
        BYTE   W84
        BYTE           N12     Fs3   v024
        BYTE   W12
// 004   ----------------------------------------
        BYTE           N36     Dn3
        BYTE   W36
        BYTE           N12     Cn3
        BYTE   W12
        BYTE           N36     Bn2
        BYTE   W36
        BYTE           N12     An2
        BYTE   W12
// 005   ----------------------------------------
        BYTE           N18
        BYTE   W18
        BYTE           N06     Gn2
        BYTE   W12
        BYTE           N18     An2
        BYTE   W18
        BYTE           N06     Gn2
        BYTE   W06
        BYTE           N12     An2
        BYTE   W12
        BYTE           N06     Gn2
        BYTE   W12
        BYTE           N18     Cn3
        BYTE   W18
// 006   ----------------------------------------
        BYTE           N36     Bn2
        BYTE   W36
        BYTE           N12     An2
        BYTE   W12
        BYTE           N36     Fs2
        BYTE   W36
        BYTE           N12     Dn2
        BYTE   W12
// 007   ----------------------------------------
        BYTE           N18     An2
        BYTE   W18
        BYTE                   Bn2
        BYTE   W18
        BYTE           N12     An2
        BYTE   W12
        BYTE           N48     Cn3
        BYTE   W48
// 008   ----------------------------------------
        BYTE           N96     Bn2   v012
        BYTE   W96
// 009   ----------------------------------------
        BYTE                   An2
        BYTE   W96
// 010   ----------------------------------------
        BYTE                   Bn2
        BYTE   W96
// 011   ----------------------------------------
        BYTE                   An2
        BYTE   W96
// 012   ----------------------------------------
        BYTE   W96
// 013   ----------------------------------------
        BYTE   W96
// 014   ----------------------------------------
        BYTE   W96
// 015   ----------------------------------------
        BYTE   W48
        BYTE           N84     Dn3
        BYTE   W48
// 016   ----------------------------------------
        BYTE   W36
        BYTE                   Bn2
        BYTE   W60
// 017   ----------------------------------------
        BYTE   W24
        BYTE                   Dn3
        BYTE   W72
// 018   ----------------------------------------
        BYTE   W12
        BYTE                   En3
        BYTE   W84
// 019   ----------------------------------------
        BYTE   W96
// 020   ----------------------------------------
        BYTE   W96
// 021   ----------------------------------------
        BYTE   W96
// 022   ----------------------------------------
        BYTE   W96
// 023   ----------------------------------------
        BYTE   W96
// 024   ----------------------------------------
        BYTE   W96
// 025   ----------------------------------------
        BYTE   W96
// 026   ----------------------------------------
        BYTE   W96
// 027   ----------------------------------------
        BYTE   W96
// 028   ----------------------------------------
        BYTE   W96
// 029   ----------------------------------------
        BYTE   W96
// 030   ----------------------------------------
        BYTE   W96
// 031   ----------------------------------------
        BYTE   W96
// 032   ----------------------------------------
        BYTE   W96
// 033   ----------------------------------------
        BYTE   W96
// 034   ----------------------------------------
        BYTE   GoTo
         POIN2  DeadWindsStillTides_0_LOOP
        BYTE   FINE

//****************** Track 1 (Midi-Chn.1) ******************//

DeadWindsStillTides_1:
        BYTE   KEYSH   DeadWindsStillTides_key+0
// 000   ----------------------------------------
DeadWindsStillTides_1_LOOP:
        BYTE           VOICE   69
        BYTE           VOL     127
        BYTE   W96
// 001   ----------------------------------------
        BYTE   W96
// 002   ----------------------------------------
        BYTE   W96
// 003   ----------------------------------------
        BYTE   W96
// 004   ----------------------------------------
        BYTE   W96
// 005   ----------------------------------------
        BYTE   W96
// 006   ----------------------------------------
        BYTE   W96
// 007   ----------------------------------------
        BYTE   W84
        BYTE           N12     An1   v024
        BYTE   W12
// 008   ----------------------------------------
        BYTE           N36     Dn2
        BYTE   W36
        BYTE           N12     Cn2
        BYTE   W12
        BYTE           N36     Bn1
        BYTE   W36
        BYTE           N12     An1
        BYTE   W12
// 009   ----------------------------------------
        BYTE           N18
        BYTE   W18
        BYTE           N06     Gn1
        BYTE   W12
        BYTE           N18     An1
        BYTE   W18
        BYTE           N06     Gn1
        BYTE   W06
        BYTE           N12     An1
        BYTE   W12
        BYTE           N06     Gn1
        BYTE   W12
        BYTE           N18     Cn2
        BYTE   W18
// 010   ----------------------------------------
        BYTE           N36     Bn1
        BYTE   W36
        BYTE           N12     An1
        BYTE   W12
        BYTE           N36     Fs1
        BYTE   W36
        BYTE           N12     Dn1
        BYTE   W12
// 011   ----------------------------------------
        BYTE           N18     An1
        BYTE   W18
        BYTE                   Bn1
        BYTE   W18
        BYTE           N12     An1
        BYTE   W12
        BYTE           N24     Cn2
        BYTE   W24
        BYTE           N12     Cn2   v016
        BYTE   W12
        BYTE                   Cn2   v010
        BYTE   W12
// 012   ----------------------------------------
        BYTE   W96
// 013   ----------------------------------------
        BYTE   W96
// 014   ----------------------------------------
        BYTE   W96
// 015   ----------------------------------------
        BYTE   W96
// 016   ----------------------------------------
        BYTE   W96
// 017   ----------------------------------------
        BYTE   W96
// 018   ----------------------------------------
        BYTE   W96
// 019   ----------------------------------------
        BYTE           N48     Dn3   v016
        BYTE   W48
        BYTE           N36     An2
        BYTE   W36
        BYTE           N48     En3
        BYTE   W12
// 020   ----------------------------------------
        BYTE   W36
        BYTE           N36     Bn2
        BYTE   W36
        BYTE           N48     An2
        BYTE   W24
// 021   ----------------------------------------
        BYTE   W24
        BYTE           N36     En3
        BYTE   W36
        BYTE           N48     Fn3
        BYTE   W36
// 022   ----------------------------------------
        BYTE   W12
        BYTE           N18     Fn3   v006
        BYTE   W18
        BYTE                   Fn3   v003
        BYTE   W18
        BYTE           N48     Dn3   v016
        BYTE   W48
// 023   ----------------------------------------
        BYTE           N36     An2
        BYTE   W36
        BYTE           N48     En3
        BYTE   W48
        BYTE           N36     Bn2
        BYTE   W12
// 024   ----------------------------------------
        BYTE   W24
        BYTE           N48     An2
        BYTE   W48
        BYTE           N36     En3
        BYTE   W24
// 025   ----------------------------------------
        BYTE   W12
        BYTE           N48     Fn3
        BYTE   W48
        BYTE           N18     Fn3   v006
        BYTE   W18
        BYTE                   Fn3   v003
        BYTE   W18
// 026   ----------------------------------------
DeadWindsStillTides_1_26:
        BYTE           N12     As1   v016
        BYTE   W12
        BYTE                   As1   v012
        BYTE   W12
        BYTE           N48     Cs2   v008
        BYTE   W48
        BYTE           N12     Cn2   v012
        BYTE   W12
        BYTE                   Bn1
        BYTE   W12
        BYTE   PEND
// 027   ----------------------------------------
DeadWindsStillTides_1_27:
        BYTE           N12     Bn1   v016
        BYTE   W12
        BYTE                   Bn1   v012
        BYTE   W12
        BYTE           N48     Dn2   v008
        BYTE   W48
        BYTE           N12     Cs2   v012
        BYTE   W12
        BYTE                   As1
        BYTE   W12
        BYTE   PEND
// 028   ----------------------------------------
        BYTE   PATT
         POIN2  DeadWindsStillTides_1_26
// 029   ----------------------------------------
        BYTE   PATT
         POIN2  DeadWindsStillTides_1_27
// 030   ----------------------------------------
        BYTE   PATT
         POIN2  DeadWindsStillTides_1_26
// 031   ----------------------------------------
        BYTE   PATT
         POIN2  DeadWindsStillTides_1_27
// 032   ----------------------------------------
        BYTE   PATT
         POIN2  DeadWindsStillTides_1_26
// 033   ----------------------------------------
        BYTE   PATT
         POIN2  DeadWindsStillTides_1_27
// 034   ----------------------------------------
        BYTE   GoTo
         POIN2  DeadWindsStillTides_1_LOOP
        BYTE   FINE

//****************** Track 2 (Midi-Chn.2) ******************//

DeadWindsStillTides_2:
        BYTE   KEYSH   DeadWindsStillTides_key+0
// 000   ----------------------------------------
DeadWindsStillTides_2_LOOP:
        BYTE           VOICE   104
        BYTE           N48     Bn3   v024
        BYTE           VOL     127
        BYTE   W96
// 001   ----------------------------------------
        BYTE   W96
// 002   ----------------------------------------
        BYTE   W96
// 003   ----------------------------------------
        BYTE   W96
// 004   ----------------------------------------
        BYTE   W96
// 005   ----------------------------------------
        BYTE   W96
// 006   ----------------------------------------
        BYTE   W96
// 007   ----------------------------------------
        BYTE   W96
// 008   ----------------------------------------
        BYTE   W96
// 009   ----------------------------------------
        BYTE   W96
// 010   ----------------------------------------
        BYTE   W96
// 011   ----------------------------------------
        BYTE   W96
// 012   ----------------------------------------
        BYTE   W96
// 013   ----------------------------------------
        BYTE   W96
// 014   ----------------------------------------
        BYTE   W96
// 015   ----------------------------------------
        BYTE   W96
// 016   ----------------------------------------
        BYTE   W96
// 017   ----------------------------------------
        BYTE   W96
// 018   ----------------------------------------
        BYTE   W96
// 019   ----------------------------------------
        BYTE   W96
// 020   ----------------------------------------
        BYTE   W96
// 021   ----------------------------------------
        BYTE   W96
// 022   ----------------------------------------
        BYTE   W48
        BYTE           N06     Dn3   v028
        BYTE   W06
        BYTE                   An2   v021
        BYTE   W06
        BYTE           N12
        BYTE   W12
        BYTE                   Fn2   v024
        BYTE   W12
        BYTE                   An2   v021
        BYTE   W12
// 023   ----------------------------------------
        BYTE           N06     Bn2   v024
        BYTE   W06
        BYTE                   An2   v021
        BYTE   W06
        BYTE           N12
        BYTE   W12
        BYTE                   Fn2   v024
        BYTE   W12
        BYTE           N06     Bn2   v028
        BYTE   W06
        BYTE                   Gn2   v021
        BYTE   W06
        BYTE           N12
        BYTE   W12
        BYTE                   En2   v024
        BYTE   W12
        BYTE           N06     Gn2   v021
        BYTE   W06
        BYTE                   An2
        BYTE   W06
        BYTE           N12     An2   v024
        BYTE   W12
// 024   ----------------------------------------
        BYTE                   Gn2   v021
        BYTE   W12
        BYTE           N06     En2   v024
        BYTE   W06
        BYTE                   Gn2   v021
        BYTE   W06
        BYTE                   An2   v028
        BYTE   W06
        BYTE                   En2   v021
        BYTE   W06
        BYTE           N12
        BYTE   W12
        BYTE                   Cn2   v024
        BYTE   W12
        BYTE           N06     En2   v021
        BYTE   W06
        BYTE                   Fn2
        BYTE   W06
        BYTE           N12     Fn2   v024
        BYTE   W12
        BYTE                   En2   v021
        BYTE   W12
// 025   ----------------------------------------
        BYTE           N06     Cn2   v024
        BYTE   W06
        BYTE                   En2   v021
        BYTE   W06
        BYTE           N48     Cn3
        BYTE   W48
        BYTE           N36     Fn2
        BYTE   W36
// 026   ----------------------------------------
        BYTE   W96
// 027   ----------------------------------------
        BYTE   W96
// 028   ----------------------------------------
        BYTE   W96
// 029   ----------------------------------------
        BYTE   W96
// 030   ----------------------------------------
        BYTE   W96
// 031   ----------------------------------------
        BYTE   W96
// 032   ----------------------------------------
        BYTE   W96
// 033   ----------------------------------------
        BYTE   W96
// 034   ----------------------------------------
        BYTE   GoTo
         POIN2  DeadWindsStillTides_2_LOOP
        BYTE   FINE

//****************** Track 3 (Midi-Chn.3) ******************//

DeadWindsStillTides_3:
        BYTE   KEYSH   DeadWindsStillTides_key+0
// 000   ----------------------------------------
DeadWindsStillTides_3_LOOP:
        BYTE           VOICE   45
        BYTE           VOL     127
        BYTE   W24
        BYTE           N12     Bn3   v030
        BYTE   W12
        BYTE                   Bn3   v020
        BYTE   W24
        BYTE                   Bn3
        BYTE   W12
        BYTE                   Bn4   v030
        BYTE   W12
        BYTE                   Bn4   v020
        BYTE   W12
// 001   ----------------------------------------
DeadWindsStillTides_3_1:
        BYTE   W12
        BYTE           N12     Bn4   v020
        BYTE   W12
        BYTE                   An3   v030
        BYTE   W12
        BYTE                   An3   v020
        BYTE   W24
        BYTE                   An3
        BYTE   W12
        BYTE                   An4   v030
        BYTE   W12
        BYTE                   An4   v020
        BYTE   W12
        BYTE   PEND
// 002   ----------------------------------------
DeadWindsStillTides_3_2:
        BYTE   W12
        BYTE           N12     An4   v020
        BYTE   W12
        BYTE                   Bn3   v030
        BYTE   W12
        BYTE                   Bn3   v020
        BYTE   W24
        BYTE                   Bn3
        BYTE   W12
        BYTE                   Bn4   v030
        BYTE   W12
        BYTE                   Bn4   v020
        BYTE   W12
        BYTE   PEND
// 003   ----------------------------------------
DeadWindsStillTides_3_3:
        BYTE   W12
        BYTE           N12     Bn4   v020
        BYTE   W12
        BYTE                   En3   v030
        BYTE   W12
        BYTE                   En3   v020
        BYTE   W24
        BYTE                   En3
        BYTE   W12
        BYTE                   En4   v030
        BYTE   W12
        BYTE                   En4   v020
        BYTE   W12
        BYTE   PEND
// 004   ----------------------------------------
DeadWindsStillTides_3_4:
        BYTE   W12
        BYTE           N12     En4   v020
        BYTE   W12
        BYTE                   Bn3   v030
        BYTE   W12
        BYTE                   Bn3   v020
        BYTE   W24
        BYTE                   Bn3
        BYTE   W12
        BYTE                   Bn4   v030
        BYTE   W12
        BYTE                   Bn4   v020
        BYTE   W12
        BYTE   PEND
// 005   ----------------------------------------
        BYTE   PATT
         POIN2  DeadWindsStillTides_3_1
// 006   ----------------------------------------
        BYTE   PATT
         POIN2  DeadWindsStillTides_3_2
// 007   ----------------------------------------
        BYTE   W12
        BYTE           N12     Bn4   v020
        BYTE   W12
        BYTE                   En3   v030
        BYTE   W12
        BYTE                   En3   v014
        BYTE   W24
        BYTE                   En3
        BYTE   W12
        BYTE                   En4   v030
        BYTE   W12
        BYTE                   En4   v020
        BYTE   W12
// 008   ----------------------------------------
        BYTE   PATT
         POIN2  DeadWindsStillTides_3_4
// 009   ----------------------------------------
        BYTE   PATT
         POIN2  DeadWindsStillTides_3_1
// 010   ----------------------------------------
        BYTE   PATT
         POIN2  DeadWindsStillTides_3_2
// 011   ----------------------------------------
        BYTE   PATT
         POIN2  DeadWindsStillTides_3_3
// 012   ----------------------------------------
        BYTE   W96
// 013   ----------------------------------------
        BYTE   W96
// 014   ----------------------------------------
        BYTE   W96
// 015   ----------------------------------------
        BYTE   W96
// 016   ----------------------------------------
        BYTE   W96
// 017   ----------------------------------------
        BYTE   W96
// 018   ----------------------------------------
        BYTE   W96
// 019   ----------------------------------------
        BYTE           N06     Dn4   v036
        BYTE   W06
        BYTE                   An3   v028
        BYTE   W06
        BYTE           N12
        BYTE   W12
        BYTE                   Fn3   v032
        BYTE   W12
        BYTE                   An3   v028
        BYTE   W12
        BYTE           N06     Bn3   v032
        BYTE   W06
        BYTE                   An3   v028
        BYTE   W06
        BYTE           N12
        BYTE   W12
        BYTE                   Fn3   v032
        BYTE   W12
        BYTE           N06     Bn3   v036
        BYTE   W06
        BYTE                   Gn3   v028
        BYTE   W06
// 020   ----------------------------------------
        BYTE           N12
        BYTE   W12
        BYTE                   En3   v032
        BYTE   W12
        BYTE           N06     Gn3   v028
        BYTE   W06
        BYTE                   An3
        BYTE   W06
        BYTE           N12     An3   v032
        BYTE   W12
        BYTE                   Gn3   v028
        BYTE   W12
        BYTE           N06     En3   v032
        BYTE   W06
        BYTE                   Gn3   v028
        BYTE   W06
        BYTE                   An3   v036
        BYTE   W06
        BYTE                   En3   v028
        BYTE   W06
        BYTE           N12
        BYTE   W12
// 021   ----------------------------------------
        BYTE                   Cn3   v032
        BYTE   W12
        BYTE           N06     En3   v028
        BYTE   W06
        BYTE                   Fn3
        BYTE   W06
        BYTE           N12     Fn3   v032
        BYTE   W12
        BYTE                   En3   v028
        BYTE   W12
        BYTE           N06     Cn3   v032
        BYTE   W06
        BYTE                   En3   v028
        BYTE   W06
        BYTE                   Cn4   v036
        BYTE   W06
        BYTE                   Fn3   v028
        BYTE   W12
        BYTE                   En4   v036
        BYTE   W06
        BYTE                   An3   v028
        BYTE   W12
// 022   ----------------------------------------
        BYTE                   Cn4   v036
        BYTE   W06
        BYTE                   Fn3   v028
        BYTE   W06
        BYTE                   An3   v036
        BYTE   W06
        BYTE                   Cn3   v028
        BYTE   W06
        BYTE                   En3   v036
        BYTE   W06
        BYTE                   Cn4   v028
        BYTE   W06
        BYTE                   Bn3
        BYTE   W06
        BYTE                   Fn4
        BYTE   W06
        BYTE                   Dn4   v036
        BYTE   W06
        BYTE                   An3   v028
        BYTE   W06
        BYTE           N12
        BYTE   W12
        BYTE                   Fn3   v032
        BYTE   W12
        BYTE                   An3   v028
        BYTE   W12
// 023   ----------------------------------------
        BYTE           N06     Bn3   v032
        BYTE   W06
        BYTE                   An3   v028
        BYTE   W06
        BYTE           N12
        BYTE   W12
        BYTE                   Fn3   v032
        BYTE   W12
        BYTE           N06     Bn3   v036
        BYTE   W06
        BYTE                   Gn3   v028
        BYTE   W06
        BYTE           N12
        BYTE   W12
        BYTE                   En3   v032
        BYTE   W12
        BYTE           N06     Gn3   v028
        BYTE   W06
        BYTE                   An3
        BYTE   W06
        BYTE           N12     An3   v032
        BYTE   W12
// 024   ----------------------------------------
        BYTE                   Gn3   v028
        BYTE   W12
        BYTE           N06     En3   v032
        BYTE   W06
        BYTE                   Gn3   v028
        BYTE   W06
        BYTE                   An3   v036
        BYTE   W06
        BYTE                   En3   v028
        BYTE   W06
        BYTE           N12
        BYTE   W12
        BYTE                   Cn3   v032
        BYTE   W12
        BYTE           N06     En3   v028
        BYTE   W06
        BYTE                   Fn3
        BYTE   W06
        BYTE           N12     Fn3   v032
        BYTE   W12
        BYTE                   En3   v028
        BYTE   W12
// 025   ----------------------------------------
        BYTE           N06     Cn3   v032
        BYTE   W06
        BYTE                   En3   v028
        BYTE   W06
        BYTE                   Cn4   v036
        BYTE   W06
        BYTE                   Fn3   v028
        BYTE   W06
        BYTE           N12     Bn3
        BYTE   W12
        BYTE                   Fn3   v032
        BYTE   W12
        BYTE           N06     Bn3   v028
        BYTE   W06
        BYTE                   Fn3
        BYTE   W06
        BYTE           N12     Bn3   v032
        BYTE   W12
        BYTE           N24     Fn3   v028
        BYTE   W24
// 026   ----------------------------------------
        BYTE   W24
        BYTE           N12     As3   v030
        BYTE   W12
        BYTE                   As3   v020
        BYTE   W24
        BYTE                   As3
        BYTE   W12
        BYTE                   As4   v030
        BYTE   W12
        BYTE                   As4   v020
        BYTE   W12
// 027   ----------------------------------------
        BYTE   W12
        BYTE                   Bn4
        BYTE   W12
        BYTE                   Bn3   v030
        BYTE   W12
        BYTE                   Bn3   v020
        BYTE   W24
        BYTE                   Bn3
        BYTE   W12
        BYTE                   Bn4   v030
        BYTE   W12
        BYTE                   Bn4   v020
        BYTE   W12
// 028   ----------------------------------------
        BYTE   W12
        BYTE                   As4
        BYTE   W12
        BYTE                   As3   v030
        BYTE   W12
        BYTE                   As3   v020
        BYTE   W24
        BYTE                   As3
        BYTE   W12
        BYTE                   As4   v030
        BYTE   W12
        BYTE                   As4   v020
        BYTE   W12
// 029   ----------------------------------------
        BYTE   W12
        BYTE                   Bn4
        BYTE   W12
        BYTE                   Bn3   v030
        BYTE   W12
        BYTE                   Bn3   v020
        BYTE   W24
        BYTE                   Bn3
        BYTE   W12
        BYTE                   Bn3   v030
        BYTE   W12
        BYTE                   Bn3   v020
        BYTE   W12
// 030   ----------------------------------------
        BYTE   W23
        BYTE                   As3   v030
        BYTE   W12
        BYTE                   As3   v020
        BYTE   W24
        BYTE                   As3
        BYTE   W12
        BYTE                   As4   v030
        BYTE   W12
        BYTE                   As4   v020
        BYTE   W13
// 031   ----------------------------------------
        BYTE   W11
        BYTE                   Bn4
        BYTE   W12
        BYTE                   Bn3   v030
        BYTE   W12
        BYTE                   Bn3   v020
        BYTE   W24
        BYTE                   Bn3
        BYTE   W12
        BYTE                   Bn4   v030
        BYTE   W12
        BYTE                   Bn4   v020
        BYTE   W13
// 032   ----------------------------------------
        BYTE   W11
        BYTE                   As4
        BYTE   W12
        BYTE                   As3   v030
        BYTE   W12
        BYTE                   As3   v020
        BYTE   W24
        BYTE                   As3
        BYTE   W12
        BYTE                   As4   v030
        BYTE   W12
        BYTE                   As4   v020
        BYTE   W13
// 033   ----------------------------------------
        BYTE   W11
        BYTE                   Bn4
        BYTE   W12
        BYTE                   Bn3   v030
        BYTE   W12
        BYTE                   Bn3   v020
        BYTE   W24
        BYTE                   Bn3
        BYTE   W12
        BYTE                   Bn3   v030
        BYTE   W12
        BYTE                   Bn3   v020
        BYTE   W13
// 034   ----------------------------------------
        BYTE   GoTo
         POIN2  DeadWindsStillTides_3_LOOP
        BYTE   FINE

//****************** Track 4 (Midi-Chn.4) ******************//

DeadWindsStillTides_4:
        BYTE   KEYSH   DeadWindsStillTides_key+0
// 000   ----------------------------------------
DeadWindsStillTides_4_LOOP:
        BYTE           VOICE   32
        BYTE           N18     Bn1   v045
        BYTE           VOL     127
        BYTE   W24
        BYTE           N18     Bn1   v040
        BYTE   W18
        BYTE           N06
        BYTE   W06
        BYTE           N18     Bn1   v042
        BYTE   W24
        BYTE                   Bn1   v040
        BYTE   W18
        BYTE           N06     An1
        BYTE   W06
// 001   ----------------------------------------
DeadWindsStillTides_4_1:
        BYTE           N18     An1   v045
        BYTE   W24
        BYTE                   An1   v040
        BYTE   W18
        BYTE           N06
        BYTE   W06
        BYTE           N18     An1   v042
        BYTE   W24
        BYTE                   An1   v040
        BYTE   W18
        BYTE           N06     Bn1
        BYTE   W06
        BYTE   PEND
// 002   ----------------------------------------
DeadWindsStillTides_4_2:
        BYTE           N18     Bn1   v045
        BYTE   W24
        BYTE                   Bn1   v040
        BYTE   W18
        BYTE           N06
        BYTE   W06
        BYTE           N18     Bn1   v042
        BYTE   W24
        BYTE                   Bn1   v040
        BYTE   W18
        BYTE           N06     An1
        BYTE   W06
        BYTE   PEND
// 003   ----------------------------------------
DeadWindsStillTides_4_3:
        BYTE           N18     An1   v045
        BYTE   W24
        BYTE                   An1   v040
        BYTE   W18
        BYTE           N06
        BYTE   W06
        BYTE           N48     An1   v042
        BYTE   W48
        BYTE   PEND
// 004   ----------------------------------------
        BYTE   PATT
         POIN2  DeadWindsStillTides_4_2
// 005   ----------------------------------------
        BYTE   PATT
         POIN2  DeadWindsStillTides_4_1
// 006   ----------------------------------------
        BYTE   PATT
         POIN2  DeadWindsStillTides_4_2
// 007   ----------------------------------------
        BYTE   PATT
         POIN2  DeadWindsStillTides_4_3
// 008   ----------------------------------------
        BYTE   PATT
         POIN2  DeadWindsStillTides_4_2
// 009   ----------------------------------------
        BYTE   PATT
         POIN2  DeadWindsStillTides_4_1
// 010   ----------------------------------------
        BYTE   PATT
         POIN2  DeadWindsStillTides_4_2
// 011   ----------------------------------------
        BYTE   PATT
         POIN2  DeadWindsStillTides_4_3
// 012   ----------------------------------------
        BYTE           N84     Dn2   v042
        BYTE   W84
        BYTE                   Bn1
        BYTE   W12
// 013   ----------------------------------------
        BYTE   W96
// 014   ----------------------------------------
        BYTE   W96
// 015   ----------------------------------------
        BYTE   W18
        BYTE           N18
        BYTE   W18
        BYTE           N12     En2
        BYTE   W12
        BYTE           N24     Dn2
        BYTE   W24
        BYTE                   Dn2   v037
        BYTE   W24
// 016   ----------------------------------------
        BYTE                   Dn2   v035
        BYTE   W24
        BYTE           N12     Cn2   v032
        BYTE   W12
        BYTE           N24     Bn1   v042
        BYTE   W24
        BYTE                   Bn1   v037
        BYTE   W24
        BYTE                   Bn1   v035
        BYTE   W12
// 017   ----------------------------------------
        BYTE   W12
        BYTE           N12     Cn2   v032
        BYTE   W12
        BYTE           N24     Dn2   v042
        BYTE   W24
        BYTE                   Dn2   v037
        BYTE   W24
        BYTE                   Dn2   v035
        BYTE   W24
// 018   ----------------------------------------
        BYTE           N12     Cn2   v032
        BYTE   W12
        BYTE           N24     Bn1   v042
        BYTE   W24
        BYTE                   Bn1   v037
        BYTE   W24
        BYTE                   Bn1   v035
        BYTE   W24
        BYTE           N12     Cn2   v032
        BYTE   W12
// 019   ----------------------------------------
        BYTE           N24     Dn2   v042
        BYTE   W36
        BYTE           N12     Dn2   v037
        BYTE   W12
        BYTE           N24     An1   v042
        BYTE   W24
        BYTE           N12     Dn2   v037
        BYTE   W12
        BYTE           N24     En2   v042
        BYTE   W12
// 020   ----------------------------------------
        BYTE   W24
        BYTE           N12     En2   v037
        BYTE   W12
        BYTE           N24     Bn1   v042
        BYTE   W24
        BYTE           N12     En2   v037
        BYTE   W12
        BYTE           N24     An2   v042
        BYTE   W24
// 021   ----------------------------------------
        BYTE   W12
        BYTE           N12     An2   v037
        BYTE   W12
        BYTE           N24     En2   v042
        BYTE   W24
        BYTE           N12     An2   v037
        BYTE   W12
        BYTE           N48     Fn2   v042
        BYTE   W36
// 022   ----------------------------------------
        BYTE   W12
        BYTE           N18     Cn2
        BYTE   W18
        BYTE                   Bn1
        BYTE   W18
        BYTE           N24     Dn2
        BYTE   W36
        BYTE           N12     Dn2   v037
        BYTE   W12
// 023   ----------------------------------------
        BYTE           N24     An1   v042
        BYTE   W24
        BYTE           N12     Dn2   v037
        BYTE   W12
        BYTE           N24     En2   v042
        BYTE   W36
        BYTE           N12     En2   v037
        BYTE   W12
        BYTE           N24     Bn1   v042
        BYTE   W12
// 024   ----------------------------------------
        BYTE   W12
        BYTE           N12     En2   v037
        BYTE   W12
        BYTE           N24     An2   v042
        BYTE   W36
        BYTE           N12     An2   v037
        BYTE   W12
        BYTE           N24     En2   v042
        BYTE   W24
// 025   ----------------------------------------
        BYTE           N12     An2   v037
        BYTE   W12
        BYTE           N48     Fn2   v042
        BYTE   W48
        BYTE           N18     Cn2
        BYTE   W18
        BYTE                   Bn1
        BYTE   W18
// 026   ----------------------------------------
        BYTE           N96     As1
        BYTE   W96
// 027   ----------------------------------------
        BYTE                   Bn1
        BYTE   W96
// 028   ----------------------------------------
        BYTE                   As1
        BYTE   W96
// 029   ----------------------------------------
        BYTE                   Bn1
        BYTE   W96
// 030   ----------------------------------------
        BYTE                   As1
        BYTE   W96
// 031   ----------------------------------------
        BYTE                   Bn1
        BYTE   W96
// 032   ----------------------------------------
        BYTE                   As1
        BYTE   W96
// 033   ----------------------------------------
        BYTE                   Bn1
        BYTE   W96
// 034   ----------------------------------------
        BYTE   GoTo
         POIN2  DeadWindsStillTides_4_LOOP
        BYTE   FINE

//****************** Track 5 (Midi-Chn.5) ******************//

DeadWindsStillTides_5:
        BYTE   KEYSH   DeadWindsStillTides_key+0
// 000   ----------------------------------------
DeadWindsStillTides_5_LOOP:
        BYTE           VOICE   24
        BYTE           N12     Fs2   v019
        BYTE           N12     Bn2
        BYTE           VOL     127
        BYTE   W01
        BYTE           N11     Fs3
        BYTE   W11
        BYTE           N06     Fs2   v016
        BYTE           N06     Bn2
        BYTE   W01
        BYTE           N05     Fs3
        BYTE   W05
        BYTE           N06     Fs3   v014
        BYTE           N06     Bn2
        BYTE   W01
        BYTE           N05     Fs2
        BYTE   W11
        BYTE           N06     Fs3   v013
        BYTE           N06     Bn2
        BYTE   W06
        BYTE           N12     Fs2   v017
        BYTE           N12     Bn2
        BYTE   W12
        BYTE           N06     Fs2   v019
        BYTE           N06     Bn2
        BYTE   W01
        BYTE           N05     Fs3
        BYTE   W05
        BYTE           N12     Fs3   v013
        BYTE           N12     Bn2
        BYTE   W01
        BYTE           N11     Fs2
        BYTE   W11
        BYTE           N06     Fs3   v017
        BYTE           N06     Bn2
        BYTE   W06
        BYTE                   Fs2
        BYTE           N06     Bn2
        BYTE   W01
        BYTE           N05     Fs3
        BYTE   W05
        BYTE           N06     Fs3   v013
        BYTE           N06     Bn2
        BYTE   W01
        BYTE           N05     Fs2
        BYTE   W05
        BYTE           N06     Fs2   v016
        BYTE           N06     Bn2
        BYTE   W06
        BYTE                   Fs3   v011
        BYTE           N06     Bn2
        BYTE   W06
// 001   ----------------------------------------
DeadWindsStillTides_5_1:
        BYTE           N12     En2   v019
        BYTE           N12     An2
        BYTE   W01
        BYTE           N11     En3
        BYTE   W11
        BYTE           N06     En2   v016
        BYTE           N06     An2
        BYTE   W01
        BYTE           N05     En3
        BYTE   W05
        BYTE           N06     En3   v014
        BYTE           N06     An2
        BYTE   W01
        BYTE           N05     En2
        BYTE   W11
        BYTE           N06     En3   v013
        BYTE           N06     An2
        BYTE   W06
        BYTE           N12     En2   v017
        BYTE           N12     An2
        BYTE   W12
        BYTE           N06     En2   v019
        BYTE           N06     An2
        BYTE   W01
        BYTE           N05     En3
        BYTE   W05
        BYTE           N12     En3   v013
        BYTE           N12     An2
        BYTE   W01
        BYTE           N11     En2
        BYTE   W11
        BYTE           N06     En3   v017
        BYTE           N06     An2
        BYTE   W06
        BYTE                   En2
        BYTE           N06     An2
        BYTE   W01
        BYTE           N05     En3
        BYTE   W05
        BYTE           N06     En3   v013
        BYTE           N06     An2
        BYTE   W01
        BYTE           N05     En2
        BYTE   W05
        BYTE           N06     En2   v016
        BYTE           N06     An2
        BYTE   W06
        BYTE                   En3   v011
        BYTE           N06     An2
        BYTE   W06
        BYTE   PEND
// 002   ----------------------------------------
DeadWindsStillTides_5_2:
        BYTE           N12     Fs2   v019
        BYTE           N12     Bn2
        BYTE   W01
        BYTE           N11     Dn3
        BYTE   W11
        BYTE           N06     Fs2   v016
        BYTE           N06     Bn2
        BYTE   W01
        BYTE           N05     Dn3
        BYTE   W05
        BYTE           N06     Dn3   v014
        BYTE           N06     Bn2
        BYTE   W01
        BYTE           N05     Fs2
        BYTE   W11
        BYTE           N06     Dn3   v013
        BYTE           N06     Bn2
        BYTE   W06
        BYTE           N12     Fs2   v017
        BYTE           N12     Bn2
        BYTE   W12
        BYTE           N06     Fs2   v019
        BYTE           N06     Bn2
        BYTE   W01
        BYTE           N05     Dn3
        BYTE   W05
        BYTE           N12     Dn3   v013
        BYTE           N12     Bn2
        BYTE   W01
        BYTE           N11     Fs2
        BYTE   W11
        BYTE           N06     Dn3   v017
        BYTE           N06     Bn2
        BYTE   W06
        BYTE                   Fs2
        BYTE           N06     Bn2
        BYTE   W01
        BYTE           N05     Dn3
        BYTE   W05
        BYTE           N06     Dn3   v013
        BYTE           N06     Bn2
        BYTE   W01
        BYTE           N05     Fs2
        BYTE   W05
        BYTE           N06     Fs2   v016
        BYTE           N06     Bn2
        BYTE   W06
        BYTE                   Dn3   v011
        BYTE           N06     Bn2
        BYTE   W06
        BYTE   PEND
// 003   ----------------------------------------
        BYTE           N12     En2   v019
        BYTE           N12     An2
        BYTE   W01
        BYTE           N11     Cn3
        BYTE   W11
        BYTE           N06     En2   v016
        BYTE           N06     An2
        BYTE   W01
        BYTE           N05     Cn3
        BYTE   W05
        BYTE           N06     Cn3   v014
        BYTE           N06     An2
        BYTE   W01
        BYTE           N05     En2
        BYTE   W11
        BYTE           N06     Cn3   v013
        BYTE           N06     An2
        BYTE   W06
        BYTE           N12     En2   v017
        BYTE           N12     An2
        BYTE   W12
        BYTE                   En2   v019
        BYTE           N12     An2
        BYTE   W01
        BYTE           N11     Cn3
        BYTE   W11
        BYTE           N12     En2   v007
        BYTE           N12     Cn3
        BYTE           N12     An2
        BYTE   W12
        BYTE           N24     En2   v001
        BYTE           N24     Cn3
        BYTE           N24     An2
        BYTE   W24
// 004   ----------------------------------------
DeadWindsStillTides_5_4:
        BYTE           N12     Fs2   v019
        BYTE           N12     Bn2
        BYTE   W01
        BYTE           N11     Fs3
        BYTE   W11
        BYTE           N06     Fs2   v016
        BYTE           N06     Bn2
        BYTE   W01
        BYTE           N05     Fs3
        BYTE   W05
        BYTE           N06     Fs3   v014
        BYTE           N06     Bn2
        BYTE   W01
        BYTE           N05     Fs2
        BYTE   W11
        BYTE           N06     Fs3   v013
        BYTE           N06     Bn2
        BYTE   W06
        BYTE           N12     Fs2   v017
        BYTE           N12     Bn2
        BYTE   W12
        BYTE           N06     Fs2   v019
        BYTE           N06     Bn2
        BYTE   W01
        BYTE           N05     Fs3
        BYTE   W05
        BYTE           N12     Fs3   v013
        BYTE           N12     Bn2
        BYTE   W01
        BYTE           N11     Fs2
        BYTE   W11
        BYTE           N06     Fs3   v017
        BYTE           N06     Bn2
        BYTE   W06
        BYTE                   Fs2
        BYTE           N06     Bn2
        BYTE   W01
        BYTE           N05     Fs3
        BYTE   W05
        BYTE           N06     Fs3   v013
        BYTE           N06     Bn2
        BYTE   W01
        BYTE           N05     Fs2
        BYTE   W05
        BYTE           N06     Fs2   v016
        BYTE           N06     Bn2
        BYTE   W06
        BYTE                   Fs3   v011
        BYTE           N06     Bn2
        BYTE   W06
        BYTE   PEND
// 005   ----------------------------------------
        BYTE   PATT
         POIN2  DeadWindsStillTides_5_1
// 006   ----------------------------------------
        BYTE   PATT
         POIN2  DeadWindsStillTides_5_2
// 007   ----------------------------------------
        BYTE           N12     En2   v019
        BYTE           N12     An2
        BYTE   W01
        BYTE           N11     Cn3
        BYTE   W11
        BYTE           N06     En2   v016
        BYTE           N06     An2
        BYTE   W01
        BYTE           N05     Cn3
        BYTE   W05
        BYTE           N06     Cn3   v014
        BYTE           N06     An2
        BYTE   W01
        BYTE           N05     En2
        BYTE   W11
        BYTE           N06     Cn3   v013
        BYTE           N06     An2
        BYTE   W06
        BYTE           N12     En2   v017
        BYTE           N12     An2
        BYTE   W12
        BYTE                   En2   v019
        BYTE           N12     An2
        BYTE   W01
        BYTE           N11     Cn3
        BYTE   W11
        BYTE           N12     Cn3   v007
        BYTE           N12     An2
        BYTE           N12     En2
        BYTE   W12
        BYTE           N24     En2   v001
        BYTE           N24     An2
        BYTE           N24     Cn3
        BYTE   W24
// 008   ----------------------------------------
        BYTE   PATT
         POIN2  DeadWindsStillTides_5_4
// 009   ----------------------------------------
        BYTE   PATT
         POIN2  DeadWindsStillTides_5_1
// 010   ----------------------------------------
        BYTE   PATT
         POIN2  DeadWindsStillTides_5_2
// 011   ----------------------------------------
        BYTE           N12     En2   v019
        BYTE           N12     An2
        BYTE   W01
        BYTE           N11     Cn3
        BYTE   W11
        BYTE           N06     En2   v016
        BYTE           N06     An2
        BYTE   W01
        BYTE           N05     Cn3
        BYTE   W05
        BYTE           N06     Cn3   v014
        BYTE           N06     An2
        BYTE   W01
        BYTE           N05     En2
        BYTE   W11
        BYTE           N06     Cn3   v013
        BYTE           N06     An2
        BYTE   W06
        BYTE           N12     En2   v017
        BYTE           N12     An2
        BYTE   W12
        BYTE                   En2   v019
        BYTE           N12     An2
        BYTE   W01
        BYTE           N11     Cn3
        BYTE   W11
        BYTE           N12     En2   v007
        BYTE           N12     An2
        BYTE           N12     Cn3
        BYTE   W12
        BYTE                   An2   v001
        BYTE           N12     En2
        BYTE           N12     Cn3
        BYTE   W24
// 012   ----------------------------------------
        BYTE           N84     Dn3   v024
        BYTE   W01
        BYTE           N80     Fn3   v024   gtp3
        BYTE   W44
        BYTE   W03
        BYTE           N36     An3   v029
        BYTE   W12
        BYTE           N04     Bn3
        BYTE   W04
        BYTE           N05     Cn4   v016
        BYTE   W05
        BYTE           N03     Bn3
        BYTE   W03
        BYTE           N12     Cn4   v029
        BYTE   W12
        BYTE           N84     Bn2   v024
        BYTE   W01
        BYTE           N80     En3   v024   gtp3
        BYTE   W11
// 013   ----------------------------------------
        BYTE           N72     Gn3   v029
        BYTE   W72
        BYTE           N84     Dn3   v024
        BYTE   W01
        BYTE           N80     Fn3   v024   gtp3
        BYTE   W23
// 014   ----------------------------------------
        BYTE   W24
        BYTE           N36     An3   v029
        BYTE   W12
        BYTE           N04     Bn3
        BYTE   W04
        BYTE           N05     Cn4   v016
        BYTE   W05
        BYTE           N03     Bn3
        BYTE   W03
        BYTE           N12     Cn4   v029
        BYTE   W12
        BYTE           N84     Bn2   v024
        BYTE   W01
        BYTE           N80     En3   v024   gtp3
        BYTE   W11
        BYTE           N24     An3   v029
        BYTE   W24
// 015   ----------------------------------------
        BYTE           N48     Gn3   v024
        BYTE   W48
        BYTE           N84     Dn3
        BYTE   W01
        BYTE           N80     Fn3   v024   gtp3
        BYTE   W44
        BYTE   W03
// 016   ----------------------------------------
        BYTE           N36     An3   v029
        BYTE   W12
        BYTE           N04     Bn3
        BYTE   W04
        BYTE           N05     Cn4   v016
        BYTE   W05
        BYTE           N03     Bn3
        BYTE   W03
        BYTE           N12     Cn4   v029
        BYTE   W12
        BYTE           N48     Bn2   v024
        BYTE   W01
        BYTE           N44     En3   v024   gtp3
        BYTE   W11
        BYTE           N36     Gn3   v029
        BYTE   W36
        BYTE                   Bn2   v024
        BYTE   W01
        BYTE           N32     En3   v024   gtp3
        BYTE   W11
// 017   ----------------------------------------
        BYTE           N24     Dn4   v029
        BYTE   W24
        BYTE           N84     Dn3   v024
        BYTE           N48     Cn4   v029
        BYTE   W01
        BYTE           N80     Fn3   v024   gtp3
        BYTE   W44
        BYTE   W03
        BYTE           N36     An3   v029
        BYTE   W12
        BYTE           N04     Bn3
        BYTE   W04
        BYTE           N05     Cn4   v016
        BYTE   W05
        BYTE           N03     Bn3
        BYTE   W03
// 018   ----------------------------------------
        BYTE           N12     Cn4   v029
        BYTE   W12
        BYTE           N48     Bn2   v024
        BYTE   W01
        BYTE           N44     En3   v024   gtp3
        BYTE   W11
        BYTE           N24     An3   v029
        BYTE   W24
        BYTE           N12     Gn3   v024
        BYTE   W12
        BYTE           N36     Bn2
        BYTE   W01
        BYTE           N32     En3   v024   gtp3
        BYTE   W11
        BYTE           N12     Gn3   v029
        BYTE   W12
        BYTE                   Dn3
        BYTE   W12
// 019   ----------------------------------------
        BYTE           N84     An2   v024
        BYTE   W01
        BYTE           N80     Dn3   v024   gtp3
        BYTE   W80
        BYTE   W03
        BYTE           N84     Bn2
        BYTE   W01
        BYTE           N80     En3   v024   gtp3
        BYTE   W11
// 020   ----------------------------------------
        BYTE   W72
        BYTE           N84     An2
        BYTE   W01
        BYTE           N80     En3   v024   gtp3
        BYTE   W23
// 021   ----------------------------------------
        BYTE   W60
        BYTE           N84     Fn2
        BYTE   W01
        BYTE           N80     Cn3   v024   gtp3
        BYTE   W32
        BYTE   W03
// 022   ----------------------------------------
        BYTE   W48
        BYTE           N84     An2
        BYTE   W01
        BYTE           N80     Dn3   v024   gtp3
        BYTE   W44
        BYTE   W03
// 023   ----------------------------------------
        BYTE   W36
        BYTE           N84     Bn2
        BYTE   W01
        BYTE           N80     En3   v024   gtp3
        BYTE   W56
        BYTE   W03
// 024   ----------------------------------------
        BYTE   W24
        BYTE           N84     An2
        BYTE   W01
        BYTE           N80     En3   v024   gtp3
        BYTE   W68
        BYTE   W03
// 025   ----------------------------------------
        BYTE   W12
        BYTE           N84     Fn2
        BYTE   W01
        BYTE           N80     Cn3   v024   gtp3
        BYTE   W80
        BYTE   W03
// 026   ----------------------------------------
DeadWindsStillTides_5_26:
        BYTE           N96     As2   v024
        BYTE   W01
        BYTE           N92     Cs3   v024   gtp3
        BYTE   W44
        BYTE   W03
        BYTE           N48     Fn3   v029
        BYTE   W12
        BYTE           N04     En3
        BYTE   W04
        BYTE           N05     Fs3   v016
        BYTE   W05
        BYTE           N03     En3
        BYTE   W03
        BYTE           N24     Fs3   v029
        BYTE   W24
        BYTE   PEND
// 027   ----------------------------------------
        BYTE           N96     Fs2   v024
        BYTE   W01
        BYTE           N92     Bn2   v024   gtp3
        BYTE   W11
        BYTE           N84     Dn3   v029
        BYTE   W84
// 028   ----------------------------------------
        BYTE   PATT
         POIN2  DeadWindsStillTides_5_26
// 029   ----------------------------------------
        BYTE           N96     Fs2   v024
        BYTE   W01
        BYTE           N92     Bn2   v024   gtp3
        BYTE   W11
        BYTE           N24     Cs3   v029
        BYTE   W24
        BYTE           N60     Dn3   v024
        BYTE   W60
// 030   ----------------------------------------
        BYTE   PATT
         POIN2  DeadWindsStillTides_5_26
// 031   ----------------------------------------
        BYTE           N48     Fs2   v024
        BYTE   W01
        BYTE           N44     Bn2   v024   gtp3
        BYTE   W11
        BYTE           N36     Dn3   v029
        BYTE   W36
        BYTE           N48     Fs2   v024
        BYTE   W01
        BYTE           N44     Bn2   v024   gtp3
        BYTE   W11
        BYTE           N36     An3   v029
        BYTE   W36
// 032   ----------------------------------------
        BYTE           N96     Gs3
        BYTE           N96     As2   v024
        BYTE   W01
        BYTE           N92     Cs3   v024   gtp3
        BYTE   W92
        BYTE   W03
// 033   ----------------------------------------
        BYTE           N48     Fs2
        BYTE   W01
        BYTE           N44     Bn2   v024   gtp3
        BYTE   W11
        BYTE           N24     Cs3   v029
        BYTE   W24
        BYTE           N12     Dn3   v024
        BYTE   W12
        BYTE           N48     Fs2
        BYTE   W01
        BYTE           N44     Bn2   v024   gtp3
        BYTE   W11
        BYTE           N12     Dn3   v029
        BYTE   W12
        BYTE           N24     Fn3
        BYTE   W24
// 034   ----------------------------------------
        BYTE   GoTo
         POIN2  DeadWindsStillTides_5_LOOP
        BYTE   FINE

//****************** Track 6 (Midi-Chn.6) ******************//

DeadWindsStillTides_6:
        BYTE   KEYSH   DeadWindsStillTides_key+0
// 000   ----------------------------------------
DeadWindsStillTides_6_LOOP:
        BYTE           VOICE   119
        BYTE           N12     Bn1   v035
        BYTE           N24     Gn1
        BYTE           VOL     127
        BYTE   W12
        BYTE           N12     Dn2   v032
        BYTE   W12
        BYTE                   Bn1   v035
        BYTE           N18     Fn1   v030
        BYTE   W12
        BYTE           N12     Dn2   v032
        BYTE   W06
        BYTE           N24     Gn1   v035
        BYTE   W06
        BYTE           N12     Bn1
        BYTE   W12
        BYTE                   Dn2   v032
        BYTE   W12
        BYTE                   Bn1   v035
        BYTE           N24     Fn1   v030
        BYTE   W12
        BYTE           N12     Dn2   v032
        BYTE   W12
// 001   ----------------------------------------
DeadWindsStillTides_6_1:
        BYTE           N12     Bn1   v035
        BYTE           N24     Gn1
        BYTE   W12
        BYTE           N12     Dn2   v032
        BYTE   W12
        BYTE                   Bn1   v035
        BYTE           N18     Fn1   v030
        BYTE   W12
        BYTE           N12     Dn2   v032
        BYTE   W06
        BYTE           N24     Gn1   v035
        BYTE   W06
        BYTE           N12     Bn1
        BYTE   W12
        BYTE                   Dn2   v032
        BYTE   W12
        BYTE                   Bn1   v035
        BYTE           N24     Fn1   v030
        BYTE   W12
        BYTE           N12     Dn2   v032
        BYTE   W12
        BYTE   PEND
// 002   ----------------------------------------
        BYTE   PATT
         POIN2  DeadWindsStillTides_6_1
// 003   ----------------------------------------
        BYTE   PATT
         POIN2  DeadWindsStillTides_6_1
// 004   ----------------------------------------
        BYTE   PATT
         POIN2  DeadWindsStillTides_6_1
// 005   ----------------------------------------
        BYTE   PATT
         POIN2  DeadWindsStillTides_6_1
// 006   ----------------------------------------
        BYTE   PATT
         POIN2  DeadWindsStillTides_6_1
// 007   ----------------------------------------
        BYTE   PATT
         POIN2  DeadWindsStillTides_6_1
// 008   ----------------------------------------
        BYTE           N24     Gn1   v035
        BYTE           N12     Bn1
        BYTE   W12
        BYTE                   Dn2   v032
        BYTE   W12
        BYTE                   Bn1   v035
        BYTE           N18     Fn1   v030
        BYTE   W12
        BYTE           N12     Dn2   v032
        BYTE   W06
        BYTE           N24     Gn1   v035
        BYTE   W06
        BYTE           N12     Bn1
        BYTE   W12
        BYTE                   Dn2   v032
        BYTE   W12
        BYTE                   Bn1   v035
        BYTE           N24     Fn1   v030
        BYTE   W12
        BYTE           N12     Dn2   v032
        BYTE   W12
// 009   ----------------------------------------
        BYTE   PATT
         POIN2  DeadWindsStillTides_6_1
// 010   ----------------------------------------
        BYTE   PATT
         POIN2  DeadWindsStillTides_6_1
// 011   ----------------------------------------
        BYTE           N12     Bn1   v035
        BYTE           N24     Gn1
        BYTE   W12
        BYTE           N12     Dn2   v032
        BYTE   W12
        BYTE                   Bn1   v035
        BYTE           N18     Fn1   v030
        BYTE   W12
        BYTE           N12     Dn2   v032
        BYTE   W06
        BYTE           N24     Gn1   v035
        BYTE   W06
        BYTE           N12     Bn1
        BYTE   W12
        BYTE                   Dn2   v032
        BYTE   W12
        BYTE                   Bn1   v035
        BYTE           N12     Fn1   v030
        BYTE   W24
// 012   ----------------------------------------
        BYTE   W96
// 013   ----------------------------------------
        BYTE   W96
// 014   ----------------------------------------
        BYTE   W96
// 015   ----------------------------------------
        BYTE   W96
// 016   ----------------------------------------
        BYTE   W96
// 017   ----------------------------------------
        BYTE   W96
// 018   ----------------------------------------
        BYTE   W96
// 019   ----------------------------------------
        BYTE   W96
// 020   ----------------------------------------
        BYTE   W96
// 021   ----------------------------------------
        BYTE   W96
// 022   ----------------------------------------
        BYTE   W96
// 023   ----------------------------------------
        BYTE   W96
// 024   ----------------------------------------
        BYTE   W96
// 025   ----------------------------------------
        BYTE   W96
// 026   ----------------------------------------
        BYTE   W96
// 027   ----------------------------------------
        BYTE   W96
// 028   ----------------------------------------
        BYTE   W96
// 029   ----------------------------------------
        BYTE   W96
// 030   ----------------------------------------
        BYTE   W96
// 031   ----------------------------------------
        BYTE   W96
// 032   ----------------------------------------
        BYTE   W96
// 033   ----------------------------------------
        BYTE   W96
// 034   ----------------------------------------
        BYTE   GoTo
         POIN2  DeadWindsStillTides_6_LOOP
        BYTE   FINE

//****************** Track 7 (Midi-Chn.7) ******************//

DeadWindsStillTides_7:
        BYTE   KEYSH   DeadWindsStillTides_key+0
// 000   ----------------------------------------
DeadWindsStillTides_7_LOOP:
        BYTE           VOICE   124
        BYTE           VOL     127
        BYTE   W96
// 001   ----------------------------------------
        BYTE   W96
// 002   ----------------------------------------
        BYTE   W96
// 003   ----------------------------------------
        BYTE   W96
// 004   ----------------------------------------
        BYTE   W96
// 005   ----------------------------------------
        BYTE   W96
// 006   ----------------------------------------
        BYTE   W96
// 007   ----------------------------------------
        BYTE   W96
// 008   ----------------------------------------
        BYTE   W96
// 009   ----------------------------------------
        BYTE   W96
// 010   ----------------------------------------
        BYTE   W96
// 011   ----------------------------------------
        BYTE   W96
// 012   ----------------------------------------
        BYTE           N24     Cn1   v063
        BYTE           N12     Fs1   v045
        BYTE   W24
        BYTE           N24     Cs1
        BYTE   W12
        BYTE           N12     Fs1
        BYTE   W12
        BYTE           N24     Cn1   v063
        BYTE           N12     Fs1   v045
        BYTE   W24
        BYTE                   Cs1
        BYTE   W12
        BYTE                   Fs1
        BYTE           N24     Cn1   v063
        BYTE   W12
// 013   ----------------------------------------
        BYTE   W12
        BYTE                   Cs1   v045
        BYTE   W12
        BYTE           N12     Fs1
        BYTE   W12
        BYTE                   Fs1
        BYTE           N24     Cn1   v063
        BYTE   W24
        BYTE           N12     Cs1   v045
        BYTE   W12
        BYTE                   Fs1
        BYTE           N24     Cn1   v063
        BYTE   W24
// 014   ----------------------------------------
        BYTE                   Cs1   v045
        BYTE   W12
        BYTE           N12     Fs1
        BYTE   W12
        BYTE                   Fs1
        BYTE           N24     Cn1   v063
        BYTE   W24
        BYTE           N12     Cs1   v045
        BYTE   W12
        BYTE                   Fs1
        BYTE           N24     Cn1   v063
        BYTE   W24
        BYTE                   Cs1   v045
        BYTE   W12
// 015   ----------------------------------------
        BYTE           N12     Fs1
        BYTE   W12
        BYTE           N18     Gn1   v063
        BYTE   W18
        BYTE                   Fn1
        BYTE   W18
        BYTE           N12     Fs1   v045
        BYTE           N24     Cn1   v063
        BYTE   W24
        BYTE                   Cs1   v045
        BYTE   W12
        BYTE           N12     Fs1
        BYTE   W12
// 016   ----------------------------------------
        BYTE                   Fs1
        BYTE           N24     Cn1   v063
        BYTE   W24
        BYTE           N12     Cs1   v045
        BYTE   W12
        BYTE                   Fs1
        BYTE           N24     Cn1   v063
        BYTE   W24
        BYTE                   Cs1   v045
        BYTE   W12
        BYTE           N12     Fs1
        BYTE   W12
        BYTE           N24     Cn1   v063
        BYTE           N12     Fs1   v045
        BYTE   W12
// 017   ----------------------------------------
        BYTE   W12
        BYTE                   Cs1
        BYTE   W12
        BYTE           N24     Cn1   v063
        BYTE           N12     Fs1   v045
        BYTE   W24
        BYTE           N24     Cs1
        BYTE   W12
        BYTE           N12     Fs1
        BYTE   W12
        BYTE           N24     Cn1   v063
        BYTE           N12     Fs1   v045
        BYTE   W24
// 018   ----------------------------------------
        BYTE                   Cs1
        BYTE   W12
        BYTE                   Fs1
        BYTE           N24     Cn1   v063
        BYTE   W24
        BYTE                   Cs1   v045
        BYTE   W12
        BYTE           N12     Fs1
        BYTE   W12
        BYTE           N06     An1   v050
        BYTE   W06
        BYTE                   Gn1
        BYTE   W06
        BYTE           N24     En2   v046
        BYTE   W06
        BYTE           N06     Gn1   v050
        BYTE   W06
        BYTE                   Fn1
        BYTE   W06
        BYTE                   Cn1
        BYTE   W06
// 019   ----------------------------------------
        BYTE           N24     Cn1   v063
        BYTE           N12     Fs1   v040
        BYTE           N48     An2   v046
        BYTE   W12
        BYTE           N12     Fs1   v035
        BYTE   W12
        BYTE                   Fs1   v037
        BYTE           N24     En1   v028
        BYTE   W12
        BYTE           N12     Fs1   v035
        BYTE   W12
        BYTE           N24     Cn1   v063
        BYTE           N12     Fs1   v037
        BYTE   W12
        BYTE                   Fs1   v035
        BYTE   W12
        BYTE                   Fs1   v037
        BYTE           N12     En1   v028
        BYTE   W12
        BYTE           N24     Cn1   v063
        BYTE           N12     Fs1   v040
        BYTE   W12
// 020   ----------------------------------------
        BYTE                   Fs1   v035
        BYTE   W12
        BYTE                   Fs1   v037
        BYTE           N18     En1   v028
        BYTE   W12
        BYTE           N12     Fs1   v035
        BYTE   W06
        BYTE           N06     Cn1   v063
        BYTE   W06
        BYTE           N12     Fs1   v037
        BYTE           N24     Cn1   v063
        BYTE   W12
        BYTE           N12     Fs1   v035
        BYTE   W12
        BYTE                   Fs1   v037
        BYTE           N12     En1   v028
        BYTE   W12
        BYTE           N24     Cn1   v063
        BYTE           N12     Fs1   v040
        BYTE   W12
        BYTE                   Fs1   v035
        BYTE   W12
// 021   ----------------------------------------
        BYTE                   Fs1   v037
        BYTE           N24     En1   v028
        BYTE   W12
        BYTE           N12     Fs1   v035
        BYTE   W12
        BYTE           N24     Cn1   v063
        BYTE           N12     Fs1   v037
        BYTE   W12
        BYTE                   Fs1   v035
        BYTE   W12
        BYTE                   Fs1   v037
        BYTE           N12     En1   v028
        BYTE   W12
        BYTE                   Fs1   v040
        BYTE           N24     Cn1   v063
        BYTE   W12
        BYTE           N12     Fs1   v035
        BYTE   W12
        BYTE                   Fs1   v037
        BYTE           N18     En1   v028
        BYTE   W12
// 022   ----------------------------------------
        BYTE           N12     Fs1   v035
        BYTE   W06
        BYTE           N06     Cn1   v063
        BYTE   W06
        BYTE           N12     Cs1   v040
        BYTE           N12     Fs1
        BYTE   W12
        BYTE                   Cs1
        BYTE           N12     Fs1
        BYTE   W12
        BYTE           N06
        BYTE           N06     Cs1
        BYTE   W06
        BYTE                   Cn1   v063
        BYTE   W06
        BYTE           N24
        BYTE           N12     Fs1   v040
        BYTE   W12
        BYTE                   Fs1   v035
        BYTE   W12
        BYTE                   Fs1   v037
        BYTE           N24     En1   v028
        BYTE   W12
        BYTE           N12     Fs1   v035
        BYTE   W12
// 023   ----------------------------------------
        BYTE           N24     Cn1   v063
        BYTE           N12     Fs1   v037
        BYTE   W12
        BYTE                   Fs1   v035
        BYTE   W12
        BYTE                   Fs1   v037
        BYTE           N12     En1   v028
        BYTE   W12
        BYTE                   Fs1   v040
        BYTE           N24     Cn1   v063
        BYTE   W12
        BYTE           N12     Fs1   v035
        BYTE   W12
        BYTE                   Fs1   v037
        BYTE           N18     En1   v028
        BYTE   W12
        BYTE           N12     Fs1   v035
        BYTE   W06
        BYTE           N06     Cn1   v063
        BYTE   W06
        BYTE           N24
        BYTE           N12     Fs1   v037
        BYTE   W12
// 024   ----------------------------------------
        BYTE                   Fs1   v035
        BYTE   W12
        BYTE                   Fs1   v037
        BYTE           N12     En1   v028
        BYTE   W12
        BYTE                   Fs1   v040
        BYTE           N24     Cn1   v063
        BYTE   W12
        BYTE           N12     Fs1   v035
        BYTE   W12
        BYTE                   Fs1   v037
        BYTE           N24     En1   v028
        BYTE   W12
        BYTE           N12     Fs1   v035
        BYTE   W12
        BYTE           N24     Cn1   v063
        BYTE           N12     Fs1   v037
        BYTE   W12
        BYTE                   Fs1   v035
        BYTE   W12
// 025   ----------------------------------------
        BYTE                   Fs1   v037
        BYTE           N12     En1   v028
        BYTE   W12
        BYTE                   Fs1   v040
        BYTE           N24     Cn1   v063
        BYTE   W12
        BYTE           N12     Fs1   v035
        BYTE   W12
        BYTE                   Fs1   v037
        BYTE           N18     En1   v028
        BYTE   W12
        BYTE           N12     Fs1   v035
        BYTE   W06
        BYTE           N06     Cn1   v063
        BYTE   W30
        BYTE           N12     Fn2
        BYTE   W12
// 026   ----------------------------------------
        BYTE                   Fs1   v045
        BYTE           N24     Cn1   v063
        BYTE           N96     Gn2   v045
        BYTE   W24
        BYTE           N24     Cs1
        BYTE   W12
        BYTE           N12     Fs1
        BYTE   W12
        BYTE                   Fs1
        BYTE           N24     Cn1   v063
        BYTE   W24
        BYTE                   Cs1   v045
        BYTE   W12
        BYTE           N12     Fs1
        BYTE   W12
// 027   ----------------------------------------
DeadWindsStillTides_7_27:
        BYTE           N24     Cn1   v063
        BYTE           N12     Fs1   v045
        BYTE   W24
        BYTE           N24     Cs1
        BYTE   W12
        BYTE           N12     Fs1
        BYTE   W12
        BYTE           N24     Cn1   v063
        BYTE           N12     Fs1   v045
        BYTE   W24
        BYTE           N24     Cs1
        BYTE   W12
        BYTE           N12     Fs1
        BYTE   W12
        BYTE   PEND
// 028   ----------------------------------------
        BYTE   PATT
         POIN2  DeadWindsStillTides_7_27
// 029   ----------------------------------------
        BYTE           N12     Fs1   v045
        BYTE           N24     Cn1   v063
        BYTE   W24
        BYTE                   Cs1   v045
        BYTE   W12
        BYTE           N12     Fs1
        BYTE   W12
        BYTE           N24     Cn1   v063
        BYTE           N12     Fs1   v045
        BYTE   W12
        BYTE                   Fs1
        BYTE   W12
        BYTE                   Fs1
        BYTE           N12     Cs1
        BYTE   W12
        BYTE                   Fs1
        BYTE           N12     Cs1   v040
        BYTE   W12
// 030   ----------------------------------------
        BYTE   PATT
         POIN2  DeadWindsStillTides_7_27
// 031   ----------------------------------------
        BYTE           N12     Fs1   v045
        BYTE           N24     Cn1   v063
        BYTE   W24
        BYTE                   Cs1   v045
        BYTE   W12
        BYTE           N12     Fs1
        BYTE   W12
        BYTE           N24     Cn1   v063
        BYTE           N12     Fs1   v045
        BYTE   W24
        BYTE           N24     Cs1
        BYTE   W12
        BYTE           N12     Fs1
        BYTE   W12
// 032   ----------------------------------------
        BYTE   PATT
         POIN2  DeadWindsStillTides_7_27
// 033   ----------------------------------------
        BYTE           N24     Cn1   v063
        BYTE           N12     Fs1   v045
        BYTE   W24
        BYTE           N24     Cs1
        BYTE   W12
        BYTE           N12     Fs1
        BYTE   W12
        BYTE           N24     Cn1   v063
        BYTE           N12     Fs1   v045
        BYTE   W12
        BYTE                   Fs1
        BYTE   W36
// 034   ----------------------------------------
        BYTE   GoTo
         POIN2  DeadWindsStillTides_7_LOOP
        BYTE   FINE


//********************** End of Song ***********************//

        ALIGN 4
DeadWindsStillTides:
        BYTE   8                       // Num Tracks
        BYTE   0                       // Unknown
        BYTE   DeadWindsStillTides_pri // Priority
        BYTE   DeadWindsStillTides_rev // Reverb

        POIN2   DeadWindsStillTides_grp

        POIN2   DeadWindsStillTides_0
        POIN2   DeadWindsStillTides_1
        POIN2   DeadWindsStillTides_2
        POIN2   DeadWindsStillTides_3
        POIN2   DeadWindsStillTides_4
        POIN2   DeadWindsStillTides_5
        POIN2   DeadWindsStillTides_6
        POIN2   DeadWindsStillTides_7

        
