//Event file generated from Sappy .s format.
        #include "MPlayDef.event"

        #define    PortGreagor_grp  voicegroup000
        #define    PortGreagor_pri  0
        #define    PortGreagor_rev  0
        #define    PortGreagor_key  0

        // .rodata
        // PortGreagor
        ALIGN 4

//****************** Track 0 (Midi-Chn.0) ******************//

PortGreagor_0:
        BYTE   KEYSH   PortGreagor_key+0
// 000   ----------------------------------------
        BYTE   TEMPO   90/2
        BYTE           VOICE   68
        BYTE           PAN     c_v+29
        BYTE           N01     CnM2   v050
        BYTE           N24     Dn3
        BYTE           VOL     127
        BYTE   W24
        BYTE           N24     Dn4   v036
        BYTE   W24
        BYTE                   Fs3   v044
        BYTE   W24
        BYTE                   An3   v040
        BYTE   W24
// 001   ----------------------------------------
        BYTE           N72     Gn3
        BYTE   W72
        BYTE           N12     Cs3   v044
        BYTE   W12
        BYTE                   Dn3
        BYTE   W12
// 002   ----------------------------------------
        BYTE           N24     En3   v050
        BYTE   W24
        BYTE                   En4   v036
        BYTE   W24
        BYTE                   Gn3   v044
        BYTE   W24
        BYTE                   Bn3   v040
        BYTE   W24
// 003   ----------------------------------------
        BYTE                   An3   v050
        BYTE   W24
        BYTE           N12     Fs3   v040
        BYTE   W12
        BYTE                   Gn3
        BYTE   W12
        BYTE                   Fs3
        BYTE   W12
        BYTE                   En3
        BYTE   W12
        BYTE                   Dn3
        BYTE   W12
        BYTE                   Fs3
        BYTE   W12
// 004   ----------------------------------------
PortGreagor_0_LOOP:
        BYTE           N96     An3   v032
        BYTE   W96
// 005   ----------------------------------------
        BYTE                   Gn3
        BYTE   W96
// 006   ----------------------------------------
        BYTE                   En3
        BYTE   W96
// 007   ----------------------------------------
        BYTE                   Dn3
        BYTE   W96
// 008   ----------------------------------------
        BYTE                   An3
        BYTE   W96
// 009   ----------------------------------------
        BYTE                   Gn3
        BYTE   W96
// 010   ----------------------------------------
        BYTE                   En3
        BYTE   W96
// 011   ----------------------------------------
        BYTE                   Dn3
        BYTE   W96
// 012   ----------------------------------------
        BYTE                   Bn3
        BYTE   W96
// 013   ----------------------------------------
        BYTE                   An3
        BYTE   W96
// 014   ----------------------------------------
        BYTE                   Bn3
        BYTE   W96
// 015   ----------------------------------------
        BYTE                   Bn3
        BYTE   W96
// 016   ----------------------------------------
        BYTE                   Dn4
        BYTE   W96
// 017   ----------------------------------------
        BYTE                   Cs4
        BYTE   W96
// 018   ----------------------------------------
        BYTE                   Bn3
        BYTE   W96
// 019   ----------------------------------------
        BYTE                   Fs3
        BYTE   W96
// 020   ----------------------------------------
        BYTE                   An3
        BYTE   W96
// 021   ----------------------------------------
        BYTE                   Gn3
        BYTE   W96
// 022   ----------------------------------------
        BYTE                   En3
        BYTE   W96
// 023   ----------------------------------------
        BYTE                   Dn3
        BYTE   W96
// 024   ----------------------------------------
        BYTE                   An3
        BYTE   W96
// 025   ----------------------------------------
        BYTE                   Gn3
        BYTE   W96
// 026   ----------------------------------------
        BYTE                   En3
        BYTE   W96
// 027   ----------------------------------------
        BYTE                   Dn3
        BYTE   W96
// 028   ----------------------------------------
        BYTE   W96
// 029   ----------------------------------------
        BYTE   W96
// 030   ----------------------------------------
        BYTE   W96
// 031   ----------------------------------------
        BYTE   W96
// 032   ----------------------------------------
        BYTE   W96
// 033   ----------------------------------------
        BYTE   W96
// 034   ----------------------------------------
        BYTE   W96
// 035   ----------------------------------------
        BYTE   W96
// 036   ----------------------------------------
        BYTE   TEMPO   160/2
        BYTE   W96
// 037   ----------------------------------------
        BYTE   W96
// 038   ----------------------------------------
        BYTE   W96
// 039   ----------------------------------------
        BYTE   W96
// 040   ----------------------------------------
        BYTE   W96
// 041   ----------------------------------------
        BYTE   W96
// 042   ----------------------------------------
        BYTE   W96
// 043   ----------------------------------------
        BYTE   W96
// 044   ----------------------------------------
        BYTE   TEMPO   90/2
        BYTE   W96
// 045   ----------------------------------------
        BYTE   GoTo
         POIN2  PortGreagor_0_LOOP
        BYTE   FINE

//****************** Track 1 (Midi-Chn.1) ******************//

PortGreagor_1:
        BYTE   KEYSH   PortGreagor_key+0
// 000   ----------------------------------------
        BYTE           VOICE   89
        BYTE           PAN     c_v-27
        BYTE           VOL     127
        BYTE   W96
// 001   ----------------------------------------
        BYTE   W96
// 002   ----------------------------------------
        BYTE   W96
// 003   ----------------------------------------
        BYTE   W72
        BYTE           N12     Bn3   v040
        BYTE   W12
        BYTE                   Cs4
        BYTE   W12
// 004   ----------------------------------------
PortGreagor_1_LOOP:
        BYTE           N24     Dn4   v050
        BYTE   W24
        BYTE                   Dn4   v044
        BYTE   W24
        BYTE                   An4
        BYTE   W24
        BYTE                   Fs4   v040
        BYTE   W24
// 005   ----------------------------------------
PortGreagor_1_5:
        BYTE           N48     En4   v050
        BYTE   W48
        BYTE           N12     Gn4   v044
        BYTE   W12
        BYTE                   Dn4   v040
        BYTE   W12
        BYTE                   En4
        BYTE   W12
        BYTE                   Fs4
        BYTE   W12
        BYTE   PEND
// 006   ----------------------------------------
PortGreagor_1_6:
        BYTE           N24     En4   v050
        BYTE   W24
        BYTE                   En4   v040
        BYTE   W24
        BYTE           N12     Gn4   v044
        BYTE   W12
        BYTE                   Bn3   v040
        BYTE   W12
        BYTE                   Fs4
        BYTE   W12
        BYTE                   En4
        BYTE   W12
        BYTE   PEND
// 007   ----------------------------------------
PortGreagor_1_7:
        BYTE           N72     Dn4   v050
        BYTE   W72
        BYTE           N12     Bn3   v040
        BYTE   W12
        BYTE                   Cs4
        BYTE   W12
        BYTE   PEND
// 008   ----------------------------------------
PortGreagor_1_8:
        BYTE           N24     Dn4   v050
        BYTE   W24
        BYTE                   Dn4   v044
        BYTE   W24
        BYTE                   Cs4
        BYTE   W24
        BYTE                   En4   v040
        BYTE   W24
        BYTE   PEND
// 009   ----------------------------------------
PortGreagor_1_9:
        BYTE           N48     Bn3   v050
        BYTE   W48
        BYTE           N12     Gn4   v044
        BYTE   W12
        BYTE                   Dn4   v040
        BYTE   W12
        BYTE                   En4
        BYTE   W12
        BYTE                   Fs4
        BYTE   W12
        BYTE   PEND
// 010   ----------------------------------------
PortGreagor_1_10:
        BYTE           N24     An4   v050
        BYTE   W24
        BYTE                   An4   v040
        BYTE   W24
        BYTE           N12     Gn4   v044
        BYTE   W12
        BYTE                   Bn3   v040
        BYTE   W12
        BYTE                   Fs4
        BYTE   W12
        BYTE                   En4
        BYTE   W12
        BYTE   PEND
// 011   ----------------------------------------
        BYTE           N24     Fs4   v036
        BYTE   W24
        BYTE                   Fs4   v032
        BYTE   W24
        BYTE                   Fs4   v028
        BYTE   W24
        BYTE                   Fs4   v024
        BYTE   W24
// 012   ----------------------------------------
        BYTE           N12     Bn3   v050
        BYTE           VOICE   64
        BYTE   W15
        BYTE           N06     Bn3   v044
        BYTE   W06
        BYTE                   Bn3   v050
        BYTE   W15
        BYTE           N12     Dn4   v040
        BYTE   W12
        BYTE                   Bn3   v050
        BYTE   W12
        BYTE                   An3   v040
        BYTE   W12
        BYTE           N24     Bn3
        BYTE   W24
// 013   ----------------------------------------
        BYTE                   En4   v043
        BYTE   W24
        BYTE           N72     An3   v040
        BYTE   W72
// 014   ----------------------------------------
        BYTE           N12     Bn3   v050
        BYTE   W15
        BYTE           N06     Bn3   v044
        BYTE   W06
        BYTE                   Bn3   v050
        BYTE   W15
        BYTE           N12     Dn4   v040
        BYTE   W12
        BYTE                   Bn3   v050
        BYTE   W12
        BYTE                   An3   v040
        BYTE   W12
        BYTE           N24     Bn3
        BYTE   W24
// 015   ----------------------------------------
        BYTE           N06     An3   v050
        BYTE   W06
        BYTE                   Cs4
        BYTE   W06
        BYTE                   Dn4
        BYTE   W06
        BYTE                   Cs4
        BYTE   W06
        BYTE           N48     Bn3   v040
        BYTE   W48
        BYTE           N24     An3
        BYTE   W24
// 016   ----------------------------------------
        BYTE           N12     Bn3   v050
        BYTE   W14
        BYTE           N07     Bn3   v044
        BYTE   W07
        BYTE           N06     Bn3   v050
        BYTE   W15
        BYTE           N12     Dn4   v040
        BYTE   W12
        BYTE                   Bn3   v050
        BYTE   W12
        BYTE                   An3   v040
        BYTE   W12
        BYTE           N24     Bn3
        BYTE   W24
// 017   ----------------------------------------
        BYTE                   En4   v045
        BYTE   W24
        BYTE           N72     Cs4   v040
        BYTE   W72
// 018   ----------------------------------------
        BYTE           N12     Bn3   v050
        BYTE   W15
        BYTE           N06     Bn3   v044
        BYTE   W06
        BYTE                   Bn3   v050
        BYTE   W15
        BYTE           N12     Dn4   v040
        BYTE   W12
        BYTE                   Fs4   v050
        BYTE   W12
        BYTE                   En4   v040
        BYTE   W12
        BYTE           N24     Fs4
        BYTE   W24
// 019   ----------------------------------------
        BYTE           N06     En4   v050
        BYTE   W06
        BYTE                   Gn4
        BYTE   W06
        BYTE                   An4
        BYTE   W06
        BYTE                   Gn4
        BYTE   W06
        BYTE           N48     Fs4   v040
        BYTE   W48
        BYTE           N24     En4
        BYTE   W23
        BYTE           VOICE   89
        BYTE   W01
// 020   ----------------------------------------
        BYTE           N24     Dn4   v050
        BYTE   W24
        BYTE                   Dn4   v044
        BYTE   W24
        BYTE                   An4
        BYTE   W24
        BYTE                   Fs4   v040
        BYTE   W24
// 021   ----------------------------------------
        BYTE   PATT
         POIN2  PortGreagor_1_5
// 022   ----------------------------------------
        BYTE   PATT
         POIN2  PortGreagor_1_6
// 023   ----------------------------------------
        BYTE   PATT
         POIN2  PortGreagor_1_7
// 024   ----------------------------------------
        BYTE   PATT
         POIN2  PortGreagor_1_8
// 025   ----------------------------------------
        BYTE   PATT
         POIN2  PortGreagor_1_9
// 026   ----------------------------------------
        BYTE   PATT
         POIN2  PortGreagor_1_10
// 027   ----------------------------------------
        BYTE           N24     Fs4   v036
        BYTE   W24
        BYTE                   Fs4   v032
        BYTE   W24
        BYTE                   Fs4   v028
        BYTE   W24
        BYTE           N12     Fs4   v024
        BYTE   W12
        BYTE           VOICE   21
        BYTE           N03     Ds4   v040
        BYTE   W03
        BYTE                   Dn4
        BYTE   W03
        BYTE           N02     Cs4
        BYTE   W02
        BYTE           N04     Cn4
        BYTE   W04
// 028   ----------------------------------------
        BYTE           N12     Bn3   v050
        BYTE   W12
        BYTE                   Bn3   v040
        BYTE   W12
        BYTE                   An3
        BYTE   W12
        BYTE           N06     Bn3
        BYTE   W06
        BYTE                   Cs4
        BYTE   W12
        BYTE           N12     En4
        BYTE   W12
        BYTE                   Dn4
        BYTE   W12
        BYTE                   Cs4
        BYTE   W18
// 029   ----------------------------------------
        BYTE           N18     Dn4   v050
        BYTE   W18
        BYTE                   Dn4   v040
        BYTE   W18
        BYTE           N36     Cs4
        BYTE   W36
        BYTE           N24     Bn3
        BYTE   W24
// 030   ----------------------------------------
        BYTE           N72     Dn4   v050
        BYTE   W72
        BYTE           N12     Bn3   v040
        BYTE   W12
        BYTE                   Fs3
        BYTE   W12
// 031   ----------------------------------------
        BYTE           N96     An3   v050
        BYTE   W96
// 032   ----------------------------------------
        BYTE           N12     Bn3
        BYTE   W12
        BYTE                   Bn3   v040
        BYTE   W12
        BYTE                   An3
        BYTE   W12
        BYTE           N06     Bn3
        BYTE   W06
        BYTE                   Cs4
        BYTE   W06
        BYTE           N12     Dn4   v050
        BYTE   W12
        BYTE                   Dn4   v040
        BYTE   W12
        BYTE                   Cs4
        BYTE   W12
        BYTE           N06     Dn4
        BYTE   W06
        BYTE                   En4
        BYTE   W06
// 033   ----------------------------------------
        BYTE           N18     Gn4   v050
        BYTE   W18
        BYTE                   Gn4   v040
        BYTE   W18
        BYTE           N36     Fs4
        BYTE   W36
        BYTE           N24     Dn4
        BYTE   W24
// 034   ----------------------------------------
        BYTE           N72     Dn4   v050
        BYTE   W72
        BYTE           N12     Cs4   v040
        BYTE   W12
        BYTE                   An3
        BYTE   W12
// 035   ----------------------------------------
        BYTE           N24     An3   v050
        BYTE   W24
        BYTE                   An3   v036
        BYTE   W24
        BYTE                   An3   v028
        BYTE   W21
        BYTE           VOICE   79
        BYTE   W03
        BYTE           N12     An4   v050
        BYTE   W12
        BYTE                   As4
        BYTE   W12
// 036   ----------------------------------------
PortGreagor_1_36:
        BYTE           N36     Bn4   v050
        BYTE   W36
        BYTE                   Cs5   v040
        BYTE   W36
        BYTE           N24     Fs5
        BYTE   W24
        BYTE   PEND
// 037   ----------------------------------------
        BYTE           N72     An4   v050
        BYTE   W72
        BYTE           N12     Gn5   v040
        BYTE   W12
        BYTE                   Fs5
        BYTE   W12
// 038   ----------------------------------------
PortGreagor_1_38:
        BYTE           N24     En5   v050
        BYTE   W36
        BYTE           N36     Cs5   v040
        BYTE   W36
        BYTE           N24     Bn4
        BYTE   W24
        BYTE   PEND
// 039   ----------------------------------------
        BYTE           N72     An4   v044
        BYTE   W96
// 040   ----------------------------------------
        BYTE   PATT
         POIN2  PortGreagor_1_36
// 041   ----------------------------------------
        BYTE           N24     Gn5   v050
        BYTE   W24
        BYTE                   Gn5   v040
        BYTE   W24
        BYTE                   Fs5
        BYTE   W24
        BYTE                   Dn5
        BYTE   W24
// 042   ----------------------------------------
        BYTE   PATT
         POIN2  PortGreagor_1_38
// 043   ----------------------------------------
        BYTE           N24     An4   v040
        BYTE   W24
        BYTE                   En5
        BYTE   W24
        BYTE           N48     Cs5
        BYTE   W48
// 044   ----------------------------------------
        BYTE           N72     Cs5   v020
        BYTE   W72
        BYTE           VOICE   89
        BYTE           N12     Bn3   v040
        BYTE   W12
        BYTE                   Cs4
        BYTE   W12
// 045   ----------------------------------------
        BYTE   GoTo
         POIN2  PortGreagor_1_LOOP
        BYTE   FINE

//****************** Track 2 (Midi-Chn.2) ******************//

PortGreagor_2:
        BYTE   KEYSH   PortGreagor_key+0
// 000   ----------------------------------------
        BYTE           VOICE   0
        BYTE           N24     Dn2   v032
        BYTE           VOL     127
        BYTE   W12
        BYTE           N12     An2
        BYTE           N12     Fs3
        BYTE   W12
        BYTE           N24     An1
        BYTE   W12
        BYTE           N12     Fs3   v040
        BYTE           N12     An2
        BYTE   W12
        BYTE           N24     Dn2   v032
        BYTE   W12
        BYTE           N12     An2
        BYTE           N12     Fs3
        BYTE   W12
        BYTE           N24     An1
        BYTE   W12
        BYTE           N12     An2   v040
        BYTE           N12     Fs3
        BYTE   W12
// 001   ----------------------------------------
PortGreagor_2_1:
        BYTE           N24     Gn2   v032
        BYTE   W12
        BYTE           N12     Bn3
        BYTE           N12     Dn3
        BYTE   W12
        BYTE           N24     Dn2
        BYTE   W12
        BYTE           N12     Dn3   v040
        BYTE           N12     Bn3
        BYTE   W12
        BYTE           N24     Gn2   v032
        BYTE   W12
        BYTE           N12     Bn3
        BYTE           N12     Dn3
        BYTE   W12
        BYTE           N24     Dn2
        BYTE   W12
        BYTE           N12     Bn3   v040
        BYTE           N12     Dn3
        BYTE   W12
        BYTE   PEND
// 002   ----------------------------------------
PortGreagor_2_2:
        BYTE           N24     En2   v032
        BYTE   W12
        BYTE           N12     Gn3
        BYTE           N12     Bn2
        BYTE   W12
        BYTE           N24     Bn1
        BYTE   W12
        BYTE           N12     Bn2   v040
        BYTE           N12     Gn3
        BYTE   W12
        BYTE           N24     En2   v032
        BYTE   W12
        BYTE           N12     Gn3
        BYTE           N12     Bn2
        BYTE   W12
        BYTE           N24     Bn1
        BYTE   W12
        BYTE           N12     Gn3   v040
        BYTE           N12     Bn2
        BYTE   W12
        BYTE   PEND
// 003   ----------------------------------------
PortGreagor_2_3:
        BYTE           N24     Bn1   v032
        BYTE   W12
        BYTE           N12     Dn3
        BYTE           N12     Fs2
        BYTE   W12
        BYTE           N24     Fs1
        BYTE   W12
        BYTE           N12     Fs2   v040
        BYTE           N12     Dn3
        BYTE   W12
        BYTE           N24     Bn1   v032
        BYTE   W12
        BYTE           N12     Dn3
        BYTE           N12     Fs2
        BYTE   W12
        BYTE           N24     Fs1
        BYTE   W12
        BYTE           N12     Fs2   v040
        BYTE           N12     Dn3
        BYTE   W12
        BYTE   PEND
// 004   ----------------------------------------
PortGreagor_2_LOOP:
        BYTE           N24     Dn2   v032
        BYTE   W12
        BYTE           N12     An2
        BYTE           N12     Fs3
        BYTE   W12
        BYTE           N24     An1
        BYTE   W12
        BYTE           N12     Fs3   v040
        BYTE           N12     An2
        BYTE   W12
        BYTE           N24     Dn2   v032
        BYTE   W12
        BYTE           N12     An2
        BYTE           N12     Fs3
        BYTE   W12
        BYTE           N24     An1
        BYTE   W12
        BYTE           N12     An2   v040
        BYTE           N12     Fs3
        BYTE   W12
// 005   ----------------------------------------
        BYTE   PATT
         POIN2  PortGreagor_2_1
// 006   ----------------------------------------
        BYTE   PATT
         POIN2  PortGreagor_2_2
// 007   ----------------------------------------
        BYTE   PATT
         POIN2  PortGreagor_2_3
// 008   ----------------------------------------
PortGreagor_2_8:
        BYTE           N01     Fs1   v032
        BYTE           N01     Dn3   v040
        BYTE           N01     Fs2
        BYTE           N24     Dn2   v032
        BYTE   W12
        BYTE           N12     Fs3
        BYTE           N12     An2
        BYTE   W12
        BYTE           N24     An1
        BYTE   W12
        BYTE           N12     An2   v040
        BYTE           N12     Fs3
        BYTE   W12
        BYTE           N24     Dn2   v032
        BYTE   W12
        BYTE           N12     Fs3
        BYTE           N12     An2
        BYTE   W12
        BYTE           N24     An1
        BYTE   W12
        BYTE           N12     Fs3   v040
        BYTE           N12     An2
        BYTE   W12
        BYTE   PEND
// 009   ----------------------------------------
PortGreagor_2_9:
        BYTE           N24     Gn2   v032
        BYTE   W12
        BYTE           N12     Dn3
        BYTE           N12     Bn3
        BYTE   W12
        BYTE           N24     Dn2
        BYTE   W12
        BYTE           N12     Bn3   v040
        BYTE           N12     Dn3
        BYTE   W12
        BYTE           N24     Gn2   v032
        BYTE   W12
        BYTE           N12     Dn3
        BYTE           N12     Bn3
        BYTE   W12
        BYTE           N24     Dn2
        BYTE   W12
        BYTE           N12     Dn3   v040
        BYTE           N12     Bn3
        BYTE   W12
        BYTE   PEND
// 010   ----------------------------------------
PortGreagor_2_10:
        BYTE           N24     En2   v032
        BYTE   W12
        BYTE           N12     Bn2
        BYTE           N12     Gn3
        BYTE   W12
        BYTE           N24     Bn1
        BYTE   W12
        BYTE           N12     Gn3   v040
        BYTE           N12     Bn2
        BYTE   W12
        BYTE           N24     En2   v032
        BYTE   W12
        BYTE           N12     Bn2
        BYTE           N12     Gn3
        BYTE   W12
        BYTE           N24     Bn1
        BYTE   W12
        BYTE           N12     Bn2   v040
        BYTE           N12     Gn3
        BYTE   W12
        BYTE   PEND
// 011   ----------------------------------------
PortGreagor_2_11:
        BYTE           N24     Bn1   v032
        BYTE   W12
        BYTE           N12     Fs2
        BYTE           N12     Dn3
        BYTE   W12
        BYTE           N24     Fs1
        BYTE   W12
        BYTE           N12     Dn3   v040
        BYTE           N12     Fs2
        BYTE   W12
        BYTE           N24     Bn1   v032
        BYTE   W12
        BYTE           N12     Fs2
        BYTE           N12     Dn3
        BYTE   W12
        BYTE           N24     Fs1
        BYTE   W12
        BYTE           N12     Dn3   v040
        BYTE           N12     Fs2
        BYTE   W12
        BYTE   PEND
// 012   ----------------------------------------
        BYTE           N24     Bn1   v032
        BYTE   W12
        BYTE           N12     Fs2
        BYTE           N12     Dn3
        BYTE   W12
        BYTE                   Fs2   v024
        BYTE           N12     Dn3
        BYTE           N24     Fs1   v032
        BYTE   W12
        BYTE           N12     Fs2   v040
        BYTE           N12     Dn3
        BYTE   W12
        BYTE           N24     Bn1   v032
        BYTE   W12
        BYTE           N12     Fs2
        BYTE           N12     Dn3
        BYTE   W12
        BYTE                   Fs2   v024
        BYTE           N12     Dn3
        BYTE           N24     Fs1   v032
        BYTE   W12
        BYTE           N12     Dn3   v040
        BYTE           N12     Fs2
        BYTE   W12
// 013   ----------------------------------------
        BYTE           N01
        BYTE           N01     Fs1   v032
        BYTE           N01     Dn3   v040
        BYTE           N24     An1   v032
        BYTE   W12
        BYTE           N12     Cs3
        BYTE           N12     En2
        BYTE   W12
        BYTE                   En2   v024
        BYTE           N12     Cs3
        BYTE           N24     En1   v032
        BYTE   W12
        BYTE           N12     Cs3   v040
        BYTE           N12     En2
        BYTE   W12
        BYTE           N24     An1   v032
        BYTE   W12
        BYTE           N12     En2
        BYTE           N12     Cs3
        BYTE   W12
        BYTE                   Cs3   v024
        BYTE           N12     En2
        BYTE           N24     En1   v032
        BYTE   W12
        BYTE           N12     Cs3   v040
        BYTE           N12     En2
        BYTE   W12
// 014   ----------------------------------------
        BYTE           N01     Cs3
        BYTE           N01     En2
        BYTE           N24     Bn1   v032
        BYTE   W12
        BYTE           N12     Dn3
        BYTE           N12     Fs2
        BYTE   W12
        BYTE                   Fs2   v024
        BYTE           N12     Dn3
        BYTE           N24     Fs1   v032
        BYTE   W12
        BYTE           N12     Dn3   v040
        BYTE           N12     Fs2
        BYTE   W12
        BYTE           N24     Bn1   v032
        BYTE   W12
        BYTE           N12     Dn3
        BYTE           N12     Fs2
        BYTE   W12
        BYTE                   Dn3   v024
        BYTE           N12     Fs2
        BYTE           N24     Fs1   v032
        BYTE   W12
        BYTE           N12     Dn3   v040
        BYTE           N12     Fs2
        BYTE   W12
// 015   ----------------------------------------
        BYTE           N24     Bn1   v032
        BYTE   W12
        BYTE           N12     Cs3
        BYTE           N12     Fs2
        BYTE   W12
        BYTE                   Fs2   v024
        BYTE           N12     Cs3
        BYTE           N24     Fs1   v032
        BYTE   W12
        BYTE           N12     Cs3   v040
        BYTE           N12     Fs2
        BYTE   W12
        BYTE           N24     Bn1   v032
        BYTE   W12
        BYTE           N12     Cs3
        BYTE           N12     Fs2
        BYTE   W12
        BYTE                   Fs2   v024
        BYTE           N12     Cs3
        BYTE           N24     Fs1   v032
        BYTE   W12
        BYTE           N12     Cs3   v040
        BYTE           N12     Fs2
        BYTE   W12
// 016   ----------------------------------------
        BYTE           N24     Bn1   v032
        BYTE   W12
        BYTE           N12     Dn3
        BYTE           N12     Fs2
        BYTE   W12
        BYTE                   Dn3   v024
        BYTE           N12     Fs2
        BYTE           N24     Fs1   v032
        BYTE   W12
        BYTE           N12     Dn3   v040
        BYTE           N12     Fs2
        BYTE   W12
        BYTE           N24     Bn1   v032
        BYTE   W12
        BYTE           N12     Dn3
        BYTE           N12     Fs2
        BYTE   W12
        BYTE                   Fs2   v024
        BYTE           N12     Dn3
        BYTE           N24     Fs1   v032
        BYTE   W12
        BYTE           N12     Dn3   v040
        BYTE           N12     Fs2
        BYTE   W12
// 017   ----------------------------------------
        BYTE           N01     Dn3
        BYTE           N01     Fs1   v032
        BYTE           N01     Fs2   v040
        BYTE           N24     An1   v032
        BYTE   W12
        BYTE           N12     En2
        BYTE           N12     Cs3
        BYTE   W12
        BYTE                   Cs3   v024
        BYTE           N12     En2
        BYTE           N24     En1   v032
        BYTE   W12
        BYTE           N12     En2   v040
        BYTE           N12     Cs3
        BYTE   W12
        BYTE           N24     An1   v032
        BYTE   W12
        BYTE           N12     Cs3
        BYTE           N12     En2
        BYTE   W12
        BYTE                   En2   v024
        BYTE           N12     Cs3
        BYTE           N24     En1   v032
        BYTE   W12
        BYTE           N12     En2   v040
        BYTE           N12     Cs3
        BYTE   W12
// 018   ----------------------------------------
        BYTE           N01
        BYTE           N01     En2
        BYTE           N24     Bn1   v032
        BYTE   W12
        BYTE           N12     Dn3
        BYTE           N12     Fs2
        BYTE   W12
        BYTE                   Fs2   v024
        BYTE           N12     Dn3
        BYTE           N24     Fs1   v032
        BYTE   W12
        BYTE           N12     Dn3   v040
        BYTE           N12     Fs2
        BYTE   W12
        BYTE           N24     Bn1   v032
        BYTE   W12
        BYTE           N12     Dn3
        BYTE           N12     Fs2
        BYTE   W12
        BYTE                   Fs2   v024
        BYTE           N12     Dn3
        BYTE           N24     Fs1   v032
        BYTE   W12
        BYTE           N12     Dn3   v040
        BYTE           N12     Fs2
        BYTE   W12
// 019   ----------------------------------------
        BYTE           N24     Bn1   v032
        BYTE   W12
        BYTE           N12     Fs2
        BYTE           N12     Cs3
        BYTE   W12
        BYTE                   Fs2   v024
        BYTE           N12     Cs3
        BYTE           N24     Fs1   v032
        BYTE   W12
        BYTE           N12     Cs3   v040
        BYTE           N12     Fs2
        BYTE   W12
        BYTE           N24     Bn1   v032
        BYTE   W12
        BYTE           N12     Fs2
        BYTE           N12     Cs3
        BYTE   W12
        BYTE                   Cs3   v024
        BYTE           N12     Fs2
        BYTE           N24     Fs1   v032
        BYTE   W12
        BYTE           N12     Fs2   v040
        BYTE           N12     Cs3
        BYTE   W12
// 020   ----------------------------------------
        BYTE   PATT
         POIN2  PortGreagor_2_8
// 021   ----------------------------------------
        BYTE   PATT
         POIN2  PortGreagor_2_9
// 022   ----------------------------------------
        BYTE   PATT
         POIN2  PortGreagor_2_10
// 023   ----------------------------------------
        BYTE   PATT
         POIN2  PortGreagor_2_11
// 024   ----------------------------------------
        BYTE           N01     Fs2   v040
        BYTE           N01     Dn3
        BYTE           N01     Fs1   v032
        BYTE           N24     Dn2
        BYTE   W12
        BYTE           N12     An2
        BYTE           N12     Fs3
        BYTE   W12
        BYTE           N24     An1
        BYTE   W12
        BYTE           N12     Fs3   v040
        BYTE           N12     An2
        BYTE   W12
        BYTE           N24     Dn2   v032
        BYTE   W12
        BYTE           N12     An2
        BYTE           N12     Fs3
        BYTE   W12
        BYTE           N24     An1
        BYTE   W12
        BYTE           N12     An2   v040
        BYTE           N12     Fs3
        BYTE   W12
// 025   ----------------------------------------
        BYTE   PATT
         POIN2  PortGreagor_2_1
// 026   ----------------------------------------
        BYTE   PATT
         POIN2  PortGreagor_2_2
// 027   ----------------------------------------
        BYTE   PATT
         POIN2  PortGreagor_2_3
// 028   ----------------------------------------
        BYTE           N24     Bn2   v032
        BYTE   W12
        BYTE           N12     Fs3
        BYTE           N12     Dn4
        BYTE   W12
        BYTE           N24     Fs2
        BYTE   W12
        BYTE           N06     Fs3   v040
        BYTE           N06     Dn4
        BYTE   W06
        BYTE                   Dn4   v036
        BYTE           N06     Fs3
        BYTE   W06
        BYTE           N24     Bn2   v032
        BYTE   W12
        BYTE           N12     Fs3
        BYTE           N12     Dn4
        BYTE   W12
        BYTE           N24     Fs2
        BYTE   W12
        BYTE           N06     Dn4   v040
        BYTE           N06     Fs3
        BYTE   W06
        BYTE                   Fs3   v036
        BYTE           N06     Dn4
        BYTE   W06
// 029   ----------------------------------------
        BYTE           N24     Gn2   v032
        BYTE   W12
        BYTE           N12     Dn3
        BYTE           N12     Bn3
        BYTE   W12
        BYTE           N24     Dn2
        BYTE   W12
        BYTE           N06     Dn3   v040
        BYTE           N06     Bn3
        BYTE   W06
        BYTE                   Bn3   v036
        BYTE           N06     Dn3
        BYTE   W06
        BYTE           N24     Gn2   v032
        BYTE   W12
        BYTE           N12     Dn3
        BYTE           N12     Bn3
        BYTE   W12
        BYTE           N24     Dn2
        BYTE   W12
        BYTE           N06     Dn3   v040
        BYTE           N06     Bn3
        BYTE   W06
        BYTE                   Bn3   v036
        BYTE           N06     Dn3
        BYTE   W06
// 030   ----------------------------------------
        BYTE           N24     Dn3   v032
        BYTE   W12
        BYTE           N12     An3
        BYTE           N12     Fs4
        BYTE   W12
        BYTE           N24     An2
        BYTE   W12
        BYTE           N06     Fs4   v040
        BYTE           N06     An3
        BYTE   W06
        BYTE                   An3   v036
        BYTE           N06     Fs4
        BYTE   W06
        BYTE           N24     Dn3   v032
        BYTE   W12
        BYTE           N12     An3
        BYTE           N12     Fs4
        BYTE   W12
        BYTE           N24     An2
        BYTE   W12
        BYTE           N06     Fs4   v040
        BYTE           N06     An3
        BYTE   W06
        BYTE                   Fs4   v036
        BYTE           N06     An3
        BYTE   W06
// 031   ----------------------------------------
        BYTE           N24     An2   v032
        BYTE   W12
        BYTE           N12     Cs4
        BYTE           N12     En3
        BYTE   W12
        BYTE           N24     En2
        BYTE   W12
        BYTE           N06     En3   v040
        BYTE           N06     Cs4
        BYTE   W06
        BYTE                   En3   v036
        BYTE           N06     Cs4
        BYTE   W06
        BYTE           N24     An2   v032
        BYTE   W12
        BYTE           N12     Cs4
        BYTE           N12     En3
        BYTE   W12
        BYTE           N24     En2
        BYTE   W12
        BYTE           N06     En3   v040
        BYTE           N06     Cs4
        BYTE   W06
        BYTE                   En3   v036
        BYTE           N06     Cs4
        BYTE   W06
// 032   ----------------------------------------
        BYTE           N24     Bn2   v032
        BYTE   W12
        BYTE           N12     Fs3
        BYTE           N12     Dn4
        BYTE   W12
        BYTE           N24     Fs2
        BYTE   W12
        BYTE           N06     Fs3   v040
        BYTE           N06     Dn4
        BYTE   W06
        BYTE                   Dn4   v036
        BYTE           N06     Fs3
        BYTE   W06
        BYTE           N24     Bn2   v032
        BYTE   W12
        BYTE           N12     Fs3
        BYTE           N12     Dn4
        BYTE   W12
        BYTE           N24     Fs2
        BYTE   W12
        BYTE           N06     Dn4   v040
        BYTE           N06     Fs3
        BYTE   W06
        BYTE                   Dn4   v036
        BYTE           N06     Fs3
        BYTE   W06
// 033   ----------------------------------------
        BYTE           N24     Gn2   v032
        BYTE   W12
        BYTE           N12     Dn3
        BYTE           N12     Bn3
        BYTE   W12
        BYTE           N24     Dn2
        BYTE   W12
        BYTE           N06     Bn3   v040
        BYTE           N06     Dn3
        BYTE   W06
        BYTE                   Dn3   v036
        BYTE           N06     Bn3
        BYTE   W06
        BYTE           N24     Gn2   v032
        BYTE   W12
        BYTE           N12     Dn3
        BYTE           N12     Bn3
        BYTE   W12
        BYTE           N24     Dn2
        BYTE   W12
        BYTE           N06     Bn3   v040
        BYTE           N06     Dn3
        BYTE   W06
        BYTE                   Bn3   v036
        BYTE           N06     Dn3
        BYTE   W06
// 034   ----------------------------------------
        BYTE           N24     Dn3   v032
        BYTE   W12
        BYTE           N12     Fs4
        BYTE           N12     An3
        BYTE   W12
        BYTE           N24     An2
        BYTE   W12
        BYTE           N06     An3   v040
        BYTE           N06     Fs4
        BYTE   W06
        BYTE                   An3   v036
        BYTE           N06     Fs4
        BYTE   W06
        BYTE           N24     Dn3   v032
        BYTE   W12
        BYTE           N12     Fs4
        BYTE           N12     An3
        BYTE   W12
        BYTE           N24     An2
        BYTE   W12
        BYTE           N06     An3   v040
        BYTE           N06     Fs4
        BYTE   W06
        BYTE                   An3   v036
        BYTE           N06     Fs4
        BYTE   W06
// 035   ----------------------------------------
        BYTE           N96     Cs4   v032
        BYTE           N96     An3
        BYTE           N96     En3
        BYTE   W96
// 036   ----------------------------------------
        BYTE                   Bn2   v024
        BYTE           N96     Dn3
        BYTE           N96     Fs3
        BYTE   W96
// 037   ----------------------------------------
PortGreagor_2_37:
        BYTE           N96     Bn2   v024
        BYTE           N96     Gn3
        BYTE           N96     Dn3
        BYTE   W96
        BYTE   PEND
// 038   ----------------------------------------
PortGreagor_2_38:
        BYTE           N96     Fs3   v024
        BYTE           N96     Dn3
        BYTE           N96     An3
        BYTE   W96
        BYTE   PEND
// 039   ----------------------------------------
        BYTE                   En3
        BYTE           N96     An3
        BYTE           N96     Cs3
        BYTE   W96
// 040   ----------------------------------------
        BYTE                   Dn3
        BYTE           N96     Fs3
        BYTE           N96     Bn2
        BYTE   W96
// 041   ----------------------------------------
        BYTE   PATT
         POIN2  PortGreagor_2_37
// 042   ----------------------------------------
        BYTE   PATT
         POIN2  PortGreagor_2_38
// 043   ----------------------------------------
        BYTE           TIE     An3   v024
        BYTE           TIE     En3
        BYTE           TIE     Cs3
        BYTE   W96
// 044   ----------------------------------------
        BYTE   W96
// 045   ----------------------------------------
        BYTE           EOT     An3
        BYTE                   En3
        BYTE                   Cs3
        BYTE   GoTo
         POIN2  PortGreagor_2_LOOP
        BYTE   FINE

//****************** Track 3 (Midi-Chn.3) ******************//

PortGreagor_3:
        BYTE   KEYSH   PortGreagor_key+0
// 000   ----------------------------------------
        BYTE           VOICE   33
        BYTE           PAN     c_v-2
        BYTE           N24     Dn2   v050
        BYTE           VOL     127
        BYTE   W24
        BYTE           N24     Dn2   v040
        BYTE   W24
        BYTE                   Dn2   v044
        BYTE   W24
        BYTE           N12     Dn2   v040
        BYTE   W12
        BYTE                   Dn2
        BYTE   W12
// 001   ----------------------------------------
        BYTE           N24     Gn2   v050
        BYTE   W24
        BYTE                   Gn2   v040
        BYTE   W24
        BYTE                   Gn2   v044
        BYTE   W24
        BYTE           N12     Gn2   v040
        BYTE   W12
        BYTE                   Gn2
        BYTE   W12
// 002   ----------------------------------------
        BYTE           N24     En2   v050
        BYTE   W24
        BYTE                   En2   v040
        BYTE   W24
        BYTE                   En2   v044
        BYTE   W24
        BYTE           N12     En2   v040
        BYTE   W12
        BYTE                   En2
        BYTE   W12
// 003   ----------------------------------------
        BYTE           N24     Bn1   v050
        BYTE   W24
        BYTE                   Bn1   v040
        BYTE   W24
        BYTE                   Bn1   v044
        BYTE   W24
        BYTE           N12     Bn1   v040
        BYTE   W12
        BYTE                   Bn1
        BYTE   W12
// 004   ----------------------------------------
PortGreagor_3_LOOP:
        BYTE           N24     Dn2   v050
        BYTE   W24
        BYTE           N12     Dn2   v040
        BYTE   W12
        BYTE                   Bn1
        BYTE   W12
        BYTE           N24     An1   v044
        BYTE   W24
        BYTE           N12     Dn2   v040
        BYTE   W12
        BYTE                   Fs2
        BYTE   W12
// 005   ----------------------------------------
PortGreagor_3_5:
        BYTE           N24     Gn2   v050
        BYTE   W24
        BYTE           N12     Gn2   v040
        BYTE   W12
        BYTE                   En2
        BYTE   W12
        BYTE           N24     Dn2   v044
        BYTE   W24
        BYTE           N12     En2   v040
        BYTE   W12
        BYTE                   Gn2
        BYTE   W12
        BYTE   PEND
// 006   ----------------------------------------
PortGreagor_3_6:
        BYTE           N24     En2   v050
        BYTE   W24
        BYTE           N12     En2   v040
        BYTE   W12
        BYTE                   Cs2
        BYTE   W12
        BYTE           N24     Bn1   v044
        BYTE   W24
        BYTE           N12     Dn2   v040
        BYTE   W12
        BYTE                   En2
        BYTE   W12
        BYTE   PEND
// 007   ----------------------------------------
PortGreagor_3_7:
        BYTE           N24     Bn1   v050
        BYTE   W24
        BYTE           N12     Bn1   v040
        BYTE   W12
        BYTE                   Fs2
        BYTE   W12
        BYTE           N24     Bn2   v044
        BYTE   W24
        BYTE                   Fs2   v040
        BYTE   W24
        BYTE   PEND
// 008   ----------------------------------------
        BYTE                   Dn2   v050
        BYTE   W24
        BYTE           N12     Dn2   v040
        BYTE   W12
        BYTE                   Bn1
        BYTE   W12
        BYTE           N24     An1   v044
        BYTE   W24
        BYTE           N12     Dn2   v040
        BYTE   W12
        BYTE                   Fs2
        BYTE   W12
// 009   ----------------------------------------
        BYTE   PATT
         POIN2  PortGreagor_3_5
// 010   ----------------------------------------
        BYTE   PATT
         POIN2  PortGreagor_3_6
// 011   ----------------------------------------
        BYTE   PATT
         POIN2  PortGreagor_3_7
// 012   ----------------------------------------
PortGreagor_3_12:
        BYTE           N48     Bn1   v050
        BYTE   W48
        BYTE           N24     Bn2   v044
        BYTE   W24
        BYTE           N06     An2   v040
        BYTE   W12
        BYTE                   Fs2
        BYTE   W12
        BYTE   PEND
// 013   ----------------------------------------
PortGreagor_3_13:
        BYTE           N48     An1   v050
        BYTE   W48
        BYTE           N24     En2   v044
        BYTE   W24
        BYTE           N06     Gn2   v040
        BYTE   W12
        BYTE                   An2
        BYTE   W12
        BYTE   PEND
// 014   ----------------------------------------
        BYTE   PATT
         POIN2  PortGreagor_3_12
// 015   ----------------------------------------
PortGreagor_3_15:
        BYTE           N12     Bn1   v050
        BYTE   W12
        BYTE           N06     Bn2   v040
        BYTE   W06
        BYTE                   Bn2
        BYTE   W06
        BYTE           N12     Bn1
        BYTE   W12
        BYTE           N06     Bn2
        BYTE   W06
        BYTE                   An2
        BYTE   W06
        BYTE           N12     Bn1   v044
        BYTE   W12
        BYTE           N06     An2   v040
        BYTE   W06
        BYTE                   Fs2
        BYTE   W06
        BYTE           N12     Bn1
        BYTE   W12
        BYTE           N06     Fs2
        BYTE   W06
        BYTE                   Bn1
        BYTE   W06
        BYTE   PEND
// 016   ----------------------------------------
        BYTE   PATT
         POIN2  PortGreagor_3_12
// 017   ----------------------------------------
        BYTE   PATT
         POIN2  PortGreagor_3_13
// 018   ----------------------------------------
        BYTE   PATT
         POIN2  PortGreagor_3_12
// 019   ----------------------------------------
        BYTE   PATT
         POIN2  PortGreagor_3_15
// 020   ----------------------------------------
        BYTE           N12     Dn2   v050
        BYTE   W12
        BYTE                   Dn2   v040
        BYTE   W12
        BYTE           N06
        BYTE   W06
        BYTE                   Dn2
        BYTE   W06
        BYTE                   Dn2
        BYTE   W06
        BYTE                   Dn2
        BYTE   W06
        BYTE           N12     An1   v044
        BYTE   W12
        BYTE                   An1   v040
        BYTE   W12
        BYTE           N06     Dn2
        BYTE   W06
        BYTE                   Dn2
        BYTE   W06
        BYTE                   Fs2
        BYTE   W06
        BYTE                   Fs2
        BYTE   W06
// 021   ----------------------------------------
PortGreagor_3_21:
        BYTE           N12     Gn2   v050
        BYTE   W12
        BYTE                   Gn2   v040
        BYTE   W12
        BYTE           N06
        BYTE   W06
        BYTE                   Gn2
        BYTE   W06
        BYTE                   En2
        BYTE   W06
        BYTE                   En2
        BYTE   W06
        BYTE           N12     Dn2   v044
        BYTE   W12
        BYTE                   Dn2   v040
        BYTE   W12
        BYTE           N06     En2
        BYTE   W06
        BYTE                   En2
        BYTE   W06
        BYTE                   Gn2
        BYTE   W06
        BYTE                   Gn2
        BYTE   W06
        BYTE   PEND
// 022   ----------------------------------------
PortGreagor_3_22:
        BYTE           N12     En2   v050
        BYTE   W12
        BYTE                   En2   v040
        BYTE   W12
        BYTE           N06
        BYTE   W06
        BYTE                   En2
        BYTE   W06
        BYTE                   Cs2
        BYTE   W06
        BYTE                   Cs2
        BYTE   W06
        BYTE           N12     Bn1   v044
        BYTE   W12
        BYTE                   Bn1   v040
        BYTE   W12
        BYTE           N06     Dn2
        BYTE   W06
        BYTE                   Dn2
        BYTE   W06
        BYTE                   En2
        BYTE   W06
        BYTE                   En2
        BYTE   W06
        BYTE   PEND
// 023   ----------------------------------------
        BYTE           N12     Bn1   v050
        BYTE   W12
        BYTE                   Bn1   v040
        BYTE   W12
        BYTE           N06
        BYTE   W06
        BYTE                   Bn1
        BYTE   W06
        BYTE                   Fs2
        BYTE   W06
        BYTE                   Fs2
        BYTE   W06
        BYTE           N12     Bn2   v044
        BYTE   W12
        BYTE                   Bn2   v040
        BYTE   W12
        BYTE                   Fs2
        BYTE   W12
        BYTE                   Fs2
        BYTE   W12
// 024   ----------------------------------------
        BYTE           N01     Dn2   v050
        BYTE   W12
        BYTE           N12     Dn2   v040
        BYTE   W12
        BYTE           N06
        BYTE   W06
        BYTE                   Dn2
        BYTE   W06
        BYTE                   Dn2
        BYTE   W06
        BYTE                   Dn2
        BYTE   W06
        BYTE           N12     An1   v044
        BYTE   W12
        BYTE                   An1   v040
        BYTE   W12
        BYTE           N06     Dn2
        BYTE   W06
        BYTE                   Dn2
        BYTE   W06
        BYTE                   Fs2
        BYTE   W06
        BYTE                   Fs2
        BYTE   W06
// 025   ----------------------------------------
        BYTE   PATT
         POIN2  PortGreagor_3_21
// 026   ----------------------------------------
        BYTE   PATT
         POIN2  PortGreagor_3_22
// 027   ----------------------------------------
        BYTE           N12     Bn1   v050
        BYTE   W12
        BYTE                   Bn1   v040
        BYTE   W12
        BYTE           N06
        BYTE   W06
        BYTE                   Bn1
        BYTE   W06
        BYTE                   Fs2
        BYTE   W06
        BYTE                   Fs2
        BYTE   W06
        BYTE           N12     Dn3   v044
        BYTE   W12
        BYTE                   Bn2   v040
        BYTE   W12
        BYTE                   An2
        BYTE   W12
        BYTE                   Dn2
        BYTE   W12
// 028   ----------------------------------------
PortGreagor_3_28:
        BYTE           N12     Bn1   v050
        BYTE   W12
        BYTE                   Bn1   v040
        BYTE   W12
        BYTE                   Bn1   v050
        BYTE   W12
        BYTE                   Bn1   v040
        BYTE   W12
        BYTE                   Bn1   v050
        BYTE   W12
        BYTE                   Bn1   v040
        BYTE   W12
        BYTE                   An1   v050
        BYTE   W12
        BYTE                   Gn1   v040
        BYTE   W12
        BYTE   PEND
// 029   ----------------------------------------
PortGreagor_3_29:
        BYTE           N12     Gn1   v050
        BYTE   W12
        BYTE                   Gn1   v040
        BYTE   W12
        BYTE                   Gn1   v050
        BYTE   W12
        BYTE                   Gn1   v040
        BYTE   W12
        BYTE                   Gn1   v050
        BYTE   W12
        BYTE                   Gn1   v040
        BYTE   W12
        BYTE                   Bn1   v050
        BYTE   W12
        BYTE                   Dn2   v040
        BYTE   W12
        BYTE   PEND
// 030   ----------------------------------------
PortGreagor_3_30:
        BYTE           N12     Dn2   v050
        BYTE   W12
        BYTE                   Dn2   v040
        BYTE   W12
        BYTE                   Dn2   v050
        BYTE   W12
        BYTE                   Dn2   v040
        BYTE   W12
        BYTE                   Dn2   v050
        BYTE   W12
        BYTE                   Dn2   v040
        BYTE   W12
        BYTE                   Bn1   v050
        BYTE   W12
        BYTE                   An1   v040
        BYTE   W12
        BYTE   PEND
// 031   ----------------------------------------
        BYTE                   An1   v050
        BYTE   W12
        BYTE                   An1   v040
        BYTE   W12
        BYTE                   An1   v050
        BYTE   W12
        BYTE                   An1   v040
        BYTE   W12
        BYTE                   En2   v044
        BYTE   W12
        BYTE                   En2   v040
        BYTE   W12
        BYTE                   En2
        BYTE   W12
        BYTE                   Cs2
        BYTE   W12
// 032   ----------------------------------------
        BYTE   PATT
         POIN2  PortGreagor_3_28
// 033   ----------------------------------------
        BYTE   PATT
         POIN2  PortGreagor_3_29
// 034   ----------------------------------------
        BYTE   PATT
         POIN2  PortGreagor_3_30
// 035   ----------------------------------------
        BYTE           N96     An1   v050
        BYTE   W96
// 036   ----------------------------------------
PortGreagor_3_36:
        BYTE           N48     Bn1   v050
        BYTE   W48
        BYTE                   Bn1   v040
        BYTE   W48
        BYTE   PEND
// 037   ----------------------------------------
PortGreagor_3_37:
        BYTE           N48     Gn1   v050
        BYTE   W48
        BYTE                   Bn1   v044
        BYTE   W48
        BYTE   PEND
// 038   ----------------------------------------
PortGreagor_3_38:
        BYTE           N48     Dn2   v050
        BYTE   W48
        BYTE                   Dn2   v040
        BYTE   W48
        BYTE   PEND
// 039   ----------------------------------------
PortGreagor_3_39:
        BYTE           N48     An1   v050
        BYTE   W48
        BYTE                   Cs2   v044
        BYTE   W48
        BYTE   PEND
// 040   ----------------------------------------
        BYTE   PATT
         POIN2  PortGreagor_3_36
// 041   ----------------------------------------
        BYTE   PATT
         POIN2  PortGreagor_3_37
// 042   ----------------------------------------
        BYTE   PATT
         POIN2  PortGreagor_3_38
// 043   ----------------------------------------
        BYTE   PATT
         POIN2  PortGreagor_3_39
// 044   ----------------------------------------
        BYTE           N96     An1   v032
        BYTE   W96
// 045   ----------------------------------------
        BYTE   GoTo
         POIN2  PortGreagor_3_LOOP
        BYTE   FINE

//****************** Track 4 (Midi-Chn.4) ******************//

PortGreagor_4:
        BYTE   KEYSH   PortGreagor_key+0
// 000   ----------------------------------------
        BYTE           VOICE   124
        BYTE           N12     Cs1   v050
        BYTE           N12     Fs2
        BYTE           VOL     127
        BYTE   W12
        BYTE           N06     Fs2   v032
        BYTE           N24     Cs1   v040
        BYTE   W06
        BYTE           N06     Fs2   v044
        BYTE   W12
        BYTE                   Fs2   v032
        BYTE   W06
        BYTE                   Fs2   v044
        BYTE   W12
        BYTE                   Fs2   v032
        BYTE           N24     Cs1   v044
        BYTE   W06
        BYTE           N06     Fs2
        BYTE   W12
        BYTE                   Fs2   v032
        BYTE   W06
        BYTE                   Fs2   v044
        BYTE           N24     Cs1   v040
        BYTE   W12
        BYTE           N06     Fs2   v032
        BYTE   W06
        BYTE                   Fs2   v044
        BYTE   W06
// 001   ----------------------------------------
        BYTE           N12     Cs1   v050
        BYTE           N12     Fs2
        BYTE   W12
        BYTE           N06     Fs2   v032
        BYTE           N24     Cs1   v040
        BYTE   W06
        BYTE           N06     Fs2   v044
        BYTE   W12
        BYTE                   Fs2   v032
        BYTE   W06
        BYTE                   Fs2   v044
        BYTE   W12
        BYTE                   Fs2   v032
        BYTE           N24     Cs1   v044
        BYTE   W06
        BYTE           N06     Fs2
        BYTE   W12
        BYTE                   Fs2   v032
        BYTE   W06
        BYTE                   Fs2   v044
        BYTE           N24     Cs1   v040
        BYTE   W12
        BYTE           N06     Fs2   v032
        BYTE   W06
        BYTE                   Fs2   v044
        BYTE   W06
// 002   ----------------------------------------
        BYTE           N12     Fs2   v050
        BYTE           N12     Cs1
        BYTE   W12
        BYTE           N06     Fs2   v032
        BYTE           N24     Cs1   v040
        BYTE   W06
        BYTE           N06     Fs2   v044
        BYTE   W12
        BYTE                   Fs2   v032
        BYTE   W06
        BYTE                   Fs2   v044
        BYTE   W12
        BYTE                   Fs2   v032
        BYTE           N24     Cs1   v044
        BYTE   W06
        BYTE           N06     Fs2
        BYTE   W12
        BYTE                   Fs2   v032
        BYTE   W06
        BYTE                   Fs2   v044
        BYTE           N24     Cs1   v040
        BYTE   W12
        BYTE           N06     Fs2   v032
        BYTE   W06
        BYTE                   Fs2   v044
        BYTE   W06
// 003   ----------------------------------------
        BYTE           N12     Cs1   v050
        BYTE           N12     Fs2
        BYTE   W12
        BYTE           N06     Fs2   v032
        BYTE           N24     Cs1   v040
        BYTE   W06
        BYTE           N06     Fs2   v044
        BYTE   W12
        BYTE                   Fs2   v032
        BYTE   W06
        BYTE                   Fs2   v044
        BYTE   W12
        BYTE           N12     Cs1   v040
        BYTE   W12
        BYTE                   Cs1
        BYTE   W12
        BYTE           N06
        BYTE   W06
        BYTE                   Dn1
        BYTE   W06
        BYTE           N12
        BYTE   W12
// 004   ----------------------------------------
PortGreagor_4_LOOP:
        BYTE           N12     Cs1   v050
        BYTE           N12     Fs2
        BYTE   W12
        BYTE           N06     Fs2   v032
        BYTE           N24     Ds1   v040
        BYTE   W06
        BYTE           N06     Fs2   v044
        BYTE   W12
        BYTE                   Fs2   v032
        BYTE   W06
        BYTE                   Fs2   v044
        BYTE   W12
        BYTE                   Fs2   v032
        BYTE           N24     Cs1   v044
        BYTE   W06
        BYTE           N06     Fs2
        BYTE   W12
        BYTE                   Fs2   v032
        BYTE   W06
        BYTE                   Fs2   v044
        BYTE           N24     Ds1   v040
        BYTE   W12
        BYTE           N06     Fs2   v032
        BYTE   W06
        BYTE                   Fs2   v044
        BYTE   W06
// 005   ----------------------------------------
PortGreagor_4_5:
        BYTE           N12     Fs2   v050
        BYTE           N12     Cs1
        BYTE   W12
        BYTE           N06     Fs2   v032
        BYTE           N24     Ds1   v040
        BYTE   W06
        BYTE           N06     Fs2   v044
        BYTE   W12
        BYTE                   Fs2   v032
        BYTE   W06
        BYTE                   Fs2   v044
        BYTE   W12
        BYTE                   Fs2   v032
        BYTE           N24     Cs1   v044
        BYTE   W06
        BYTE           N06     Fs2
        BYTE   W12
        BYTE                   Fs2   v032
        BYTE   W06
        BYTE                   Fs2   v044
        BYTE           N24     Ds1   v040
        BYTE   W12
        BYTE           N06     Fs2   v032
        BYTE   W06
        BYTE                   Fs2   v044
        BYTE   W06
        BYTE   PEND
// 006   ----------------------------------------
PortGreagor_4_6:
        BYTE           N12     Cs1   v050
        BYTE           N12     Fs2
        BYTE   W12
        BYTE           N06     Fs2   v032
        BYTE           N24     Ds1   v040
        BYTE   W06
        BYTE           N06     Fs2   v044
        BYTE   W12
        BYTE                   Fs2   v032
        BYTE   W06
        BYTE                   Fs2   v044
        BYTE   W12
        BYTE                   Fs2   v032
        BYTE           N24     Cs1   v044
        BYTE   W06
        BYTE           N06     Fs2
        BYTE   W12
        BYTE                   Fs2   v032
        BYTE   W06
        BYTE                   Fs2   v044
        BYTE           N24     Ds1   v040
        BYTE   W12
        BYTE           N06     Fs2   v032
        BYTE   W06
        BYTE                   Fs2   v044
        BYTE   W06
        BYTE   PEND
// 007   ----------------------------------------
        BYTE   PATT
         POIN2  PortGreagor_4_6
// 008   ----------------------------------------
        BYTE   PATT
         POIN2  PortGreagor_4_5
// 009   ----------------------------------------
        BYTE   PATT
         POIN2  PortGreagor_4_5
// 010   ----------------------------------------
        BYTE   PATT
         POIN2  PortGreagor_4_6
// 011   ----------------------------------------
        BYTE           N12     Fs2   v050
        BYTE           N12     Cs1
        BYTE   W12
        BYTE           N06     Fs2   v032
        BYTE           N24     Ds1   v040
        BYTE   W06
        BYTE           N06     Fs2   v044
        BYTE   W12
        BYTE                   Fs2   v032
        BYTE   W06
        BYTE                   Fs2   v044
        BYTE   W06
        BYTE                   Bn1   v050
        BYTE   W06
        BYTE                   Bn1
        BYTE   W06
        BYTE                   An1
        BYTE   W06
        BYTE                   An1
        BYTE   W12
        BYTE                   An1
        BYTE   W06
        BYTE                   An1
        BYTE   W06
        BYTE                   Gn1
        BYTE   W06
        BYTE                   Fn1
        BYTE   W06
// 012   ----------------------------------------
        BYTE                   Gs1
        BYTE           N24     Dn1
        BYTE           N96     Cs2
        BYTE   W12
        BYTE           N06     Gs1   v036
        BYTE   W06
        BYTE                   Gs1   v040
        BYTE   W06
        BYTE           N24     Ds1
        BYTE   W12
        BYTE           N06     Gs1   v036
        BYTE   W06
        BYTE                   Gs1   v040
        BYTE   W06
        BYTE                   Gs1   v044
        BYTE           N24     Dn1   v050
        BYTE   W12
        BYTE           N06     Gs1   v036
        BYTE   W06
        BYTE                   Gs1   v040
        BYTE   W06
        BYTE           N12     Ds1
        BYTE   W12
        BYTE           N06     Gs1   v036
        BYTE           N12     Ds1
        BYTE   W06
        BYTE           N06     Gs1   v040
        BYTE   W06
// 013   ----------------------------------------
PortGreagor_4_13:
        BYTE           N06     Gs1   v050
        BYTE           N24     Dn1
        BYTE   W12
        BYTE           N06     Gs1   v036
        BYTE   W06
        BYTE                   Gs1   v040
        BYTE   W06
        BYTE           N24     Ds1
        BYTE   W12
        BYTE           N06     Gs1   v036
        BYTE   W06
        BYTE                   Gs1   v040
        BYTE   W06
        BYTE                   Gs1   v044
        BYTE           N24     Dn1   v050
        BYTE   W12
        BYTE           N06     Gs1   v036
        BYTE   W06
        BYTE                   Gs1   v040
        BYTE   W06
        BYTE           N12     Ds1
        BYTE   W12
        BYTE           N06     Gs1   v036
        BYTE           N12     Ds1
        BYTE   W06
        BYTE           N06     Gs1   v040
        BYTE   W06
        BYTE   PEND
// 014   ----------------------------------------
        BYTE   PATT
         POIN2  PortGreagor_4_13
// 015   ----------------------------------------
        BYTE           N06     Gs1   v050
        BYTE           N24     Dn1
        BYTE   W12
        BYTE           N06     Gs1   v036
        BYTE   W06
        BYTE                   Gs1   v040
        BYTE   W06
        BYTE           N24     Ds1
        BYTE   W12
        BYTE           N06     Gs1   v036
        BYTE   W06
        BYTE                   Gs1   v040
        BYTE   W54
// 016   ----------------------------------------
        BYTE   PATT
         POIN2  PortGreagor_4_13
// 017   ----------------------------------------
        BYTE   PATT
         POIN2  PortGreagor_4_13
// 018   ----------------------------------------
        BYTE   PATT
         POIN2  PortGreagor_4_13
// 019   ----------------------------------------
        BYTE           N06     Bn1   v050
        BYTE   W06
        BYTE                   Bn1
        BYTE   W12
        BYTE                   Bn1
        BYTE   W06
        BYTE                   An1
        BYTE   W06
        BYTE                   An1
        BYTE   W12
        BYTE                   An1
        BYTE   W06
        BYTE                   An1
        BYTE   W06
        BYTE                   Gn1
        BYTE   W12
        BYTE                   An1
        BYTE   W06
        BYTE                   Ds1
        BYTE   W06
        BYTE                   Ds1
        BYTE   W06
        BYTE                   Ds1
        BYTE   W06
        BYTE                   Ds1
        BYTE   W06
// 020   ----------------------------------------
        BYTE           N01     Fs2   v040
        BYTE           N06     Fs1   v050
        BYTE           N24     Dn1
        BYTE   W06
        BYTE           N06     Fs1   v032
        BYTE   W06
        BYTE                   Fs1   v036
        BYTE   W06
        BYTE                   Fs1   v032
        BYTE   W06
        BYTE           N12     Ds1   v044
        BYTE   W12
        BYTE           N06     Fs1   v036
        BYTE           N24     Dn1   v044
        BYTE   W06
        BYTE           N06     Fs1   v032
        BYTE   W06
        BYTE                   Fs1   v050
        BYTE   W06
        BYTE                   Fs1   v032
        BYTE   W06
        BYTE                   Fs1   v036
        BYTE   W06
        BYTE                   Fs1   v032
        BYTE   W06
        BYTE           N24     Ds1   v040
        BYTE   W12
        BYTE           N06     Fs1   v036
        BYTE   W06
        BYTE                   As1   v040
        BYTE   W06
// 021   ----------------------------------------
        BYTE                   Fs1   v050
        BYTE           N24     Dn1
        BYTE   W06
        BYTE           N06     Fs1   v032
        BYTE   W06
        BYTE                   Fs1   v036
        BYTE   W06
        BYTE                   Fs1   v032
        BYTE   W06
        BYTE           N12     Ds1   v044
        BYTE   W12
        BYTE           N06     Fs1   v036
        BYTE           N24     Dn1   v044
        BYTE   W06
        BYTE           N06     Fs1   v032
        BYTE   W06
        BYTE                   Fs1   v050
        BYTE   W06
        BYTE                   Fs1   v032
        BYTE   W06
        BYTE                   Fs1   v036
        BYTE   W06
        BYTE                   Fs1   v032
        BYTE   W06
        BYTE           N12     Ds1   v040
        BYTE   W12
        BYTE           N06     Fs1   v036
        BYTE           N12     Ds1   v040
        BYTE   W06
        BYTE           N06     As1
        BYTE   W06
// 022   ----------------------------------------
PortGreagor_4_22:
        BYTE           N06     Fs1   v050
        BYTE           N24     Dn1
        BYTE   W06
        BYTE           N06     Fs1   v032
        BYTE   W06
        BYTE                   Fs1   v036
        BYTE   W06
        BYTE                   Fs1   v032
        BYTE   W06
        BYTE           N12     Ds1   v044
        BYTE   W12
        BYTE           N06     Fs1   v036
        BYTE           N24     Dn1   v044
        BYTE   W06
        BYTE           N06     Fs1   v032
        BYTE   W06
        BYTE                   Fs1   v050
        BYTE   W06
        BYTE                   Fs1   v032
        BYTE   W06
        BYTE                   Fs1   v036
        BYTE   W06
        BYTE                   Fs1   v032
        BYTE   W06
        BYTE           N24     Ds1   v040
        BYTE   W12
        BYTE           N06     Fs1   v036
        BYTE   W06
        BYTE                   As1   v040
        BYTE   W06
        BYTE   PEND
// 023   ----------------------------------------
        BYTE                   Fs1   v050
        BYTE           N24     Dn1
        BYTE           N96     En2
        BYTE   W06
        BYTE           N06     Fs1   v032
        BYTE   W06
        BYTE                   Fs1   v036
        BYTE   W06
        BYTE                   Fs1   v032
        BYTE   W06
        BYTE           N12     Ds1   v044
        BYTE   W12
        BYTE           N06     Fs1   v036
        BYTE           N12     Dn1   v044
        BYTE   W06
        BYTE           N06     Fs1   v032
        BYTE   W06
        BYTE           N12     Dn1   v044
        BYTE   W12
        BYTE                   Dn1   v040
        BYTE   W12
        BYTE           N06     Dn1   v036
        BYTE   W06
        BYTE                   Dn1   v040
        BYTE   W06
        BYTE                   Ds1
        BYTE   W06
        BYTE                   Dn1   v044
        BYTE   W06
// 024   ----------------------------------------
        BYTE   PATT
         POIN2  PortGreagor_4_22
// 025   ----------------------------------------
        BYTE           N01     Dn1   v050
        BYTE           N06     Fs1
        BYTE   W06
        BYTE                   Fs1   v032
        BYTE   W06
        BYTE                   Fs1   v036
        BYTE   W06
        BYTE                   Fs1   v032
        BYTE   W06
        BYTE           N12     Ds1   v044
        BYTE   W12
        BYTE           N06     Fs1   v036
        BYTE           N24     Dn1   v044
        BYTE   W06
        BYTE           N06     Fs1   v032
        BYTE   W06
        BYTE                   Fs1   v050
        BYTE   W06
        BYTE                   Fs1   v032
        BYTE   W06
        BYTE                   Fs1   v036
        BYTE   W06
        BYTE                   Fs1   v032
        BYTE   W06
        BYTE           N12     Ds1   v040
        BYTE   W12
        BYTE           N06     Fs1   v036
        BYTE           N12     Ds1   v040
        BYTE   W06
        BYTE           N06     As1
        BYTE   W06
// 026   ----------------------------------------
        BYTE   PATT
         POIN2  PortGreagor_4_22
// 027   ----------------------------------------
        BYTE           N06     Fs1   v050
        BYTE           N24     Dn1
        BYTE           N96     En2
        BYTE   W06
        BYTE           N06     Fs1   v032
        BYTE   W06
        BYTE                   Fs1   v036
        BYTE   W06
        BYTE                   Fs1   v032
        BYTE   W06
        BYTE           N12     Ds1   v044
        BYTE   W12
        BYTE           N06     Fs1   v036
        BYTE           N12     Dn1   v044
        BYTE   W06
        BYTE           N06     Fs1   v032
        BYTE   W06
        BYTE                   Fs1   v028
        BYTE           N06     Cn1
        BYTE           N06     En1
        BYTE   W06
        BYTE                   En1   v032
        BYTE           N06     Cn1
        BYTE           N06     Fs1
        BYTE   W06
        BYTE                   En1   v036
        BYTE           N06     Cn1
        BYTE           N06     Fs1
        BYTE   W06
        BYTE                   En1   v040
        BYTE           N06     Cn1
        BYTE           N06     Fs1
        BYTE   W06
        BYTE                   An1   v050
        BYTE           N06     Bn1
        BYTE   W06
        BYTE           N03     Gn1   v040
        BYTE           N03     An1
        BYTE   W04
        BYTE                   An1   v044
        BYTE           N03     Gn1
        BYTE   W06
        BYTE           N06     Gn1   v050
        BYTE           N06     An1
        BYTE   W08
// 028   ----------------------------------------
PortGreagor_4_28:
        BYTE           N12     Cs3   v050
        BYTE           N24     Cn1
        BYTE   W12
        BYTE           N12     Cs3   v048
        BYTE   W12
        BYTE                   Cs3   v050
        BYTE           N24     Cn1
        BYTE   W12
        BYTE           N06     Cs3   v048
        BYTE   W06
        BYTE                   Cn3   v050
        BYTE   W06
        BYTE           N12     Cs3
        BYTE           N24     Cn1
        BYTE   W12
        BYTE           N12     Cs3   v048
        BYTE   W12
        BYTE                   Cs3   v050
        BYTE           N24     Cn1
        BYTE   W12
        BYTE           N06     Cs3   v048
        BYTE   W06
        BYTE                   Cn3   v050
        BYTE   W06
        BYTE   PEND
// 029   ----------------------------------------
        BYTE   PATT
         POIN2  PortGreagor_4_28
// 030   ----------------------------------------
        BYTE   PATT
         POIN2  PortGreagor_4_28
// 031   ----------------------------------------
        BYTE           N12     Cs3   v050
        BYTE           N24     Cn1
        BYTE   W12
        BYTE           N12     Cs3   v048
        BYTE   W12
        BYTE                   Cs3   v050
        BYTE           N24     Cn1
        BYTE   W12
        BYTE           N06     Cs3   v048
        BYTE           N12     Ds1   v044
        BYTE   W06
        BYTE           N06     Cn3   v050
        BYTE   W06
        BYTE           N12     Ds1   v044
        BYTE   W12
        BYTE                   Ds1   v040
        BYTE   W12
        BYTE           N06     Ds1   v044
        BYTE   W06
        BYTE                   Ds1
        BYTE   W06
        BYTE           N12     Ds1   v040
        BYTE   W12
// 032   ----------------------------------------
        BYTE   PATT
         POIN2  PortGreagor_4_28
// 033   ----------------------------------------
        BYTE   PATT
         POIN2  PortGreagor_4_28
// 034   ----------------------------------------
        BYTE   PATT
         POIN2  PortGreagor_4_28
// 035   ----------------------------------------
        BYTE           N12     Cs3   v050
        BYTE           N24     Cn1
        BYTE           N96     En2
        BYTE   W12
        BYTE           N12     Cs3   v048
        BYTE   W12
        BYTE                   Cs3   v050
        BYTE           N24     Cn1
        BYTE   W12
        BYTE           N06     Cs3   v048
        BYTE   W06
        BYTE                   Cn3   v050
        BYTE   W54
// 036   ----------------------------------------
        BYTE           N24     Cn1
        BYTE           N96     Cs2   v044
        BYTE   W36
        BYTE           N12     Cs1   v040
        BYTE   W12
        BYTE           N24     Cn1   v044
        BYTE   W24
        BYTE                   Cn1
        BYTE   W24
// 037   ----------------------------------------
        BYTE                   Cn1   v050
        BYTE           N96     Cs2   v024
        BYTE   W36
        BYTE           N12     Cs1   v040
        BYTE   W12
        BYTE           N24     Cn1   v044
        BYTE   W24
        BYTE                   Cn1
        BYTE   W24
// 038   ----------------------------------------
        BYTE                   Cn1   v050
        BYTE           N96     Cs2   v020
        BYTE   W36
        BYTE           N12     Cs1   v040
        BYTE   W12
        BYTE           N24     Cn1   v044
        BYTE   W24
        BYTE                   Cn1
        BYTE   W24
// 039   ----------------------------------------
        BYTE                   Cn1   v050
        BYTE           N96     Cs2   v016
        BYTE   W36
        BYTE           N12     Cs1   v040
        BYTE   W12
        BYTE           N24     Cs1   v044
        BYTE   W24
        BYTE                   Cs1
        BYTE   W24
// 040   ----------------------------------------
PortGreagor_4_40:
        BYTE           N24     Cn1   v050
        BYTE   W36
        BYTE           N12     Cs1   v040
        BYTE   W12
        BYTE           N24     Cn1   v044
        BYTE   W24
        BYTE                   Cn1
        BYTE   W24
        BYTE   PEND
// 041   ----------------------------------------
        BYTE   PATT
         POIN2  PortGreagor_4_40
// 042   ----------------------------------------
        BYTE   PATT
         POIN2  PortGreagor_4_40
// 043   ----------------------------------------
        BYTE   PATT
         POIN2  PortGreagor_4_40
// 044   ----------------------------------------
        BYTE           N24     Cn1   v050
        BYTE   W36
        BYTE           N06     Cs1   v040
        BYTE   W06
        BYTE                   Bn1   v050
        BYTE   W06
        BYTE                   Bn1
        BYTE   W06
        BYTE                   An1
        BYTE   W06
        BYTE                   An1
        BYTE   W12
        BYTE                   An1
        BYTE   W06
        BYTE                   An1
        BYTE   W06
        BYTE                   Gn1
        BYTE   W06
        BYTE                   Fn1
        BYTE   W06
// 045   ----------------------------------------
        BYTE   GoTo
         POIN2  PortGreagor_4_LOOP
        BYTE   FINE


//********************** End of Song ***********************//

        ALIGN 4
PortGreagor:
        BYTE   5                       // Num Tracks
        BYTE   0                       // Unknown
        BYTE   PortGreagor_pri         // Priority
        BYTE   PortGreagor_rev         // Reverb

        POIN2   PortGreagor_grp        

        POIN2   PortGreagor_0
        POIN2   PortGreagor_1
        POIN2   PortGreagor_2
        POIN2   PortGreagor_3
        POIN2   PortGreagor_4

        
