//Event file generated from Sappy .s format.
        #include "MPlayDef.event"

        #define    ScalleywagsOnDeck_grp  voicegroup000
        #define    ScalleywagsOnDeck_pri  0
        #define    ScalleywagsOnDeck_rev  0
        #define    ScalleywagsOnDeck_key  0

        // .rodata
        // ScalleywagsOnDeck
        ALIGN 4

//****************** Track 0 (Midi-Chn.0) ******************//

ScalleywagsOnDeck_0:
        BYTE   KEYSH   ScalleywagsOnDeck_key+0
// 000   ----------------------------------------
        BYTE   TEMPO   120/2
        BYTE           VOICE   60
        BYTE           PAN     c_v-18
        BYTE           VOL     97
        BYTE   W96
// 001   ----------------------------------------
        BYTE   W96
// 002   ----------------------------------------
        BYTE   W96
// 003   ----------------------------------------
        BYTE   W96
// 004   ----------------------------------------
        BYTE   W96
// 005   ----------------------------------------
        BYTE   W96
// 006   ----------------------------------------
        BYTE   W96
// 007   ----------------------------------------
        BYTE   W96
// 008   ----------------------------------------
        BYTE   W96
// 009   ----------------------------------------
        BYTE   W96
// 010   ----------------------------------------
        BYTE   W96
// 011   ----------------------------------------
        BYTE   W48
        BYTE           N06     En2   v050
        BYTE   W06
        BYTE                   Fn2
        BYTE   W06
        BYTE                   Gn2
        BYTE   W06
        BYTE                   Bn2
        BYTE   W06
        BYTE                   Gn2
        BYTE   W06
        BYTE                   Bn2
        BYTE   W06
        BYTE                   En3
        BYTE   W06
        BYTE                   Fn3
        BYTE   W06
// 012   ----------------------------------------
        BYTE           N36     En3
        BYTE   W36
        BYTE                   Bn3
        BYTE   W36
        BYTE           N24     En4
        BYTE   W24
// 013   ----------------------------------------
        BYTE           N36     Dn4
        BYTE   W36
        BYTE                   An3
        BYTE   W36
        BYTE           N24     Dn4
        BYTE   W24
// 014   ----------------------------------------
        BYTE           N48     Fn4
        BYTE   W48
        BYTE                   Cn4
        BYTE   W48
// 015   ----------------------------------------
        BYTE           N24     Bn3
        BYTE   W24
        BYTE                   Bn3   v044
        BYTE   W24
        BYTE                   Bn3   v038
        BYTE   W24
        BYTE                   Bn3   v032
        BYTE   W24
// 016   ----------------------------------------
ScalleywagsOnDeck_0_LOOP:
        BYTE   W96
// 017   ----------------------------------------
        BYTE   W96
// 018   ----------------------------------------
        BYTE   W96
// 019   ----------------------------------------
        BYTE   W96
// 020   ----------------------------------------
        BYTE   W96
// 021   ----------------------------------------
        BYTE   W96
// 022   ----------------------------------------
        BYTE   W96
// 023   ----------------------------------------
        BYTE   W96
// 024   ----------------------------------------
        BYTE   GoTo
         POIN2  ScalleywagsOnDeck_0_LOOP
        BYTE   FINE

//****************** Track 1 (Midi-Chn.1) ******************//

ScalleywagsOnDeck_1:
        BYTE   KEYSH   ScalleywagsOnDeck_key+0
// 000   ----------------------------------------
        BYTE           VOICE   61
        BYTE           PAN     c_v-32
        BYTE           VOL     97
        BYTE   W96
// 001   ----------------------------------------
        BYTE   W96
// 002   ----------------------------------------
        BYTE   W96
// 003   ----------------------------------------
        BYTE   W96
// 004   ----------------------------------------
        BYTE   W96
// 005   ----------------------------------------
        BYTE   W96
// 006   ----------------------------------------
        BYTE   W96
// 007   ----------------------------------------
        BYTE   W60
        BYTE           N06     En2   v050
        BYTE   W06
        BYTE                   Fn2
        BYTE   W06
        BYTE                   Gn2
        BYTE   W06
        BYTE           N09     Fs2
        BYTE   W09
        BYTE                   Fn2
        BYTE   W09
// 008   ----------------------------------------
        BYTE           N36     En2
        BYTE   W36
        BYTE                   Bn2
        BYTE   W36
        BYTE           N24     En3
        BYTE   W24
// 009   ----------------------------------------
        BYTE           N36     Dn3
        BYTE   W36
        BYTE                   An2
        BYTE   W36
        BYTE           N24     Dn3
        BYTE   W24
// 010   ----------------------------------------
        BYTE           N48     Fn3
        BYTE   W48
        BYTE                   Cn3
        BYTE   W48
// 011   ----------------------------------------
        BYTE           N24     Bn2
        BYTE   W24
        BYTE                   Bn2   v044
        BYTE   W24
        BYTE                   Bn2   v038
        BYTE   W24
        BYTE                   Bn2   v032
        BYTE   W24
// 012   ----------------------------------------
        BYTE   W96
// 013   ----------------------------------------
        BYTE   W96
// 014   ----------------------------------------
        BYTE   W96
// 015   ----------------------------------------
        BYTE   W96
// 016   ----------------------------------------
ScalleywagsOnDeck_1_LOOP:
        BYTE   W96
// 017   ----------------------------------------
        BYTE   W96
// 018   ----------------------------------------
        BYTE   W96
// 019   ----------------------------------------
        BYTE   W96
// 020   ----------------------------------------
        BYTE   W96
// 021   ----------------------------------------
        BYTE   W96
// 022   ----------------------------------------
        BYTE   W96
// 023   ----------------------------------------
        BYTE   W96
// 024   ----------------------------------------
        BYTE   GoTo
         POIN2  ScalleywagsOnDeck_1_LOOP
        BYTE   FINE

//****************** Track 2 (Midi-Chn.2) ******************//

ScalleywagsOnDeck_2:
        BYTE   KEYSH   ScalleywagsOnDeck_key+0
// 000   ----------------------------------------
        BYTE           VOICE   50
        BYTE           PAN     c_v-38
        BYTE           N96     En4   v044
        BYTE           VOL     97
        BYTE   W96
// 001   ----------------------------------------
        BYTE           N96     Dn4
        BYTE   W96
// 002   ----------------------------------------
        BYTE                   Fn4
        BYTE   W96
// 003   ----------------------------------------
        BYTE                   En4
        BYTE   W96
// 004   ----------------------------------------
        BYTE                   Gn4
        BYTE   W96
// 005   ----------------------------------------
        BYTE                   Fn4
        BYTE   W96
// 006   ----------------------------------------
        BYTE                   Cn4
        BYTE   W96
// 007   ----------------------------------------
        BYTE                   Bn3
        BYTE   W96
// 008   ----------------------------------------
        BYTE   W96
// 009   ----------------------------------------
        BYTE   W96
// 010   ----------------------------------------
        BYTE   W96
// 011   ----------------------------------------
        BYTE   W96
// 012   ----------------------------------------
        BYTE   W96
// 013   ----------------------------------------
        BYTE   W96
// 014   ----------------------------------------
        BYTE   W96
// 015   ----------------------------------------
        BYTE   W96
// 016   ----------------------------------------
ScalleywagsOnDeck_2_LOOP:
        BYTE   W96
// 017   ----------------------------------------
        BYTE   W96
// 018   ----------------------------------------
        BYTE   W96
// 019   ----------------------------------------
        BYTE   W96
// 020   ----------------------------------------
        BYTE   W96
// 021   ----------------------------------------
        BYTE   W96
// 022   ----------------------------------------
        BYTE   W96
// 023   ----------------------------------------
        BYTE   W96
// 024   ----------------------------------------
        BYTE   GoTo
         POIN2  ScalleywagsOnDeck_2_LOOP
        BYTE   FINE

//****************** Track 3 (Midi-Chn.3) ******************//

ScalleywagsOnDeck_3:
        BYTE   KEYSH   ScalleywagsOnDeck_key+0
// 000   ----------------------------------------
        BYTE           VOICE   62
        BYTE           PAN     c_v+23
        BYTE           N96     En3   v044
        BYTE           N48     An3
        BYTE           VOL     97
        BYTE   W48
        BYTE           N48     Cn4
        BYTE   W48
// 001   ----------------------------------------
        BYTE           N96     An3
        BYTE           N96     Dn3
        BYTE   W96
// 002   ----------------------------------------
        BYTE                   Fn3
        BYTE           N96     Cn4
        BYTE   W96
// 003   ----------------------------------------
        BYTE           N72     Bn3
        BYTE           N72     En3
        BYTE   W72
        BYTE           N06     Bn3
        BYTE           N06     Fs3
        BYTE   W06
        BYTE                   Cn4
        BYTE           N06     Gn3
        BYTE   W06
        BYTE                   Bn3
        BYTE           N06     Fs3
        BYTE   W06
        BYTE                   Fn3
        BYTE           N06     As3
        BYTE   W06
// 004   ----------------------------------------
        BYTE           N96     En3
        BYTE           N48     An3
        BYTE   W48
        BYTE                   Cn4
        BYTE   W48
// 005   ----------------------------------------
        BYTE           N36     An3
        BYTE           N36     Fn3
        BYTE   W36
        BYTE                   En3
        BYTE           N36     Gs3
        BYTE   W36
        BYTE           N24     Bn3
        BYTE           N24     En4
        BYTE   W24
// 006   ----------------------------------------
        BYTE           N36     Cn4
        BYTE           N36     An3
        BYTE   W36
        BYTE                   An3
        BYTE           N36     Fn3
        BYTE   W36
        BYTE           N24     An3
        BYTE           N24     Cn4
        BYTE   W24
// 007   ----------------------------------------
        BYTE           N96     Gn3
        BYTE           N96     Bn3
        BYTE   W96
// 008   ----------------------------------------
        BYTE                   En3
        BYTE   W96
// 009   ----------------------------------------
        BYTE                   Dn3
        BYTE   W96
// 010   ----------------------------------------
        BYTE                   Fn3
        BYTE   W96
// 011   ----------------------------------------
        BYTE                   Gn3
        BYTE   W96
// 012   ----------------------------------------
        BYTE                   Gn3
        BYTE   W96
// 013   ----------------------------------------
        BYTE                   Fn3
        BYTE   W96
// 014   ----------------------------------------
        BYTE                   Gn3
        BYTE   W96
// 015   ----------------------------------------
        BYTE           N72     En3
        BYTE   W72
        BYTE           N06     Fs3
        BYTE           N06     Bn3
        BYTE   W06
        BYTE                   Cn4
        BYTE           N06     Gn3
        BYTE   W06
        BYTE                   Fs3
        BYTE           N06     Bn3
        BYTE   W06
        BYTE                   Fn3
        BYTE           N06     As3
        BYTE   W06
// 016   ----------------------------------------
ScalleywagsOnDeck_3_LOOP:
        BYTE           N36     Bn3   v050
        BYTE           N36     En3
        BYTE   W36
        BYTE                   As3
        BYTE           N36     Ds3
        BYTE   W36
        BYTE           N24     An3
        BYTE           N24     Dn3
        BYTE   W24
// 017   ----------------------------------------
        BYTE           N36     Dn4
        BYTE           N36     Gn3
        BYTE   W36
        BYTE                   Cs4
        BYTE           N36     Fs3
        BYTE   W36
        BYTE           N24     Cn4
        BYTE           N24     Fn3
        BYTE   W24
// 018   ----------------------------------------
        BYTE           N36     Bn3
        BYTE           N36     En3
        BYTE   W36
        BYTE                   As3
        BYTE           N36     Ds3
        BYTE   W36
        BYTE           N24     An3
        BYTE           N24     Dn3
        BYTE   W24
// 019   ----------------------------------------
        BYTE           N36     Gs3
        BYTE           N36     Cs3
        BYTE   W36
        BYTE                   An3
        BYTE           N36     Dn3
        BYTE   W36
        BYTE           N24     As3
        BYTE           N24     Ds3
        BYTE   W24
// 020   ----------------------------------------
        BYTE           N96     Bn3
        BYTE           N96     En3
        BYTE   W96
// 021   ----------------------------------------
        BYTE                   An3
        BYTE           N96     Dn3
        BYTE   W96
// 022   ----------------------------------------
        BYTE                   Gs3
        BYTE           N96     Cs3
        BYTE   W96
// 023   ----------------------------------------
        BYTE           N12     Fn3
        BYTE           N12     An3
        BYTE           N12     En3
        BYTE   W24
        BYTE                   An3
        BYTE           N12     Fn3
        BYTE           N12     En3
        BYTE   W24
        BYTE           N36     Bn3
        BYTE           N36     En3
        BYTE           N36     Fn3
        BYTE   W36
        BYTE           N06     Fs3   v044
        BYTE           N06     Bn3
        BYTE   W06
        BYTE                   As3
        BYTE           N06     Fn3
        BYTE   W06
// 024   ----------------------------------------
        BYTE   GoTo
         POIN2  ScalleywagsOnDeck_3_LOOP
        BYTE   FINE

//****************** Track 4 (Midi-Chn.4) ******************//

ScalleywagsOnDeck_4:
        BYTE   KEYSH   ScalleywagsOnDeck_key+0
// 000   ----------------------------------------
        BYTE           VOICE   38
        BYTE           N06     Gn2   v050
        BYTE           VOL     97
        BYTE   W06
        BYTE           N06     En1
        BYTE   W06
        BYTE                   En1
        BYTE   W06
        BYTE                   En2
        BYTE   W06
        BYTE                   En1
        BYTE   W06
        BYTE                   En1
        BYTE   W06
        BYTE                   En2
        BYTE   W06
        BYTE                   En1
        BYTE   W06
        BYTE                   Dn1
        BYTE   W06
        BYTE                   En1
        BYTE   W06
        BYTE                   En2
        BYTE   W06
        BYTE                   Fn2
        BYTE   W06
        BYTE                   En1
        BYTE   W06
        BYTE                   En1
        BYTE   W06
        BYTE                   En2
        BYTE   W06
        BYTE                   Bn1
        BYTE   W06
// 001   ----------------------------------------
ScalleywagsOnDeck_4_1:
        BYTE           N06     Gn2   v050
        BYTE   W06
        BYTE                   En1
        BYTE   W06
        BYTE                   En1
        BYTE   W06
        BYTE                   En2
        BYTE   W06
        BYTE                   En1
        BYTE   W06
        BYTE                   En1
        BYTE   W06
        BYTE                   En2
        BYTE   W06
        BYTE                   En1
        BYTE   W06
        BYTE                   Dn1
        BYTE   W06
        BYTE                   En1
        BYTE   W06
        BYTE                   En2
        BYTE   W06
        BYTE                   Fn2
        BYTE   W06
        BYTE                   En1
        BYTE   W06
        BYTE                   En1
        BYTE   W06
        BYTE                   En2
        BYTE   W06
        BYTE                   Bn1
        BYTE   W06
        BYTE   PEND
// 002   ----------------------------------------
        BYTE   PATT
         POIN2  ScalleywagsOnDeck_4_1
// 003   ----------------------------------------
        BYTE           N12     Gn2   v050
        BYTE   W12
        BYTE           N18     En2
        BYTE   W18
        BYTE           N06     Dn2
        BYTE   W12
        BYTE                   Bn1
        BYTE   W06
        BYTE           N12     En1
        BYTE   W12
        BYTE                   En2
        BYTE   W12
        BYTE           N06     En1
        BYTE   W06
        BYTE                   Fn1
        BYTE   W06
        BYTE                   En1
        BYTE   W06
        BYTE                   En1
        BYTE   W06
// 004   ----------------------------------------
        BYTE   PATT
         POIN2  ScalleywagsOnDeck_4_1
// 005   ----------------------------------------
        BYTE   PATT
         POIN2  ScalleywagsOnDeck_4_1
// 006   ----------------------------------------
        BYTE   PATT
         POIN2  ScalleywagsOnDeck_4_1
// 007   ----------------------------------------
        BYTE           N12     En1   v050
        BYTE   W12
        BYTE           N18     En2
        BYTE   W18
        BYTE           N06     Fn2
        BYTE   W12
        BYTE                   En2
        BYTE   W06
        BYTE           N12     En1
        BYTE   W12
        BYTE                   Fn1
        BYTE   W12
        BYTE           N06     En2
        BYTE   W06
        BYTE                   Fn2
        BYTE   W06
        BYTE                   En2
        BYTE   W06
        BYTE                   En2
        BYTE   W06
// 008   ----------------------------------------
ScalleywagsOnDeck_4_8:
        BYTE           N06     En1   v050
        BYTE   W06
        BYTE                   En1
        BYTE   W06
        BYTE                   Gn2
        BYTE   W12
        BYTE                   Fn2
        BYTE   W24
        BYTE                   En1
        BYTE   W06
        BYTE                   En1
        BYTE   W06
        BYTE                   Fn2
        BYTE   W12
        BYTE                   En2
        BYTE   W06
        BYTE                   Fn1
        BYTE   W06
        BYTE                   En1
        BYTE   W06
        BYTE                   Dn1
        BYTE   W06
        BYTE   PEND
// 009   ----------------------------------------
        BYTE   PATT
         POIN2  ScalleywagsOnDeck_4_8
// 010   ----------------------------------------
        BYTE   PATT
         POIN2  ScalleywagsOnDeck_4_8
// 011   ----------------------------------------
ScalleywagsOnDeck_4_11:
        BYTE           N06     En1   v050
        BYTE   W06
        BYTE                   En1
        BYTE   W18
        BYTE                   En1
        BYTE   W06
        BYTE                   En1
        BYTE   W18
        BYTE                   Fn2
        BYTE   W06
        BYTE                   Fn2
        BYTE   W18
        BYTE           N24     En2
        BYTE   W24
        BYTE   PEND
// 012   ----------------------------------------
        BYTE   PATT
         POIN2  ScalleywagsOnDeck_4_8
// 013   ----------------------------------------
        BYTE   PATT
         POIN2  ScalleywagsOnDeck_4_8
// 014   ----------------------------------------
        BYTE   PATT
         POIN2  ScalleywagsOnDeck_4_8
// 015   ----------------------------------------
        BYTE   PATT
         POIN2  ScalleywagsOnDeck_4_11
// 016   ----------------------------------------
ScalleywagsOnDeck_4_LOOP:
        BYTE           N06     En1   v050
        BYTE   W06
        BYTE                   En1
        BYTE   W42
        BYTE                   En1
        BYTE   W06
        BYTE                   En1
        BYTE   W18
        BYTE           N24     Fn1
        BYTE   W24
// 017   ----------------------------------------
        BYTE           N06     En1
        BYTE   W06
        BYTE                   En1
        BYTE   W42
        BYTE                   En1
        BYTE   W06
        BYTE                   En1
        BYTE   W18
        BYTE           N24     Dn1
        BYTE   W24
// 018   ----------------------------------------
        BYTE           N06     En1
        BYTE   W06
        BYTE                   En1
        BYTE   W42
        BYTE                   En1
        BYTE   W06
        BYTE                   En1
        BYTE   W18
        BYTE           N24     Fn1
        BYTE   W24
// 019   ----------------------------------------
        BYTE           N06     En1
        BYTE   W06
        BYTE                   En1
        BYTE   W42
        BYTE                   En1
        BYTE   W06
        BYTE                   En1
        BYTE   W42
// 020   ----------------------------------------
ScalleywagsOnDeck_4_20:
        BYTE           N06     Gn2   v050
        BYTE   W06
        BYTE                   En1
        BYTE   W06
        BYTE                   En2
        BYTE   W06
        BYTE                   En1
        BYTE   W06
        BYTE                   Fn2
        BYTE   W06
        BYTE           N12     En1
        BYTE   W12
        BYTE                   En2
        BYTE   W12
        BYTE           N06     En1
        BYTE   W06
        BYTE                   Dn2
        BYTE   W06
        BYTE                   En1
        BYTE   W06
        BYTE                   En2
        BYTE   W06
        BYTE                   En1
        BYTE   W06
        BYTE           N12     Bn1
        BYTE   W12
        BYTE   PEND
// 021   ----------------------------------------
ScalleywagsOnDeck_4_21:
        BYTE           N06     En2   v050
        BYTE   W06
        BYTE                   En1
        BYTE   W06
        BYTE                   Bn1
        BYTE   W06
        BYTE                   En1
        BYTE   W06
        BYTE                   Fn2
        BYTE   W06
        BYTE           N12     En1
        BYTE   W12
        BYTE                   En2
        BYTE   W12
        BYTE           N06     En1
        BYTE   W06
        BYTE                   Dn2
        BYTE   W06
        BYTE                   En1
        BYTE   W06
        BYTE                   En2
        BYTE   W06
        BYTE                   En1
        BYTE   W06
        BYTE           N12     Bn1
        BYTE   W12
        BYTE   PEND
// 022   ----------------------------------------
        BYTE   PATT
         POIN2  ScalleywagsOnDeck_4_20
// 023   ----------------------------------------
        BYTE   PATT
         POIN2  ScalleywagsOnDeck_4_21
// 024   ----------------------------------------
        BYTE   GoTo
         POIN2  ScalleywagsOnDeck_4_LOOP
        BYTE   FINE

//****************** Track 5 (Midi-Chn.5) ******************//

ScalleywagsOnDeck_5:
        BYTE   KEYSH   ScalleywagsOnDeck_key+0
// 000   ----------------------------------------
        BYTE           VOICE   123
        BYTE           N12     Gs1   v050
        BYTE           N12     Bn0
        BYTE           VOL     97
        BYTE   W12
        BYTE           N24     En1
        BYTE           N12     Gs1
        BYTE   W12
        BYTE                   Gs1
        BYTE   W12
        BYTE           N06
        BYTE   W06
        BYTE                   Gs1
        BYTE   W06
        BYTE           N24     Bn0
        BYTE           N06     Gs1
        BYTE   W12
        BYTE                   Gs1
        BYTE   W06
        BYTE                   Gs1
        BYTE   W06
        BYTE           N24     En1
        BYTE           N06     Gs1
        BYTE   W12
        BYTE                   Gs1
        BYTE   W06
        BYTE                   As1
        BYTE   W06
// 001   ----------------------------------------
        BYTE           N12     Gs1
        BYTE           N12     Bn0
        BYTE   W12
        BYTE           N24     En1
        BYTE           N12     Gs1
        BYTE   W12
        BYTE                   Gs1
        BYTE   W12
        BYTE           N06
        BYTE   W06
        BYTE                   Gs1
        BYTE   W06
        BYTE           N24     Bn0
        BYTE           N06     Gs1
        BYTE   W12
        BYTE                   Gs1
        BYTE   W06
        BYTE                   Gs1
        BYTE   W06
        BYTE           N24     En1
        BYTE           N06     Gs1
        BYTE   W12
        BYTE                   Ds1
        BYTE   W06
        BYTE                   Ds1
        BYTE   W06
// 002   ----------------------------------------
        BYTE           N12     Gs1
        BYTE           N12     Bn0
        BYTE   W12
        BYTE           N24     En1
        BYTE           N12     Gs1
        BYTE   W12
        BYTE                   Gs1
        BYTE   W12
        BYTE           N06
        BYTE   W06
        BYTE                   Gs1
        BYTE   W06
        BYTE           N24     Bn0
        BYTE           N06     Gs1
        BYTE   W12
        BYTE                   Gs1
        BYTE   W06
        BYTE                   Gs1
        BYTE   W06
        BYTE           N24     En1
        BYTE           N06     Gs1
        BYTE   W12
        BYTE                   Gs1
        BYTE   W06
        BYTE                   As1
        BYTE   W06
// 003   ----------------------------------------
        BYTE           N12     Dn1   v044
        BYTE           N12     Cn2   v050
        BYTE           N06     An1
        BYTE   W12
        BYTE           N12     Dn1   v044
        BYTE           N06     An1   v050
        BYTE   W06
        BYTE           N12     Bn1
        BYTE   W06
        BYTE                   Dn1   v044
        BYTE   W12
        BYTE                   Dn1
        BYTE           N06     Bn1   v050
        BYTE   W06
        BYTE                   Cn2
        BYTE   W06
        BYTE           N12     Dn1   v044
        BYTE           N06     Bn1   v050
        BYTE   W06
        BYTE           N12     Gn1
        BYTE   W06
        BYTE                   Dn1   v044
        BYTE   W06
        BYTE           N06     Fn1   v050
        BYTE   W06
        BYTE           N12     Dn1   v044
        BYTE           N12     En1   v050
        BYTE   W12
        BYTE                   Dn1   v044
        BYTE           N12     En1   v050
        BYTE   W12
// 004   ----------------------------------------
        BYTE           N96     Cs2
        BYTE           N12     Gs1
        BYTE           N12     Bn0
        BYTE   W12
        BYTE           N24     En1
        BYTE           N12     Gs1
        BYTE   W12
        BYTE                   Gs1
        BYTE   W12
        BYTE           N06
        BYTE   W06
        BYTE                   Gs1
        BYTE   W06
        BYTE           N24     Bn0
        BYTE           N06     Gs1
        BYTE   W12
        BYTE                   Gs1
        BYTE   W06
        BYTE                   Gs1
        BYTE   W06
        BYTE           N24     En1
        BYTE           N06     Gs1
        BYTE   W12
        BYTE                   Gs1
        BYTE   W06
        BYTE                   As1
        BYTE   W06
// 005   ----------------------------------------
        BYTE           N12     Bn0
        BYTE           N12     Gs1
        BYTE   W12
        BYTE           N24     En1
        BYTE           N12     Gs1
        BYTE   W12
        BYTE                   Gs1
        BYTE   W12
        BYTE           N06
        BYTE   W06
        BYTE                   Gs1
        BYTE   W06
        BYTE           N24     Bn0
        BYTE           N06     Gs1
        BYTE   W12
        BYTE                   Gs1
        BYTE   W06
        BYTE                   Gs1
        BYTE   W06
        BYTE           N24     En1
        BYTE           N06     Gs1
        BYTE   W12
        BYTE                   Ds1
        BYTE   W06
        BYTE                   Ds1
        BYTE   W06
// 006   ----------------------------------------
        BYTE           N12     Bn0
        BYTE           N12     Gs1
        BYTE   W12
        BYTE           N24     En1
        BYTE           N12     Gs1
        BYTE   W12
        BYTE                   Gs1
        BYTE   W12
        BYTE           N06
        BYTE   W06
        BYTE                   Gs1
        BYTE   W06
        BYTE           N24     Bn0
        BYTE           N06     Gs1
        BYTE   W12
        BYTE                   Gs1
        BYTE   W06
        BYTE                   Gs1
        BYTE   W06
        BYTE           N24     En1
        BYTE           N06     Gs1
        BYTE   W12
        BYTE                   Gs1
        BYTE   W06
        BYTE                   As1
        BYTE   W06
// 007   ----------------------------------------
        BYTE           N12     Dn2
        BYTE           N12     Dn1   v044
        BYTE           N06     Bn1   v050
        BYTE   W12
        BYTE           N12     Dn1   v044
        BYTE           N06     Bn1   v050
        BYTE   W06
        BYTE           N12     Cn2
        BYTE   W06
        BYTE                   Dn1   v044
        BYTE   W12
        BYTE                   Dn1
        BYTE           N06     Cn2   v050
        BYTE   W06
        BYTE                   Dn2
        BYTE   W06
        BYTE           N12     Dn1   v044
        BYTE           N12     Cs2   v050
        BYTE   W12
        BYTE                   Dn1   v044
        BYTE           N12     Cs2   v050
        BYTE   W12
        BYTE                   Dn1   v044
        BYTE           N12     Cs2   v050
        BYTE   W12
        BYTE                   Dn1   v044
        BYTE           N12     Cs2   v050
        BYTE   W12
// 008   ----------------------------------------
ScalleywagsOnDeck_5_8:
        BYTE           N12     En1   v050
        BYTE           N06     Gs1
        BYTE   W12
        BYTE           N12     Cn1
        BYTE           N12     Cs2
        BYTE           N06     Gs1
        BYTE   W12
        BYTE           N18     En1
        BYTE           N12     Cs2
        BYTE   W12
        BYTE           N06     As1
        BYTE   W06
        BYTE                   Gs1
        BYTE           N06     En1
        BYTE   W06
        BYTE           N12
        BYTE           N06     Gs1
        BYTE   W12
        BYTE           N12     Cn1
        BYTE           N12     Cs2
        BYTE           N06     Gs1
        BYTE   W12
        BYTE           N18     En1
        BYTE           N12     Cs2
        BYTE   W12
        BYTE           N06     As1
        BYTE   W06
        BYTE                   Gs1
        BYTE           N06     En1
        BYTE   W06
        BYTE   PEND
// 009   ----------------------------------------
ScalleywagsOnDeck_5_9:
        BYTE           N12     En1   v050
        BYTE           N06     Gs1
        BYTE   W12
        BYTE           N12     Cn1
        BYTE           N12     Cs2
        BYTE           N06     Gs1
        BYTE   W12
        BYTE           N18     En1
        BYTE           N12     Cs2
        BYTE   W12
        BYTE           N06     Gs1
        BYTE   W06
        BYTE                   En1
        BYTE           N06     As1
        BYTE   W06
        BYTE           N12     En1
        BYTE           N06     Gs1
        BYTE   W12
        BYTE           N12     Cn1
        BYTE           N12     Cs2
        BYTE           N06     Gs1
        BYTE   W12
        BYTE           N18     En1
        BYTE           N12     Cs2
        BYTE   W12
        BYTE           N06     Gs1
        BYTE   W06
        BYTE                   En1
        BYTE           N06     As1
        BYTE   W06
        BYTE   PEND
// 010   ----------------------------------------
ScalleywagsOnDeck_5_10:
        BYTE           N12     En1   v050
        BYTE           N06     Gs1
        BYTE   W12
        BYTE           N12     Cn1
        BYTE           N12     Cs2
        BYTE           N06     Gs1
        BYTE   W12
        BYTE           N18     En1
        BYTE           N12     Cs2
        BYTE   W12
        BYTE           N06     As1
        BYTE   W06
        BYTE                   En1
        BYTE           N06     Gs1
        BYTE   W06
        BYTE           N12     En1
        BYTE           N06     Gs1
        BYTE   W12
        BYTE           N12     Cn1
        BYTE           N12     Cs2
        BYTE           N06     Gs1
        BYTE   W12
        BYTE           N18     En1
        BYTE           N12     Cs2
        BYTE   W12
        BYTE           N06     As1
        BYTE   W06
        BYTE                   En1
        BYTE           N06     Gs1
        BYTE   W06
        BYTE   PEND
// 011   ----------------------------------------
ScalleywagsOnDeck_5_11:
        BYTE           N96     En2   v050
        BYTE           N12     En1
        BYTE   W12
        BYTE                   En1
        BYTE   W12
        BYTE           N06     Ds1
        BYTE   W06
        BYTE                   Ds1
        BYTE   W06
        BYTE           N12     En1
        BYTE   W12
        BYTE                   Dn1
        BYTE           N12     En1
        BYTE   W12
        BYTE                   Dn1
        BYTE           N12     En1
        BYTE   W12
        BYTE           N06     Cs1
        BYTE           N06     Ds1
        BYTE   W06
        BYTE                   Cs1
        BYTE           N06     Ds1
        BYTE   W06
        BYTE                   En1
        BYTE           N06     Dn1
        BYTE   W06
        BYTE                   Dn1
        BYTE           N06     En1
        BYTE   W06
        BYTE   PEND
// 012   ----------------------------------------
        BYTE   PATT
         POIN2  ScalleywagsOnDeck_5_8
// 013   ----------------------------------------
        BYTE   PATT
         POIN2  ScalleywagsOnDeck_5_9
// 014   ----------------------------------------
        BYTE   PATT
         POIN2  ScalleywagsOnDeck_5_10
// 015   ----------------------------------------
        BYTE   PATT
         POIN2  ScalleywagsOnDeck_5_11
// 016   ----------------------------------------
ScalleywagsOnDeck_5_LOOP:
        BYTE           N12     En1   v050
        BYTE           N12     Cn1
        BYTE   W12
        BYTE                   Cn1
        BYTE   W06
        BYTE                   En1
        BYTE   W06
        BYTE                   Cn1
        BYTE   W12
        BYTE                   En1
        BYTE           N12     Cn1
        BYTE   W12
        BYTE                   Cn1
        BYTE   W06
        BYTE                   En1
        BYTE   W06
        BYTE                   Cn1
        BYTE   W12
        BYTE           N06
        BYTE           N06     En1
        BYTE   W06
        BYTE                   En1
        BYTE           N06     Cn1
        BYTE   W06
        BYTE           N12     En1
        BYTE           N12     Cn1
        BYTE   W12
// 017   ----------------------------------------
        BYTE                   Gs1
        BYTE           N12     Cn1
        BYTE           N12     En1
        BYTE   W12
        BYTE                   Cn1
        BYTE   W06
        BYTE                   Gs1
        BYTE           N12     En1
        BYTE   W06
        BYTE                   Cn1
        BYTE   W12
        BYTE                   Gs1
        BYTE           N12     En1
        BYTE           N12     Cn1
        BYTE   W12
        BYTE                   Cn1
        BYTE   W06
        BYTE                   Gs1
        BYTE           N12     En1
        BYTE   W06
        BYTE                   Cn1
        BYTE   W12
        BYTE           N06     Gs1
        BYTE           N06     En1
        BYTE           N06     Cn1
        BYTE   W06
        BYTE                   Cn1
        BYTE           N06     En1
        BYTE           N06     Gs1
        BYTE   W06
        BYTE           N12
        BYTE           N12     En1
        BYTE           N12     Cn1
        BYTE   W12
// 018   ----------------------------------------
        BYTE                   Cn1
        BYTE           N12     En1
        BYTE           N12     Cs2
        BYTE   W12
        BYTE                   Cn1
        BYTE   W06
        BYTE                   En1
        BYTE           N12     Cs2
        BYTE   W06
        BYTE                   Cn1
        BYTE   W12
        BYTE                   Cn1
        BYTE           N12     En1
        BYTE           N12     Cs2
        BYTE   W12
        BYTE                   Cn1
        BYTE   W06
        BYTE                   En1
        BYTE           N12     Cs2
        BYTE   W06
        BYTE                   Cn1
        BYTE   W12
        BYTE           N06     En1
        BYTE           N06     Cn1
        BYTE           N06     Cs2
        BYTE   W06
        BYTE                   Cs2
        BYTE           N06     Cn1
        BYTE           N06     En1
        BYTE   W06
        BYTE           N12
        BYTE           N12     Cn1
        BYTE           N12     Cs2
        BYTE   W12
// 019   ----------------------------------------
        BYTE                   Cn2
        BYTE   W18
        BYTE                   Bn1
        BYTE   W18
        BYTE                   An1
        BYTE   W18
        BYTE                   An1
        BYTE   W18
        BYTE           N06     Cn2
        BYTE   W06
        BYTE                   Bn1
        BYTE   W06
        BYTE                   An1
        BYTE   W06
        BYTE                   Gn1
        BYTE   W06
// 020   ----------------------------------------
        BYTE           N96     Cs2
        BYTE           N24     En1
        BYTE           N24     Cn1
        BYTE   W24
        BYTE                   Cn1
        BYTE           N24     En1
        BYTE   W24
        BYTE           N06     Cn1
        BYTE           N06     En1
        BYTE   W12
        BYTE                   En1
        BYTE           N06     Cn1
        BYTE   W12
        BYTE           N12
        BYTE           N12     En1
        BYTE   W12
        BYTE                   Cn1
        BYTE           N12     Ds1
        BYTE   W12
// 021   ----------------------------------------
        BYTE           N24     Cn1
        BYTE           N24     En1
        BYTE   W24
        BYTE                   En1
        BYTE           N24     Cn1
        BYTE   W24
        BYTE           N06     En1
        BYTE           N06     Cn1
        BYTE   W12
        BYTE                   En1
        BYTE           N06     Cn1
        BYTE   W12
        BYTE           N12
        BYTE           N12     En1
        BYTE   W12
        BYTE                   Cn1
        BYTE           N12     As1
        BYTE   W12
// 022   ----------------------------------------
        BYTE           N24     Cn1
        BYTE           N24     En1
        BYTE   W24
        BYTE                   En1
        BYTE           N24     Cn1
        BYTE   W24
        BYTE           N06     En1
        BYTE           N06     Cn1
        BYTE   W12
        BYTE                   En1
        BYTE           N06     Cn1
        BYTE   W12
        BYTE           N12
        BYTE           N12     En1
        BYTE   W12
        BYTE                   Cn1
        BYTE           N12     Ds1
        BYTE   W12
// 023   ----------------------------------------
        BYTE           N24     En1
        BYTE           N24     Cn1
        BYTE   W24
        BYTE                   Cn1
        BYTE           N24     En1
        BYTE   W24
        BYTE           N06
        BYTE           N06     Cn1
        BYTE   W12
        BYTE                   Cn1
        BYTE           N06     En1
        BYTE   W12
        BYTE           N12     Cn1
        BYTE           N12     En1
        BYTE   W12
        BYTE                   As1
        BYTE           N12     Cn1
        BYTE   W12
// 024   ----------------------------------------
        BYTE   GoTo
         POIN2  ScalleywagsOnDeck_5_LOOP
        BYTE   FINE

//****************** Track 6 (Midi-Chn.6) ******************//

ScalleywagsOnDeck_6:
        BYTE   KEYSH   ScalleywagsOnDeck_key+0
// 000   ----------------------------------------
        BYTE           VOICE   55
        BYTE           N12     En2   v044
        BYTE           VOL     97
        BYTE   W12
        BYTE           N12     En2   v050
        BYTE   W36
        BYTE                   En2   v044
        BYTE   W12
        BYTE                   En2   v050
        BYTE   W36
// 001   ----------------------------------------
        BYTE                   Dn2   v044
        BYTE   W12
        BYTE                   Dn2   v050
        BYTE   W36
        BYTE                   Dn2   v044
        BYTE   W12
        BYTE                   Dn2   v050
        BYTE   W36
// 002   ----------------------------------------
        BYTE                   Fn2   v044
        BYTE   W12
        BYTE                   Fn2   v050
        BYTE   W36
        BYTE                   Fn2   v044
        BYTE   W12
        BYTE                   Fn2   v050
        BYTE   W36
// 003   ----------------------------------------
        BYTE                   En2   v044
        BYTE   W12
        BYTE                   En2   v050
        BYTE   W36
        BYTE                   En2   v044
        BYTE   W12
        BYTE                   En2   v050
        BYTE   W12
        BYTE                   En2   v044
        BYTE   W12
        BYTE                   En2   v050
        BYTE   W12
// 004   ----------------------------------------
ScalleywagsOnDeck_6_4:
        BYTE           N12     En2   v044
        BYTE   W12
        BYTE                   En2   v050
        BYTE   W84
        BYTE   PEND
// 005   ----------------------------------------
        BYTE                   Dn2   v044
        BYTE   W12
        BYTE                   Dn2   v050
        BYTE   W84
// 006   ----------------------------------------
        BYTE                   Fn2   v044
        BYTE   W12
        BYTE                   Fn2   v050
        BYTE   W84
// 007   ----------------------------------------
        BYTE   PATT
         POIN2  ScalleywagsOnDeck_6_4
// 008   ----------------------------------------
ScalleywagsOnDeck_6_8:
        BYTE           N48     En2   v050
        BYTE   W48
        BYTE                   En2   v044
        BYTE   W48
        BYTE   PEND
// 009   ----------------------------------------
ScalleywagsOnDeck_6_9:
        BYTE           N48     Dn2   v050
        BYTE   W48
        BYTE                   Dn2   v044
        BYTE   W48
        BYTE   PEND
// 010   ----------------------------------------
ScalleywagsOnDeck_6_10:
        BYTE           N48     Fn2   v050
        BYTE   W48
        BYTE                   Fn2   v044
        BYTE   W48
        BYTE   PEND
// 011   ----------------------------------------
        BYTE   PATT
         POIN2  ScalleywagsOnDeck_6_8
// 012   ----------------------------------------
ScalleywagsOnDeck_6_12:
        BYTE           N48     Gn2   v050
        BYTE   W48
        BYTE                   Gn2   v044
        BYTE   W48
        BYTE   PEND
// 013   ----------------------------------------
        BYTE   PATT
         POIN2  ScalleywagsOnDeck_6_10
// 014   ----------------------------------------
        BYTE   PATT
         POIN2  ScalleywagsOnDeck_6_12
// 015   ----------------------------------------
        BYTE   PATT
         POIN2  ScalleywagsOnDeck_6_8
// 016   ----------------------------------------
ScalleywagsOnDeck_6_LOOP:
        BYTE           N18     En2   v044
        BYTE           N18     Bn2
        BYTE   W18
        BYTE                   Bn2
        BYTE           N18     En2
        BYTE   W18
        BYTE                   As2
        BYTE           N18     Ds2
        BYTE   W18
        BYTE                   Ds2
        BYTE           N18     As2
        BYTE   W18
        BYTE           N24     Dn2
        BYTE           N24     An2
        BYTE   W24
// 017   ----------------------------------------
        BYTE           N18     Gn2
        BYTE           N18     Dn3
        BYTE   W18
        BYTE                   Dn3
        BYTE           N18     Gn2
        BYTE   W18
        BYTE                   Fs2
        BYTE           N18     Cs3
        BYTE   W18
        BYTE                   Cs3
        BYTE           N18     Fs2
        BYTE   W18
        BYTE           N24     Fn2
        BYTE           N24     Cn3
        BYTE   W24
// 018   ----------------------------------------
        BYTE           N18     Bn2
        BYTE           N18     En2
        BYTE   W18
        BYTE                   En2
        BYTE           N18     Bn2
        BYTE   W18
        BYTE                   As2
        BYTE           N18     Ds2
        BYTE   W18
        BYTE                   Ds2
        BYTE           N18     As2
        BYTE   W18
        BYTE           N24     Dn2
        BYTE           N24     An2
        BYTE   W24
// 019   ----------------------------------------
        BYTE           N18     Cs2
        BYTE           N18     Gs2
        BYTE   W18
        BYTE                   Gs2
        BYTE           N18     Cs2
        BYTE   W18
        BYTE                   An2
        BYTE           N18     Dn2
        BYTE   W18
        BYTE                   Dn2
        BYTE           N18     An2
        BYTE   W18
        BYTE           N24     Ds2
        BYTE           N24     As2
        BYTE   W24
// 020   ----------------------------------------
        BYTE   PATT
         POIN2  ScalleywagsOnDeck_6_8
// 021   ----------------------------------------
        BYTE   PATT
         POIN2  ScalleywagsOnDeck_6_9
// 022   ----------------------------------------
        BYTE           N48     Cs2   v050
        BYTE   W48
        BYTE                   Cs2   v044
        BYTE   W48
// 023   ----------------------------------------
        BYTE           N24     En2   v050
        BYTE   W24
        BYTE                   En2
        BYTE   W24
        BYTE           N12     En2   v044
        BYTE   W12
        BYTE                   En2
        BYTE   W12
        BYTE           N06
        BYTE   W06
        BYTE                   En2
        BYTE   W06
        BYTE                   En2
        BYTE   W06
        BYTE                   En2
        BYTE   W06
// 024   ----------------------------------------
        BYTE   GoTo
         POIN2  ScalleywagsOnDeck_6_LOOP
        BYTE   FINE

//****************** Track 7 (Midi-Chn.7) ******************//

ScalleywagsOnDeck_7:
        BYTE   KEYSH   ScalleywagsOnDeck_key+0
// 000   ----------------------------------------
        BYTE           VOICE   98
        BYTE           N06     Gn3   v044
        BYTE           VOL     97
        BYTE   W06
        BYTE           N06     En2
        BYTE   W06
        BYTE                   En2
        BYTE   W06
        BYTE                   En3
        BYTE   W06
        BYTE                   En2
        BYTE   W06
        BYTE                   En2
        BYTE   W06
        BYTE                   En3
        BYTE   W06
        BYTE                   En2
        BYTE   W06
        BYTE                   Dn2
        BYTE   W06
        BYTE                   En2
        BYTE   W06
        BYTE                   En3
        BYTE   W06
        BYTE                   Fn3
        BYTE   W06
        BYTE                   En2
        BYTE   W06
        BYTE                   En2
        BYTE   W06
        BYTE                   En3
        BYTE   W06
        BYTE                   Bn2
        BYTE   W06
// 001   ----------------------------------------
ScalleywagsOnDeck_7_1:
        BYTE           N06     Gn3   v044
        BYTE   W06
        BYTE                   En2
        BYTE   W06
        BYTE                   En2
        BYTE   W06
        BYTE                   En3
        BYTE   W06
        BYTE                   En2
        BYTE   W06
        BYTE                   En2
        BYTE   W06
        BYTE                   En3
        BYTE   W06
        BYTE                   En2
        BYTE   W06
        BYTE                   Dn2
        BYTE   W06
        BYTE                   En2
        BYTE   W06
        BYTE                   En3
        BYTE   W06
        BYTE                   Fn3
        BYTE   W06
        BYTE                   En2
        BYTE   W06
        BYTE                   En2
        BYTE   W06
        BYTE                   En3
        BYTE   W06
        BYTE                   Bn2
        BYTE   W06
        BYTE   PEND
// 002   ----------------------------------------
        BYTE   PATT
         POIN2  ScalleywagsOnDeck_7_1
// 003   ----------------------------------------
        BYTE           N12     Gn3   v044
        BYTE   W12
        BYTE           N18     En3
        BYTE   W18
        BYTE           N06     Dn3
        BYTE   W12
        BYTE                   Bn2
        BYTE   W06
        BYTE           N12     En2
        BYTE   W12
        BYTE                   En3
        BYTE   W12
        BYTE           N06     En2
        BYTE   W06
        BYTE                   Fn2
        BYTE   W06
        BYTE                   En2
        BYTE   W06
        BYTE                   En2
        BYTE   W06
// 004   ----------------------------------------
        BYTE   PATT
         POIN2  ScalleywagsOnDeck_7_1
// 005   ----------------------------------------
        BYTE   PATT
         POIN2  ScalleywagsOnDeck_7_1
// 006   ----------------------------------------
        BYTE   PATT
         POIN2  ScalleywagsOnDeck_7_1
// 007   ----------------------------------------
        BYTE           N12     En2   v044
        BYTE   W12
        BYTE           N18     En3
        BYTE   W18
        BYTE           N06     Fn3
        BYTE   W12
        BYTE                   En3
        BYTE   W06
        BYTE           N12     En2
        BYTE   W12
        BYTE                   Fn2
        BYTE   W12
        BYTE           N06     En3
        BYTE   W06
        BYTE                   Fn3
        BYTE   W06
        BYTE                   En3
        BYTE   W06
        BYTE                   En3
        BYTE   W06
// 008   ----------------------------------------
ScalleywagsOnDeck_7_8:
        BYTE           N06     En2   v044
        BYTE   W06
        BYTE                   En2
        BYTE   W06
        BYTE                   Gn3
        BYTE   W12
        BYTE                   Fn3
        BYTE   W24
        BYTE                   En2
        BYTE   W06
        BYTE                   En2
        BYTE   W06
        BYTE                   Fn3
        BYTE   W12
        BYTE                   En3
        BYTE   W06
        BYTE                   Fn2
        BYTE   W06
        BYTE                   En2
        BYTE   W06
        BYTE                   Dn2
        BYTE   W06
        BYTE   PEND
// 009   ----------------------------------------
        BYTE   PATT
         POIN2  ScalleywagsOnDeck_7_8
// 010   ----------------------------------------
        BYTE   PATT
         POIN2  ScalleywagsOnDeck_7_8
// 011   ----------------------------------------
ScalleywagsOnDeck_7_11:
        BYTE           N06     En2   v044
        BYTE   W06
        BYTE                   En2
        BYTE   W18
        BYTE                   En2
        BYTE   W06
        BYTE                   En2
        BYTE   W18
        BYTE                   Fn3
        BYTE   W06
        BYTE                   Fn3
        BYTE   W18
        BYTE           N24     En3
        BYTE   W24
        BYTE   PEND
// 012   ----------------------------------------
        BYTE   PATT
         POIN2  ScalleywagsOnDeck_7_8
// 013   ----------------------------------------
        BYTE   PATT
         POIN2  ScalleywagsOnDeck_7_8
// 014   ----------------------------------------
        BYTE   PATT
         POIN2  ScalleywagsOnDeck_7_8
// 015   ----------------------------------------
        BYTE   PATT
         POIN2  ScalleywagsOnDeck_7_11
// 016   ----------------------------------------
ScalleywagsOnDeck_7_LOOP:
        BYTE           N06     En2   v044
        BYTE   W06
        BYTE                   En2
        BYTE   W42
        BYTE                   En2
        BYTE   W06
        BYTE                   En2
        BYTE   W18
        BYTE           N24     Fn2
        BYTE   W24
// 017   ----------------------------------------
        BYTE           N06     En2
        BYTE   W06
        BYTE                   En2
        BYTE   W42
        BYTE                   En2
        BYTE   W06
        BYTE                   En2
        BYTE   W18
        BYTE           N24     Dn2
        BYTE   W24
// 018   ----------------------------------------
        BYTE           N06     En2
        BYTE   W06
        BYTE                   En2
        BYTE   W42
        BYTE                   En2
        BYTE   W06
        BYTE                   En2
        BYTE   W18
        BYTE           N24     Fn2
        BYTE   W24
// 019   ----------------------------------------
        BYTE           N06     En2
        BYTE   W06
        BYTE                   En2
        BYTE   W42
        BYTE                   En2
        BYTE   W06
        BYTE                   En2
        BYTE   W42
// 020   ----------------------------------------
ScalleywagsOnDeck_7_20:
        BYTE           N06     Gn3   v044
        BYTE   W06
        BYTE                   En2
        BYTE   W06
        BYTE                   En3
        BYTE   W06
        BYTE                   En2
        BYTE   W06
        BYTE                   Fn3
        BYTE   W06
        BYTE           N12     En2
        BYTE   W12
        BYTE                   En3
        BYTE   W12
        BYTE           N06     En2
        BYTE   W06
        BYTE                   Dn3
        BYTE   W06
        BYTE                   En2
        BYTE   W06
        BYTE                   En3
        BYTE   W06
        BYTE                   En2
        BYTE   W06
        BYTE           N12     Bn2
        BYTE   W12
        BYTE   PEND
// 021   ----------------------------------------
ScalleywagsOnDeck_7_21:
        BYTE           N06     En3   v044
        BYTE   W06
        BYTE                   En2
        BYTE   W06
        BYTE                   Bn2
        BYTE   W06
        BYTE                   En2
        BYTE   W06
        BYTE                   Fn3
        BYTE   W06
        BYTE           N12     En2
        BYTE   W12
        BYTE                   En3
        BYTE   W12
        BYTE           N06     En2
        BYTE   W06
        BYTE                   Dn3
        BYTE   W06
        BYTE                   En2
        BYTE   W06
        BYTE                   En3
        BYTE   W06
        BYTE                   En2
        BYTE   W06
        BYTE           N12     Bn2
        BYTE   W12
        BYTE   PEND
// 022   ----------------------------------------
        BYTE   PATT
         POIN2  ScalleywagsOnDeck_7_20
// 023   ----------------------------------------
        BYTE   PATT
         POIN2  ScalleywagsOnDeck_7_21
// 024   ----------------------------------------
        BYTE   GoTo
         POIN2  ScalleywagsOnDeck_7_LOOP
        BYTE   FINE


//********************** End of Song ***********************//

        ALIGN 4
ScalleywagsOnDeck:
        BYTE   8                       // Num Tracks
        BYTE   0                       // Unknown
        BYTE   ScalleywagsOnDeck_pri   // Priority
        BYTE   ScalleywagsOnDeck_rev   // Reverb

        POIN2   ScalleywagsOnDeck_grp  

        POIN2   ScalleywagsOnDeck_0
        POIN2   ScalleywagsOnDeck_1
        POIN2   ScalleywagsOnDeck_2
        POIN2   ScalleywagsOnDeck_3
        POIN2   ScalleywagsOnDeck_4
        POIN2   ScalleywagsOnDeck_5
        POIN2   ScalleywagsOnDeck_6
        POIN2   ScalleywagsOnDeck_7

        
