//Event file generated from Sappy .s format.
        #include "MPlayDef.event"

        #define    TimesTicking_grp  voicegroup000
        #define    TimesTicking_pri  0
        #define    TimesTicking_rev  0
        #define    TimesTicking_key  0

        // .rodata
        // TimesTicking
        ALIGN 4

//****************** Track 0 (Midi-Chn.0) ******************//

TimesTicking_0:
        BYTE   KEYSH   TimesTicking_key+0
// 000   ----------------------------------------
        BYTE   TEMPO   146/2
        BYTE           VOICE   39
        BYTE           PAN     c_v-7
        BYTE           VOL     23
        BYTE           N24     An2   v102
        BYTE   W24
        BYTE                   En2
        BYTE   W24
        BYTE                   Cs3
        BYTE   W24
        BYTE                   Fs2
        BYTE   W24
// 001   ----------------------------------------
TimesTicking_0_1:
        BYTE           N24     Gs2   v102
        BYTE   W24
        BYTE           N12     An2
        BYTE   W12
        BYTE                   Cn3
        BYTE   W12
        BYTE           N24     Cs3
        BYTE   W24
        BYTE           N12     En2
        BYTE   W12
        BYTE                   Ds2
        BYTE   W12
        BYTE   PEND
// 002   ----------------------------------------
TimesTicking_0_LOOP:
        BYTE           N24     Cs3   v102
        BYTE   W24
        BYTE                   Gs2
        BYTE   W24
        BYTE                   Cs3
        BYTE   W24
        BYTE                   Gs2
        BYTE   W24
// 003   ----------------------------------------
TimesTicking_0_3:
        BYTE           N24     An2   v102
        BYTE   W24
        BYTE                   En2
        BYTE   W24
        BYTE                   Cs3
        BYTE   W24
        BYTE                   Gs2
        BYTE   W24
        BYTE   PEND
// 004   ----------------------------------------
TimesTicking_0_4:
        BYTE           N24     An2   v102
        BYTE   W24
        BYTE                   En2
        BYTE   W24
        BYTE                   Cs3
        BYTE   W24
        BYTE                   Fs2
        BYTE   W24
        BYTE   PEND
// 005   ----------------------------------------
        BYTE   PATT
         POIN2  TimesTicking_0_1
// 006   ----------------------------------------
TimesTicking_0_6:
        BYTE           N24     Cs3   v102
        BYTE   W24
        BYTE                   Gs2
        BYTE   W24
        BYTE                   Cs3
        BYTE   W24
        BYTE                   Gs2
        BYTE   W24
        BYTE   PEND
// 007   ----------------------------------------
        BYTE   PATT
         POIN2  TimesTicking_0_3
// 008   ----------------------------------------
        BYTE   PATT
         POIN2  TimesTicking_0_4
// 009   ----------------------------------------
        BYTE   PATT
         POIN2  TimesTicking_0_1
// 010   ----------------------------------------
        BYTE           N24     Cs3   v102
        BYTE   W96
// 011   ----------------------------------------
        BYTE   PATT
         POIN2  TimesTicking_0_3
// 012   ----------------------------------------
        BYTE   PATT
         POIN2  TimesTicking_0_4
// 013   ----------------------------------------
        BYTE   PATT
         POIN2  TimesTicking_0_1
// 014   ----------------------------------------
        BYTE   W96
        BYTE   W48
// 015   ----------------------------------------
        BYTE   W96
        BYTE   W48
// 016   ----------------------------------------
        BYTE   W96
        BYTE   W48
// 017   ----------------------------------------
        BYTE   W96
        BYTE   W48
// 018   ----------------------------------------
        BYTE   W96
        BYTE   W48
// 019   ----------------------------------------
        BYTE   W96
        BYTE   W48
// 020   ----------------------------------------
        BYTE   W96
        BYTE   W48
// 021   ----------------------------------------
        BYTE   W96
        BYTE   W48
// 022   ----------------------------------------
        BYTE   W96
// 023   ----------------------------------------
        BYTE   W96
// 024   ----------------------------------------
        BYTE   PATT
         POIN2  TimesTicking_0_4
// 025   ----------------------------------------
        BYTE   PATT
         POIN2  TimesTicking_0_1
// 026   ----------------------------------------
        BYTE   PATT
         POIN2  TimesTicking_0_6
// 027   ----------------------------------------
        BYTE   PATT
         POIN2  TimesTicking_0_3
// 028   ----------------------------------------
        BYTE   PATT
         POIN2  TimesTicking_0_4
// 029   ----------------------------------------
        BYTE   PATT
         POIN2  TimesTicking_0_1
// 030   ----------------------------------------
        BYTE   PATT
         POIN2  TimesTicking_0_6
// 031   ----------------------------------------
        BYTE   PATT
         POIN2  TimesTicking_0_3
// 032   ----------------------------------------
        BYTE           N24     Cs3   v102
        BYTE   W24
        BYTE           N12     En2
        BYTE   W12
        BYTE                   Gs2
        BYTE   W24
        BYTE                   Gs2
        BYTE   W12
        BYTE                   An2
        BYTE   W12
        BYTE                   Gs2
        BYTE   W12
// 033   ----------------------------------------
        BYTE   W12
        BYTE                   Gs2
        BYTE   W12
        BYTE                   An2
        BYTE   W12
        BYTE                   Gs2
        BYTE   W12
        BYTE                   Fs2
        BYTE   W12
        BYTE                   Gs2
        BYTE   W12
        BYTE                   En2
        BYTE   W12
        BYTE                   Ds2
        BYTE   W12
// 034   ----------------------------------------
        BYTE           N48     Cs2
        BYTE   W48
        BYTE                   Cs3
        BYTE   W48
// 035   ----------------------------------------
        BYTE           N24     Bn2
        BYTE   W24
        BYTE                   An2
        BYTE   W24
        BYTE                   Gs2
        BYTE   W24
        BYTE                   Cn3
        BYTE   W24
// 036   ----------------------------------------
        BYTE   PATT
         POIN2  TimesTicking_0_4
// 037   ----------------------------------------
        BYTE   PATT
         POIN2  TimesTicking_0_1
// 038   ----------------------------------------
        BYTE   GoTo
         POIN2  TimesTicking_0_LOOP
        BYTE   W96
// 039   ----------------------------------------
        BYTE   W96
// 040   ----------------------------------------
        BYTE   W96
// 041   ----------------------------------------
        BYTE   W96
// 042   ----------------------------------------
        BYTE   FINE

//****************** Track 1 (Midi-Chn.1) ******************//

TimesTicking_1:
        BYTE   KEYSH   TimesTicking_key+0
// 000   ----------------------------------------
        BYTE           VOICE   25
        BYTE           VOL     55
        BYTE           PAN     c_v-20
        BYTE   W96
// 001   ----------------------------------------
        BYTE   W96
// 002   ----------------------------------------
TimesTicking_1_LOOP:
        BYTE   W96
// 003   ----------------------------------------
        BYTE   W96
// 004   ----------------------------------------
        BYTE   W96
// 005   ----------------------------------------
        BYTE   W96
// 006   ----------------------------------------
        BYTE   W96
// 007   ----------------------------------------
        BYTE   W96
// 008   ----------------------------------------
        BYTE   W96
// 009   ----------------------------------------
        BYTE   W96
// 010   ----------------------------------------
        BYTE   W96
// 011   ----------------------------------------
        BYTE   W96
// 012   ----------------------------------------
        BYTE   W96
// 013   ----------------------------------------
        BYTE   W96
// 014   ----------------------------------------
TimesTicking_1_14:
        BYTE           N12     Dn2   v095
        BYTE   W12
        BYTE                   Dn2
        BYTE   W12
        BYTE                   An2
        BYTE   W12
        BYTE                   An2
        BYTE   W12
        BYTE                   Dn2
        BYTE   W12
        BYTE                   Dn2
        BYTE   W12
        BYTE                   Cn3
        BYTE   W12
        BYTE                   Cn3
        BYTE   W12
        BYTE                   Fn2
        BYTE   W12
        BYTE                   Fn2
        BYTE   W12
        BYTE                   En2
        BYTE   W12
        BYTE                   En2
        BYTE   W12
        BYTE   PEND
// 015   ----------------------------------------
TimesTicking_1_15:
        BYTE           N12     An2   v095
        BYTE   W12
        BYTE                   An2
        BYTE   W12
        BYTE                   En3
        BYTE   W12
        BYTE                   En3
        BYTE   W12
        BYTE                   An2
        BYTE   W12
        BYTE                   An2
        BYTE   W12
        BYTE                   Gn3
        BYTE   W12
        BYTE                   Gn3
        BYTE   W12
        BYTE                   Cn3
        BYTE   W12
        BYTE                   Cn3
        BYTE   W12
        BYTE                   Bn2
        BYTE   W12
        BYTE                   Bn2
        BYTE   W12
        BYTE   PEND
// 016   ----------------------------------------
TimesTicking_1_16:
        BYTE           N12     Gn2   v095
        BYTE   W12
        BYTE                   Gn2
        BYTE   W12
        BYTE                   Dn3
        BYTE   W12
        BYTE                   Dn3
        BYTE   W12
        BYTE                   Gn2
        BYTE   W12
        BYTE                   Gn2
        BYTE   W12
        BYTE                   Fn3
        BYTE   W12
        BYTE                   Fn3
        BYTE   W12
        BYTE                   Bn2
        BYTE   W12
        BYTE                   Bn2
        BYTE   W12
        BYTE                   An2
        BYTE   W12
        BYTE                   An2
        BYTE   W12
        BYTE   PEND
// 017   ----------------------------------------
TimesTicking_1_17:
        BYTE           N12     Dn2   v095
        BYTE   W12
        BYTE                   En2
        BYTE   W12
        BYTE                   Fn2
        BYTE   W12
        BYTE                   Gn2
        BYTE   W12
        BYTE                   An2
        BYTE   W12
        BYTE                   Bn2
        BYTE   W12
        BYTE                   An2
        BYTE   W12
        BYTE                   Bn2
        BYTE   W12
        BYTE                   Cn3
        BYTE   W12
        BYTE                   Dn3
        BYTE   W12
        BYTE                   En3
        BYTE   W12
        BYTE                   Fn3
        BYTE   W12
        BYTE   PEND
// 018   ----------------------------------------
        BYTE   PATT
         POIN2  TimesTicking_1_14
// 019   ----------------------------------------
        BYTE   PATT
         POIN2  TimesTicking_1_15
// 020   ----------------------------------------
        BYTE   PATT
         POIN2  TimesTicking_1_16
// 021   ----------------------------------------
        BYTE   PATT
         POIN2  TimesTicking_1_17
// 022   ----------------------------------------
        BYTE   W96
// 023   ----------------------------------------
        BYTE   W96
// 024   ----------------------------------------
        BYTE   W96
// 025   ----------------------------------------
        BYTE   W96
// 026   ----------------------------------------
TimesTicking_1_26:
        BYTE   W12
        BYTE           N06     Cs4   v114
        BYTE           N06     Gs3
        BYTE   W12
        BYTE           N03     Cs4
        BYTE           N03     Gs3
        BYTE   W06
        BYTE           N12     Cs4
        BYTE           N12     Gs3
        BYTE   W12
        BYTE                   Cs4
        BYTE           N12     Gs3
        BYTE   W54
        BYTE   PEND
// 027   ----------------------------------------
TimesTicking_1_27:
        BYTE   W12
        BYTE           N06     Cs4   v114
        BYTE           N06     An3
        BYTE   W12
        BYTE           N03     Cs4
        BYTE           N03     An3
        BYTE   W06
        BYTE           N12     Cs4
        BYTE           N12     An3
        BYTE   W12
        BYTE                   Cs4
        BYTE           N12     An3
        BYTE   W54
        BYTE   PEND
// 028   ----------------------------------------
        BYTE   PATT
         POIN2  TimesTicking_1_26
// 029   ----------------------------------------
TimesTicking_1_29:
        BYTE   W12
        BYTE           N06     Cn4   v114
        BYTE           N06     Gs3
        BYTE   W12
        BYTE           N03     Cn4
        BYTE           N03     Gs3
        BYTE   W06
        BYTE           N06     Cn4
        BYTE           N06     Gs3
        BYTE   W12
        BYTE           N12
        BYTE           N12     Cs4
        BYTE   W54
        BYTE   PEND
// 030   ----------------------------------------
        BYTE   PATT
         POIN2  TimesTicking_1_26
// 031   ----------------------------------------
        BYTE   PATT
         POIN2  TimesTicking_1_27
// 032   ----------------------------------------
        BYTE   PATT
         POIN2  TimesTicking_1_26
// 033   ----------------------------------------
        BYTE   PATT
         POIN2  TimesTicking_1_29
// 034   ----------------------------------------
        BYTE   W96
// 035   ----------------------------------------
        BYTE   W96
// 036   ----------------------------------------
        BYTE   W96
// 037   ----------------------------------------
        BYTE   W96
// 038   ----------------------------------------
        BYTE   GoTo
         POIN2  TimesTicking_1_LOOP
        BYTE   W96
// 039   ----------------------------------------
        BYTE   W96
// 040   ----------------------------------------
        BYTE   W96
// 041   ----------------------------------------
        BYTE   W96
// 042   ----------------------------------------
        BYTE   FINE

//****************** Track 2 (Midi-Chn.2) ******************//

TimesTicking_2:
        BYTE   KEYSH   TimesTicking_key+0
// 000   ----------------------------------------
        BYTE           VOICE   16
        BYTE           VOL     32
        BYTE           PAN     c_v+27
        BYTE           N04     Cs5   v040
        BYTE           N04     Cs4
        BYTE   W04
        BYTE                   Ds4   v041
        BYTE           N04     Ds5
        BYTE   W04
        BYTE                   Cs5   v043
        BYTE           N04     Cs4
        BYTE   W04
        BYTE                   Ds4   v044
        BYTE           N04     Ds5
        BYTE   W04
        BYTE                   Cs4   v046
        BYTE           N04     Cs5
        BYTE   W04
        BYTE                   Ds4   v047
        BYTE           N04     Ds5
        BYTE   W04
        BYTE                   Cs5   v049
        BYTE           N04     Cs4
        BYTE   W04
        BYTE                   Ds5   v050
        BYTE           N04     Ds4
        BYTE   W04
        BYTE                   Cs4   v052
        BYTE           N04     Cs5
        BYTE   W04
        BYTE                   Ds4   v054
        BYTE           N04     Ds5
        BYTE   W04
        BYTE                   Cs5   v055
        BYTE           N04     Cs4
        BYTE   W04
        BYTE                   Ds5   v057
        BYTE           N04     Ds4
        BYTE   W04
        BYTE                   Cs4   v058
        BYTE           N04     Cs5
        BYTE   W04
        BYTE                   Ds5   v060
        BYTE           N04     Ds4
        BYTE   W04
        BYTE                   Cs4   v061
        BYTE           N04     Cs5
        BYTE   W04
        BYTE                   Ds5   v063
        BYTE           N04     Ds4
        BYTE   W04
        BYTE                   Cs4   v065
        BYTE           N04     Cs5
        BYTE   W04
        BYTE                   Ds4   v066
        BYTE           N04     Ds5
        BYTE   W04
        BYTE                   Cs4   v068
        BYTE           N04     Cs5
        BYTE   W04
        BYTE                   Ds5   v069
        BYTE           N04     Ds4
        BYTE   W04
        BYTE                   Cs5   v071
        BYTE           N04     Cs4
        BYTE   W04
        BYTE                   Ds4   v072
        BYTE           N04     Ds5
        BYTE   W04
        BYTE                   Cs4   v074
        BYTE           N04     Cs5
        BYTE   W04
        BYTE                   Ds5   v075
        BYTE           N04     Ds4
        BYTE   W04
// 001   ----------------------------------------
        BYTE                   Cs5   v077
        BYTE           N04     Cs4
        BYTE   W04
        BYTE                   Ds4   v079
        BYTE           N04     Ds5
        BYTE   W04
        BYTE                   Cs5   v080
        BYTE           N04     Cs4
        BYTE   W04
        BYTE                   Ds4   v082
        BYTE           N04     Ds5
        BYTE   W04
        BYTE                   Cs5   v083
        BYTE           N04     Cs4
        BYTE   W04
        BYTE                   Ds4   v085
        BYTE           N04     Ds5
        BYTE   W04
        BYTE                   Cs4   v086
        BYTE           N04     Cs5
        BYTE   W04
        BYTE                   Ds4   v088
        BYTE           N04     Ds5
        BYTE   W04
        BYTE                   Cs5   v090
        BYTE           N04     Cs4
        BYTE   W04
        BYTE                   Ds5   v091
        BYTE           N04     Ds4
        BYTE   W04
        BYTE                   Cs4   v093
        BYTE           N04     Cs5
        BYTE   W04
        BYTE                   Ds4   v094
        BYTE           N04     Ds5
        BYTE   W04
        BYTE                   Cs5   v096
        BYTE           N04     Cs4
        BYTE   W04
        BYTE                   Ds5   v097
        BYTE           N04     Ds4
        BYTE   W04
        BYTE                   Cs4   v099
        BYTE           N04     Cs5
        BYTE   W04
        BYTE                   Ds5   v100
        BYTE           N04     Ds4
        BYTE   W04
        BYTE                   Cs4   v102
        BYTE           N04     Cs5
        BYTE   W04
        BYTE                   Ds5   v104
        BYTE           N04     Ds4
        BYTE   W04
        BYTE                   Cs4   v127
        BYTE           N04     Cs5
        BYTE   W04
        BYTE                   Ds4   v121
        BYTE           N04     Ds5
        BYTE   W04
        BYTE                   Cs4   v115
        BYTE           N04     Cs5
        BYTE   W04
        BYTE                   Ds5   v108
        BYTE           N04     Ds4
        BYTE   W04
        BYTE                   Cs5   v102
        BYTE           N04     Cs4
        BYTE   W04
        BYTE                   Ds4   v095
        BYTE           N04     Ds5
        BYTE   W04
// 002   ----------------------------------------
TimesTicking_2_LOOP:
        BYTE           N96     Gs2   v089
        BYTE           N96     Cs3
        BYTE   W96
// 003   ----------------------------------------
TimesTicking_2_3:
        BYTE           N48     Cn3   v089
        BYTE           N48     An2
        BYTE   W48
        BYTE                   Gs2
        BYTE           N48     Cs3
        BYTE   W48
        BYTE   PEND
// 004   ----------------------------------------
TimesTicking_2_4:
        BYTE           N48     An2   v089
        BYTE           N48     Fs2
        BYTE   W48
        BYTE                   Cs3
        BYTE           N48     Gs2
        BYTE   W48
        BYTE   PEND
// 005   ----------------------------------------
TimesTicking_2_5:
        BYTE           N48     Gs2   v089
        BYTE           N48     Cn3
        BYTE   W48
        BYTE                   Cs3
        BYTE           N48     Gs2
        BYTE   W48
        BYTE   PEND
// 006   ----------------------------------------
        BYTE   W96
// 007   ----------------------------------------
        BYTE   W96
// 008   ----------------------------------------
        BYTE   W96
// 009   ----------------------------------------
        BYTE   W96
// 010   ----------------------------------------
TimesTicking_2_10:
        BYTE           N96     Gs2   v089
        BYTE           N96     Cs3
        BYTE   W96
        BYTE   PEND
// 011   ----------------------------------------
        BYTE   PATT
         POIN2  TimesTicking_2_3
// 012   ----------------------------------------
        BYTE   PATT
         POIN2  TimesTicking_2_4
// 013   ----------------------------------------
        BYTE   PATT
         POIN2  TimesTicking_2_5
// 014   ----------------------------------------
TimesTicking_2_14:
        BYTE           N24     An1   v089
        BYTE           N24     Dn2
        BYTE           N24     Fn2
        BYTE   W24
        BYTE                   An1
        BYTE           N24     Dn2
        BYTE           N24     Fn2
        BYTE   W24
        BYTE                   An1
        BYTE           N24     Dn2
        BYTE           N24     Fn2
        BYTE   W24
        BYTE                   Dn2
        BYTE           N24     An1
        BYTE           N24     Fn2
        BYTE   W24
        BYTE                   An1
        BYTE           N24     Dn2
        BYTE           N12     En2
        BYTE   W12
        BYTE                   Fn2
        BYTE   W12
        BYTE                   En2
        BYTE           N24     An1
        BYTE           N24     Dn2
        BYTE   W12
        BYTE           N12     Fn2
        BYTE   W12
        BYTE   PEND
// 015   ----------------------------------------
TimesTicking_2_15:
        BYTE           N24     An2   v089
        BYTE           N24     En2
        BYTE           N24     Cn2
        BYTE   W24
        BYTE                   An2
        BYTE           N24     En2
        BYTE           N24     Cn2
        BYTE   W24
        BYTE                   En2
        BYTE           N24     Cn2
        BYTE           N24     An2
        BYTE   W24
        BYTE                   En2
        BYTE           N24     Cn2
        BYTE           N24     An2
        BYTE   W24
        BYTE                   An2
        BYTE           N12     Bn1
        BYTE           N24     En2
        BYTE   W12
        BYTE           N12     Cn2
        BYTE   W12
        BYTE           N24     An2
        BYTE           N12     Bn1
        BYTE           N24     En2
        BYTE   W12
        BYTE           N12     Cn2
        BYTE   W12
        BYTE   PEND
// 016   ----------------------------------------
TimesTicking_2_16:
        BYTE           N24     Bn2   v089
        BYTE           N24     Gn2
        BYTE           N24     Dn2
        BYTE   W24
        BYTE                   Bn2
        BYTE           N24     Gn2
        BYTE           N24     Dn2
        BYTE   W24
        BYTE                   Dn2
        BYTE           N24     Bn2
        BYTE           N24     Gn2
        BYTE   W24
        BYTE                   Dn2
        BYTE           N24     Bn2
        BYTE           N24     Gn2
        BYTE   W24
        BYTE                   Gn2
        BYTE           N24     Dn2
        BYTE           N12     Cn3
        BYTE   W12
        BYTE                   Bn2
        BYTE   W12
        BYTE           N24     Gn2
        BYTE           N24     Dn2
        BYTE           N12     Cn3
        BYTE   W12
        BYTE                   Bn2
        BYTE   W12
        BYTE   PEND
// 017   ----------------------------------------
TimesTicking_2_17:
        BYTE           N24     Dn2   v089
        BYTE           N24     An2
        BYTE           N24     Fn2
        BYTE   W24
        BYTE                   An2
        BYTE           N24     Dn2
        BYTE           N24     Fn2
        BYTE   W24
        BYTE                   Fn2
        BYTE           N24     An2
        BYTE           N24     Dn2
        BYTE   W24
        BYTE           N12     Fn2
        BYTE           N12     Dn2
        BYTE           N12     An2
        BYTE   W12
        BYTE                   Gn3
        BYTE           N12     Cs3
        BYTE           N12     En3
        BYTE           N12     An2
        BYTE   W12
        BYTE           N48     Dn3
        BYTE           N48     Fn3
        BYTE           N48     An2
        BYTE   W48
        BYTE   PEND
// 018   ----------------------------------------
        BYTE   PATT
         POIN2  TimesTicking_2_14
// 019   ----------------------------------------
        BYTE   PATT
         POIN2  TimesTicking_2_15
// 020   ----------------------------------------
        BYTE   PATT
         POIN2  TimesTicking_2_16
// 021   ----------------------------------------
        BYTE   PATT
         POIN2  TimesTicking_2_17
// 022   ----------------------------------------
        BYTE   W96
// 023   ----------------------------------------
        BYTE   W96
// 024   ----------------------------------------
        BYTE           N04     Cs5   v040
        BYTE           N04     Cs4
        BYTE   W04
        BYTE                   Ds4   v041
        BYTE           N04     Ds5
        BYTE   W04
        BYTE                   Cs5   v043
        BYTE           N04     Cs4
        BYTE   W04
        BYTE                   Ds4   v044
        BYTE           N04     Ds5
        BYTE   W04
        BYTE                   Cs4   v046
        BYTE           N04     Cs5
        BYTE   W04
        BYTE                   Ds4   v047
        BYTE           N04     Ds5
        BYTE   W04
        BYTE                   Cs5   v049
        BYTE           N04     Cs4
        BYTE   W04
        BYTE                   Ds5   v050
        BYTE           N04     Ds4
        BYTE   W04
        BYTE                   Cs4   v052
        BYTE           N04     Cs5
        BYTE   W04
        BYTE                   Ds4   v054
        BYTE           N04     Ds5
        BYTE   W04
        BYTE                   Cs5   v055
        BYTE           N04     Cs4
        BYTE   W04
        BYTE                   Ds5   v057
        BYTE           N04     Ds4
        BYTE   W04
        BYTE                   Cs4   v058
        BYTE           N04     Cs5
        BYTE   W04
        BYTE                   Ds5   v060
        BYTE           N04     Ds4
        BYTE   W04
        BYTE                   Cs4   v061
        BYTE           N04     Cs5
        BYTE   W04
        BYTE                   Ds5   v063
        BYTE           N04     Ds4
        BYTE   W04
        BYTE                   Cs4   v065
        BYTE           N04     Cs5
        BYTE   W04
        BYTE                   Ds4   v066
        BYTE           N04     Ds5
        BYTE   W04
        BYTE                   Cs4   v068
        BYTE           N04     Cs5
        BYTE   W04
        BYTE                   Ds5   v069
        BYTE           N04     Ds4
        BYTE   W04
        BYTE                   Cs5   v071
        BYTE           N04     Cs4
        BYTE   W04
        BYTE                   Ds4   v072
        BYTE           N04     Ds5
        BYTE   W04
        BYTE                   Cs4   v074
        BYTE           N04     Cs5
        BYTE   W04
        BYTE                   Ds5   v075
        BYTE           N04     Ds4
        BYTE   W04
// 025   ----------------------------------------
        BYTE                   Cs5   v077
        BYTE           N04     Cs4
        BYTE   W04
        BYTE                   Ds4   v079
        BYTE           N04     Ds5
        BYTE   W04
        BYTE                   Cs5   v080
        BYTE           N04     Cs4
        BYTE   W04
        BYTE                   Ds4   v082
        BYTE           N04     Ds5
        BYTE   W04
        BYTE                   Cs5   v083
        BYTE           N04     Cs4
        BYTE   W04
        BYTE                   Ds4   v085
        BYTE           N04     Ds5
        BYTE   W04
        BYTE                   Cs4   v086
        BYTE           N04     Cs5
        BYTE   W04
        BYTE                   Ds4   v088
        BYTE           N04     Ds5
        BYTE   W04
        BYTE                   Cs5   v090
        BYTE           N04     Cs4
        BYTE   W04
        BYTE                   Ds5   v091
        BYTE           N04     Ds4
        BYTE   W04
        BYTE                   Cs4   v093
        BYTE           N04     Cs5
        BYTE   W04
        BYTE                   Ds4   v094
        BYTE           N04     Ds5
        BYTE   W04
        BYTE                   Cs5   v096
        BYTE           N04     Cs4
        BYTE   W04
        BYTE                   Ds5   v097
        BYTE           N04     Ds4
        BYTE   W04
        BYTE                   Cs4   v099
        BYTE           N04     Cs5
        BYTE   W04
        BYTE                   Ds5   v100
        BYTE           N04     Ds4
        BYTE   W04
        BYTE                   Cs4   v102
        BYTE           N04     Cs5
        BYTE   W04
        BYTE                   Ds5   v104
        BYTE           N04     Ds4
        BYTE   W04
        BYTE                   Cs4   v127
        BYTE           N04     Cs5
        BYTE   W04
        BYTE                   Ds4   v121
        BYTE           N04     Ds5
        BYTE   W04
        BYTE                   Cs4   v115
        BYTE           N04     Cs5
        BYTE   W04
        BYTE                   Ds5   v108
        BYTE           N04     Ds4
        BYTE   W04
        BYTE                   Cs5   v102
        BYTE           N04     Cs4
        BYTE   W04
        BYTE           N01     Ds4   v095
        BYTE           N01     Ds5
        BYTE   W04
// 026   ----------------------------------------
        BYTE   PATT
         POIN2  TimesTicking_2_10
// 027   ----------------------------------------
        BYTE   PATT
         POIN2  TimesTicking_2_3
// 028   ----------------------------------------
        BYTE   PATT
         POIN2  TimesTicking_2_4
// 029   ----------------------------------------
        BYTE   PATT
         POIN2  TimesTicking_2_5
// 030   ----------------------------------------
        BYTE   PATT
         POIN2  TimesTicking_2_10
// 031   ----------------------------------------
        BYTE   PATT
         POIN2  TimesTicking_2_3
// 032   ----------------------------------------
        BYTE   PATT
         POIN2  TimesTicking_2_4
// 033   ----------------------------------------
        BYTE   PATT
         POIN2  TimesTicking_2_5
// 034   ----------------------------------------
        BYTE   W96
// 035   ----------------------------------------
        BYTE   W96
// 036   ----------------------------------------
        BYTE   W96
// 037   ----------------------------------------
        BYTE   W96
// 038   ----------------------------------------
        BYTE   GoTo
         POIN2  TimesTicking_2_LOOP
        BYTE   W96
// 039   ----------------------------------------
        BYTE   W96
// 040   ----------------------------------------
        BYTE   W96
// 041   ----------------------------------------
        BYTE   W96
// 042   ----------------------------------------
        BYTE   FINE

//****************** Track 3 (Midi-Chn.3) ******************//

TimesTicking_3:
        BYTE   KEYSH   TimesTicking_key+0
// 000   ----------------------------------------
        BYTE           VOICE   30
        BYTE           VOL     45
        BYTE           PAN     c_v-19
        BYTE   W96
// 001   ----------------------------------------
        BYTE   W96
// 002   ----------------------------------------
TimesTicking_3_LOOP:
        BYTE           N12     Gs3   v127
        BYTE           N12     En3
        BYTE   W12
        BYTE                   Cs3
        BYTE   W12
        BYTE           N06     Dn3
        BYTE   W06
        BYTE                   Cs3
        BYTE   W06
        BYTE           N12     Bn2
        BYTE           N12     Gn3
        BYTE   W12
        BYTE                   Gs3
        BYTE           N12     Cs3
        BYTE   W12
        BYTE                   Gn3
        BYTE           N12     Gs2
        BYTE   W12
        BYTE                   Gs3
        BYTE           N12     Cs3
        BYTE   W12
        BYTE                   Gs2
        BYTE   W12
// 003   ----------------------------------------
TimesTicking_3_3:
        BYTE           N12     En3   v127
        BYTE           N12     Cs3
        BYTE   W12
        BYTE                   An2
        BYTE   W12
        BYTE           N06     Cs3
        BYTE   W06
        BYTE                   En3
        BYTE   W06
        BYTE           N12     Gn3
        BYTE           N12     An2
        BYTE   W12
        BYTE                   Gs3
        BYTE           N12     Cs3
        BYTE   W12
        BYTE                   Gn3
        BYTE           N12     Gs2
        BYTE   W12
        BYTE                   Gs3
        BYTE           N12     Cs3
        BYTE   W12
        BYTE                   Gs2
        BYTE   W12
        BYTE   PEND
// 004   ----------------------------------------
TimesTicking_3_4:
        BYTE           N12     En3   v127
        BYTE           N12     Cs3
        BYTE   W12
        BYTE                   An2
        BYTE   W12
        BYTE           N06     Cs3
        BYTE   W06
        BYTE                   En3
        BYTE   W06
        BYTE           N12     Gn3
        BYTE           N12     An2
        BYTE   W12
        BYTE                   Gs3
        BYTE           N12     Gs2
        BYTE   W12
        BYTE                   Gn3
        BYTE           N12     Cs3
        BYTE   W12
        BYTE                   Gs3
        BYTE           N12     Gs2
        BYTE   W12
        BYTE                   Cs3
        BYTE   W12
        BYTE   PEND
// 005   ----------------------------------------
TimesTicking_3_5:
        BYTE           N12     Cn3   v127
        BYTE   W12
        BYTE                   Cn3
        BYTE   W12
        BYTE           N24
        BYTE   W24
        BYTE           N06
        BYTE   W06
        BYTE                   Gs3
        BYTE           N06     Gs2
        BYTE   W12
        BYTE                   Gn3
        BYTE           N06     Cs3
        BYTE   W06
        BYTE           N12     Gs3
        BYTE           N12     Gs2
        BYTE   W12
        BYTE                   Gn3
        BYTE           N12     Cs3
        BYTE   W12
        BYTE   PEND
// 006   ----------------------------------------
TimesTicking_3_6:
        BYTE           N12     Gs3   v127
        BYTE           N12     En3
        BYTE   W12
        BYTE                   Cs3
        BYTE   W12
        BYTE           N06     Dn3
        BYTE   W06
        BYTE                   Cs3
        BYTE   W06
        BYTE           N12     Bn2
        BYTE           N12     Gn3
        BYTE   W12
        BYTE                   Gs3
        BYTE           N12     Cs3
        BYTE   W12
        BYTE                   Gn3
        BYTE           N12     Gs2
        BYTE   W12
        BYTE                   Gs3
        BYTE           N12     Cs3
        BYTE   W12
        BYTE                   Gs2
        BYTE   W12
        BYTE   PEND
// 007   ----------------------------------------
        BYTE   PATT
         POIN2  TimesTicking_3_3
// 008   ----------------------------------------
        BYTE   PATT
         POIN2  TimesTicking_3_4
// 009   ----------------------------------------
TimesTicking_3_9:
        BYTE           N12     Cn3   v127
        BYTE   W12
        BYTE                   Cn3
        BYTE   W12
        BYTE           N24
        BYTE   W24
        BYTE           N06
        BYTE   W06
        BYTE                   Gs3
        BYTE           N06     Gs2
        BYTE   W12
        BYTE                   Gn3
        BYTE           N06     Cs3
        BYTE   W06
        BYTE           N12     Gs3
        BYTE           N12     Gs2
        BYTE   W12
        BYTE                   Cs3
        BYTE   W12
        BYTE   PEND
// 010   ----------------------------------------
        BYTE                   Gs3
        BYTE   W12
        BYTE                   Cs3
        BYTE   W84
// 011   ----------------------------------------
        BYTE   PATT
         POIN2  TimesTicking_3_3
// 012   ----------------------------------------
        BYTE   PATT
         POIN2  TimesTicking_3_4
// 013   ----------------------------------------
        BYTE   PATT
         POIN2  TimesTicking_3_9
// 014   ----------------------------------------
        BYTE   W96
        BYTE   W48
// 015   ----------------------------------------
        BYTE   W96
        BYTE   W48
// 016   ----------------------------------------
        BYTE   W96
        BYTE   W48
// 017   ----------------------------------------
        BYTE   W96
        BYTE   W48
// 018   ----------------------------------------
TimesTicking_3_18:
        BYTE           N12     An2   v108
        BYTE           N12     Fn2
        BYTE           N12     Dn2
        BYTE   W12
        BYTE                   An2
        BYTE           N12     Fn2
        BYTE           N12     Dn2
        BYTE   W24
        BYTE                   An2
        BYTE           N12     Fn2
        BYTE           N12     Dn2
        BYTE   W12
        BYTE                   An2
        BYTE           N12     Fn2
        BYTE           N12     Dn2
        BYTE   W12
        BYTE                   An2
        BYTE           N12     Fn2
        BYTE           N12     Dn2
        BYTE   W12
        BYTE                   An2
        BYTE           N12     Fn2
        BYTE           N12     Dn2
        BYTE   W12
        BYTE                   An2
        BYTE           N12     Fn2
        BYTE           N12     Dn2
        BYTE   W24
        BYTE                   An2
        BYTE           N12     Fn2
        BYTE           N12     Dn2
        BYTE   W12
        BYTE                   An2
        BYTE           N12     Fn2
        BYTE           N12     Dn2
        BYTE   W12
        BYTE                   Fn2
        BYTE           N12     Cn3
        BYTE           N12     An2
        BYTE   W12
        BYTE   PEND
// 019   ----------------------------------------
        BYTE   PATT
         POIN2  TimesTicking_3_18
// 020   ----------------------------------------
        BYTE           N12     Fn2   v108
        BYTE           N12     Dn2
        BYTE           N12     As2
        BYTE   W12
        BYTE                   Fn2
        BYTE           N12     Dn2
        BYTE           N12     As2
        BYTE   W24
        BYTE                   Fn2
        BYTE           N12     Dn2
        BYTE           N12     As2
        BYTE   W12
        BYTE                   Fn2
        BYTE           N12     Dn2
        BYTE           N12     As2
        BYTE   W12
        BYTE                   Fn2
        BYTE           N12     Dn2
        BYTE           N12     As2
        BYTE   W12
        BYTE                   Fn2
        BYTE           N12     Dn2
        BYTE           N12     As2
        BYTE   W12
        BYTE                   Fn2
        BYTE           N12     Dn2
        BYTE           N12     As2
        BYTE   W24
        BYTE                   Fn2
        BYTE           N12     Dn2
        BYTE           N12     As2
        BYTE   W12
        BYTE                   Fn2
        BYTE           N12     Dn2
        BYTE           N12     As2
        BYTE   W12
        BYTE                   Fn2
        BYTE           N12     Cn3
        BYTE           N12     An2
        BYTE   W12
// 021   ----------------------------------------
        BYTE                   An2
        BYTE           N12     Fn2
        BYTE           N12     Cn2
        BYTE   W12
        BYTE                   An2
        BYTE           N12     Fn2
        BYTE           N12     Cn2
        BYTE   W24
        BYTE                   An2
        BYTE           N12     Fn2
        BYTE           N12     Cn2
        BYTE   W12
        BYTE                   An2
        BYTE           N12     Fn2
        BYTE           N12     Cn2
        BYTE   W12
        BYTE                   An2
        BYTE           N12     Fn2
        BYTE           N12     Cn2
        BYTE   W12
        BYTE                   An2
        BYTE           N12     Fn2
        BYTE           N12     Cn2
        BYTE   W12
        BYTE                   An2
        BYTE           N12     Fn2
        BYTE           N12     Cn2
        BYTE   W24
        BYTE                   An2
        BYTE           N12     Fn2
        BYTE           N12     Cn2
        BYTE   W12
        BYTE                   An2
        BYTE           N12     Fn2
        BYTE           N12     Cn2
        BYTE   W12
        BYTE                   Fn2
        BYTE           N12     Cn3
        BYTE           N12     An2
        BYTE   W12
// 022   ----------------------------------------
        BYTE   PATT
         POIN2  TimesTicking_3_6
// 023   ----------------------------------------
        BYTE   PATT
         POIN2  TimesTicking_3_3
// 024   ----------------------------------------
        BYTE   PATT
         POIN2  TimesTicking_3_4
// 025   ----------------------------------------
        BYTE   PATT
         POIN2  TimesTicking_3_5
// 026   ----------------------------------------
        BYTE   PATT
         POIN2  TimesTicking_3_6
// 027   ----------------------------------------
        BYTE   PATT
         POIN2  TimesTicking_3_3
// 028   ----------------------------------------
        BYTE   PATT
         POIN2  TimesTicking_3_4
// 029   ----------------------------------------
        BYTE   PATT
         POIN2  TimesTicking_3_5
// 030   ----------------------------------------
        BYTE   PATT
         POIN2  TimesTicking_3_6
// 031   ----------------------------------------
        BYTE   PATT
         POIN2  TimesTicking_3_3
// 032   ----------------------------------------
        BYTE   PATT
         POIN2  TimesTicking_3_4
// 033   ----------------------------------------
        BYTE   PATT
         POIN2  TimesTicking_3_5
// 034   ----------------------------------------
        BYTE   W96
// 035   ----------------------------------------
        BYTE   W96
// 036   ----------------------------------------
        BYTE   W96
// 037   ----------------------------------------
        BYTE   W96
// 038   ----------------------------------------
        BYTE   GoTo
         POIN2  TimesTicking_3_LOOP
        BYTE   W96
// 039   ----------------------------------------
        BYTE   W96
// 040   ----------------------------------------
        BYTE   W96
// 041   ----------------------------------------
        BYTE   W96
// 042   ----------------------------------------
        BYTE   FINE

//****************** Track 4 (Midi-Chn.4) ******************//

TimesTicking_4:
        BYTE   KEYSH   TimesTicking_key+0
// 000   ----------------------------------------
        BYTE           VOICE   62
        BYTE           PAN     c_v+27
        BYTE           VOL     67
        BYTE   W96
// 001   ----------------------------------------
        BYTE   W96
// 002   ----------------------------------------
TimesTicking_4_LOOP:
        BYTE   W96
// 003   ----------------------------------------
        BYTE   W96
// 004   ----------------------------------------
        BYTE   W96
// 005   ----------------------------------------
        BYTE   W96
// 006   ----------------------------------------
TimesTicking_4_6:
        BYTE           N06     Cs3   v127
        BYTE   W06
        BYTE                   En3
        BYTE   W06
        BYTE           N36     Gs3
        BYTE   W84
        BYTE   PEND
// 007   ----------------------------------------
TimesTicking_4_7:
        BYTE           N06     Cs3   v127
        BYTE   W06
        BYTE                   En3
        BYTE   W06
        BYTE           N24     An3
        BYTE   W24
        BYTE           N06     Gn3
        BYTE   W06
        BYTE                   En3
        BYTE   W06
        BYTE                   Gn3
        BYTE   W06
        BYTE                   En3
        BYTE   W06
        BYTE                   Ds3
        BYTE   W06
        BYTE                   Cs3
        BYTE   W06
        BYTE           N12     Cn3
        BYTE   W12
        BYTE                   Ds3
        BYTE   W12
        BYTE   PEND
// 008   ----------------------------------------
TimesTicking_4_8:
        BYTE           N06     Cs3   v127
        BYTE   W06
        BYTE                   En3
        BYTE   W06
        BYTE           N12     Gs3
        BYTE   W12
        BYTE           N18     An3
        BYTE   W18
        BYTE           N06     Cs4
        BYTE   W06
        BYTE                   Bn3
        BYTE   W06
        BYTE                   Gs3
        BYTE   W06
        BYTE                   Gn3
        BYTE   W06
        BYTE                   En3
        BYTE   W06
        BYTE           N12     Cs3
        BYTE   W12
        BYTE                   Fs3
        BYTE   W12
        BYTE   PEND
// 009   ----------------------------------------
TimesTicking_4_9:
        BYTE           N06     Cs3   v127
        BYTE   W06
        BYTE                   En3
        BYTE   W06
        BYTE           N12     Ds3
        BYTE   W12
        BYTE                   Cs3
        BYTE   W12
        BYTE                   Cn3
        BYTE   W12
        BYTE           N48     Cs3
        BYTE   W48
        BYTE   PEND
// 010   ----------------------------------------
        BYTE   PATT
         POIN2  TimesTicking_4_6
// 011   ----------------------------------------
        BYTE   PATT
         POIN2  TimesTicking_4_7
// 012   ----------------------------------------
        BYTE   PATT
         POIN2  TimesTicking_4_8
// 013   ----------------------------------------
        BYTE   PATT
         POIN2  TimesTicking_4_9
// 014   ----------------------------------------
TimesTicking_4_14:
        BYTE           N12     Dn2   v101
        BYTE   W12
        BYTE                   En2
        BYTE   W12
        BYTE                   Fn2
        BYTE   W12
        BYTE                   En2
        BYTE   W12
        BYTE                   Fn2
        BYTE   W12
        BYTE                   An2
        BYTE   W12
        BYTE                   Cn3
        BYTE   W12
        BYTE                   Dn3
        BYTE   W12
        BYTE                   Cn3
        BYTE   W12
        BYTE                   Dn3
        BYTE   W12
        BYTE                   En3
        BYTE   W12
        BYTE                   Fn3
        BYTE   W12
        BYTE   PEND
// 015   ----------------------------------------
TimesTicking_4_15:
        BYTE           N12     En3   v101
        BYTE   W12
        BYTE                   Cn3
        BYTE   W12
        BYTE                   As2
        BYTE   W12
        BYTE                   An2
        BYTE   W12
        BYTE                   Cn3
        BYTE   W12
        BYTE                   As2
        BYTE   W12
        BYTE                   An2
        BYTE   W12
        BYTE                   Gn2
        BYTE   W12
        BYTE                   An2
        BYTE   W12
        BYTE                   Gn2
        BYTE   W12
        BYTE                   Fn2
        BYTE   W12
        BYTE                   En2
        BYTE   W12
        BYTE   PEND
// 016   ----------------------------------------
TimesTicking_4_16:
        BYTE           N12     Dn2   v101
        BYTE   W12
        BYTE                   As1
        BYTE   W12
        BYTE                   Dn2
        BYTE   W12
        BYTE                   En2
        BYTE   W12
        BYTE                   Fn2
        BYTE   W12
        BYTE                   Gn2
        BYTE   W12
        BYTE                   An2
        BYTE   W12
        BYTE                   As2
        BYTE   W12
        BYTE                   Cn3
        BYTE   W12
        BYTE                   As2
        BYTE   W12
        BYTE                   An2
        BYTE   W12
        BYTE                   As2
        BYTE   W12
        BYTE   PEND
// 017   ----------------------------------------
        BYTE                   Gn2
        BYTE   W12
        BYTE                   An2
        BYTE   W12
        BYTE                   Gn2
        BYTE   W12
        BYTE                   Fn2
        BYTE   W12
        BYTE                   En2
        BYTE   W12
        BYTE                   Dn2
        BYTE   W12
        BYTE                   Cn2
        BYTE   W12
        BYTE                   Dn2
        BYTE   W12
        BYTE                   Cn2
        BYTE   W12
        BYTE                   As1
        BYTE   W12
        BYTE                   An1
        BYTE   W12
        BYTE                   As1
        BYTE   W12
// 018   ----------------------------------------
        BYTE   PATT
         POIN2  TimesTicking_4_14
// 019   ----------------------------------------
        BYTE   PATT
         POIN2  TimesTicking_4_15
// 020   ----------------------------------------
        BYTE   PATT
         POIN2  TimesTicking_4_16
// 021   ----------------------------------------
        BYTE           N12     Gn2   v101
        BYTE   W12
        BYTE                   An2
        BYTE   W12
        BYTE                   Gn2
        BYTE   W12
        BYTE                   Fn2
        BYTE   W12
        BYTE                   En2
        BYTE   W12
        BYTE                   Dn2
        BYTE   W12
        BYTE                   Cn2
        BYTE   W12
        BYTE                   Dn2
        BYTE   W12
        BYTE                   Cn2
        BYTE   W12
        BYTE                   As1
        BYTE   W12
        BYTE                   An1
        BYTE   W12
        BYTE                   Cn2
        BYTE   W12
// 022   ----------------------------------------
        BYTE   W96
// 023   ----------------------------------------
        BYTE   W96
// 024   ----------------------------------------
        BYTE   W96
// 025   ----------------------------------------
        BYTE   W96
// 026   ----------------------------------------
        BYTE   W96
// 027   ----------------------------------------
        BYTE   W96
// 028   ----------------------------------------
        BYTE   W96
// 029   ----------------------------------------
        BYTE   W96
// 030   ----------------------------------------
        BYTE   W96
// 031   ----------------------------------------
        BYTE   W96
// 032   ----------------------------------------
        BYTE   W96
// 033   ----------------------------------------
        BYTE   W96
// 034   ----------------------------------------
TimesTicking_4_34:
        BYTE           N24     Cs3   v127
        BYTE   W24
        BYTE                   En3
        BYTE   W24
        BYTE                   Gs3
        BYTE   W24
        BYTE                   En3
        BYTE   W24
        BYTE   PEND
// 035   ----------------------------------------
TimesTicking_4_35:
        BYTE           N24     An3   v127
        BYTE   W24
        BYTE                   Fs3
        BYTE   W24
        BYTE                   Gs3
        BYTE   W24
        BYTE                   En3
        BYTE   W24
        BYTE   PEND
// 036   ----------------------------------------
        BYTE   PATT
         POIN2  TimesTicking_4_8
// 037   ----------------------------------------
        BYTE   PATT
         POIN2  TimesTicking_4_9
// 038   ----------------------------------------
        BYTE   GoTo
         POIN2  TimesTicking_4_LOOP
        BYTE   W96
// 039   ----------------------------------------
        BYTE   W96
// 040   ----------------------------------------
        BYTE   W96
// 041   ----------------------------------------
        BYTE   W96
// 042   ----------------------------------------
        BYTE   FINE

//****************** Track 5 (Midi-Chn.5) ******************//

TimesTicking_5:
        BYTE   KEYSH   TimesTicking_key+0
// 000   ----------------------------------------
        BYTE           VOICE   122
        BYTE           VOL     51
        BYTE           N48     Cn1   v127
        BYTE   W48
        BYTE                   Dn1
        BYTE   W48
// 001   ----------------------------------------
        BYTE           N24     En1
        BYTE   W24
        BYTE                   En1
        BYTE   W24
        BYTE                   En1
        BYTE   W24
        BYTE           N12     As1
        BYTE           N12     Cn1
        BYTE   W12
        BYTE                   Fs1
        BYTE   W12
// 002   ----------------------------------------
TimesTicking_5_LOOP:
        BYTE           N06     Fs2   v065
        BYTE           N06     Cs2   v127
        BYTE           N06     Fs1
        BYTE           N06     Cn1
        BYTE           N06     Bn0
        BYTE   W06
        BYTE                   Fs2   v065
        BYTE           N06     Fs1   v127
        BYTE   W06
        BYTE                   As1
        BYTE   W06
        BYTE                   Fs2   v065
        BYTE   W06
        BYTE                   Fs2
        BYTE           N06     Dn1   v100
        BYTE           N06     Fs1   v127
        BYTE           N06     Gn0
        BYTE   W06
        BYTE                   Fs2   v065
        BYTE           N06     Fs1   v127
        BYTE   W06
        BYTE                   As1
        BYTE   W06
        BYTE                   Fs2   v065
        BYTE           N06     Fs1   v127
        BYTE   W06
        BYTE                   Fs2   v065
        BYTE           N06     Fs1   v127
        BYTE   W06
        BYTE                   Fs2   v065
        BYTE           N06     Fs1   v127
        BYTE   W06
        BYTE                   As1
        BYTE           N06     Bn0
        BYTE           N06     Cn1
        BYTE   W06
        BYTE                   Fs2   v065
        BYTE   W06
        BYTE                   Fs2
        BYTE           N06     Dn1   v100
        BYTE           N06     Fs1   v127
        BYTE           N06     Gn0
        BYTE   W06
        BYTE                   Fs2   v065
        BYTE           N06     Fs1   v127
        BYTE   W06
        BYTE                   Bn0
        BYTE           N06     As1
        BYTE           N06     Cn1
        BYTE   W06
        BYTE                   Fs2   v065
        BYTE           N06     Fs1   v127
        BYTE   W06
// 003   ----------------------------------------
        BYTE                   Fs2   v065
        BYTE           N06     Fs1   v127
        BYTE   W06
        BYTE                   Fs2   v065
        BYTE           N06     Fs1   v127
        BYTE   W06
        BYTE                   As1
        BYTE           N06     Cn1
        BYTE           N06     Bn0
        BYTE   W06
        BYTE                   Fs2   v065
        BYTE   W06
        BYTE                   Fs2
        BYTE           N06     Dn1   v100
        BYTE           N06     Gn0   v127
        BYTE           N06     Fs1
        BYTE   W06
        BYTE                   Fs2   v065
        BYTE           N06     Fs1   v127
        BYTE   W06
        BYTE                   As1
        BYTE   W06
        BYTE                   Fs2   v065
        BYTE           N06     Fs1   v127
        BYTE   W06
        BYTE                   Fs2   v065
        BYTE           N06     Fs1   v127
        BYTE           N05     Bn0
        BYTE           N05     Cn1
        BYTE   W06
        BYTE           N06     Fs2   v065
        BYTE           N06     Fs1   v127
        BYTE   W06
        BYTE                   Fs2   v065
        BYTE           N06     Bn0   v127
        BYTE           N06     As1
        BYTE           N06     Cn1
        BYTE   W06
        BYTE                   Fs2   v065
        BYTE   W06
        BYTE                   Fs2
        BYTE           N06     Dn1   v100
        BYTE           N06     Fs1   v127
        BYTE           N06     Gn0
        BYTE   W06
        BYTE                   Fs2   v065
        BYTE           N06     Fs1   v127
        BYTE   W06
        BYTE                   Cn1
        BYTE           N06     Bn0
        BYTE           N06     As1
        BYTE           N06     Fs2   v065
        BYTE   W06
        BYTE                   Fs2
        BYTE           N06     Fs1   v127
        BYTE   W06
// 004   ----------------------------------------
        BYTE                   Cn1
        BYTE           N06     Fs1
        BYTE           N06     Bn0
        BYTE           N06     Fs2   v065
        BYTE   W06
        BYTE                   Fs2
        BYTE           N06     Fs1   v127
        BYTE   W06
        BYTE                   As1
        BYTE   W06
        BYTE                   Fs2   v065
        BYTE   W06
        BYTE                   Fs1   v127
        BYTE           N06     Dn1   v100
        BYTE           N06     Fs2   v065
        BYTE           N06     Gn0   v127
        BYTE   W06
        BYTE                   Fs1
        BYTE           N06     Fs2   v065
        BYTE   W06
        BYTE                   Bn0   v127
        BYTE           N06     Cn1
        BYTE           N06     As1
        BYTE   W06
        BYTE                   Fs1
        BYTE           N06     Fs2   v065
        BYTE   W06
        BYTE                   Fs1   v127
        BYTE           N06     Fs2   v065
        BYTE   W06
        BYTE                   Fs2
        BYTE           N06     Fs1   v127
        BYTE   W06
        BYTE                   Bn0
        BYTE           N06     Cn1
        BYTE           N06     As1
        BYTE   W06
        BYTE                   Fs2   v065
        BYTE   W06
        BYTE                   Dn1   v100
        BYTE           N06     Fs2   v065
        BYTE           N06     Fs1   v127
        BYTE           N06     Gn0
        BYTE   W06
        BYTE                   Fs2   v065
        BYTE           N06     Fs1   v127
        BYTE   W06
        BYTE                   Cn1
        BYTE           N06     Bn0
        BYTE           N06     As1
        BYTE   W06
        BYTE                   Fs1
        BYTE           N06     Fs2   v065
        BYTE   W06
// 005   ----------------------------------------
        BYTE                   Fs1   v127
        BYTE           N06     Fs2   v065
        BYTE   W06
        BYTE                   Fs2
        BYTE           N06     Fs1   v127
        BYTE   W06
        BYTE                   Bn0
        BYTE           N06     Cn1
        BYTE           N06     As1
        BYTE   W06
        BYTE                   Fs2   v065
        BYTE   W06
        BYTE                   Fs1   v127
        BYTE           N06     Gn0
        BYTE           N06     Dn1   v100
        BYTE           N06     Fs2   v065
        BYTE   W06
        BYTE                   Fs1   v127
        BYTE           N06     Fs2   v065
        BYTE   W06
        BYTE           N03     As1   v127
        BYTE   W03
        BYTE                   Fs1
        BYTE   W03
        BYTE           N06     Fs2   v065
        BYTE           N03     Fs1   v127
        BYTE   W03
        BYTE                   Fs1
        BYTE   W03
        BYTE           N06     An2   v100
        BYTE           N06     Dn1
        BYTE           N06     Gn0   v127
        BYTE           N06     As1
        BYTE           N06     Fs2   v065
        BYTE   W06
        BYTE                   Fs2
        BYTE   W06
        BYTE                   Cn1   v127
        BYTE           N06     Fs2   v065
        BYTE           N06     Fs1   v127
        BYTE           N06     Bn0
        BYTE   W06
        BYTE                   Fs2   v065
        BYTE           N06     Fs1   v127
        BYTE   W06
        BYTE                   Cn1
        BYTE           N06     Bn0
        BYTE           N06     Fs1
        BYTE           N06     Fs2   v065
        BYTE   W06
        BYTE                   Fs1   v127
        BYTE           N06     Fs2   v065
        BYTE   W06
        BYTE                   Gn2   v100
        BYTE           N06     Dn1
        BYTE           N06     Gn0   v127
        BYTE           N06     Fs2   v065
        BYTE           N06     As1   v127
        BYTE   W06
        BYTE                   Fs2   v065
        BYTE   W06
// 006   ----------------------------------------
TimesTicking_5_6:
        BYTE           N06     Fn2   v127
        BYTE           N06     Cs2
        BYTE           N06     Fs1
        BYTE           N06     Cn1
        BYTE           N06     Bn0
        BYTE   W06
        BYTE                   Fs1
        BYTE   W06
        BYTE                   As1
        BYTE   W12
        BYTE                   Fn2
        BYTE           N06     Dn1   v100
        BYTE           N06     Fs1   v127
        BYTE           N06     Gn0
        BYTE   W06
        BYTE                   Fs1
        BYTE   W06
        BYTE                   As1
        BYTE   W06
        BYTE                   Fs1
        BYTE   W06
        BYTE                   Fn2
        BYTE           N06     Fs1
        BYTE   W06
        BYTE                   Fs1
        BYTE   W06
        BYTE                   As1
        BYTE           N06     Bn0
        BYTE           N06     Cn1
        BYTE   W12
        BYTE                   Fn2
        BYTE           N06     Dn1   v100
        BYTE           N06     Fs1   v127
        BYTE           N06     Gn0
        BYTE   W06
        BYTE                   Fs1
        BYTE   W06
        BYTE                   Bn0
        BYTE           N06     As1
        BYTE           N06     Cn1
        BYTE   W06
        BYTE                   Fs1
        BYTE   W06
        BYTE   PEND
// 007   ----------------------------------------
TimesTicking_5_7:
        BYTE           N06     Fn2   v127
        BYTE           N06     Fs1
        BYTE   W06
        BYTE                   Fs1
        BYTE   W06
        BYTE                   As1
        BYTE           N06     Cn1
        BYTE           N06     Bn0
        BYTE   W12
        BYTE                   Dn1   v100
        BYTE           N06     Gn0   v127
        BYTE           N06     Fs1
        BYTE           N06     Fn2
        BYTE   W06
        BYTE                   Fs1
        BYTE   W06
        BYTE                   As1
        BYTE   W06
        BYTE                   Fs1
        BYTE   W06
        BYTE                   Fn2
        BYTE           N06     Fs1
        BYTE           N05     Bn0
        BYTE           N05     Cn1
        BYTE   W06
        BYTE           N06     Fs1
        BYTE   W06
        BYTE                   Bn0
        BYTE           N06     As1
        BYTE           N06     Cn1
        BYTE   W12
        BYTE                   Fn2
        BYTE           N06     Dn1   v100
        BYTE           N06     Fs1   v127
        BYTE           N06     Gn0
        BYTE   W06
        BYTE                   Fs1
        BYTE   W06
        BYTE                   Fn2
        BYTE           N06     Cn1
        BYTE           N06     Bn0
        BYTE           N06     As1
        BYTE   W06
        BYTE                   Fs1
        BYTE   W06
        BYTE   PEND
// 008   ----------------------------------------
TimesTicking_5_8:
        BYTE           N06     Cn1   v127
        BYTE           N06     Fs1
        BYTE           N06     Bn0
        BYTE           N06     Fn2
        BYTE   W06
        BYTE                   Fs1
        BYTE   W06
        BYTE                   As1
        BYTE   W12
        BYTE                   Fs1
        BYTE           N06     Dn1   v100
        BYTE           N06     Fn2   v127
        BYTE           N06     Gn0
        BYTE   W06
        BYTE                   Fs1
        BYTE   W06
        BYTE                   As1
        BYTE           N06     Cn1
        BYTE           N06     Bn0
        BYTE   W06
        BYTE                   Fs1
        BYTE   W06
        BYTE                   Fs1
        BYTE           N06     Fn2
        BYTE   W06
        BYTE                   Fs1
        BYTE   W06
        BYTE                   Bn0
        BYTE           N06     As1
        BYTE           N06     Cn1
        BYTE   W12
        BYTE                   Fs1
        BYTE           N06     Gn0
        BYTE           N06     Dn1   v100
        BYTE           N06     Fn2   v127
        BYTE   W06
        BYTE                   Fs1
        BYTE   W06
        BYTE                   Cn1
        BYTE           N06     Bn0
        BYTE           N06     As1
        BYTE   W06
        BYTE                   Fs1
        BYTE   W06
        BYTE   PEND
// 009   ----------------------------------------
TimesTicking_5_9:
        BYTE           N06     Fn2   v127
        BYTE           N06     Fs1
        BYTE   W06
        BYTE                   Fs1
        BYTE   W06
        BYTE                   Bn0
        BYTE           N06     As1
        BYTE           N06     Cn1
        BYTE   W12
        BYTE                   Fs1
        BYTE           N06     Gn0
        BYTE           N06     Fn2
        BYTE           N06     Dn1   v100
        BYTE   W06
        BYTE                   Fs1   v127
        BYTE   W06
        BYTE           N03     As1
        BYTE   W03
        BYTE                   Fs1
        BYTE   W03
        BYTE                   Fs1
        BYTE   W03
        BYTE                   Fs1
        BYTE   W03
        BYTE           N06     Gn0
        BYTE           N06     As1
        BYTE           N06     Dn1   v100
        BYTE           N06     An2
        BYTE           N06     Fn2   v127
        BYTE   W12
        BYTE                   Bn0
        BYTE           N06     Fs1
        BYTE           N06     Cn1
        BYTE   W06
        BYTE                   Fs1
        BYTE   W06
        BYTE                   Fn2
        BYTE           N06     Bn0
        BYTE           N06     Cn1
        BYTE           N06     Fs1
        BYTE   W06
        BYTE                   Fs1
        BYTE   W06
        BYTE                   Gn2   v100
        BYTE           N06     Fn2   v127
        BYTE           N06     Gn0
        BYTE           N06     Dn1   v100
        BYTE           N06     As1   v127
        BYTE   W12
        BYTE   PEND
// 010   ----------------------------------------
        BYTE           N24     En1
        BYTE   W24
        BYTE                   En1
        BYTE   W24
        BYTE                   En1
        BYTE   W24
        BYTE           N06     Fn2
        BYTE           N06     Dn1   v100
        BYTE           N06     Fs1   v127
        BYTE           N06     Gn0
        BYTE   W06
        BYTE                   Fs1
        BYTE   W06
        BYTE                   Fn2
        BYTE           N06     Cn1
        BYTE           N06     Bn0
        BYTE           N06     As1
        BYTE   W06
        BYTE                   Fs1
        BYTE   W06
// 011   ----------------------------------------
        BYTE   PATT
         POIN2  TimesTicking_5_7
// 012   ----------------------------------------
        BYTE   PATT
         POIN2  TimesTicking_5_8
// 013   ----------------------------------------
        BYTE   PATT
         POIN2  TimesTicking_5_9
// 014   ----------------------------------------
TimesTicking_5_14:
        BYTE           N06     Cs2   v127
        BYTE           N06     Cn1
        BYTE           N06     Bn0
        BYTE   W24
        BYTE                   Gn0
        BYTE   W12
        BYTE                   Bn0
        BYTE           N06     Cn1
        BYTE   W24
        BYTE                   Gn0
        BYTE   W12
        BYTE                   Bn0
        BYTE           N06     Cn1
        BYTE   W24
        BYTE                   Gn0
        BYTE   W12
        BYTE                   Bn0
        BYTE           N06     Cn1
        BYTE   W24
        BYTE           N05
        BYTE           N05     Bn0
        BYTE   W12
        BYTE   PEND
// 015   ----------------------------------------
        BYTE   PATT
         POIN2  TimesTicking_5_14
// 016   ----------------------------------------
        BYTE   PATT
         POIN2  TimesTicking_5_14
// 017   ----------------------------------------
        BYTE   PATT
         POIN2  TimesTicking_5_14
// 018   ----------------------------------------
TimesTicking_5_18:
        BYTE           N06     Fs1   v105
        BYTE           N06     Cn1   v126
        BYTE   W06
        BYTE                   Fs1   v105
        BYTE   W06
        BYTE                   Dn1   v126
        BYTE   W06
        BYTE                   Fs1   v105
        BYTE           N06     Cn1   v126
        BYTE   W06
        BYTE                   Fs1   v105
        BYTE   W06
        BYTE                   Fs1
        BYTE   W06
        BYTE                   Dn1   v126
        BYTE   W06
        BYTE                   Fs1   v105
        BYTE   W06
        BYTE                   Fs1
        BYTE           N06     Cn1   v126
        BYTE   W06
        BYTE                   Fs1   v105
        BYTE   W06
        BYTE                   Dn1   v126
        BYTE   W06
        BYTE                   Fs1   v105
        BYTE           N06     Cn1   v126
        BYTE   W06
        BYTE                   Fs1   v105
        BYTE   W06
        BYTE                   Fs1
        BYTE           N06     Cn1   v126
        BYTE   W06
        BYTE                   Dn1
        BYTE   W06
        BYTE                   Fs1   v105
        BYTE   W06
        BYTE                   Fs1
        BYTE           N06     Cn1   v126
        BYTE   W06
        BYTE                   Fs1   v105
        BYTE   W06
        BYTE                   Dn1   v126
        BYTE   W06
        BYTE                   Fs1   v105
        BYTE           N06     Cn1   v126
        BYTE   W06
        BYTE                   Fs1   v105
        BYTE   W06
        BYTE                   Fs1
        BYTE   W06
        BYTE                   Dn1   v126
        BYTE   W06
        BYTE                   Fs1   v105
        BYTE   W06
        BYTE   PEND
// 019   ----------------------------------------
        BYTE   PATT
         POIN2  TimesTicking_5_18
// 020   ----------------------------------------
        BYTE   PATT
         POIN2  TimesTicking_5_18
// 021   ----------------------------------------
        BYTE   PATT
         POIN2  TimesTicking_5_18
// 022   ----------------------------------------
TimesTicking_5_22:
        BYTE           N06     Fs1   v105
        BYTE           N06     Cn1   v126
        BYTE   W06
        BYTE                   Fs1   v105
        BYTE   W06
        BYTE                   Dn1   v126
        BYTE   W06
        BYTE                   Fs1   v105
        BYTE           N06     Cn1   v126
        BYTE   W06
        BYTE                   Fs1   v105
        BYTE   W06
        BYTE                   Fs1
        BYTE   W06
        BYTE                   Dn1   v126
        BYTE   W06
        BYTE                   Fs1   v105
        BYTE   W06
        BYTE                   Fs1
        BYTE           N06     Cn1   v126
        BYTE   W06
        BYTE                   Fs1   v105
        BYTE   W06
        BYTE                   Dn1   v126
        BYTE   W06
        BYTE                   Fs1   v105
        BYTE   W06
        BYTE                   Fs1
        BYTE   W06
        BYTE                   Fs1
        BYTE           N06     Cn1   v126
        BYTE   W06
        BYTE                   Dn1
        BYTE   W06
        BYTE                   Fs1   v105
        BYTE           N06     Cn1   v126
        BYTE   W06
        BYTE   PEND
// 023   ----------------------------------------
TimesTicking_5_23:
        BYTE           N06     Fs1   v105
        BYTE           N06     Cn1   v126
        BYTE   W06
        BYTE                   Fs1   v105
        BYTE   W06
        BYTE                   Dn1   v126
        BYTE   W06
        BYTE                   Fs1   v105
        BYTE           N06     Cn1   v126
        BYTE   W06
        BYTE                   Fs1   v105
        BYTE   W06
        BYTE                   Fs1
        BYTE   W06
        BYTE                   Dn1   v126
        BYTE   W06
        BYTE                   Fs1   v105
        BYTE   W06
        BYTE                   Fs1
        BYTE           N06     Cn1   v126
        BYTE   W06
        BYTE                   Fs1   v105
        BYTE   W06
        BYTE                   Dn1   v126
        BYTE   W06
        BYTE                   Fs1   v105
        BYTE           N06     Cn1   v126
        BYTE   W06
        BYTE                   Fs1   v105
        BYTE   W06
        BYTE                   Fs1
        BYTE           N06     Cn1   v126
        BYTE   W06
        BYTE                   Dn1
        BYTE   W06
        BYTE                   Fs1   v105
        BYTE   W06
        BYTE   PEND
// 024   ----------------------------------------
        BYTE   PATT
         POIN2  TimesTicking_5_22
// 025   ----------------------------------------
        BYTE   PATT
         POIN2  TimesTicking_5_23
// 026   ----------------------------------------
        BYTE   PATT
         POIN2  TimesTicking_5_6
// 027   ----------------------------------------
        BYTE   PATT
         POIN2  TimesTicking_5_7
// 028   ----------------------------------------
        BYTE   PATT
         POIN2  TimesTicking_5_8
// 029   ----------------------------------------
        BYTE   PATT
         POIN2  TimesTicking_5_9
// 030   ----------------------------------------
        BYTE   PATT
         POIN2  TimesTicking_5_6
// 031   ----------------------------------------
        BYTE   PATT
         POIN2  TimesTicking_5_7
// 032   ----------------------------------------
        BYTE   PATT
         POIN2  TimesTicking_5_8
// 033   ----------------------------------------
        BYTE   PATT
         POIN2  TimesTicking_5_9
// 034   ----------------------------------------
        BYTE   W96
// 035   ----------------------------------------
        BYTE   W96
// 036   ----------------------------------------
        BYTE   W96
// 037   ----------------------------------------
        BYTE   W96
// 038   ----------------------------------------
        BYTE   GoTo
         POIN2  TimesTicking_5_LOOP
        BYTE   W96
// 039   ----------------------------------------
        BYTE   W96
// 040   ----------------------------------------
        BYTE   W96
// 041   ----------------------------------------
        BYTE   W96
// 042   ----------------------------------------
        BYTE   FINE

//****************** Track 6 (Midi-Chn.6) ******************//

TimesTicking_6:
        BYTE   KEYSH   TimesTicking_key+0
// 000   ----------------------------------------
        BYTE           VOICE   106
        BYTE           VOL     30
        BYTE           PAN     c_v+11
        BYTE   W12
        BYTE           N12     Cs4   v101
        BYTE   W24
        BYTE                   Cs4
        BYTE   W24
        BYTE                   Cs4
        BYTE   W24
        BYTE                   Cs4
        BYTE   W12
// 001   ----------------------------------------
        BYTE   W12
        BYTE                   Cs4
        BYTE   W24
        BYTE                   Cs4
        BYTE   W12
        BYTE           N48     Cs4   v102
        BYTE   W48
// 002   ----------------------------------------
TimesTicking_6_LOOP:
        BYTE   W12
        BYTE           N12     Cs4   v126
        BYTE   W24
        BYTE                   Cs4
        BYTE   W24
        BYTE                   Cs4
        BYTE   W24
        BYTE                   Cs4
        BYTE   W12
// 003   ----------------------------------------
        BYTE   W12
        BYTE                   Cs4
        BYTE   W24
        BYTE                   Cs4
        BYTE   W24
        BYTE                   Cs4
        BYTE   W24
        BYTE                   Cs4
        BYTE   W12
// 004   ----------------------------------------
TimesTicking_6_4:
        BYTE   W12
        BYTE           N12     Cs4   v127
        BYTE   W24
        BYTE                   Cs4
        BYTE   W24
        BYTE                   Cs4
        BYTE   W24
        BYTE                   Cs4
        BYTE   W12
        BYTE   PEND
// 005   ----------------------------------------
        BYTE   PATT
         POIN2  TimesTicking_6_4
// 006   ----------------------------------------
        BYTE   PATT
         POIN2  TimesTicking_6_4
// 007   ----------------------------------------
        BYTE   PATT
         POIN2  TimesTicking_6_4
// 008   ----------------------------------------
        BYTE   PATT
         POIN2  TimesTicking_6_4
// 009   ----------------------------------------
        BYTE   PATT
         POIN2  TimesTicking_6_4
// 010   ----------------------------------------
        BYTE   PATT
         POIN2  TimesTicking_6_4
// 011   ----------------------------------------
        BYTE   PATT
         POIN2  TimesTicking_6_4
// 012   ----------------------------------------
        BYTE   PATT
         POIN2  TimesTicking_6_4
// 013   ----------------------------------------
        BYTE   PATT
         POIN2  TimesTicking_6_4
// 014   ----------------------------------------
TimesTicking_6_14:
        BYTE   W08
        BYTE           N08     Cs4   v102
        BYTE   W16
        BYTE                   Cs4
        BYTE   W16
        BYTE                   Cs4
        BYTE   W16
        BYTE                   Cs4
        BYTE   W16
        BYTE                   Cs4
        BYTE   W16
        BYTE                   Cs4
        BYTE   W16
        BYTE                   Cs4
        BYTE   W16
        BYTE                   Cs4
        BYTE   W16
        BYTE                   Cs4
        BYTE   W08
        BYTE   PEND
// 015   ----------------------------------------
        BYTE   PATT
         POIN2  TimesTicking_6_14
// 016   ----------------------------------------
        BYTE   PATT
         POIN2  TimesTicking_6_14
// 017   ----------------------------------------
        BYTE   PATT
         POIN2  TimesTicking_6_14
// 018   ----------------------------------------
        BYTE   PATT
         POIN2  TimesTicking_6_14
// 019   ----------------------------------------
        BYTE   PATT
         POIN2  TimesTicking_6_14
// 020   ----------------------------------------
        BYTE   PATT
         POIN2  TimesTicking_6_14
// 021   ----------------------------------------
        BYTE   PATT
         POIN2  TimesTicking_6_14
// 022   ----------------------------------------
TimesTicking_6_22:
        BYTE   W08
        BYTE           N08     Cs4   v102
        BYTE   W16
        BYTE                   Cs4
        BYTE   W16
        BYTE                   Cs4
        BYTE   W16
        BYTE                   Cs4
        BYTE   W16
        BYTE                   Cs4
        BYTE   W16
        BYTE                   Cs4
        BYTE   W08
        BYTE   PEND
// 023   ----------------------------------------
        BYTE   PATT
         POIN2  TimesTicking_6_22
// 024   ----------------------------------------
        BYTE   PATT
         POIN2  TimesTicking_6_22
// 025   ----------------------------------------
        BYTE   PATT
         POIN2  TimesTicking_6_22
// 026   ----------------------------------------
TimesTicking_6_26:
        BYTE   W06
        BYTE           N06     Cs4   v102
        BYTE   W12
        BYTE                   Cs4
        BYTE   W12
        BYTE                   Cs4
        BYTE   W12
        BYTE                   Cs4
        BYTE   W12
        BYTE                   Cs4
        BYTE   W12
        BYTE                   Cs4
        BYTE   W12
        BYTE                   Cs4
        BYTE   W12
        BYTE                   Cs4
        BYTE   W06
        BYTE   PEND
// 027   ----------------------------------------
        BYTE   PATT
         POIN2  TimesTicking_6_26
// 028   ----------------------------------------
        BYTE   PATT
         POIN2  TimesTicking_6_26
// 029   ----------------------------------------
        BYTE   PATT
         POIN2  TimesTicking_6_26
// 030   ----------------------------------------
        BYTE   PATT
         POIN2  TimesTicking_6_26
// 031   ----------------------------------------
        BYTE   PATT
         POIN2  TimesTicking_6_26
// 032   ----------------------------------------
        BYTE   PATT
         POIN2  TimesTicking_6_26
// 033   ----------------------------------------
        BYTE   PATT
         POIN2  TimesTicking_6_26
// 034   ----------------------------------------
        BYTE   PATT
         POIN2  TimesTicking_6_26
// 035   ----------------------------------------
        BYTE   PATT
         POIN2  TimesTicking_6_26
// 036   ----------------------------------------
TimesTicking_6_36:
        BYTE   W06
        BYTE           N06     Cs4   v127
        BYTE   W12
        BYTE                   Cs4
        BYTE   W12
        BYTE                   Cs4
        BYTE   W12
        BYTE                   Cs4
        BYTE   W12
        BYTE                   Cs4
        BYTE   W12
        BYTE                   Cs4
        BYTE   W12
        BYTE                   Cs4
        BYTE   W12
        BYTE                   Cs4
        BYTE   W06
        BYTE   PEND
// 037   ----------------------------------------
        BYTE   PATT
         POIN2  TimesTicking_6_36
// 038   ----------------------------------------
        BYTE   GoTo
         POIN2  TimesTicking_6_LOOP
        BYTE   W96
// 039   ----------------------------------------
        BYTE   W96
// 040   ----------------------------------------
        BYTE   W96
// 041   ----------------------------------------
        BYTE   W96
// 042   ----------------------------------------
        BYTE   FINE

//****************** Track 7 (Midi-Chn.7) ******************//

TimesTicking_7:
        BYTE   KEYSH   TimesTicking_key+0
// 000   ----------------------------------------
        BYTE           VOICE   80
        BYTE           VOL     36
        BYTE           PAN     c_v+27
        BYTE   W96
// 001   ----------------------------------------
        BYTE   W96
// 002   ----------------------------------------
TimesTicking_7_LOOP:
        BYTE   W96
// 003   ----------------------------------------
        BYTE   W96
// 004   ----------------------------------------
        BYTE   W96
// 005   ----------------------------------------
        BYTE   W96
// 006   ----------------------------------------
        BYTE   W96
// 007   ----------------------------------------
        BYTE   W96
// 008   ----------------------------------------
        BYTE   W96
// 009   ----------------------------------------
        BYTE   W96
// 010   ----------------------------------------
        BYTE   W96
// 011   ----------------------------------------
        BYTE   W96
// 012   ----------------------------------------
        BYTE   W96
// 013   ----------------------------------------
        BYTE   W96
// 014   ----------------------------------------
        BYTE   W96
        BYTE   W48
// 015   ----------------------------------------
        BYTE   W96
        BYTE   W48
// 016   ----------------------------------------
        BYTE   W96
        BYTE   W48
// 017   ----------------------------------------
        BYTE   W96
        BYTE   W48
// 018   ----------------------------------------
        BYTE   W96
        BYTE   W48
// 019   ----------------------------------------
        BYTE   W96
        BYTE   W48
// 020   ----------------------------------------
        BYTE   W96
        BYTE   W48
// 021   ----------------------------------------
        BYTE   W96
        BYTE   W48
// 022   ----------------------------------------
        BYTE   W96
// 023   ----------------------------------------
        BYTE   W96
// 024   ----------------------------------------
        BYTE   W96
// 025   ----------------------------------------
        BYTE   W96
// 026   ----------------------------------------
TimesTicking_7_26:
        BYTE           N06     Gs3   v102
        BYTE   W06
        BYTE                   En3
        BYTE   W06
        BYTE                   Cs3
        BYTE   W06
        BYTE                   Gs3
        BYTE   W06
        BYTE                   En3
        BYTE   W06
        BYTE                   Cs3
        BYTE   W06
        BYTE                   Gs3
        BYTE   W06
        BYTE                   En3
        BYTE   W06
        BYTE                   Gs3
        BYTE   W06
        BYTE                   En3
        BYTE   W06
        BYTE                   Cs3
        BYTE   W06
        BYTE                   Gs3
        BYTE   W06
        BYTE                   En3
        BYTE   W06
        BYTE                   Cs3
        BYTE   W06
        BYTE                   Gs3
        BYTE   W06
        BYTE                   En3
        BYTE   W06
        BYTE   PEND
// 027   ----------------------------------------
TimesTicking_7_27:
        BYTE           N06     An3   v102
        BYTE   W06
        BYTE                   En3
        BYTE   W06
        BYTE                   Cs3
        BYTE   W06
        BYTE                   An3
        BYTE   W06
        BYTE                   En3
        BYTE   W06
        BYTE                   Cs3
        BYTE   W06
        BYTE                   An3
        BYTE   W06
        BYTE                   En3
        BYTE   W06
        BYTE                   Gs3
        BYTE   W06
        BYTE                   En3
        BYTE   W06
        BYTE                   Cs3
        BYTE   W06
        BYTE                   Gs3
        BYTE   W06
        BYTE                   En3
        BYTE   W06
        BYTE                   Cs3
        BYTE   W06
        BYTE                   Gs3
        BYTE   W06
        BYTE                   En3
        BYTE   W06
        BYTE   PEND
// 028   ----------------------------------------
        BYTE   PATT
         POIN2  TimesTicking_7_27
// 029   ----------------------------------------
TimesTicking_7_29:
        BYTE           N06     Gn3   v102
        BYTE   W06
        BYTE                   Ds3
        BYTE   W06
        BYTE                   Cn3
        BYTE   W06
        BYTE                   Gn3
        BYTE   W06
        BYTE                   Ds3
        BYTE   W06
        BYTE                   Cn3
        BYTE   W06
        BYTE                   Gn3
        BYTE   W06
        BYTE                   Ds3
        BYTE   W06
        BYTE                   Gs3
        BYTE   W06
        BYTE                   En3
        BYTE   W06
        BYTE                   Cs3
        BYTE   W06
        BYTE                   Gs3
        BYTE   W06
        BYTE                   En3
        BYTE   W06
        BYTE                   Cs3
        BYTE   W06
        BYTE                   Gs3
        BYTE   W06
        BYTE                   En3
        BYTE   W06
        BYTE   PEND
// 030   ----------------------------------------
        BYTE   PATT
         POIN2  TimesTicking_7_26
// 031   ----------------------------------------
        BYTE   PATT
         POIN2  TimesTicking_7_27
// 032   ----------------------------------------
        BYTE   PATT
         POIN2  TimesTicking_7_27
// 033   ----------------------------------------
        BYTE   PATT
         POIN2  TimesTicking_7_29
// 034   ----------------------------------------
        BYTE   PATT
         POIN2  TimesTicking_4_34
// 035   ----------------------------------------
        BYTE   PATT
         POIN2  TimesTicking_4_35
// 036   ----------------------------------------
        BYTE   PATT
         POIN2  TimesTicking_4_8
// 037   ----------------------------------------
        BYTE   PATT
         POIN2  TimesTicking_4_9
// 038   ----------------------------------------
        BYTE   GoTo
         POIN2  TimesTicking_7_LOOP
        BYTE   W96
// 039   ----------------------------------------
        BYTE   W96
// 040   ----------------------------------------
        BYTE   W96
// 041   ----------------------------------------
        BYTE   W96
// 042   ----------------------------------------
        BYTE   FINE

//****************** Track 8 (Midi-Chn.8) ******************//

TimesTicking_8:
        BYTE   KEYSH   TimesTicking_key+0
// 000   ----------------------------------------
        BYTE           VOICE   118
        BYTE           VOL     55
        BYTE           PAN     c_v+17
        BYTE   W96
// 001   ----------------------------------------
        BYTE   W96
// 002   ----------------------------------------
TimesTicking_8_LOOP:
        BYTE   W96
// 003   ----------------------------------------
        BYTE   W96
// 004   ----------------------------------------
        BYTE   W96
// 005   ----------------------------------------
        BYTE   W96
// 006   ----------------------------------------
TimesTicking_8_6:
        BYTE           N24     Cs3   v102
        BYTE   W36
        BYTE           N12     Dn3
        BYTE   W12
        BYTE           N24     Cs3
        BYTE   W36
        BYTE           N12     Dn3
        BYTE   W12
        BYTE   PEND
// 007   ----------------------------------------
TimesTicking_8_7:
        BYTE           N06     Cs3   v127
        BYTE   W06
        BYTE                   En3
        BYTE   W06
        BYTE           N24     An3
        BYTE   W60
        BYTE                   Gs3   v102
        BYTE   W24
        BYTE   PEND
// 008   ----------------------------------------
TimesTicking_8_8:
        BYTE           N06     Cs3   v127
        BYTE   W06
        BYTE                   En3
        BYTE   W06
        BYTE           N24     Ds3
        BYTE   W24
        BYTE           N12     Cs3   v102
        BYTE   W12
        BYTE                   Gs2
        BYTE   W12
        BYTE                   Cs3
        BYTE   W12
        BYTE           N24     Gs3
        BYTE   W24
        BYTE   PEND
// 009   ----------------------------------------
TimesTicking_8_9:
        BYTE           N24     Cn3   v102
        BYTE   W24
        BYTE                   Cs3
        BYTE   W24
        BYTE                   Gs2
        BYTE   W24
        BYTE                   Cs3
        BYTE   W24
        BYTE   PEND
// 010   ----------------------------------------
        BYTE   PATT
         POIN2  TimesTicking_8_6
// 011   ----------------------------------------
        BYTE   PATT
         POIN2  TimesTicking_8_7
// 012   ----------------------------------------
        BYTE   PATT
         POIN2  TimesTicking_8_8
// 013   ----------------------------------------
        BYTE   PATT
         POIN2  TimesTicking_8_9
// 014   ----------------------------------------
TimesTicking_8_14:
        BYTE           N06     Dn3   v102
        BYTE   W12
        BYTE                   Dn3
        BYTE   W12
        BYTE                   An3
        BYTE   W12
        BYTE                   An3
        BYTE   W12
        BYTE                   Dn3
        BYTE   W12
        BYTE                   Dn3
        BYTE   W12
        BYTE                   Cn4
        BYTE   W12
        BYTE                   Cn4
        BYTE   W12
        BYTE                   Fn3
        BYTE   W12
        BYTE                   Fn3
        BYTE   W12
        BYTE                   En3
        BYTE   W12
        BYTE                   En3
        BYTE   W12
        BYTE   PEND
// 015   ----------------------------------------
TimesTicking_8_15:
        BYTE           N06     An3   v102
        BYTE   W12
        BYTE                   An3
        BYTE   W12
        BYTE                   En4
        BYTE   W12
        BYTE                   En4
        BYTE   W12
        BYTE                   An3
        BYTE   W12
        BYTE                   An3
        BYTE   W12
        BYTE                   Gn4
        BYTE   W12
        BYTE                   Gn4
        BYTE   W12
        BYTE                   Cn4
        BYTE   W12
        BYTE                   Cn4
        BYTE   W12
        BYTE                   Bn3
        BYTE   W12
        BYTE                   Bn3
        BYTE   W12
        BYTE   PEND
// 016   ----------------------------------------
TimesTicking_8_16:
        BYTE           N06     Gn3   v102
        BYTE   W12
        BYTE                   Gn3
        BYTE   W12
        BYTE                   Dn4
        BYTE   W12
        BYTE                   Dn4
        BYTE   W12
        BYTE                   Gn3
        BYTE   W12
        BYTE                   Gn3
        BYTE   W12
        BYTE                   Fn4
        BYTE   W12
        BYTE                   Fn4
        BYTE   W12
        BYTE                   Bn3
        BYTE   W12
        BYTE                   Bn3
        BYTE   W12
        BYTE                   An3
        BYTE   W12
        BYTE                   An3
        BYTE   W12
        BYTE   PEND
// 017   ----------------------------------------
TimesTicking_8_17:
        BYTE           N06     Dn3   v102
        BYTE   W12
        BYTE                   En3
        BYTE   W12
        BYTE                   Fn3
        BYTE   W12
        BYTE                   Gn3
        BYTE   W12
        BYTE                   An3
        BYTE   W12
        BYTE                   Bn3
        BYTE   W12
        BYTE                   An3
        BYTE   W12
        BYTE                   Bn3
        BYTE   W12
        BYTE                   Cn4
        BYTE   W12
        BYTE                   Dn4
        BYTE   W12
        BYTE                   En4
        BYTE   W12
        BYTE                   Fn4
        BYTE   W12
        BYTE   PEND
// 018   ----------------------------------------
        BYTE   PATT
         POIN2  TimesTicking_8_14
// 019   ----------------------------------------
        BYTE   PATT
         POIN2  TimesTicking_8_15
// 020   ----------------------------------------
        BYTE   PATT
         POIN2  TimesTicking_8_16
// 021   ----------------------------------------
        BYTE   PATT
         POIN2  TimesTicking_8_17
// 022   ----------------------------------------
        BYTE   W96
// 023   ----------------------------------------
        BYTE   W96
// 024   ----------------------------------------
        BYTE           N06     An3   v102
        BYTE   W06
        BYTE                   En3
        BYTE   W30
        BYTE                   An2
        BYTE   W06
        BYTE                   En2
        BYTE   W30
        BYTE                   Gs3
        BYTE   W06
        BYTE                   En3
        BYTE   W18
// 025   ----------------------------------------
        BYTE                   Bn3
        BYTE   W06
        BYTE                   Gs3
        BYTE   W30
        BYTE                   Bn2
        BYTE   W06
        BYTE                   Gs2
        BYTE   W30
        BYTE                   Gs3
        BYTE   W06
        BYTE                   En3
        BYTE   W06
        BYTE                   Cs3
        BYTE   W06
        BYTE                   Cn3
        BYTE   W06
// 026   ----------------------------------------
        BYTE   PATT
         POIN2  TimesTicking_4_6
// 027   ----------------------------------------
        BYTE   PATT
         POIN2  TimesTicking_4_7
// 028   ----------------------------------------
        BYTE   PATT
         POIN2  TimesTicking_4_8
// 029   ----------------------------------------
        BYTE   PATT
         POIN2  TimesTicking_4_9
// 030   ----------------------------------------
        BYTE   PATT
         POIN2  TimesTicking_4_6
// 031   ----------------------------------------
        BYTE   PATT
         POIN2  TimesTicking_4_7
// 032   ----------------------------------------
        BYTE   PATT
         POIN2  TimesTicking_4_8
// 033   ----------------------------------------
        BYTE   PATT
         POIN2  TimesTicking_4_9
// 034   ----------------------------------------
        BYTE   W96
// 035   ----------------------------------------
        BYTE   W96
// 036   ----------------------------------------
        BYTE   W96
// 037   ----------------------------------------
        BYTE   W96
// 038   ----------------------------------------
        BYTE   GoTo
         POIN2  TimesTicking_8_LOOP
        BYTE   W96
// 039   ----------------------------------------
        BYTE   W96
// 040   ----------------------------------------
        BYTE   W96
// 041   ----------------------------------------
        BYTE   W96
// 042   ----------------------------------------
        BYTE   FINE

//***************** Track 9 (Midi-Chn.10) ******************//

TimesTicking_9:
        BYTE   KEYSH   TimesTicking_key+0
// 000   ----------------------------------------
        BYTE           VOICE   55
        BYTE           VOL     50
        BYTE           PAN     c_v-10
        BYTE   W96
// 001   ----------------------------------------
        BYTE   W96
// 002   ----------------------------------------
TimesTicking_9_LOOP:
        BYTE           N48     Cs3   v127
        BYTE   W48
        BYTE                   Cs3
        BYTE   W48
// 003   ----------------------------------------
TimesTicking_9_3:
        BYTE           N48     An2   v127
        BYTE   W48
        BYTE                   Cs3
        BYTE   W48
        BYTE   PEND
// 004   ----------------------------------------
        BYTE   PATT
         POIN2  TimesTicking_9_3
// 005   ----------------------------------------
TimesTicking_9_5:
        BYTE           N48     Cn3   v127
        BYTE   W48
        BYTE                   Cs3
        BYTE   W48
        BYTE   PEND
// 006   ----------------------------------------
TimesTicking_9_6:
        BYTE           N48     Cs3   v127
        BYTE   W48
        BYTE                   Cs3
        BYTE   W48
        BYTE   PEND
// 007   ----------------------------------------
        BYTE   PATT
         POIN2  TimesTicking_9_3
// 008   ----------------------------------------
        BYTE   PATT
         POIN2  TimesTicking_9_3
// 009   ----------------------------------------
        BYTE   PATT
         POIN2  TimesTicking_9_5
// 010   ----------------------------------------
        BYTE   W96
// 011   ----------------------------------------
        BYTE   PATT
         POIN2  TimesTicking_9_3
// 012   ----------------------------------------
        BYTE   PATT
         POIN2  TimesTicking_9_3
// 013   ----------------------------------------
        BYTE   PATT
         POIN2  TimesTicking_9_5
// 014   ----------------------------------------
        BYTE           N06     Cs1   v127
        BYTE           N06     Cs2
        BYTE           N06     Cs3
        BYTE   W24
        BYTE                   Cs1
        BYTE   W24
        BYTE                   Cs1
        BYTE           N06     Cs2
        BYTE           N06     Cs3
        BYTE   W24
        BYTE                   Cs1
        BYTE   W24
        BYTE                   Cs1
        BYTE           N06     Cs2
        BYTE           N06     Cs3
        BYTE   W24
        BYTE                   Cs2   v070
        BYTE           N06     Cs3
        BYTE   W24
// 015   ----------------------------------------
        BYTE                   Cs2   v095
        BYTE           N06     Cs3
        BYTE   W24
        BYTE                   Cs2   v120
        BYTE           N06     Cs3
        BYTE   W96
        BYTE   W24
// 016   ----------------------------------------
        BYTE   W96
        BYTE   W48
// 017   ----------------------------------------
        BYTE   W96
        BYTE   W48
// 018   ----------------------------------------
        BYTE   W96
        BYTE   W48
// 019   ----------------------------------------
        BYTE   W96
        BYTE   W48
// 020   ----------------------------------------
        BYTE   W96
        BYTE   W48
// 021   ----------------------------------------
        BYTE   W96
        BYTE   W48
// 022   ----------------------------------------
        BYTE   W96
// 023   ----------------------------------------
        BYTE   W96
// 024   ----------------------------------------
        BYTE   W96
// 025   ----------------------------------------
        BYTE   W96
// 026   ----------------------------------------
        BYTE   PATT
         POIN2  TimesTicking_9_6
// 027   ----------------------------------------
        BYTE   PATT
         POIN2  TimesTicking_9_3
// 028   ----------------------------------------
        BYTE   PATT
         POIN2  TimesTicking_9_3
// 029   ----------------------------------------
        BYTE   PATT
         POIN2  TimesTicking_9_5
// 030   ----------------------------------------
        BYTE   PATT
         POIN2  TimesTicking_9_6
// 031   ----------------------------------------
        BYTE   PATT
         POIN2  TimesTicking_9_3
// 032   ----------------------------------------
        BYTE   PATT
         POIN2  TimesTicking_9_3
// 033   ----------------------------------------
        BYTE   PATT
         POIN2  TimesTicking_9_5
// 034   ----------------------------------------
        BYTE   PATT
         POIN2  TimesTicking_9_6
// 035   ----------------------------------------
        BYTE   PATT
         POIN2  TimesTicking_9_3
// 036   ----------------------------------------
        BYTE   PATT
         POIN2  TimesTicking_9_3
// 037   ----------------------------------------
        BYTE   PATT
         POIN2  TimesTicking_9_5
// 038   ----------------------------------------
        BYTE   GoTo
         POIN2  TimesTicking_9_LOOP
        BYTE   W96
// 039   ----------------------------------------
        BYTE   W96
// 040   ----------------------------------------
        BYTE   W96
// 041   ----------------------------------------
        BYTE   W96
// 042   ----------------------------------------
        BYTE   FINE

//***************** Track 10 (Midi-Chn.11) *****************//

TimesTicking_10:
        BYTE   KEYSH   TimesTicking_key+0
// 000   ----------------------------------------
        BYTE           VOICE   113
        BYTE           VOL     73
        BYTE   W96
// 001   ----------------------------------------
TimesTicking_10_1:
        BYTE   W48
        BYTE           N06     Gs1   v127
        BYTE   W06
        BYTE                   Bn1
        BYTE   W06
        BYTE                   Cs2
        BYTE   W06
        BYTE                   Ds2
        BYTE   W06
        BYTE                   En2
        BYTE   W06
        BYTE                   Fs2
        BYTE   W06
        BYTE           N03     Gs2
        BYTE   W03
        BYTE                   Gs2
        BYTE   W03
        BYTE                   Gs2
        BYTE   W03
        BYTE                   Gs2
        BYTE   W03
        BYTE   PEND
// 002   ----------------------------------------
TimesTicking_10_LOOP:
        BYTE           N06     Gs2   v127
        BYTE   W96
// 003   ----------------------------------------
        BYTE   W96
// 004   ----------------------------------------
        BYTE   W96
// 005   ----------------------------------------
        BYTE   W96
// 006   ----------------------------------------
        BYTE   W96
// 007   ----------------------------------------
        BYTE   W96
// 008   ----------------------------------------
        BYTE   W96
// 009   ----------------------------------------
        BYTE   W96
// 010   ----------------------------------------
TimesTicking_10_10:
        BYTE   W24
        BYTE           N03     Gs2   v127
        BYTE   W03
        BYTE                   Gs2
        BYTE   W03
        BYTE                   Gs2
        BYTE   W03
        BYTE                   Gs2
        BYTE   W03
        BYTE           N06     Fs2
        BYTE   W06
        BYTE                   En2
        BYTE   W06
        BYTE                   Ds2
        BYTE   W06
        BYTE                   Cs2
        BYTE   W06
        BYTE                   Bn1
        BYTE   W06
        BYTE                   An1
        BYTE   W06
        BYTE           N24     Gs1
        BYTE   W24
        BYTE   PEND
// 011   ----------------------------------------
        BYTE   W96
// 012   ----------------------------------------
        BYTE   W96
// 013   ----------------------------------------
        BYTE   W96
// 014   ----------------------------------------
        BYTE   W96
        BYTE   W48
// 015   ----------------------------------------
        BYTE   W96
        BYTE   W48
// 016   ----------------------------------------
        BYTE   W96
        BYTE   W48
// 017   ----------------------------------------
        BYTE   W96
        BYTE           N06
        BYTE   W06
        BYTE                   Bn1
        BYTE   W06
        BYTE                   Cs2
        BYTE   W06
        BYTE                   Ds2
        BYTE   W06
        BYTE                   En2
        BYTE   W06
        BYTE                   Fs2
        BYTE   W06
        BYTE           N03     Gs2
        BYTE   W03
        BYTE                   Gs2
        BYTE   W03
        BYTE                   Gs2
        BYTE   W03
        BYTE                   Gs2
        BYTE   W03
// 018   ----------------------------------------
        BYTE           N06
        BYTE   W96
        BYTE   W48
// 019   ----------------------------------------
        BYTE   W96
        BYTE   W48
// 020   ----------------------------------------
        BYTE   W96
        BYTE   W48
// 021   ----------------------------------------
        BYTE   W96
        BYTE   W48
// 022   ----------------------------------------
        BYTE   W96
// 023   ----------------------------------------
        BYTE   W96
// 024   ----------------------------------------
        BYTE   W96
// 025   ----------------------------------------
        BYTE   PATT
         POIN2  TimesTicking_10_1
// 026   ----------------------------------------
        BYTE           N06     Gs2   v127
        BYTE   W96
// 027   ----------------------------------------
        BYTE   W96
// 028   ----------------------------------------
        BYTE   W96
// 029   ----------------------------------------
        BYTE   W96
// 030   ----------------------------------------
        BYTE   W96
// 031   ----------------------------------------
        BYTE   W96
// 032   ----------------------------------------
        BYTE   W96
// 033   ----------------------------------------
        BYTE   W96
// 034   ----------------------------------------
        BYTE   W96
// 035   ----------------------------------------
        BYTE   W96
// 036   ----------------------------------------
        BYTE   W96
// 037   ----------------------------------------
        BYTE   PATT
         POIN2  TimesTicking_10_10
// 038   ----------------------------------------
        BYTE   GoTo
         POIN2  TimesTicking_10_LOOP
        BYTE   W96
// 039   ----------------------------------------
        BYTE   W96
// 040   ----------------------------------------
        BYTE   W96
// 041   ----------------------------------------
        BYTE   W96
// 042   ----------------------------------------
        BYTE   FINE


//********************** End of Song ***********************//

        ALIGN 4
TimesTicking:
        BYTE   11                      // Num Tracks
        BYTE   0                       // Unknown
        BYTE   TimesTicking_pri        // Priority
        BYTE   TimesTicking_rev        // Reverb

        POIN2   TimesTicking_grp       

        POIN2   TimesTicking_0
        POIN2   TimesTicking_1
        POIN2   TimesTicking_2
        POIN2   TimesTicking_3
        POIN2   TimesTicking_4
        POIN2   TimesTicking_5
        POIN2   TimesTicking_6
        POIN2   TimesTicking_7
        POIN2   TimesTicking_8
        POIN2   TimesTicking_9
        POIN2   TimesTicking_10

        
