//Event file generated from Sappy .s format.
        #include "MPlayDef.event"

        #define    BeforeTheGallows_grp  voicegroup000
        #define    BeforeTheGallows_pri  0
        #define    BeforeTheGallows_rev  0
        #define    BeforeTheGallows_key  0

        // .rodata
        // BeforeTheGallows
        ALIGN 4

//****************** Track 0 (Midi-Chn.0) ******************//

BeforeTheGallows_0:
        BYTE   KEYSH   BeforeTheGallows_key+0
// 000   ----------------------------------------
        BYTE   TEMPO   140/2
        BYTE           VOICE   108
        BYTE           N06     Cn4   v063
        BYTE           VOL     127
        BYTE   W06
        BYTE           N06     Gn4   v047
        BYTE   W06
        BYTE                   Cn5   v050
        BYTE   W06
        BYTE                   Ds5   v047
        BYTE   W06
        BYTE                   Cn4   v063
        BYTE   W06
        BYTE                   Gn4   v047
        BYTE   W06
        BYTE                   Cn5   v050
        BYTE   W06
        BYTE                   Ds5   v047
        BYTE   W06
        BYTE                   Cn4   v063
        BYTE   W06
        BYTE                   Gn4   v047
        BYTE   W06
        BYTE                   Cn5   v050
        BYTE   W06
        BYTE                   Ds5   v047
        BYTE   W06
        BYTE                   Gn4   v063
        BYTE   W06
        BYTE                   Cn5   v047
        BYTE   W06
        BYTE                   Ds5   v050
        BYTE   W06
        BYTE                   Gn5   v047
        BYTE   W06
// 001   ----------------------------------------
        BYTE                   Ds4   v063
        BYTE   W06
        BYTE                   As4   v047
        BYTE   W06
        BYTE                   Ds5   v050
        BYTE   W06
        BYTE                   Fs5   v047
        BYTE   W06
        BYTE                   Ds4   v063
        BYTE   W06
        BYTE                   As4   v047
        BYTE   W06
        BYTE                   Ds5   v050
        BYTE   W06
        BYTE                   Fs5   v047
        BYTE   W06
        BYTE                   Ds4   v063
        BYTE   W06
        BYTE                   As4   v047
        BYTE   W06
        BYTE                   Ds5   v050
        BYTE   W06
        BYTE                   Fs5   v047
        BYTE   W06
        BYTE                   As4   v063
        BYTE   W06
        BYTE                   Ds5   v047
        BYTE   W06
        BYTE                   Fs5   v050
        BYTE   W06
        BYTE                   As5   v047
        BYTE   W06
// 002   ----------------------------------------
        BYTE                   Fs4   v063
        BYTE   W06
        BYTE                   Cs5   v047
        BYTE   W06
        BYTE                   Fs5   v050
        BYTE   W06
        BYTE                   An5   v047
        BYTE   W06
        BYTE                   Fs4   v063
        BYTE   W06
        BYTE                   Cs5   v047
        BYTE   W06
        BYTE                   Fs5   v050
        BYTE   W06
        BYTE                   An5   v047
        BYTE   W06
        BYTE                   Fs4   v063
        BYTE   W06
        BYTE                   Cs5   v047
        BYTE   W06
        BYTE                   Fs5   v050
        BYTE   W06
        BYTE                   An5   v047
        BYTE   W06
        BYTE                   Cs5   v063
        BYTE   W06
        BYTE                   Fs5   v047
        BYTE   W06
        BYTE                   An5   v050
        BYTE   W06
        BYTE                   Cs6   v047
        BYTE   W06
// 003   ----------------------------------------
        BYTE                   Cn4   v063
        BYTE   W06
        BYTE                   Gn4   v047
        BYTE   W06
        BYTE                   Cn5   v050
        BYTE   W06
        BYTE                   Ds5   v047
        BYTE   W06
        BYTE                   Gn4   v063
        BYTE   W06
        BYTE                   Cn5   v047
        BYTE   W06
        BYTE                   Ds5   v050
        BYTE   W06
        BYTE                   Gn5   v047
        BYTE   W06
        BYTE                   Ds5   v063
        BYTE   W06
        BYTE                   Cn5   v047
        BYTE   W06
        BYTE                   Gn4   v050
        BYTE   W06
        BYTE                   Ds4   v047
        BYTE   W06
        BYTE                   Cn5   v063
        BYTE   W06
        BYTE                   Gn4   v047
        BYTE   W06
        BYTE                   Ds4   v050
        BYTE   W06
        BYTE                   Cn4   v047
        BYTE   W06
// 004   ----------------------------------------
        BYTE           N96     Cn4   v063
        BYTE   W96
// 005   ----------------------------------------
BeforeTheGallows_0_LOOP:
        BYTE   W96
// 006   ----------------------------------------
        BYTE   W96
// 007   ----------------------------------------
        BYTE   W96
// 008   ----------------------------------------
        BYTE   W96
// 009   ----------------------------------------
        BYTE   W96
// 010   ----------------------------------------
        BYTE   W96
// 011   ----------------------------------------
        BYTE   W96
// 012   ----------------------------------------
        BYTE   W96
// 013   ----------------------------------------
        BYTE   W96
// 014   ----------------------------------------
        BYTE   W96
// 015   ----------------------------------------
        BYTE   W96
// 016   ----------------------------------------
        BYTE   W96
// 017   ----------------------------------------
        BYTE   W96
// 018   ----------------------------------------
        BYTE   W96
// 019   ----------------------------------------
        BYTE   W96
// 020   ----------------------------------------
        BYTE   W96
// 021   ----------------------------------------
        BYTE   W96
// 022   ----------------------------------------
        BYTE   W96
// 023   ----------------------------------------
        BYTE   W96
// 024   ----------------------------------------
        BYTE   W96
// 025   ----------------------------------------
        BYTE   W96
// 026   ----------------------------------------
        BYTE   W96
// 027   ----------------------------------------
        BYTE   W96
// 028   ----------------------------------------
        BYTE   W96
// 029   ----------------------------------------
BeforeTheGallows_0_29:
        BYTE           N06     Ds5   v063
        BYTE   W06
        BYTE                   Fn5   v045
        BYTE   W06
        BYTE                   Ds5   v047
        BYTE   W06
        BYTE                   Fs5   v045
        BYTE   W06
        BYTE                   Ds5   v047
        BYTE   W06
        BYTE           N12     As5   v045
        BYTE   W18
        BYTE           N06     Ds5   v063
        BYTE   W06
        BYTE                   Fn5   v045
        BYTE   W06
        BYTE                   Ds5   v047
        BYTE   W06
        BYTE                   Fs5   v045
        BYTE   W06
        BYTE                   Ds5   v047
        BYTE   W06
        BYTE           N12     Fs5   v045
        BYTE   W18
        BYTE   PEND
// 030   ----------------------------------------
BeforeTheGallows_0_30:
        BYTE           N06     As4   v063
        BYTE   W06
        BYTE                   Bn4   v045
        BYTE   W06
        BYTE                   As4   v047
        BYTE   W06
        BYTE                   Dn5   v045
        BYTE   W06
        BYTE                   As4   v047
        BYTE   W06
        BYTE           N12     Fn5   v045
        BYTE   W18
        BYTE           N06     As4   v063
        BYTE   W06
        BYTE                   Bn4   v045
        BYTE   W06
        BYTE                   As4   v047
        BYTE   W06
        BYTE                   Dn5   v045
        BYTE   W06
        BYTE                   As4   v047
        BYTE   W06
        BYTE           N12     Dn5   v045
        BYTE   W18
        BYTE   PEND
// 031   ----------------------------------------
        BYTE   PATT
         POIN2  BeforeTheGallows_0_29
// 032   ----------------------------------------
        BYTE   PATT
         POIN2  BeforeTheGallows_0_30
// 033   ----------------------------------------
        BYTE   PATT
         POIN2  BeforeTheGallows_0_29
// 034   ----------------------------------------
        BYTE   PATT
         POIN2  BeforeTheGallows_0_30
// 035   ----------------------------------------
        BYTE   PATT
         POIN2  BeforeTheGallows_0_29
// 036   ----------------------------------------
        BYTE   PATT
         POIN2  BeforeTheGallows_0_30
// 037   ----------------------------------------
        BYTE   W96
// 038   ----------------------------------------
        BYTE   W96
// 039   ----------------------------------------
        BYTE   W96
// 040   ----------------------------------------
        BYTE   W96
// 041   ----------------------------------------
        BYTE   W96
// 042   ----------------------------------------
        BYTE   W96
// 043   ----------------------------------------
        BYTE   W96
// 044   ----------------------------------------
        BYTE   W96
// 045   ----------------------------------------
        BYTE   W96
// 046   ----------------------------------------
        BYTE   W96
// 047   ----------------------------------------
        BYTE   W96
// 048   ----------------------------------------
        BYTE   W96
// 049   ----------------------------------------
        BYTE   W96
// 050   ----------------------------------------
        BYTE   W96
// 051   ----------------------------------------
        BYTE   W96
// 052   ----------------------------------------
        BYTE   W96
// 053   ----------------------------------------
        BYTE   W96
// 054   ----------------------------------------
        BYTE   W96
// 055   ----------------------------------------
        BYTE   W96
// 056   ----------------------------------------
        BYTE   W96
// 057   ----------------------------------------
        BYTE   W96
// 058   ----------------------------------------
        BYTE   W96
// 059   ----------------------------------------
        BYTE   W96
// 060   ----------------------------------------
        BYTE   W96
// 061   ----------------------------------------
        BYTE   W96
// 062   ----------------------------------------
        BYTE   W96
// 063   ----------------------------------------
        BYTE   W96
// 064   ----------------------------------------
        BYTE   W96
// 065   ----------------------------------------
        BYTE   W96
// 066   ----------------------------------------
        BYTE   W96
// 067   ----------------------------------------
        BYTE   W96
// 068   ----------------------------------------
        BYTE   W96
// 069   ----------------------------------------
        BYTE   W96
// 070   ----------------------------------------
        BYTE   W96
// 071   ----------------------------------------
        BYTE   W96
// 072   ----------------------------------------
        BYTE   W96
// 073   ----------------------------------------
        BYTE   W96
// 074   ----------------------------------------
        BYTE   W96
// 075   ----------------------------------------
        BYTE   W96
// 076   ----------------------------------------
        BYTE   W96
// 077   ----------------------------------------
        BYTE   GoTo
         POIN2  BeforeTheGallows_0_LOOP
        BYTE   FINE

//****************** Track 1 (Midi-Chn.1) ******************//

BeforeTheGallows_1:
        BYTE   KEYSH   BeforeTheGallows_key+0
// 000   ----------------------------------------
        BYTE           VOICE   40
        BYTE           N96     Cn2   v040
        BYTE           N96     Cn3
        BYTE           VOL     127
        BYTE   W96
// 001   ----------------------------------------
        BYTE           N96     Ds2
        BYTE           N96     Ds3
        BYTE   W96
// 002   ----------------------------------------
        BYTE                   Fs2
        BYTE           N96     Fs3
        BYTE   W96
// 003   ----------------------------------------
        BYTE           TIE     Cn3
        BYTE           TIE     Cn2
        BYTE   W96
// 004   ----------------------------------------
        BYTE   W96
// 005   ----------------------------------------
        BYTE           EOT
        BYTE           EOT     Cn3
BeforeTheGallows_1_LOOP:
        BYTE   W96
// 006   ----------------------------------------
        BYTE   W96
// 007   ----------------------------------------
        BYTE   W96
// 008   ----------------------------------------
        BYTE   W96
// 009   ----------------------------------------
        BYTE   W96
// 010   ----------------------------------------
        BYTE   W96
// 011   ----------------------------------------
        BYTE   W96
// 012   ----------------------------------------
        BYTE   W96
// 013   ----------------------------------------
        BYTE   W96
// 014   ----------------------------------------
        BYTE   W96
// 015   ----------------------------------------
        BYTE   W96
// 016   ----------------------------------------
        BYTE   W96
// 017   ----------------------------------------
        BYTE   W96
// 018   ----------------------------------------
        BYTE   W96
// 019   ----------------------------------------
        BYTE   W96
// 020   ----------------------------------------
        BYTE   W96
// 021   ----------------------------------------
        BYTE   W96
// 022   ----------------------------------------
        BYTE   W96
// 023   ----------------------------------------
        BYTE   W96
// 024   ----------------------------------------
        BYTE   W96
// 025   ----------------------------------------
        BYTE   W96
// 026   ----------------------------------------
        BYTE   W96
// 027   ----------------------------------------
        BYTE   W96
// 028   ----------------------------------------
        BYTE   W96
// 029   ----------------------------------------
        BYTE   W96
// 030   ----------------------------------------
        BYTE   W96
// 031   ----------------------------------------
        BYTE   W96
// 032   ----------------------------------------
        BYTE   W96
// 033   ----------------------------------------
        BYTE   W96
// 034   ----------------------------------------
        BYTE   W96
// 035   ----------------------------------------
        BYTE   W96
// 036   ----------------------------------------
        BYTE   W96
// 037   ----------------------------------------
        BYTE   W96
// 038   ----------------------------------------
        BYTE   W96
// 039   ----------------------------------------
        BYTE   W96
// 040   ----------------------------------------
        BYTE   W96
// 041   ----------------------------------------
        BYTE   W96
// 042   ----------------------------------------
        BYTE   W96
// 043   ----------------------------------------
        BYTE   W96
// 044   ----------------------------------------
        BYTE   W96
// 045   ----------------------------------------
        BYTE   W96
// 046   ----------------------------------------
        BYTE   W96
// 047   ----------------------------------------
        BYTE   W96
// 048   ----------------------------------------
        BYTE   W96
// 049   ----------------------------------------
        BYTE   W96
// 050   ----------------------------------------
        BYTE   W96
// 051   ----------------------------------------
        BYTE   W96
// 052   ----------------------------------------
        BYTE   W96
// 053   ----------------------------------------
        BYTE   W96
// 054   ----------------------------------------
        BYTE   W96
// 055   ----------------------------------------
        BYTE   W96
// 056   ----------------------------------------
        BYTE   W96
// 057   ----------------------------------------
        BYTE   W96
// 058   ----------------------------------------
        BYTE   W96
// 059   ----------------------------------------
        BYTE   W96
// 060   ----------------------------------------
        BYTE   W96
// 061   ----------------------------------------
        BYTE   W96
// 062   ----------------------------------------
        BYTE   W96
// 063   ----------------------------------------
        BYTE   W96
// 064   ----------------------------------------
        BYTE   W96
// 065   ----------------------------------------
        BYTE   W96
// 066   ----------------------------------------
        BYTE   W96
// 067   ----------------------------------------
        BYTE   W96
// 068   ----------------------------------------
        BYTE   W96
// 069   ----------------------------------------
        BYTE   W96
// 070   ----------------------------------------
        BYTE   W96
// 071   ----------------------------------------
        BYTE   W96
// 072   ----------------------------------------
        BYTE   W96
// 073   ----------------------------------------
        BYTE   W96
// 074   ----------------------------------------
        BYTE   W96
// 075   ----------------------------------------
        BYTE   W96
// 076   ----------------------------------------
        BYTE   W96
// 077   ----------------------------------------
        BYTE   GoTo
         POIN2  BeforeTheGallows_1_LOOP
        BYTE   FINE

//****************** Track 2 (Midi-Chn.2) ******************//

BeforeTheGallows_2:
        BYTE   KEYSH   BeforeTheGallows_key+0
// 000   ----------------------------------------
        BYTE           VOICE   47
        BYTE           N48     Cn2   v063
        BYTE           VOL     127
        BYTE   W48
        BYTE           N24     Cn2   v055
        BYTE   W24
        BYTE           N12     Cn2   v050
        BYTE   W12
        BYTE                   Cn2   v055
        BYTE   W12
// 001   ----------------------------------------
BeforeTheGallows_2_1:
        BYTE           N48     Cn2   v063
        BYTE   W48
        BYTE           N24     Cn2   v055
        BYTE   W24
        BYTE           N12     Cn2   v050
        BYTE   W12
        BYTE                   Cn2   v055
        BYTE   W12
        BYTE   PEND
// 002   ----------------------------------------
        BYTE   PATT
         POIN2  BeforeTheGallows_2_1
// 003   ----------------------------------------
        BYTE           TIE     Cn2   v063
        BYTE   W96
// 004   ----------------------------------------
        BYTE   W96
// 005   ----------------------------------------
        BYTE           EOT
BeforeTheGallows_2_LOOP:
        BYTE   W96
// 006   ----------------------------------------
        BYTE   W96
// 007   ----------------------------------------
        BYTE   W96
// 008   ----------------------------------------
        BYTE   W96
// 009   ----------------------------------------
        BYTE   W96
// 010   ----------------------------------------
        BYTE   W96
// 011   ----------------------------------------
        BYTE   W96
// 012   ----------------------------------------
        BYTE   W96
// 013   ----------------------------------------
        BYTE   W96
// 014   ----------------------------------------
        BYTE   W96
// 015   ----------------------------------------
        BYTE   W96
// 016   ----------------------------------------
        BYTE   W96
// 017   ----------------------------------------
        BYTE   W96
// 018   ----------------------------------------
        BYTE   W96
// 019   ----------------------------------------
        BYTE   W96
// 020   ----------------------------------------
        BYTE   W96
// 021   ----------------------------------------
        BYTE   W96
// 022   ----------------------------------------
        BYTE   W96
// 023   ----------------------------------------
        BYTE   W96
// 024   ----------------------------------------
        BYTE   W96
// 025   ----------------------------------------
        BYTE   W96
// 026   ----------------------------------------
        BYTE   W96
// 027   ----------------------------------------
        BYTE   W96
// 028   ----------------------------------------
        BYTE   W96
// 029   ----------------------------------------
        BYTE   W96
// 030   ----------------------------------------
        BYTE   W96
// 031   ----------------------------------------
        BYTE   W96
// 032   ----------------------------------------
        BYTE   W96
// 033   ----------------------------------------
        BYTE   W96
// 034   ----------------------------------------
        BYTE   W96
// 035   ----------------------------------------
        BYTE   W96
// 036   ----------------------------------------
        BYTE   W96
// 037   ----------------------------------------
        BYTE   W96
// 038   ----------------------------------------
        BYTE   W96
// 039   ----------------------------------------
        BYTE   W96
// 040   ----------------------------------------
        BYTE   W96
// 041   ----------------------------------------
        BYTE   W96
// 042   ----------------------------------------
        BYTE   W96
// 043   ----------------------------------------
        BYTE   W96
// 044   ----------------------------------------
        BYTE   W96
// 045   ----------------------------------------
        BYTE   W96
// 046   ----------------------------------------
        BYTE   W96
// 047   ----------------------------------------
        BYTE   W96
// 048   ----------------------------------------
        BYTE   W96
// 049   ----------------------------------------
        BYTE   W96
// 050   ----------------------------------------
        BYTE   W96
// 051   ----------------------------------------
        BYTE   W96
// 052   ----------------------------------------
        BYTE   W96
// 053   ----------------------------------------
        BYTE   W96
// 054   ----------------------------------------
        BYTE   W96
// 055   ----------------------------------------
        BYTE   W96
// 056   ----------------------------------------
        BYTE   W96
// 057   ----------------------------------------
        BYTE   W96
// 058   ----------------------------------------
        BYTE   W96
// 059   ----------------------------------------
        BYTE   W96
// 060   ----------------------------------------
        BYTE   W96
// 061   ----------------------------------------
        BYTE   W96
// 062   ----------------------------------------
        BYTE   W96
// 063   ----------------------------------------
        BYTE   W96
// 064   ----------------------------------------
        BYTE   W96
// 065   ----------------------------------------
        BYTE   W96
// 066   ----------------------------------------
        BYTE   W96
// 067   ----------------------------------------
        BYTE   W96
// 068   ----------------------------------------
        BYTE   W96
// 069   ----------------------------------------
        BYTE   W96
// 070   ----------------------------------------
        BYTE   W96
// 071   ----------------------------------------
        BYTE   W96
// 072   ----------------------------------------
        BYTE   W96
// 073   ----------------------------------------
        BYTE   W96
// 074   ----------------------------------------
        BYTE   W96
// 075   ----------------------------------------
        BYTE   W96
// 076   ----------------------------------------
        BYTE   W96
// 077   ----------------------------------------
        BYTE   GoTo
         POIN2  BeforeTheGallows_2_LOOP
        BYTE   FINE

//****************** Track 3 (Midi-Chn.3) ******************//

BeforeTheGallows_3:
        BYTE   KEYSH   BeforeTheGallows_key+0
// 000   ----------------------------------------
        BYTE           VOICE   65
        BYTE           PAN     c_v-23
        BYTE           VOL     127
        BYTE   W96
// 001   ----------------------------------------
        BYTE   W96
// 002   ----------------------------------------
        BYTE   W96
// 003   ----------------------------------------
        BYTE   W96
// 004   ----------------------------------------
        BYTE   W96
// 005   ----------------------------------------
BeforeTheGallows_3_LOOP:
        BYTE   W96
// 006   ----------------------------------------
        BYTE   W96
// 007   ----------------------------------------
        BYTE   W96
// 008   ----------------------------------------
        BYTE   W96
// 009   ----------------------------------------
        BYTE   W96
// 010   ----------------------------------------
        BYTE   W96
// 011   ----------------------------------------
        BYTE   W96
// 012   ----------------------------------------
        BYTE   W72
        BYTE           N03     Bn1   v024
        BYTE   W03
        BYTE                   Cn2   v025
        BYTE   W03
        BYTE                   Cs2   v028
        BYTE   W03
        BYTE                   Dn2   v029
        BYTE   W03
        BYTE                   Ds2   v032
        BYTE   W03
        BYTE                   En2   v033
        BYTE   W03
        BYTE                   Fn2   v036
        BYTE   W03
        BYTE                   Fs2   v037
        BYTE   W03
// 013   ----------------------------------------
        BYTE           N24     Gn2   v041
        BYTE   W24
        BYTE           N12     Fn2   v037
        BYTE   W12
        BYTE                   Ds2
        BYTE   W12
        BYTE           N06     Dn2   v036
        BYTE   W06
        BYTE                   Ds2   v033
        BYTE   W06
        BYTE           N12     Fn2   v037
        BYTE   W12
        BYTE                   Gn2
        BYTE   W12
        BYTE                   Gs2
        BYTE   W12
// 014   ----------------------------------------
        BYTE           N24     As2   v041
        BYTE   W24
        BYTE           N12     Gs2   v037
        BYTE   W12
        BYTE                   Gn2
        BYTE   W12
        BYTE           N06     Fn2   v036
        BYTE   W06
        BYTE                   Gn2   v033
        BYTE   W06
        BYTE           N12     Gs2   v037
        BYTE   W12
        BYTE                   Cn3
        BYTE   W12
        BYTE           N06     Dn3
        BYTE   W12
// 015   ----------------------------------------
        BYTE           N48     Cn3   v041
        BYTE   W48
        BYTE                   As2   v037
        BYTE   W48
// 016   ----------------------------------------
        BYTE                   Dn2   v041
        BYTE   W48
        BYTE           N36     Fn2
        BYTE   W36
        BYTE           N03     Ds2   v032
        BYTE   W03
        BYTE                   En2   v033
        BYTE   W03
        BYTE                   Fn2   v036
        BYTE   W03
        BYTE                   Fs2   v037
        BYTE   W03
// 017   ----------------------------------------
        BYTE           N24     Gn2   v048
        BYTE   W24
        BYTE           N12     Fn2   v037
        BYTE   W12
        BYTE                   Ds2
        BYTE   W12
        BYTE           N06     Dn2   v036
        BYTE   W06
        BYTE                   Ds2   v033
        BYTE   W06
        BYTE           N12     Fn2   v037
        BYTE   W12
        BYTE                   Gn2
        BYTE   W12
        BYTE                   Gs2
        BYTE   W12
// 018   ----------------------------------------
        BYTE           N24     As2   v048
        BYTE   W24
        BYTE           N12     Gs2   v037
        BYTE   W12
        BYTE                   Gn2
        BYTE   W12
        BYTE           N06     Fn2   v036
        BYTE   W06
        BYTE                   Gn2   v033
        BYTE   W06
        BYTE           N12     Gs2   v037
        BYTE   W12
        BYTE                   Cn3
        BYTE   W12
        BYTE           N06     Dn3
        BYTE   W12
// 019   ----------------------------------------
        BYTE           N48     Ds3   v041
        BYTE   W48
        BYTE                   Fn3   v037
        BYTE   W48
// 020   ----------------------------------------
        BYTE           N36     Dn3   v041
        BYTE   W36
        BYTE                   Cn3
        BYTE   W36
        BYTE           N24     As2   v037
        BYTE   W24
// 021   ----------------------------------------
        BYTE           N96     Gn2   v028
        BYTE   W96
// 022   ----------------------------------------
        BYTE                   Fn2   v025
        BYTE   W96
// 023   ----------------------------------------
        BYTE                   Ds2   v024
        BYTE   W96
// 024   ----------------------------------------
        BYTE                   Dn2   v021
        BYTE   W96
// 025   ----------------------------------------
        BYTE                   Gn2   v016
        BYTE   W96
// 026   ----------------------------------------
        BYTE                   Fn2   v013
        BYTE   W96
// 027   ----------------------------------------
        BYTE                   Ds2
        BYTE   W96
// 028   ----------------------------------------
        BYTE   W96
// 029   ----------------------------------------
        BYTE   W96
// 030   ----------------------------------------
        BYTE   W96
// 031   ----------------------------------------
        BYTE   W96
// 032   ----------------------------------------
        BYTE   W96
// 033   ----------------------------------------
        BYTE   W96
// 034   ----------------------------------------
        BYTE   W96
// 035   ----------------------------------------
        BYTE   W96
// 036   ----------------------------------------
        BYTE   W96
// 037   ----------------------------------------
        BYTE   W96
// 038   ----------------------------------------
        BYTE   W96
// 039   ----------------------------------------
        BYTE   W96
// 040   ----------------------------------------
        BYTE   W96
// 041   ----------------------------------------
        BYTE   W96
// 042   ----------------------------------------
        BYTE   W96
// 043   ----------------------------------------
        BYTE   W96
// 044   ----------------------------------------
        BYTE   W96
// 045   ----------------------------------------
        BYTE   W96
// 046   ----------------------------------------
        BYTE   W96
// 047   ----------------------------------------
        BYTE   W96
// 048   ----------------------------------------
        BYTE   W96
// 049   ----------------------------------------
        BYTE   W96
// 050   ----------------------------------------
        BYTE   W96
// 051   ----------------------------------------
        BYTE   W96
// 052   ----------------------------------------
        BYTE   W96
// 053   ----------------------------------------
        BYTE   W96
// 054   ----------------------------------------
        BYTE   W96
// 055   ----------------------------------------
        BYTE   W96
// 056   ----------------------------------------
        BYTE   W96
// 057   ----------------------------------------
        BYTE   W96
// 058   ----------------------------------------
        BYTE   W96
// 059   ----------------------------------------
        BYTE   W96
// 060   ----------------------------------------
        BYTE   W96
// 061   ----------------------------------------
        BYTE           N06     Ds3   v050
        BYTE   W06
        BYTE                   Fs3   v044
        BYTE   W06
        BYTE                   An3
        BYTE   W06
        BYTE                   As3
        BYTE   W12
        BYTE           N12     Gs3
        BYTE   W12
        BYTE                   Fs3
        BYTE   W12
        BYTE           N06     Ds3
        BYTE   W06
        BYTE           N12     Cs3
        BYTE   W12
        BYTE                   Gs3
        BYTE   W12
        BYTE           N09     An3
        BYTE   W09
        BYTE           N03     As3
        BYTE   W03
// 062   ----------------------------------------
        BYTE           N12     Gs3   v050
        BYTE   W12
        BYTE                   As3   v044
        BYTE   W12
        BYTE           N72     Gs3
        BYTE   W72
// 063   ----------------------------------------
        BYTE           N06     Fs3
        BYTE   W06
        BYTE                   An3
        BYTE   W06
        BYTE                   As3
        BYTE   W06
        BYTE                   Cs4
        BYTE   W12
        BYTE           N12     As3
        BYTE   W12
        BYTE                   An3
        BYTE   W12
        BYTE           N06     Gs3
        BYTE   W06
        BYTE           N12     Fs3
        BYTE   W12
        BYTE                   As3
        BYTE   W12
        BYTE           N09     Cs4
        BYTE   W09
        BYTE           N03     Ds4
        BYTE   W03
// 064   ----------------------------------------
        BYTE           N36     Cs4   v050
        BYTE   W36
        BYTE                   An3
        BYTE   W36
        BYTE           N24     Gs3
        BYTE   W24
// 065   ----------------------------------------
        BYTE           N06     Ds3
        BYTE   W06
        BYTE                   Fs3   v044
        BYTE   W06
        BYTE                   An3
        BYTE   W06
        BYTE                   As3
        BYTE   W12
        BYTE           N12     Gs3
        BYTE   W12
        BYTE                   Fs3
        BYTE   W12
        BYTE           N06     Ds3
        BYTE   W06
        BYTE           N12     Cs3
        BYTE   W12
        BYTE                   Gs2
        BYTE   W12
        BYTE           N09     An2
        BYTE   W09
        BYTE           N03     As2
        BYTE   W03
// 066   ----------------------------------------
        BYTE           N06     Fn2   v050
        BYTE   W06
        BYTE                   Fs2   v044
        BYTE   W06
        BYTE                   An2
        BYTE   W06
        BYTE                   As2
        BYTE   W12
        BYTE           N12     Cs3
        BYTE   W12
        BYTE                   As2
        BYTE   W12
        BYTE           N06     An2
        BYTE   W06
        BYTE           N12     Gs2
        BYTE   W12
        BYTE                   Bn2
        BYTE   W12
        BYTE           N09     Cs3
        BYTE   W09
        BYTE           N03     Ds3
        BYTE   W03
// 067   ----------------------------------------
        BYTE           N06     As2   v050
        BYTE   W06
        BYTE                   Cs3   v044
        BYTE   W06
        BYTE                   Ds3
        BYTE   W06
        BYTE                   Fs3
        BYTE   W12
        BYTE           N12     Ds3
        BYTE   W12
        BYTE                   Cs3
        BYTE   W12
        BYTE           N06     As2
        BYTE   W06
        BYTE           N12     An2
        BYTE   W12
        BYTE                   As2
        BYTE   W12
        BYTE           N09     Cs3
        BYTE   W09
        BYTE           N03     An3
        BYTE   W03
// 068   ----------------------------------------
        BYTE           N48     Gs3
        BYTE   W48
        BYTE                   Cs3   v040
        BYTE   W48
// 069   ----------------------------------------
        BYTE           N96     Ds3   v032
        BYTE   W96
// 070   ----------------------------------------
        BYTE                   Ds3   v028
        BYTE   W96
// 071   ----------------------------------------
        BYTE                   Ds3   v024
        BYTE   W96
// 072   ----------------------------------------
        BYTE                   Ds3   v020
        BYTE   W96
// 073   ----------------------------------------
        BYTE                   Ds3
        BYTE   W96
// 074   ----------------------------------------
        BYTE                   Ds3   v016
        BYTE   W96
// 075   ----------------------------------------
        BYTE                   Ds3   v012
        BYTE   W96
// 076   ----------------------------------------
        BYTE                   Ds3   v008
        BYTE   W96
// 077   ----------------------------------------
        BYTE   GoTo
         POIN2  BeforeTheGallows_3_LOOP
        BYTE   FINE

//****************** Track 4 (Midi-Chn.4) ******************//

BeforeTheGallows_4:
        BYTE   KEYSH   BeforeTheGallows_key+0
// 000   ----------------------------------------
        BYTE           VOICE   40
        BYTE           PAN     c_v+36
        BYTE           VOL     127
        BYTE   W96
// 001   ----------------------------------------
        BYTE   W96
// 002   ----------------------------------------
        BYTE   W96
// 003   ----------------------------------------
        BYTE   W96
// 004   ----------------------------------------
        BYTE   W96
// 005   ----------------------------------------
BeforeTheGallows_4_LOOP:
        BYTE   W96
// 006   ----------------------------------------
        BYTE   W96
// 007   ----------------------------------------
        BYTE   W96
// 008   ----------------------------------------
        BYTE   W96
// 009   ----------------------------------------
        BYTE   W96
// 010   ----------------------------------------
        BYTE   W96
// 011   ----------------------------------------
        BYTE   W96
// 012   ----------------------------------------
        BYTE   W96
// 013   ----------------------------------------
        BYTE   W96
// 014   ----------------------------------------
        BYTE   W96
// 015   ----------------------------------------
        BYTE   W96
// 016   ----------------------------------------
        BYTE   W84
        BYTE           N03     Ds3   v042
        BYTE   W03
        BYTE                   En3   v045
        BYTE   W03
        BYTE                   Fn3   v047
        BYTE   W03
        BYTE                   Fs3   v050
        BYTE   W03
// 017   ----------------------------------------
        BYTE           N24     Gn3   v063
        BYTE   W24
        BYTE           N12     Fn3   v050
        BYTE   W12
        BYTE                   Ds3
        BYTE   W12
        BYTE           N06     Dn3   v047
        BYTE   W06
        BYTE                   Ds3   v045
        BYTE   W06
        BYTE           N12     Fn3   v050
        BYTE   W12
        BYTE                   Gn3
        BYTE   W12
        BYTE                   Gs3
        BYTE   W12
// 018   ----------------------------------------
        BYTE           N24     As3   v063
        BYTE   W24
        BYTE           N12     Gs3   v050
        BYTE   W12
        BYTE                   Gn3
        BYTE   W12
        BYTE           N06     Fn3   v047
        BYTE   W06
        BYTE                   Gn3   v045
        BYTE   W06
        BYTE           N12     Gs3   v050
        BYTE   W12
        BYTE                   Cn4
        BYTE   W12
        BYTE           N06     Dn4
        BYTE   W12
// 019   ----------------------------------------
        BYTE           N48     Ds4   v055
        BYTE   W48
        BYTE                   Fn4   v050
        BYTE   W48
// 020   ----------------------------------------
        BYTE           N36     Dn4   v055
        BYTE   W36
        BYTE                   Cn4
        BYTE   W36
        BYTE           N24     As3   v050
        BYTE   W24
// 021   ----------------------------------------
        BYTE   W96
// 022   ----------------------------------------
        BYTE   W96
// 023   ----------------------------------------
        BYTE   W96
// 024   ----------------------------------------
        BYTE   W96
// 025   ----------------------------------------
        BYTE           N96     Gn3   v040
        BYTE   W96
// 026   ----------------------------------------
        BYTE                   Fn3
        BYTE   W96
// 027   ----------------------------------------
        BYTE                   Ds3
        BYTE   W96
// 028   ----------------------------------------
        BYTE   W96
// 029   ----------------------------------------
        BYTE   W96
// 030   ----------------------------------------
        BYTE   W96
// 031   ----------------------------------------
        BYTE   W96
// 032   ----------------------------------------
        BYTE   W96
// 033   ----------------------------------------
        BYTE   W96
// 034   ----------------------------------------
        BYTE   W96
// 035   ----------------------------------------
        BYTE   W96
// 036   ----------------------------------------
        BYTE   W96
// 037   ----------------------------------------
        BYTE   W96
// 038   ----------------------------------------
        BYTE   W96
// 039   ----------------------------------------
        BYTE   W96
// 040   ----------------------------------------
        BYTE   W96
// 041   ----------------------------------------
        BYTE   W96
// 042   ----------------------------------------
        BYTE   W96
// 043   ----------------------------------------
        BYTE   W96
// 044   ----------------------------------------
        BYTE   W96
// 045   ----------------------------------------
        BYTE   W96
// 046   ----------------------------------------
        BYTE   W96
// 047   ----------------------------------------
        BYTE   W96
// 048   ----------------------------------------
        BYTE   W96
// 049   ----------------------------------------
        BYTE   W96
// 050   ----------------------------------------
        BYTE   W96
// 051   ----------------------------------------
        BYTE   W96
// 052   ----------------------------------------
        BYTE   W96
// 053   ----------------------------------------
        BYTE   W96
// 054   ----------------------------------------
        BYTE   W96
// 055   ----------------------------------------
        BYTE   W96
// 056   ----------------------------------------
        BYTE   W96
// 057   ----------------------------------------
        BYTE   W96
// 058   ----------------------------------------
        BYTE   W96
// 059   ----------------------------------------
        BYTE   W96
// 060   ----------------------------------------
        BYTE   W96
// 061   ----------------------------------------
        BYTE   W96
// 062   ----------------------------------------
        BYTE   W96
// 063   ----------------------------------------
        BYTE   W96
// 064   ----------------------------------------
        BYTE   W96
// 065   ----------------------------------------
        BYTE   W96
// 066   ----------------------------------------
        BYTE   W96
// 067   ----------------------------------------
        BYTE   W96
// 068   ----------------------------------------
        BYTE   W96
// 069   ----------------------------------------
        BYTE   W96
// 070   ----------------------------------------
        BYTE   W96
// 071   ----------------------------------------
        BYTE   W96
// 072   ----------------------------------------
        BYTE   W96
// 073   ----------------------------------------
        BYTE   W96
// 074   ----------------------------------------
        BYTE   W96
// 075   ----------------------------------------
        BYTE   W96
// 076   ----------------------------------------
        BYTE   W96
// 077   ----------------------------------------
        BYTE   GoTo
         POIN2  BeforeTheGallows_4_LOOP
        BYTE   FINE

//****************** Track 5 (Midi-Chn.5) ******************//

BeforeTheGallows_5:
        BYTE   KEYSH   BeforeTheGallows_key+0
// 000   ----------------------------------------
        BYTE           VOICE   29
        BYTE           PAN     c_v+26
        BYTE           VOL     127
        BYTE   W96
// 001   ----------------------------------------
        BYTE   W96
// 002   ----------------------------------------
        BYTE   W96
// 003   ----------------------------------------
        BYTE   W96
// 004   ----------------------------------------
        BYTE   W96
// 005   ----------------------------------------
BeforeTheGallows_5_LOOP:
        BYTE           N06     Cn2   v063
        BYTE   W12
        BYTE                   As2   v050
        BYTE   W06
        BYTE                   Cn3
        BYTE   W09
        BYTE                   Cn3
        BYTE   W06
        BYTE                   As2
        BYTE   W06
        BYTE                   Gn2
        BYTE   W06
        BYTE           N03     Fn2
        BYTE   W03
        BYTE           N12     Gn2   v055
        BYTE   W12
        BYTE                   As1   v050
        BYTE   W12
        BYTE           N24     Cn2
        BYTE   W24
// 006   ----------------------------------------
BeforeTheGallows_5_6:
        BYTE           N06     Cn2   v063
        BYTE   W12
        BYTE                   As2   v050
        BYTE   W06
        BYTE                   Cn3
        BYTE   W09
        BYTE                   Cn3
        BYTE   W06
        BYTE                   As2
        BYTE   W06
        BYTE                   Gn2
        BYTE   W06
        BYTE           N03     Fn2
        BYTE   W03
        BYTE           N48     Gn2   v055
        BYTE   W48
        BYTE   PEND
// 007   ----------------------------------------
BeforeTheGallows_5_7:
        BYTE           N18     Cn2   v063
        BYTE   W18
        BYTE                   Ds2   v050
        BYTE   W18
        BYTE           N12     Gn2
        BYTE   W12
        BYTE           N06     Fn2   v055
        BYTE   W06
        BYTE                   Ds2   v050
        BYTE   W06
        BYTE                   Fn2
        BYTE   W06
        BYTE                   Gn2
        BYTE   W06
        BYTE           N09     As2
        BYTE   W09
        BYTE                   Gn2
        BYTE   W09
        BYTE           N03     Fn2
        BYTE   W03
        BYTE           N01     Gn2
        BYTE           N01     Gs2
        BYTE   W01
        BYTE                   An2
        BYTE   W01
        BYTE                   As2
        BYTE   W01
        BYTE   PEND
// 008   ----------------------------------------
BeforeTheGallows_5_8:
        BYTE           N48     Bn2   v055
        BYTE   W48
        BYTE                   Gn2
        BYTE   W48
        BYTE   PEND
// 009   ----------------------------------------
BeforeTheGallows_5_9:
        BYTE           N06     Cn2   v063
        BYTE   W12
        BYTE                   As2   v050
        BYTE   W06
        BYTE                   Cn3
        BYTE   W09
        BYTE                   Cn3
        BYTE   W06
        BYTE                   As2
        BYTE   W06
        BYTE                   Gn2
        BYTE   W06
        BYTE           N03     Fn2
        BYTE   W03
        BYTE           N12     Gn2   v055
        BYTE   W12
        BYTE                   As1   v050
        BYTE   W12
        BYTE           N24     Cn2
        BYTE   W24
        BYTE   PEND
// 010   ----------------------------------------
        BYTE   PATT
         POIN2  BeforeTheGallows_5_6
// 011   ----------------------------------------
        BYTE   PATT
         POIN2  BeforeTheGallows_5_7
// 012   ----------------------------------------
        BYTE   PATT
         POIN2  BeforeTheGallows_5_8
// 013   ----------------------------------------
        BYTE   W96
// 014   ----------------------------------------
        BYTE   W96
// 015   ----------------------------------------
        BYTE   W96
// 016   ----------------------------------------
        BYTE   W96
// 017   ----------------------------------------
        BYTE   W96
// 018   ----------------------------------------
        BYTE   W96
// 019   ----------------------------------------
        BYTE   W96
// 020   ----------------------------------------
        BYTE   W90
        BYTE           N01     En2   v055
        BYTE   W01
        BYTE                   Ds2
        BYTE   W02
        BYTE                   Dn2
        BYTE   W01
        BYTE           N02     Cs2
        BYTE   W02
// 021   ----------------------------------------
        BYTE   PATT
         POIN2  BeforeTheGallows_5_9
// 022   ----------------------------------------
        BYTE   PATT
         POIN2  BeforeTheGallows_5_6
// 023   ----------------------------------------
        BYTE   PATT
         POIN2  BeforeTheGallows_5_7
// 024   ----------------------------------------
        BYTE   PATT
         POIN2  BeforeTheGallows_5_8
// 025   ----------------------------------------
        BYTE   PATT
         POIN2  BeforeTheGallows_5_9
// 026   ----------------------------------------
        BYTE   PATT
         POIN2  BeforeTheGallows_5_6
// 027   ----------------------------------------
        BYTE           N18     Cn2   v063
        BYTE   W18
        BYTE                   Ds2   v050
        BYTE   W18
        BYTE           N12     Gn2
        BYTE   W12
        BYTE           N06     Fn2   v055
        BYTE   W06
        BYTE                   Ds2   v050
        BYTE   W06
        BYTE                   Fn2
        BYTE   W06
        BYTE                   Gn2
        BYTE   W06
        BYTE           N09     As2
        BYTE   W09
        BYTE           N12     Cn3
        BYTE   W12
        BYTE           N01     Cs3
        BYTE           N01     Dn3
        BYTE   W01
        BYTE                   Ds3
        BYTE   W01
        BYTE                   En3
        BYTE   W01
// 028   ----------------------------------------
        BYTE           N36     Fn3
        BYTE   W36
        BYTE                   An2
        BYTE   W36
        BYTE           N24     As2
        BYTE   W24
// 029   ----------------------------------------
        BYTE           N96     Ds3
        BYTE   W96
// 030   ----------------------------------------
        BYTE                   Dn3
        BYTE   W96
// 031   ----------------------------------------
        BYTE                   As2
        BYTE   W96
// 032   ----------------------------------------
        BYTE           N36     Bn2
        BYTE   W36
        BYTE                   Dn3
        BYTE   W36
        BYTE           N24     Fn3
        BYTE   W24
// 033   ----------------------------------------
        BYTE           N96     Ds3
        BYTE   W96
// 034   ----------------------------------------
        BYTE                   Dn3
        BYTE   W96
// 035   ----------------------------------------
        BYTE                   Bn2
        BYTE   W96
// 036   ----------------------------------------
        BYTE           N36     As2
        BYTE   W36
        BYTE                   Bn2
        BYTE   W36
        BYTE           N18     As2
        BYTE   W18
        BYTE           N01     Gn2   v055
        BYTE   W01
        BYTE                   Fs2
        BYTE   W02
        BYTE                   Fn2
        BYTE   W01
        BYTE           N02     En2
        BYTE   W02
// 037   ----------------------------------------
BeforeTheGallows_5_37:
        BYTE           N06     Ds2   v063
        BYTE   W12
        BYTE                   Cs3   v050
        BYTE   W06
        BYTE                   Ds3
        BYTE   W09
        BYTE                   Ds3
        BYTE   W06
        BYTE                   Cs3
        BYTE   W06
        BYTE                   As2
        BYTE   W06
        BYTE           N03     Gs2
        BYTE   W03
        BYTE           N12     As2   v055
        BYTE   W12
        BYTE                   Cs2   v050
        BYTE   W12
        BYTE           N24     Ds2
        BYTE   W24
        BYTE   PEND
// 038   ----------------------------------------
BeforeTheGallows_5_38:
        BYTE           N06     Ds2   v063
        BYTE   W12
        BYTE                   Cs3   v050
        BYTE   W06
        BYTE                   Ds3
        BYTE   W09
        BYTE                   Ds3
        BYTE   W06
        BYTE                   Cs3
        BYTE   W06
        BYTE                   As2
        BYTE   W06
        BYTE           N03     Gs2
        BYTE   W03
        BYTE           N48     As2   v055
        BYTE   W48
        BYTE   PEND
// 039   ----------------------------------------
BeforeTheGallows_5_39:
        BYTE           N18     Ds2   v063
        BYTE   W18
        BYTE                   Fs2   v050
        BYTE   W18
        BYTE           N12     As2
        BYTE   W12
        BYTE           N06     Gs2   v055
        BYTE   W06
        BYTE                   Fs2   v050
        BYTE   W06
        BYTE                   Gs2
        BYTE   W06
        BYTE                   As2
        BYTE   W06
        BYTE           N09     Cs3
        BYTE   W09
        BYTE                   As2
        BYTE   W09
        BYTE           N03     Gs2
        BYTE   W03
        BYTE           N01     As2
        BYTE           N01     Bn2
        BYTE   W01
        BYTE                   Cn3
        BYTE   W01
        BYTE                   Cs3
        BYTE   W01
        BYTE   PEND
// 040   ----------------------------------------
BeforeTheGallows_5_40:
        BYTE           N48     Dn3   v055
        BYTE   W48
        BYTE                   As2
        BYTE   W48
        BYTE   PEND
// 041   ----------------------------------------
        BYTE   PATT
         POIN2  BeforeTheGallows_5_37
// 042   ----------------------------------------
        BYTE   PATT
         POIN2  BeforeTheGallows_5_38
// 043   ----------------------------------------
        BYTE   PATT
         POIN2  BeforeTheGallows_5_39
// 044   ----------------------------------------
        BYTE           N48     Dn3   v055
        BYTE   W48
        BYTE           N12     Ds3
        BYTE   W12
        BYTE                   Cs3
        BYTE   W12
        BYTE                   Bn2
        BYTE   W12
        BYTE                   Fn3
        BYTE   W12
// 045   ----------------------------------------
        BYTE           N96     Fs3
        BYTE   W96
// 046   ----------------------------------------
        BYTE           N48     An3
        BYTE   W48
        BYTE           N24     Gs3
        BYTE   W24
        BYTE                   Fn3
        BYTE   W24
// 047   ----------------------------------------
        BYTE           N96     Fs3
        BYTE   W96
// 048   ----------------------------------------
        BYTE           N48     Fn3
        BYTE   W48
        BYTE           N24     Ds3
        BYTE   W24
        BYTE                   Cs3
        BYTE   W24
// 049   ----------------------------------------
        BYTE           N96     Ds3
        BYTE   W96
// 050   ----------------------------------------
        BYTE           N48     Cs3
        BYTE   W48
        BYTE           N24     Bn2
        BYTE   W24
        BYTE                   As2
        BYTE   W24
// 051   ----------------------------------------
        BYTE           N96     Ds3
        BYTE   W96
// 052   ----------------------------------------
        BYTE                   Fn3
        BYTE   W96
// 053   ----------------------------------------
        BYTE   PATT
         POIN2  BeforeTheGallows_5_37
// 054   ----------------------------------------
        BYTE   PATT
         POIN2  BeforeTheGallows_5_38
// 055   ----------------------------------------
        BYTE   PATT
         POIN2  BeforeTheGallows_5_39
// 056   ----------------------------------------
        BYTE   PATT
         POIN2  BeforeTheGallows_5_40
// 057   ----------------------------------------
        BYTE   PATT
         POIN2  BeforeTheGallows_5_37
// 058   ----------------------------------------
        BYTE   PATT
         POIN2  BeforeTheGallows_5_38
// 059   ----------------------------------------
        BYTE   PATT
         POIN2  BeforeTheGallows_5_39
// 060   ----------------------------------------
        BYTE           N48     Dn3   v055
        BYTE   W48
        BYTE           N12     Ds3
        BYTE   W12
        BYTE                   Dn3
        BYTE   W12
        BYTE                   Bn2
        BYTE   W12
        BYTE                   As2
        BYTE   W12
// 061   ----------------------------------------
        BYTE           N96     Ds3
        BYTE   W96
// 062   ----------------------------------------
BeforeTheGallows_5_62:
        BYTE           N06     Fn3   v042
        BYTE   W06
        BYTE                   Fn3   v045
        BYTE   W06
        BYTE                   Fn3   v042
        BYTE   W06
        BYTE                   Fn3   v045
        BYTE   W06
        BYTE                   Ds3   v042
        BYTE   W06
        BYTE                   Ds3   v045
        BYTE   W06
        BYTE                   Cs3   v042
        BYTE   W06
        BYTE                   Cs3   v045
        BYTE   W06
        BYTE                   Bn2   v042
        BYTE   W06
        BYTE                   Bn2   v045
        BYTE   W06
        BYTE                   As2   v042
        BYTE   W06
        BYTE                   As2   v045
        BYTE   W06
        BYTE           N12     Bn2   v040
        BYTE   W12
        BYTE                   Bn2   v042
        BYTE   W12
        BYTE   PEND
// 063   ----------------------------------------
        BYTE           N96     As2   v055
        BYTE   W96
// 064   ----------------------------------------
        BYTE                   Gs2
        BYTE   W96
// 065   ----------------------------------------
        BYTE                   Ds3
        BYTE   W96
// 066   ----------------------------------------
        BYTE   PATT
         POIN2  BeforeTheGallows_5_62
// 067   ----------------------------------------
        BYTE           N96     Cs3   v055
        BYTE   W96
// 068   ----------------------------------------
        BYTE                   Gs2
        BYTE   W96
// 069   ----------------------------------------
        BYTE                   As2   v050
        BYTE   W96
// 070   ----------------------------------------
        BYTE                   As2   v045
        BYTE   W96
// 071   ----------------------------------------
        BYTE                   As2   v040
        BYTE   W96
// 072   ----------------------------------------
        BYTE                   As2   v035
        BYTE   W96
// 073   ----------------------------------------
        BYTE                   As2   v030
        BYTE   W96
// 074   ----------------------------------------
        BYTE                   As2   v025
        BYTE   W96
// 075   ----------------------------------------
        BYTE                   As2   v020
        BYTE   W96
// 076   ----------------------------------------
        BYTE                   As2   v015
        BYTE   W96
// 077   ----------------------------------------
        BYTE   GoTo
         POIN2  BeforeTheGallows_5_LOOP
        BYTE   FINE

//****************** Track 6 (Midi-Chn.6) ******************//

BeforeTheGallows_6:
        BYTE   KEYSH   BeforeTheGallows_key+0
// 000   ----------------------------------------
        BYTE           VOICE   30
        BYTE           N96     Gn1   v028
        BYTE           N96     Cn1
        BYTE           N96     Gn2
        BYTE           N96     Cn2
        BYTE           VOL     127
        BYTE   W96
// 001   ----------------------------------------
        BYTE           N96     Ds1
        BYTE           N96     As1
        BYTE           N96     Ds2
        BYTE           N96     As2
        BYTE   W96
// 002   ----------------------------------------
        BYTE                   Fs1
        BYTE           N96     Cs2
        BYTE           N96     Fs2
        BYTE           N96     Cs3
        BYTE   W96
// 003   ----------------------------------------
        BYTE           TIE     Cn2
        BYTE           TIE     Gn2
        BYTE           TIE     Cn1
        BYTE           TIE     Gn1
        BYTE   W96
// 004   ----------------------------------------
        BYTE   W96
// 005   ----------------------------------------
        BYTE           EOT
        BYTE           EOT     Cn1
        BYTE                   Gn2
        BYTE                   Cn2
BeforeTheGallows_6_LOOP:
        BYTE           N06     Gn2   v025
        BYTE           N06     Cn2
        BYTE   W12
        BYTE                   Gn2   v022
        BYTE           N06     Cn2
        BYTE   W06
        BYTE                   Gn2   v024
        BYTE           N06     Cn2
        BYTE   W06
        BYTE                   Gn2   v025
        BYTE           N06     Cn2
        BYTE   W12
        BYTE                   Gn2   v022
        BYTE           N06     Cn2
        BYTE   W06
        BYTE                   Gn2   v024
        BYTE           N06     Cn2
        BYTE   W06
        BYTE                   Gn2   v025
        BYTE           N06     Cn2
        BYTE   W12
        BYTE                   Gn2   v022
        BYTE           N06     Cn2
        BYTE   W06
        BYTE                   Gn2   v024
        BYTE           N06     Cn2
        BYTE   W06
        BYTE                   Gn2   v025
        BYTE           N06     Cn2
        BYTE   W12
        BYTE                   Gn2   v022
        BYTE           N06     Cn2
        BYTE   W06
        BYTE                   Cn2   v024
        BYTE           N06     Gn2
        BYTE   W06
// 006   ----------------------------------------
BeforeTheGallows_6_6:
        BYTE           N06     Fn2   v025
        BYTE           N06     As1
        BYTE   W12
        BYTE                   Fn2   v022
        BYTE           N06     As1
        BYTE   W06
        BYTE                   Fn2   v024
        BYTE           N06     As1
        BYTE   W06
        BYTE                   As1   v025
        BYTE           N06     Fn2
        BYTE   W12
        BYTE                   As1   v022
        BYTE           N06     Fn2
        BYTE   W06
        BYTE                   As1   v024
        BYTE           N06     Fn2
        BYTE   W06
        BYTE                   Fn2   v025
        BYTE           N06     As1
        BYTE   W12
        BYTE                   As1   v022
        BYTE           N06     Fn2
        BYTE   W06
        BYTE                   Fn2   v024
        BYTE           N06     As1
        BYTE   W06
        BYTE                   Fn2   v025
        BYTE           N06     As1
        BYTE   W12
        BYTE                   Fn2   v022
        BYTE           N06     As1
        BYTE   W06
        BYTE                   As1   v024
        BYTE           N06     Fn2
        BYTE   W06
        BYTE   PEND
// 007   ----------------------------------------
BeforeTheGallows_6_7:
        BYTE           N06     Ds2   v025
        BYTE           N06     Gs1
        BYTE   W12
        BYTE                   Ds2   v022
        BYTE           N06     Gs1
        BYTE   W06
        BYTE                   Ds2   v024
        BYTE           N06     Gs1
        BYTE   W06
        BYTE                   Gs1   v025
        BYTE           N06     Ds2
        BYTE   W12
        BYTE                   Gs1   v022
        BYTE           N06     Ds2
        BYTE   W06
        BYTE                   Gs1   v024
        BYTE           N06     Ds2
        BYTE   W06
        BYTE                   Ds2   v025
        BYTE           N06     Gs1
        BYTE   W12
        BYTE                   Gs1   v022
        BYTE           N06     Ds2
        BYTE   W06
        BYTE                   Ds2   v024
        BYTE           N06     Gs1
        BYTE   W06
        BYTE                   Ds2   v025
        BYTE           N06     Gs1
        BYTE   W12
        BYTE                   Ds2   v022
        BYTE           N06     Gs1
        BYTE   W06
        BYTE                   Gs1   v024
        BYTE           N06     Ds2
        BYTE   W06
        BYTE   PEND
// 008   ----------------------------------------
BeforeTheGallows_6_8:
        BYTE           N06     Dn2   v025
        BYTE           N06     Gn1
        BYTE   W12
        BYTE                   Dn2   v022
        BYTE           N06     Gn1
        BYTE   W06
        BYTE                   Dn2   v024
        BYTE           N06     Gn1
        BYTE   W06
        BYTE                   Gn1   v025
        BYTE           N06     Dn2
        BYTE   W12
        BYTE                   Gn1   v022
        BYTE           N06     Dn2
        BYTE   W06
        BYTE                   Gn1   v024
        BYTE           N06     Dn2
        BYTE   W06
        BYTE                   Dn2   v025
        BYTE           N06     Gn1
        BYTE   W12
        BYTE                   Gn1   v022
        BYTE           N06     Dn2
        BYTE   W06
        BYTE                   Dn2   v024
        BYTE           N06     Gn1
        BYTE   W06
        BYTE                   Dn2   v025
        BYTE           N06     Gn1
        BYTE   W12
        BYTE                   Dn2   v022
        BYTE           N06     Gn1
        BYTE   W06
        BYTE                   Dn2   v024
        BYTE           N06     Gn1
        BYTE   W06
        BYTE   PEND
// 009   ----------------------------------------
BeforeTheGallows_6_9:
        BYTE           N06     Cn2   v025
        BYTE           N06     Gn2
        BYTE   W12
        BYTE                   Cn2   v022
        BYTE           N06     Gn2
        BYTE   W06
        BYTE                   Gn2   v024
        BYTE           N06     Cn2
        BYTE   W06
        BYTE                   Gn2   v025
        BYTE           N06     Cn2
        BYTE   W12
        BYTE                   Gn2   v022
        BYTE           N06     Cn2
        BYTE   W06
        BYTE                   Gn2   v024
        BYTE           N06     Cn2
        BYTE   W06
        BYTE                   Gn2   v025
        BYTE           N06     Cn2
        BYTE   W12
        BYTE                   Gn2   v022
        BYTE           N06     Cn2
        BYTE   W06
        BYTE                   Gn2   v024
        BYTE           N06     Cn2
        BYTE   W06
        BYTE                   Gn2   v025
        BYTE           N06     Cn2
        BYTE   W12
        BYTE                   Gn2   v022
        BYTE           N06     Cn2
        BYTE   W06
        BYTE                   Gn2   v024
        BYTE           N06     Cn2
        BYTE   W06
        BYTE   PEND
// 010   ----------------------------------------
        BYTE   PATT
         POIN2  BeforeTheGallows_6_6
// 011   ----------------------------------------
        BYTE   PATT
         POIN2  BeforeTheGallows_6_7
// 012   ----------------------------------------
        BYTE           N06     Dn2   v025
        BYTE           N06     Gn1
        BYTE   W12
        BYTE                   Dn2   v022
        BYTE           N06     Gn1
        BYTE   W06
        BYTE                   Dn2   v024
        BYTE           N06     Gn1
        BYTE   W06
        BYTE                   Gn1   v025
        BYTE           N06     Dn2
        BYTE   W12
        BYTE                   Gn1   v022
        BYTE           N06     Dn2
        BYTE   W06
        BYTE                   Gn1   v024
        BYTE           N06     Dn2
        BYTE   W06
        BYTE                   Dn2   v025
        BYTE           N06     Gn1
        BYTE   W12
        BYTE                   Gn1   v022
        BYTE           N06     Dn2
        BYTE   W06
        BYTE                   Dn2   v024
        BYTE           N06     Gn1
        BYTE   W06
        BYTE                   Dn2   v025
        BYTE           N06     Gn1
        BYTE   W12
        BYTE                   Dn2   v022
        BYTE           N06     Gn1
        BYTE   W06
        BYTE                   Gn1   v024
        BYTE           N06     Dn2
        BYTE   W06
// 013   ----------------------------------------
        BYTE           N12     Cn2   v025
        BYTE           N12     Gn2
        BYTE   W18
        BYTE           N06     Cn2   v022
        BYTE           N06     Gn2
        BYTE   W12
        BYTE                   Cn2   v025
        BYTE           N06     Gn2
        BYTE   W12
        BYTE                   Gn2   v022
        BYTE           N06     Cn2
        BYTE   W06
        BYTE           N12     Cn2   v025
        BYTE           N12     Fn2
        BYTE   W18
        BYTE           N06     Fn2   v022
        BYTE           N06     Cn2
        BYTE   W12
        BYTE                   Fn2   v025
        BYTE           N06     Cn2
        BYTE   W12
        BYTE                   Cn2   v022
        BYTE           N06     Fn2
        BYTE   W06
// 014   ----------------------------------------
BeforeTheGallows_6_14:
        BYTE           N12     Ds2   v025
        BYTE           N12     Gs2
        BYTE   W18
        BYTE           N06     Ds2   v022
        BYTE           N06     Gs2
        BYTE   W12
        BYTE                   Ds2   v025
        BYTE           N06     Gs2
        BYTE   W12
        BYTE                   Ds2   v022
        BYTE           N06     Gs2
        BYTE   W06
        BYTE           N12     Gn2   v025
        BYTE           N12     Ds2
        BYTE   W18
        BYTE           N06     Gn2   v022
        BYTE           N06     Ds2
        BYTE   W12
        BYTE                   Ds2   v025
        BYTE           N06     Gn2
        BYTE   W12
        BYTE                   Gn2   v022
        BYTE           N06     Ds2
        BYTE   W06
        BYTE   PEND
// 015   ----------------------------------------
        BYTE                   Gs2   v025
        BYTE           N06     Cn3
        BYTE   W12
        BYTE                   Gs2   v022
        BYTE           N06     Cn3
        BYTE   W12
        BYTE                   Gs2   v025
        BYTE           N06     Cn3
        BYTE   W12
        BYTE                   Gs2   v022
        BYTE           N06     Cn3
        BYTE   W12
        BYTE                   Ds2   v025
        BYTE           N06     Gs2
        BYTE   W12
        BYTE                   Ds2   v022
        BYTE           N06     Gs2
        BYTE   W12
        BYTE                   Ds2   v025
        BYTE           N06     Gs2
        BYTE   W12
        BYTE                   Ds2   v022
        BYTE           N06     Gs2
        BYTE   W12
// 016   ----------------------------------------
BeforeTheGallows_6_16:
        BYTE           N24     Fn2   v025
        BYTE           N24     As2
        BYTE   W24
        BYTE                   Fn2   v022
        BYTE           N24     As2
        BYTE   W24
        BYTE           N12     Fn2   v025
        BYTE           N12     As2
        BYTE   W12
        BYTE                   Fn2   v022
        BYTE           N12     As2
        BYTE   W12
        BYTE           N24     Cn2   v025
        BYTE           N24     Gn2
        BYTE   W24
        BYTE   PEND
// 017   ----------------------------------------
        BYTE           N12     Cn2
        BYTE           N12     Gn2
        BYTE   W18
        BYTE           N06     Cn2   v022
        BYTE           N06     Gn2
        BYTE   W12
        BYTE                   Cn2   v025
        BYTE           N06     Gn2
        BYTE   W12
        BYTE                   Cn2   v022
        BYTE           N06     Gn2
        BYTE   W06
        BYTE           N12     Cn2   v025
        BYTE           N12     Fn2
        BYTE   W18
        BYTE           N06     Fn2   v022
        BYTE           N06     Cn2
        BYTE   W12
        BYTE                   Fn2   v025
        BYTE           N06     Cn2
        BYTE   W12
        BYTE                   Cn2   v022
        BYTE           N06     Fn2
        BYTE   W06
// 018   ----------------------------------------
        BYTE   PATT
         POIN2  BeforeTheGallows_6_14
// 019   ----------------------------------------
        BYTE           N06     Gs2   v025
        BYTE           N06     Cn3
        BYTE   W12
        BYTE                   Gs2   v022
        BYTE           N06     Cn3
        BYTE   W12
        BYTE                   Gs2   v025
        BYTE           N06     Cn3
        BYTE   W12
        BYTE                   Gs2   v022
        BYTE           N06     Cn3
        BYTE   W12
        BYTE                   Ds2   v025
        BYTE           N06     Gs2
        BYTE   W12
        BYTE                   Gs2   v022
        BYTE           N06     Ds2
        BYTE   W12
        BYTE                   Ds2   v025
        BYTE           N06     Gs2
        BYTE   W12
        BYTE                   Ds2   v022
        BYTE           N06     Gs2
        BYTE   W12
// 020   ----------------------------------------
        BYTE   PATT
         POIN2  BeforeTheGallows_6_16
// 021   ----------------------------------------
        BYTE   PATT
         POIN2  BeforeTheGallows_6_9
// 022   ----------------------------------------
        BYTE   PATT
         POIN2  BeforeTheGallows_6_6
// 023   ----------------------------------------
        BYTE   PATT
         POIN2  BeforeTheGallows_6_7
// 024   ----------------------------------------
        BYTE   PATT
         POIN2  BeforeTheGallows_6_8
// 025   ----------------------------------------
        BYTE           N06     Gn2   v025
        BYTE           N06     Cn2
        BYTE   W12
        BYTE                   Gn2   v022
        BYTE           N06     Cn2
        BYTE   W06
        BYTE                   Cn2   v024
        BYTE           N06     Gn2
        BYTE   W06
        BYTE                   Cn2   v025
        BYTE           N06     Gn2
        BYTE   W12
        BYTE                   Cn2   v022
        BYTE           N06     Gn2
        BYTE   W06
        BYTE                   Cn2   v024
        BYTE           N06     Gn2
        BYTE   W06
        BYTE                   Cn2   v025
        BYTE           N06     Gn2
        BYTE   W12
        BYTE                   Cn2   v022
        BYTE           N06     Gn2
        BYTE   W06
        BYTE                   Cn2   v024
        BYTE           N06     Gn2
        BYTE   W06
        BYTE                   Cn2   v025
        BYTE           N06     Gn2
        BYTE   W12
        BYTE                   Cn2   v022
        BYTE           N06     Gn2
        BYTE   W06
        BYTE                   Cn2   v024
        BYTE           N06     Gn2
        BYTE   W06
// 026   ----------------------------------------
BeforeTheGallows_6_26:
        BYTE           N06     As1   v025
        BYTE           N06     Fn2
        BYTE   W12
        BYTE                   As1   v022
        BYTE           N06     Fn2
        BYTE   W06
        BYTE                   As1   v024
        BYTE           N06     Fn2
        BYTE   W06
        BYTE                   Fn2   v025
        BYTE           N06     As1
        BYTE   W12
        BYTE                   Fn2   v022
        BYTE           N06     As1
        BYTE   W06
        BYTE                   Fn2   v024
        BYTE           N06     As1
        BYTE   W06
        BYTE                   As1   v025
        BYTE           N06     Fn2
        BYTE   W12
        BYTE                   Fn2   v022
        BYTE           N06     As1
        BYTE   W06
        BYTE                   As1   v024
        BYTE           N06     Fn2
        BYTE   W06
        BYTE                   As1   v025
        BYTE           N06     Fn2
        BYTE   W12
        BYTE                   As1   v022
        BYTE           N06     Fn2
        BYTE   W06
        BYTE                   Fn2   v024
        BYTE           N06     As1
        BYTE   W06
        BYTE   PEND
// 027   ----------------------------------------
        BYTE                   Gs1   v025
        BYTE           N06     Ds2
        BYTE   W12
        BYTE                   Gs1   v022
        BYTE           N06     Ds2
        BYTE   W06
        BYTE                   Gs1   v024
        BYTE           N06     Ds2
        BYTE   W06
        BYTE                   Ds2   v025
        BYTE           N06     Gs1
        BYTE   W12
        BYTE                   Ds2   v022
        BYTE           N06     Gs1
        BYTE   W06
        BYTE                   Ds2   v024
        BYTE           N06     Gs1
        BYTE   W06
        BYTE                   Gs1   v025
        BYTE           N06     Ds2
        BYTE   W12
        BYTE                   Ds2   v022
        BYTE           N06     Gs1
        BYTE   W06
        BYTE                   Gs1   v024
        BYTE           N06     Ds2
        BYTE   W06
        BYTE                   Gs1   v025
        BYTE           N06     Ds2
        BYTE   W12
        BYTE                   Gs1   v022
        BYTE           N06     Ds2
        BYTE   W06
        BYTE                   Ds2   v024
        BYTE           N06     Gs1
        BYTE   W06
// 028   ----------------------------------------
        BYTE           N24     Fn2
        BYTE           N24     Gs2
        BYTE           N24     Cn3
        BYTE           N24     Ds3
        BYTE   W24
        BYTE                   Gs2
        BYTE           N24     Cn3
        BYTE           N24     Fn3
        BYTE           N24     Ds3
        BYTE   W24
        BYTE                   Gs3
        BYTE           N24     Fn3
        BYTE           N24     As2
        BYTE           N24     Dn3
        BYTE   W24
        BYTE                   Gs2
        BYTE           N24     Fn3
        BYTE           N24     As2
        BYTE           N24     Dn3
        BYTE   W24
// 029   ----------------------------------------
BeforeTheGallows_6_29:
        BYTE           N36     As2   v024
        BYTE           N36     Ds2
        BYTE   W36
        BYTE           N06     Ds2   v021
        BYTE           N06     As2
        BYTE   W06
        BYTE                   As2   v022
        BYTE           N06     Ds2
        BYTE   W06
        BYTE           N36     Ds2   v024
        BYTE           N36     As2
        BYTE   W36
        BYTE           N06     Ds2   v021
        BYTE           N06     As2
        BYTE   W06
        BYTE                   Ds2   v022
        BYTE           N06     As2
        BYTE   W06
        BYTE   PEND
// 030   ----------------------------------------
        BYTE           N36     Fn2   v024
        BYTE           N36     As1
        BYTE   W36
        BYTE           N06     Fn2   v021
        BYTE           N06     As1
        BYTE   W06
        BYTE                   Fn2   v022
        BYTE           N06     As1
        BYTE   W06
        BYTE           N36     As1   v024
        BYTE           N36     Fn2
        BYTE   W36
        BYTE           N06     As1   v021
        BYTE           N06     Fn2
        BYTE   W06
        BYTE                   As1   v022
        BYTE           N06     Fn2
        BYTE   W06
// 031   ----------------------------------------
        BYTE           N36     As2   v024
        BYTE           N36     Ds2
        BYTE   W36
        BYTE           N06     Ds2   v021
        BYTE           N06     As2
        BYTE   W06
        BYTE                   As2   v022
        BYTE           N06     Ds2
        BYTE   W06
        BYTE           N36     Ds2   v024
        BYTE           N36     As2
        BYTE   W36
        BYTE           N06     As2   v021
        BYTE           N06     Ds2
        BYTE   W06
        BYTE                   Ds2   v022
        BYTE           N06     As2
        BYTE   W06
// 032   ----------------------------------------
        BYTE           N36     Fn2   v024
        BYTE           N36     As2
        BYTE   W36
        BYTE           N06     As2   v021
        BYTE           N06     Fn2
        BYTE   W06
        BYTE                   As2   v022
        BYTE           N06     Fn2
        BYTE   W06
        BYTE           N36     As2   v024
        BYTE           N36     Fn2
        BYTE   W36
        BYTE           N06     As2   v021
        BYTE           N06     Fn2
        BYTE   W06
        BYTE                   As2   v022
        BYTE           N06     Fn2
        BYTE   W06
// 033   ----------------------------------------
        BYTE           N36     Ds2   v024
        BYTE           N36     As2
        BYTE   W36
        BYTE           N06     As2   v021
        BYTE           N06     Ds2
        BYTE   W06
        BYTE                   As2   v022
        BYTE           N06     Ds2
        BYTE   W06
        BYTE           N36     As2   v024
        BYTE           N36     Ds2
        BYTE   W36
        BYTE           N06     As2   v021
        BYTE           N06     Ds2
        BYTE   W06
        BYTE                   As2   v022
        BYTE           N06     Ds2
        BYTE   W06
// 034   ----------------------------------------
        BYTE           N36     Fn2   v024
        BYTE           N36     As1
        BYTE   W36
        BYTE           N06     Fn2   v021
        BYTE           N06     As1
        BYTE   W06
        BYTE                   Fn2   v022
        BYTE           N06     As1
        BYTE   W06
        BYTE           N36     As1   v024
        BYTE           N36     Fn2
        BYTE   W36
        BYTE           N06     Fn2   v021
        BYTE           N06     As1
        BYTE   W06
        BYTE                   As1   v022
        BYTE           N06     Fn2
        BYTE   W06
// 035   ----------------------------------------
        BYTE   PATT
         POIN2  BeforeTheGallows_6_29
// 036   ----------------------------------------
        BYTE           N36     Fn2   v024
        BYTE           N36     As2
        BYTE   W36
        BYTE           N06     Fn2   v021
        BYTE           N06     As2
        BYTE   W06
        BYTE                   As2   v022
        BYTE           N06     Fn2
        BYTE   W06
        BYTE           N12     As2   v024
        BYTE           N12     Fs2
        BYTE           N12     Ds2
        BYTE   W12
        BYTE                   As2
        BYTE           N12     Fn2
        BYTE           N12     Ds2
        BYTE   W12
        BYTE                   Fs2
        BYTE           N12     Ds2
        BYTE           N12     As1
        BYTE   W12
        BYTE                   As1
        BYTE           N12     Ds2
        BYTE           N12     Fn2
        BYTE   W12
// 037   ----------------------------------------
        BYTE           N06     Ds2   v025
        BYTE           N06     As2
        BYTE   W12
        BYTE                   Ds2   v022
        BYTE           N06     As2
        BYTE   W06
        BYTE                   Ds2   v024
        BYTE           N06     As2
        BYTE   W06
        BYTE                   Ds2   v025
        BYTE           N06     As2
        BYTE   W12
        BYTE                   Ds2   v022
        BYTE           N06     As2
        BYTE   W06
        BYTE                   Ds2   v024
        BYTE           N06     As2
        BYTE   W06
        BYTE                   Ds2   v025
        BYTE           N06     As2
        BYTE   W12
        BYTE                   Ds2   v022
        BYTE           N06     As2
        BYTE   W06
        BYTE                   Ds2   v024
        BYTE           N06     As2
        BYTE   W06
        BYTE                   Ds2   v025
        BYTE           N06     As2
        BYTE   W12
        BYTE                   Ds2   v022
        BYTE           N06     As2
        BYTE   W06
        BYTE                   As2   v024
        BYTE           N06     Ds2
        BYTE   W06
// 038   ----------------------------------------
BeforeTheGallows_6_38:
        BYTE           N06     Cs2   v025
        BYTE           N06     Gs2
        BYTE   W12
        BYTE                   Cs2   v022
        BYTE           N06     Gs2
        BYTE   W06
        BYTE                   Cs2   v024
        BYTE           N06     Gs2
        BYTE   W06
        BYTE                   Gs2   v025
        BYTE           N06     Cs2
        BYTE   W12
        BYTE                   Gs2   v022
        BYTE           N06     Cs2
        BYTE   W06
        BYTE                   Gs2   v024
        BYTE           N06     Cs2
        BYTE   W06
        BYTE                   Cs2   v025
        BYTE           N06     Gs2
        BYTE   W12
        BYTE                   Gs2   v022
        BYTE           N06     Cs2
        BYTE   W06
        BYTE                   Cs2   v024
        BYTE           N06     Gs2
        BYTE   W06
        BYTE                   Cs2   v025
        BYTE           N06     Gs2
        BYTE   W12
        BYTE                   Cs2   v022
        BYTE           N06     Gs2
        BYTE   W06
        BYTE                   Gs2   v024
        BYTE           N06     Cs2
        BYTE   W06
        BYTE   PEND
// 039   ----------------------------------------
BeforeTheGallows_6_39:
        BYTE           N06     Bn1   v025
        BYTE           N06     Fs2
        BYTE   W12
        BYTE                   Bn1   v022
        BYTE           N06     Fs2
        BYTE   W06
        BYTE                   Bn1   v024
        BYTE           N06     Fs2
        BYTE   W06
        BYTE                   Fs2   v025
        BYTE           N06     Bn1
        BYTE   W12
        BYTE                   Fs2   v022
        BYTE           N06     Bn1
        BYTE   W06
        BYTE                   Fs2   v024
        BYTE           N06     Bn1
        BYTE   W06
        BYTE                   Bn1   v025
        BYTE           N06     Fs2
        BYTE   W12
        BYTE                   Fs2   v022
        BYTE           N06     Bn1
        BYTE   W06
        BYTE                   Bn1   v024
        BYTE           N06     Fs2
        BYTE   W06
        BYTE                   Bn1   v025
        BYTE           N06     Fs2
        BYTE   W12
        BYTE                   Bn1   v022
        BYTE           N06     Fs2
        BYTE   W06
        BYTE                   Fs2   v024
        BYTE           N06     Bn1
        BYTE   W06
        BYTE   PEND
// 040   ----------------------------------------
        BYTE                   As1   v025
        BYTE           N06     Fn2
        BYTE   W12
        BYTE                   As1   v022
        BYTE           N06     Fn2
        BYTE   W06
        BYTE                   As1   v024
        BYTE           N06     Fn2
        BYTE   W06
        BYTE                   Fn2   v025
        BYTE           N06     As1
        BYTE   W12
        BYTE                   Fn2   v022
        BYTE           N06     As1
        BYTE   W06
        BYTE                   Fn2   v024
        BYTE           N06     As1
        BYTE   W06
        BYTE                   As1   v025
        BYTE           N06     Fn2
        BYTE   W12
        BYTE                   Fn2   v022
        BYTE           N06     As1
        BYTE   W06
        BYTE                   As1   v024
        BYTE           N06     Fn2
        BYTE   W06
        BYTE                   As1   v025
        BYTE           N06     Fn2
        BYTE   W12
        BYTE                   As1   v022
        BYTE           N06     Fn2
        BYTE   W06
        BYTE                   As1   v024
        BYTE           N06     Fn2
        BYTE   W06
// 041   ----------------------------------------
        BYTE                   As2   v025
        BYTE           N06     Ds2
        BYTE   W12
        BYTE                   As2   v022
        BYTE           N06     Ds2
        BYTE   W06
        BYTE                   Ds2   v024
        BYTE           N06     As2
        BYTE   W06
        BYTE                   Ds2   v025
        BYTE           N06     As2
        BYTE   W12
        BYTE                   Ds2   v022
        BYTE           N06     As2
        BYTE   W06
        BYTE                   Ds2   v024
        BYTE           N06     As2
        BYTE   W06
        BYTE                   Ds2   v025
        BYTE           N06     As2
        BYTE   W12
        BYTE                   Ds2   v022
        BYTE           N06     As2
        BYTE   W06
        BYTE                   Ds2   v024
        BYTE           N06     As2
        BYTE   W06
        BYTE                   Ds2   v025
        BYTE           N06     As2
        BYTE   W12
        BYTE                   Ds2   v022
        BYTE           N06     As2
        BYTE   W06
        BYTE                   Ds2   v024
        BYTE           N06     As2
        BYTE   W06
// 042   ----------------------------------------
        BYTE   PATT
         POIN2  BeforeTheGallows_6_38
// 043   ----------------------------------------
        BYTE   PATT
         POIN2  BeforeTheGallows_6_39
// 044   ----------------------------------------
        BYTE   PATT
         POIN2  BeforeTheGallows_6_26
// 045   ----------------------------------------
BeforeTheGallows_6_45:
        BYTE           N96     Ds2   v028
        BYTE           N96     As1
        BYTE   W96
        BYTE   PEND
// 046   ----------------------------------------
BeforeTheGallows_6_46:
        BYTE           N96     Cs2   v028
        BYTE           N96     Fs2
        BYTE   W96
        BYTE   PEND
// 047   ----------------------------------------
        BYTE                   As1
        BYTE           N96     Ds2
        BYTE   W96
// 048   ----------------------------------------
BeforeTheGallows_6_48:
        BYTE           N96     Cs2   v028
        BYTE           N96     Gs1
        BYTE   W96
        BYTE   PEND
// 049   ----------------------------------------
        BYTE   PATT
         POIN2  BeforeTheGallows_6_45
// 050   ----------------------------------------
        BYTE   PATT
         POIN2  BeforeTheGallows_6_46
// 051   ----------------------------------------
        BYTE   PATT
         POIN2  BeforeTheGallows_6_45
// 052   ----------------------------------------
        BYTE   PATT
         POIN2  BeforeTheGallows_6_48
// 053   ----------------------------------------
        BYTE           N96     Ds1   v028
        BYTE           N96     As0
        BYTE   W96
// 054   ----------------------------------------
        BYTE                   Cs1
        BYTE           N96     Gs1
        BYTE   W96
// 055   ----------------------------------------
BeforeTheGallows_6_55:
        BYTE           N96     As1   v028
        BYTE           N96     Fs1
        BYTE   W96
        BYTE   PEND
// 056   ----------------------------------------
BeforeTheGallows_6_56:
        BYTE           N96     As1   v028
        BYTE           N96     Fn2
        BYTE   W96
        BYTE   PEND
// 057   ----------------------------------------
        BYTE                   As0
        BYTE           N96     Ds1
        BYTE   W96
// 058   ----------------------------------------
        BYTE                   Gs1
        BYTE           N96     Cs1
        BYTE   W96
// 059   ----------------------------------------
        BYTE   PATT
         POIN2  BeforeTheGallows_6_55
// 060   ----------------------------------------
        BYTE   PATT
         POIN2  BeforeTheGallows_6_56
// 061   ----------------------------------------
        BYTE           N12     Ds2   v029
        BYTE           N12     As1
        BYTE           N12     Ds1
        BYTE   W18
        BYTE           N06     As1   v028
        BYTE           N06     Ds1
        BYTE           N06     Ds2
        BYTE   W12
        BYTE                   Ds2   v029
        BYTE           N06     Ds1
        BYTE           N06     As1
        BYTE   W06
        BYTE           N12     Ds2
        BYTE           N12     Ds1
        BYTE           N12     As1
        BYTE   W12
        BYTE                   Ds2
        BYTE           N12     As1
        BYTE           N12     Ds1
        BYTE   W18
        BYTE           N06     Ds2   v028
        BYTE           N06     Ds1
        BYTE           N06     As1
        BYTE   W12
        BYTE                   Ds1   v029
        BYTE           N06     Ds2
        BYTE           N06     As1
        BYTE   W06
        BYTE           N12     Ds2
        BYTE           N12     Ds1
        BYTE           N12     As1
        BYTE   W12
// 062   ----------------------------------------
        BYTE                   Bn1
        BYTE           N12     Fs1
        BYTE           N12     Bn0
        BYTE   W18
        BYTE           N06     Bn1   v028
        BYTE           N06     Bn0
        BYTE           N06     Fs1
        BYTE   W12
        BYTE                   Bn0   v029
        BYTE           N06     Bn1
        BYTE           N06     Fs1
        BYTE   W06
        BYTE           N12     Bn1
        BYTE           N12     Bn0
        BYTE           N12     Fs1
        BYTE   W12
        BYTE                   Bn1
        BYTE           N12     Bn0
        BYTE           N12     Fs1
        BYTE   W18
        BYTE           N06     Fs1   v028
        BYTE           N06     Bn1
        BYTE           N06     Bn0
        BYTE   W12
        BYTE                   Bn1   v029
        BYTE           N06     Bn0
        BYTE           N06     Fs1
        BYTE   W06
        BYTE           N12     Bn0
        BYTE           N12     Fs1
        BYTE           N12     Bn1
        BYTE   W12
// 063   ----------------------------------------
        BYTE                   Fs2
        BYTE           N12     Cs2
        BYTE           N12     Fs1
        BYTE   W18
        BYTE           N06     Fs2   v028
        BYTE           N06     Fs1
        BYTE           N06     Cs2
        BYTE   W12
        BYTE                   Fs1   v029
        BYTE           N06     Fs2
        BYTE           N06     Cs2
        BYTE   W06
        BYTE           N12     Fs2
        BYTE           N12     Fs1
        BYTE           N12     Cs2
        BYTE   W12
        BYTE                   Fs2
        BYTE           N12     Fs1
        BYTE           N12     Cs2
        BYTE   W18
        BYTE           N06     Cs2   v028
        BYTE           N06     Fs2
        BYTE           N06     Fs1
        BYTE   W12
        BYTE                   Fs2   v029
        BYTE           N06     Fs1
        BYTE           N06     Cs2
        BYTE   W06
        BYTE           N12     Fs1
        BYTE           N12     Cs2
        BYTE           N12     Fs2
        BYTE   W12
// 064   ----------------------------------------
        BYTE                   Cs2
        BYTE           N12     Gs1
        BYTE           N12     Cs1
        BYTE   W18
        BYTE           N06     Cs2   v028
        BYTE           N06     Cs1
        BYTE           N06     Gs1
        BYTE   W12
        BYTE                   Cs1   v029
        BYTE           N06     Cs2
        BYTE           N06     Gs1
        BYTE   W06
        BYTE           N12     Cs2
        BYTE           N12     Cs1
        BYTE           N12     Gs1
        BYTE   W12
        BYTE                   Cs2
        BYTE           N12     Cs1
        BYTE           N12     Gs1
        BYTE   W18
        BYTE           N06     Gs1   v028
        BYTE           N06     Cs2
        BYTE           N06     Cs1
        BYTE   W12
        BYTE                   Cs2   v029
        BYTE           N06     Cs1
        BYTE           N06     Gs1
        BYTE   W06
        BYTE           N12     Cs1
        BYTE           N12     Gs1
        BYTE           N12     Cs2
        BYTE   W12
// 065   ----------------------------------------
        BYTE                   Ds2
        BYTE           N12     As1
        BYTE           N12     Ds1
        BYTE   W18
        BYTE           N06     Ds2   v028
        BYTE           N06     Ds1
        BYTE           N06     As1
        BYTE   W12
        BYTE                   Ds1   v029
        BYTE           N06     Ds2
        BYTE           N06     As1
        BYTE   W06
        BYTE           N12     Ds2
        BYTE           N12     Ds1
        BYTE           N12     As1
        BYTE   W12
        BYTE                   Ds2
        BYTE           N12     Ds1
        BYTE           N12     As1
        BYTE   W18
        BYTE           N06     As1   v028
        BYTE           N06     Ds2
        BYTE           N06     Ds1
        BYTE   W12
        BYTE                   Ds2   v029
        BYTE           N06     Ds1
        BYTE           N06     As1
        BYTE   W06
        BYTE           N12     Ds1
        BYTE           N12     As1
        BYTE           N12     Ds2
        BYTE   W12
// 066   ----------------------------------------
        BYTE                   Bn1
        BYTE           N12     Bn0
        BYTE           N12     Fs1
        BYTE   W18
        BYTE           N06     Bn0   v028
        BYTE           N06     Bn1
        BYTE           N06     Fs1
        BYTE   W12
        BYTE                   Bn0   v029
        BYTE           N06     Bn1
        BYTE           N06     Fs1
        BYTE   W06
        BYTE           N12     Bn0
        BYTE           N12     Bn1
        BYTE           N12     Fs1
        BYTE   W12
        BYTE                   Bn0
        BYTE           N12     Bn1
        BYTE           N12     Fs1
        BYTE   W18
        BYTE           N06     Fs1   v028
        BYTE           N06     Bn0
        BYTE           N06     Bn1
        BYTE   W12
        BYTE                   Bn0   v029
        BYTE           N06     Bn1
        BYTE           N06     Fs1
        BYTE   W06
        BYTE           N12
        BYTE           N12     Bn0
        BYTE           N12     Bn1
        BYTE   W12
// 067   ----------------------------------------
        BYTE                   Cs2
        BYTE           N12     Fs1
        BYTE           N12     Fs2
        BYTE   W18
        BYTE           N06     Cs2   v028
        BYTE           N06     Fs1
        BYTE           N06     Fs2
        BYTE   W12
        BYTE                   Fs1   v029
        BYTE           N06     Cs2
        BYTE           N06     Fs2
        BYTE   W06
        BYTE           N12     Cs2
        BYTE           N12     Fs1
        BYTE           N12     Fs2
        BYTE   W12
        BYTE                   Cs2
        BYTE           N12     Fs1
        BYTE           N12     Fs2
        BYTE   W18
        BYTE           N06     Fs1   v028
        BYTE           N06     Cs2
        BYTE           N06     Fs2
        BYTE   W12
        BYTE                   Fs1   v029
        BYTE           N06     Cs2
        BYTE           N06     Fs2
        BYTE   W06
        BYTE           N12
        BYTE           N12     Cs2
        BYTE           N12     Fs1
        BYTE   W12
// 068   ----------------------------------------
        BYTE           N96     Gs1
        BYTE           N72     Cs2
        BYTE           N72     Cs1
        BYTE   W72
        BYTE           N12     Cs2   v025
        BYTE           N12     Cs1
        BYTE   W12
        BYTE                   Cs1   v028
        BYTE           N12     Cs2
        BYTE   W12
// 069   ----------------------------------------
        BYTE           N96     As1   v029
        BYTE           N96     Fs1
        BYTE           N96     Ds1
        BYTE   W96
// 070   ----------------------------------------
BeforeTheGallows_6_70:
        BYTE           N96     Ds1   v029
        BYTE           N96     As1
        BYTE           N96     Fs1
        BYTE   W96
        BYTE   PEND
// 071   ----------------------------------------
        BYTE   PATT
         POIN2  BeforeTheGallows_6_70
// 072   ----------------------------------------
        BYTE           N48     Dn1   v028
        BYTE           N48     Fs1
        BYTE           N48     An1
        BYTE           N48     Cn2
        BYTE   W48
        BYTE                   Fs1
        BYTE           N48     En1
        BYTE           N48     As1
        BYTE           N48     Cs1
        BYTE   W48
// 073   ----------------------------------------
        BYTE           N96     Cn2
        BYTE           N96     Ds1
        BYTE           N96     Gn1
        BYTE   W96
// 074   ----------------------------------------
        BYTE                   Fn1
        BYTE           N96     Dn1
        BYTE           N96     As1
        BYTE   W96
// 075   ----------------------------------------
        BYTE                   Cn1
        BYTE           N96     Ds1
        BYTE           N96     Gs1
        BYTE   W96
// 076   ----------------------------------------
        BYTE                   Gn1
        BYTE           N96     Bn1
        BYTE           N96     Dn1
        BYTE   W96
// 077   ----------------------------------------
        BYTE   GoTo
         POIN2  BeforeTheGallows_6_LOOP
        BYTE   FINE

//****************** Track 7 (Midi-Chn.7) ******************//

BeforeTheGallows_7:
        BYTE   KEYSH   BeforeTheGallows_key+0
// 000   ----------------------------------------
        BYTE           VOICE   52
        BYTE           PAN     c_v-28
        BYTE           N96     Ds4   v036
        BYTE           N96     Ds3
        BYTE           VOL     127
        BYTE   W96
// 001   ----------------------------------------
        BYTE           N96     Fs4
        BYTE           N96     Fs3
        BYTE   W96
// 002   ----------------------------------------
        BYTE                   An3
        BYTE           N96     An4
        BYTE   W96
// 003   ----------------------------------------
        BYTE           N36     Cn5
        BYTE           N36     Ds4
        BYTE   W36
        BYTE                   Ds5
        BYTE           N36     Gn4
        BYTE   W36
        BYTE           N24     Fn5
        BYTE           N24     Gs4
        BYTE   W24
// 004   ----------------------------------------
        BYTE           N48     Ds5   v027
        BYTE           N48     Ds4
        BYTE   W48
        BYTE           N24     Ds5   v023
        BYTE           N24     Ds4
        BYTE   W24
        BYTE                   Ds5   v022
        BYTE           N24     Ds4
        BYTE   W24
// 005   ----------------------------------------
BeforeTheGallows_7_LOOP:
        BYTE           N36     Cn5   v022
        BYTE           N36     Ds4
        BYTE   W36
        BYTE           N12     Fn4
        BYTE           N12     Cn5
        BYTE   W24
        BYTE                   Cn5
        BYTE           N12     Fn4
        BYTE   W12
        BYTE           N24     Cn5
        BYTE           N24     Ds4
        BYTE   W24
// 006   ----------------------------------------
        BYTE           N12     Dn4
        BYTE           N12     As4
        BYTE   W18
        BYTE                   As4
        BYTE           N12     Dn4
        BYTE   W18
        BYTE                   As4
        BYTE           N12     Fn4
        BYTE   W12
        BYTE           N48     As4
        BYTE           N48     Dn4
        BYTE   W48
// 007   ----------------------------------------
        BYTE           N12     Cn4
        BYTE           N12     Gs4
        BYTE   W18
        BYTE                   Gs4
        BYTE           N12     Cn4
        BYTE   W18
        BYTE                   Gs4
        BYTE           N12     Ds4
        BYTE   W12
        BYTE           N48     Cn4
        BYTE           N48     Gs4
        BYTE   W48
// 008   ----------------------------------------
BeforeTheGallows_7_8:
        BYTE           N36     Bn3   v022
        BYTE           N36     Gn4
        BYTE   W36
        BYTE                   Cn4
        BYTE           N36     Gs4
        BYTE   W36
        BYTE           N24     Dn4
        BYTE           N24     Bn4
        BYTE   W24
        BYTE   PEND
// 009   ----------------------------------------
        BYTE           N36     Ds4
        BYTE           N36     Cn5
        BYTE   W36
        BYTE           N12
        BYTE           N12     Fn4
        BYTE   W24
        BYTE                   Cn5
        BYTE           N12     Fn4
        BYTE   W12
        BYTE           N24     Ds4
        BYTE           N24     Cn5
        BYTE   W24
// 010   ----------------------------------------
        BYTE           N12     Dn4
        BYTE           N12     As4
        BYTE   W18
        BYTE                   As4
        BYTE           N12     Dn4
        BYTE   W18
        BYTE                   Fn4
        BYTE           N12     As4
        BYTE   W12
        BYTE           N48
        BYTE           N48     Dn4
        BYTE   W48
// 011   ----------------------------------------
        BYTE           N12     Cn4
        BYTE           N12     Gs4
        BYTE   W18
        BYTE                   Cn4
        BYTE           N12     Gs4
        BYTE   W18
        BYTE                   Gs4
        BYTE           N12     Ds4
        BYTE   W12
        BYTE           N48     Gs4
        BYTE           N48     Cn4
        BYTE   W48
// 012   ----------------------------------------
        BYTE   PATT
         POIN2  BeforeTheGallows_7_8
// 013   ----------------------------------------
        BYTE           N96     Cn5   v022
        BYTE           N96     Cn4
        BYTE   W96
// 014   ----------------------------------------
        BYTE           N36     Ds5
        BYTE           N36     Ds4
        BYTE   W36
        BYTE                   Cn4
        BYTE           N36     Cn5
        BYTE   W36
        BYTE           N24     Ds4
        BYTE           N24     Ds5
        BYTE   W24
// 015   ----------------------------------------
        BYTE           N48     As3
        BYTE           N48     As4
        BYTE   W48
        BYTE                   Gn4
        BYTE           N48     Gn5
        BYTE   W48
// 016   ----------------------------------------
BeforeTheGallows_7_16:
        BYTE           N96     Fn4   v022
        BYTE           N96     Fn5
        BYTE   W96
        BYTE   PEND
// 017   ----------------------------------------
        BYTE                   Cn4
        BYTE           N96     Cn5
        BYTE   W96
// 018   ----------------------------------------
        BYTE           N36     Ds4
        BYTE           N36     Ds5
        BYTE   W36
        BYTE                   Cn5
        BYTE           N36     Cn4
        BYTE   W36
        BYTE           N24     Ds4
        BYTE           N24     Ds5
        BYTE   W24
// 019   ----------------------------------------
        BYTE           N48     As3
        BYTE           N48     As4
        BYTE   W48
        BYTE                   Gn5
        BYTE           N48     Gn4
        BYTE   W48
// 020   ----------------------------------------
        BYTE   PATT
         POIN2  BeforeTheGallows_7_16
// 021   ----------------------------------------
BeforeTheGallows_7_21:
        BYTE           N36     Cn5   v022
        BYTE           N36     Ds4
        BYTE   W36
        BYTE           N12     Cn5
        BYTE           N12     Fn4
        BYTE   W24
        BYTE                   Cn5
        BYTE           N12     Fn4
        BYTE   W12
        BYTE           N24     Ds4
        BYTE           N24     Cn5
        BYTE   W24
        BYTE   PEND
// 022   ----------------------------------------
BeforeTheGallows_7_22:
        BYTE           N12     Dn4   v022
        BYTE           N12     As4
        BYTE   W18
        BYTE                   Dn4
        BYTE           N12     As4
        BYTE   W18
        BYTE                   As4
        BYTE           N12     Fn4
        BYTE   W12
        BYTE           N48     As4
        BYTE           N48     Dn4
        BYTE   W48
        BYTE   PEND
// 023   ----------------------------------------
BeforeTheGallows_7_23:
        BYTE           N12     Cn4   v022
        BYTE           N12     Gs4
        BYTE   W18
        BYTE                   Cn4
        BYTE           N12     Gs4
        BYTE   W18
        BYTE                   Ds4
        BYTE           N12     Gs4
        BYTE   W12
        BYTE           N48     Cn4
        BYTE           N48     Gs4
        BYTE   W48
        BYTE   PEND
// 024   ----------------------------------------
        BYTE           N36     Gn4
        BYTE           N36     Bn3
        BYTE   W36
        BYTE                   Gs4
        BYTE           N36     Cn4
        BYTE   W36
        BYTE           N24     Bn4
        BYTE           N24     Dn4
        BYTE   W24
// 025   ----------------------------------------
        BYTE   PATT
         POIN2  BeforeTheGallows_7_21
// 026   ----------------------------------------
        BYTE   PATT
         POIN2  BeforeTheGallows_7_22
// 027   ----------------------------------------
        BYTE   PATT
         POIN2  BeforeTheGallows_7_23
// 028   ----------------------------------------
        BYTE           N48     Cs4   v022
        BYTE           N48     Fs4
        BYTE   W48
        BYTE                   Cn4
        BYTE           N48     Gs4
        BYTE   W48
// 029   ----------------------------------------
        BYTE           N96     Fs3   v036
        BYTE           N72     Ds4
        BYTE   W72
        BYTE           N24     Bn3
        BYTE   W24
// 030   ----------------------------------------
        BYTE           N96     As3
        BYTE           N72     Dn4
        BYTE   W72
        BYTE           N12     Ds4
        BYTE   W12
        BYTE                   Fn4
        BYTE   W12
// 031   ----------------------------------------
BeforeTheGallows_7_31:
        BYTE           N96     Fs3   v036
        BYTE           N72     Ds4
        BYTE   W72
        BYTE           N24     Dn4
        BYTE   W24
        BYTE   PEND
// 032   ----------------------------------------
        BYTE           N96
        BYTE           N96     Fn4
        BYTE   W96
// 033   ----------------------------------------
        BYTE           N72     Ds4
        BYTE           N96     Fs3
        BYTE   W72
        BYTE           N24     Bn3
        BYTE   W24
// 034   ----------------------------------------
        BYTE           N72     Dn4
        BYTE           N96     As3
        BYTE   W72
        BYTE           N12     Ds4
        BYTE   W12
        BYTE                   Fn4
        BYTE   W12
// 035   ----------------------------------------
        BYTE   PATT
         POIN2  BeforeTheGallows_7_31
// 036   ----------------------------------------
        BYTE           N24     Dn4   v036
        BYTE           N24     As3
        BYTE   W24
        BYTE           N36     Dn4
        BYTE           N36     Gs3
        BYTE   W36
        BYTE                   Fs3
        BYTE           N36     Bn3
        BYTE   W36
// 037   ----------------------------------------
BeforeTheGallows_7_37:
        BYTE           N36     Fs4   v022
        BYTE           N36     Ds5
        BYTE   W36
        BYTE           N12
        BYTE           N12     Gs4
        BYTE   W24
        BYTE                   Gs4
        BYTE           N12     Ds5
        BYTE   W12
        BYTE           N24     Fs4
        BYTE           N24     Ds5
        BYTE   W24
        BYTE   PEND
// 038   ----------------------------------------
BeforeTheGallows_7_38:
        BYTE           N12     Fn4   v022
        BYTE           N12     Cs5
        BYTE   W18
        BYTE                   Cs5
        BYTE           N12     Fn4
        BYTE   W18
        BYTE                   Gs4
        BYTE           N12     Cs5
        BYTE   W12
        BYTE           N48
        BYTE           N48     Fn4
        BYTE   W48
        BYTE   PEND
// 039   ----------------------------------------
        BYTE           N12     Bn4
        BYTE           N12     Ds4
        BYTE   W18
        BYTE                   Ds4
        BYTE           N12     Bn4
        BYTE   W18
        BYTE                   Fs4
        BYTE           N12     Bn4
        BYTE   W12
        BYTE           N48     Ds4
        BYTE           N48     Bn4
        BYTE   W48
// 040   ----------------------------------------
        BYTE           N36     As4
        BYTE           N36     Dn4
        BYTE   W36
        BYTE                   Ds4
        BYTE           N36     Bn4
        BYTE   W36
        BYTE           N24     Dn5
        BYTE           N24     Fn4
        BYTE   W24
// 041   ----------------------------------------
        BYTE           N36     Ds5
        BYTE           N36     Fs4
        BYTE   W36
        BYTE           N12     Gs4
        BYTE           N12     Ds5
        BYTE   W24
        BYTE                   Gs4
        BYTE           N12     Ds5
        BYTE   W12
        BYTE           N24
        BYTE           N24     Fs4
        BYTE   W24
// 042   ----------------------------------------
        BYTE   PATT
         POIN2  BeforeTheGallows_7_38
// 043   ----------------------------------------
        BYTE           N12     Ds4   v022
        BYTE           N12     Bn4
        BYTE   W18
        BYTE                   Ds4
        BYTE           N12     Bn4
        BYTE   W18
        BYTE                   Bn4
        BYTE           N12     Fs4
        BYTE   W12
        BYTE           N48     Bn4
        BYTE           N48     Ds4
        BYTE   W48
// 044   ----------------------------------------
        BYTE           N36     As4
        BYTE           N36     Dn4
        BYTE   W36
        BYTE                   Bn4
        BYTE           N36     Ds4
        BYTE   W36
        BYTE           N24     Fn4
        BYTE           N24     Dn5
        BYTE   W24
// 045   ----------------------------------------
BeforeTheGallows_7_45:
        BYTE           N96     Fs4   v023
        BYTE           N96     Ds5
        BYTE   W96
        BYTE   PEND
// 046   ----------------------------------------
        BYTE                   An4
        BYTE           N96     Fs5
        BYTE   W96
// 047   ----------------------------------------
BeforeTheGallows_7_47:
        BYTE           N96     Ds5   v023
        BYTE           N96     Bn4
        BYTE   W96
        BYTE   PEND
// 048   ----------------------------------------
        BYTE                   Fn4
        BYTE           N96     Cs5
        BYTE   W96
// 049   ----------------------------------------
        BYTE   PATT
         POIN2  BeforeTheGallows_7_45
// 050   ----------------------------------------
        BYTE           N96     Fs5   v023
        BYTE           N96     An4
        BYTE   W96
// 051   ----------------------------------------
        BYTE   PATT
         POIN2  BeforeTheGallows_7_47
// 052   ----------------------------------------
        BYTE           N96     Cs5   v023
        BYTE           N96     Fn4
        BYTE   W96
// 053   ----------------------------------------
        BYTE           N36     Fs3   v022
        BYTE           N36     Ds4
        BYTE   W36
        BYTE           N12
        BYTE           N12     Gs3
        BYTE   W24
        BYTE                   Gs3
        BYTE           N12     Ds4
        BYTE   W12
        BYTE           N24     Fs3
        BYTE           N24     Ds4
        BYTE   W24
// 054   ----------------------------------------
        BYTE           N12     Fn3
        BYTE           N12     Cs4
        BYTE   W18
        BYTE                   Cs4
        BYTE           N12     Fn3
        BYTE   W18
        BYTE                   Gs3
        BYTE           N12     Cs4
        BYTE   W12
        BYTE           N48     Fn3
        BYTE           N48     Cs4
        BYTE   W48
// 055   ----------------------------------------
        BYTE           N12     Bn3
        BYTE           N12     Ds3
        BYTE   W18
        BYTE                   Bn3
        BYTE           N12     Ds3
        BYTE   W18
        BYTE                   Fs3
        BYTE           N12     Bn3
        BYTE   W12
        BYTE           N48     Ds3
        BYTE           N48     Bn3
        BYTE   W48
// 056   ----------------------------------------
        BYTE           N36     Dn3
        BYTE           N36     As3
        BYTE   W36
        BYTE                   Bn3
        BYTE           N36     Ds3
        BYTE   W36
        BYTE           N24     Fn3
        BYTE           N24     Dn4
        BYTE   W24
// 057   ----------------------------------------
        BYTE   PATT
         POIN2  BeforeTheGallows_7_37
// 058   ----------------------------------------
        BYTE           N12     Fn4   v022
        BYTE           N12     Cs5
        BYTE   W18
        BYTE                   Cs5
        BYTE           N12     Fn4
        BYTE   W18
        BYTE                   Gs4
        BYTE           N12     Cs5
        BYTE   W12
        BYTE           N48     Fn4
        BYTE           N48     Cs5
        BYTE   W48
// 059   ----------------------------------------
        BYTE           N12     Bn4
        BYTE           N12     Ds4
        BYTE   W18
        BYTE                   Bn4
        BYTE           N12     Ds4
        BYTE   W18
        BYTE                   Fs4
        BYTE           N12     Bn4
        BYTE   W12
        BYTE           N48     Ds4
        BYTE           N48     Bn4
        BYTE   W48
// 060   ----------------------------------------
        BYTE           N36     Dn4
        BYTE           N36     As4
        BYTE   W36
        BYTE                   Bn4
        BYTE           N36     Ds4
        BYTE   W36
        BYTE           N24     Fn4
        BYTE           N24     Dn5
        BYTE   W24
// 061   ----------------------------------------
        BYTE   W96
// 062   ----------------------------------------
        BYTE   W96
// 063   ----------------------------------------
        BYTE   W96
// 064   ----------------------------------------
        BYTE   W96
// 065   ----------------------------------------
        BYTE   W96
// 066   ----------------------------------------
        BYTE   W96
// 067   ----------------------------------------
        BYTE   W96
// 068   ----------------------------------------
        BYTE   W96
// 069   ----------------------------------------
        BYTE   W96
// 070   ----------------------------------------
        BYTE   W96
// 071   ----------------------------------------
        BYTE   W96
// 072   ----------------------------------------
        BYTE   W96
// 073   ----------------------------------------
        BYTE   W96
// 074   ----------------------------------------
        BYTE   W96
// 075   ----------------------------------------
        BYTE   W96
// 076   ----------------------------------------
        BYTE   W96
// 077   ----------------------------------------
        BYTE   GoTo
         POIN2  BeforeTheGallows_7_LOOP
        BYTE   FINE

//****************** Track 8 (Midi-Chn.8) ******************//

BeforeTheGallows_8:
        BYTE   KEYSH   BeforeTheGallows_key+0
// 000   ----------------------------------------
        BYTE           VOICE   124
        BYTE           N96     Cs2   v044
        BYTE           VOL     127
        BYTE   W96
// 001   ----------------------------------------
        BYTE           N96     Cs2   v038
        BYTE   W96
// 002   ----------------------------------------
        BYTE                   Cs2   v035
        BYTE   W96
// 003   ----------------------------------------
        BYTE                   Cs2   v031
        BYTE   W96
// 004   ----------------------------------------
        BYTE           N12     Cn1   v025
        BYTE           N12     Dn1
        BYTE   W12
        BYTE                   Cn1   v028
        BYTE           N12     Dn1
        BYTE   W12
        BYTE                   Cn1   v029
        BYTE           N12     Dn1
        BYTE   W12
        BYTE                   Cn1   v031
        BYTE           N12     Dn1
        BYTE   W12
        BYTE                   Cn1   v032
        BYTE           N12     Dn1
        BYTE   W12
        BYTE                   Cn1   v035
        BYTE           N12     Dn1
        BYTE   W12
        BYTE           N06     Dn1   v038
        BYTE           N06     Cn1
        BYTE   W06
        BYTE                   Gn1   v044
        BYTE           N06     Cn1   v038
        BYTE   W06
        BYTE                   Gn1   v044
        BYTE           N06     Cn1   v038
        BYTE   W06
        BYTE                   Fn1   v044
        BYTE           N06     Cn1   v038
        BYTE   W06
// 005   ----------------------------------------
BeforeTheGallows_8_LOOP:
        BYTE           N12     Bn0   v032
        BYTE           N24     Cs2   v024
        BYTE   W12
        BYTE           N12     Cn1   v031
        BYTE   W12
        BYTE                   Bn0   v032
        BYTE           N24     Dn1   v029
        BYTE   W12
        BYTE           N12     Cn1   v031
        BYTE   W12
        BYTE                   Bn0   v032
        BYTE           N24     Cs2   v024
        BYTE   W12
        BYTE           N12     Cn1   v031
        BYTE   W12
        BYTE                   Bn0   v032
        BYTE           N24     Dn1   v029
        BYTE   W12
        BYTE           N12     Cn1   v031
        BYTE   W12
// 006   ----------------------------------------
        BYTE           N24     Cs2   v024
        BYTE           N12     Bn0   v032
        BYTE   W12
        BYTE                   Cn1   v031
        BYTE   W12
        BYTE                   Bn0   v032
        BYTE           N18     Dn1   v029
        BYTE   W12
        BYTE           N06     Cn1   v031
        BYTE   W06
        BYTE                   Dn1   v029
        BYTE   W06
        BYTE           N24     Cs2   v024
        BYTE           N12     Bn0   v032
        BYTE   W12
        BYTE                   Cn1   v031
        BYTE   W12
        BYTE                   Bn0   v032
        BYTE           N24     Dn1   v031
        BYTE   W12
        BYTE           N12     Cn1
        BYTE           N12     As1   v032
        BYTE   W12
// 007   ----------------------------------------
BeforeTheGallows_8_7:
        BYTE           N24     Cs2   v024
        BYTE           N12     Bn0   v032
        BYTE   W12
        BYTE                   Cn1   v031
        BYTE   W12
        BYTE                   Bn0   v032
        BYTE           N24     Dn1   v031
        BYTE   W12
        BYTE           N12     Cn1
        BYTE   W12
        BYTE           N24     Cs2   v024
        BYTE           N12     Bn0   v032
        BYTE   W12
        BYTE                   Cn1   v031
        BYTE   W12
        BYTE                   Bn0   v032
        BYTE           N24     Dn1   v031
        BYTE   W12
        BYTE           N12     Cn1
        BYTE   W12
        BYTE   PEND
// 008   ----------------------------------------
        BYTE                   Bn0   v032
        BYTE           N24     Cs2   v024
        BYTE   W12
        BYTE           N12     Cn1   v031
        BYTE   W12
        BYTE           N18     Dn1
        BYTE           N12     Bn0   v032
        BYTE   W12
        BYTE           N06     Cn1   v031
        BYTE   W06
        BYTE                   Dn1   v029
        BYTE   W06
        BYTE           N12     Bn0   v032
        BYTE           N24     Cs2   v024
        BYTE   W12
        BYTE           N12     Cn1   v031
        BYTE   W12
        BYTE           N06     Dn1
        BYTE           N06     Bn0   v032
        BYTE   W06
        BYTE                   Cn1   v031
        BYTE   W03
        BYTE                   Dn1   v029
        BYTE   W03
        BYTE                   Bn0   v035
        BYTE   W06
        BYTE                   Dn1   v029
        BYTE           N06     Cn1   v031
        BYTE   W06
// 009   ----------------------------------------
        BYTE   PATT
         POIN2  BeforeTheGallows_8_7
// 010   ----------------------------------------
BeforeTheGallows_8_10:
        BYTE           N12     Bn0   v032
        BYTE           N24     Cs2   v024
        BYTE   W12
        BYTE           N12     Cn1   v031
        BYTE   W12
        BYTE           N18     Dn1
        BYTE           N12     Bn0   v032
        BYTE   W12
        BYTE           N06     Cn1   v031
        BYTE   W06
        BYTE                   Dn1   v029
        BYTE   W06
        BYTE           N12     Bn0   v032
        BYTE           N24     Cs2   v024
        BYTE   W12
        BYTE           N12     Cn1   v031
        BYTE   W12
        BYTE           N24     Dn1
        BYTE           N12     Bn0   v032
        BYTE   W12
        BYTE                   As1
        BYTE           N12     Cn1   v031
        BYTE   W12
        BYTE   PEND
// 011   ----------------------------------------
BeforeTheGallows_8_11:
        BYTE           N12     Bn0   v032
        BYTE           N24     Cs2   v024
        BYTE   W12
        BYTE           N12     Cn1   v031
        BYTE   W12
        BYTE                   Bn0   v032
        BYTE           N24     Dn1   v031
        BYTE   W12
        BYTE           N12     Cn1
        BYTE   W12
        BYTE                   Bn0   v032
        BYTE           N24     Cs2   v024
        BYTE   W12
        BYTE           N12     Cn1   v031
        BYTE   W12
        BYTE                   Bn0   v032
        BYTE           N24     Dn1   v031
        BYTE   W12
        BYTE           N12     Cn1
        BYTE   W12
        BYTE   PEND
// 012   ----------------------------------------
        BYTE           N24     Cs2   v024
        BYTE           N12     Bn0   v032
        BYTE   W12
        BYTE                   Cn1   v031
        BYTE   W12
        BYTE                   Bn0   v032
        BYTE           N18     Dn1   v031
        BYTE   W12
        BYTE           N06     Cn1
        BYTE   W06
        BYTE                   Dn1   v029
        BYTE   W06
        BYTE           N12     Gn1   v044
        BYTE   W18
        BYTE                   Fn1
        BYTE   W18
        BYTE                   En1   v036
        BYTE   W12
// 013   ----------------------------------------
        BYTE           N24     Dn1   v032
        BYTE           N12     Gs1   v038
        BYTE   W12
        BYTE           N06     Bn0
        BYTE           N12     Gs1   v031
        BYTE   W06
        BYTE           N06     Cn1   v038
        BYTE   W06
        BYTE           N24     Dn1   v029
        BYTE           N12     Gs1   v032
        BYTE   W12
        BYTE           N06     Bn0   v038
        BYTE           N12     Gs1   v031
        BYTE   W06
        BYTE           N06     Cn1   v038
        BYTE   W06
        BYTE           N24     Dn1   v031
        BYTE           N12     Gs1   v032
        BYTE   W12
        BYTE           N06     Bn0   v038
        BYTE           N12     Gs1   v031
        BYTE   W06
        BYTE           N06     Cn1   v038
        BYTE   W06
        BYTE           N12     Gs1   v032
        BYTE           N24     Dn1   v029
        BYTE   W12
        BYTE           N06     Bn0   v038
        BYTE           N12     Gs1   v031
        BYTE   W06
        BYTE           N06     Cn1   v038
        BYTE   W06
// 014   ----------------------------------------
        BYTE           N24     Dn1   v032
        BYTE           N12     Gs1   v038
        BYTE   W12
        BYTE           N06     Bn0
        BYTE           N12     Gs1   v031
        BYTE   W06
        BYTE           N06     Cn1   v038
        BYTE   W06
        BYTE           N12     Gs1   v032
        BYTE           N24     Dn1   v029
        BYTE   W12
        BYTE           N06     Bn0   v038
        BYTE           N06     Gs1   v031
        BYTE   W06
        BYTE                   Cn1   v038
        BYTE           N06     Gs1   v031
        BYTE   W06
        BYTE           N12     Gs1   v032
        BYTE           N24     Dn1   v031
        BYTE   W12
        BYTE           N12     Gs1
        BYTE           N06     Bn0   v038
        BYTE   W06
        BYTE                   Cn1
        BYTE   W06
        BYTE           N12     Gs1   v032
        BYTE           N18     Dn1   v029
        BYTE   W12
        BYTE           N06     Bn0   v038
        BYTE           N12     Gs1   v031
        BYTE   W06
        BYTE           N06     En1   v036
        BYTE   W06
// 015   ----------------------------------------
BeforeTheGallows_8_15:
        BYTE           N12     Gs1   v038
        BYTE           N24     Dn1   v032
        BYTE   W12
        BYTE           N06     Bn0   v038
        BYTE           N12     Gs1   v031
        BYTE   W06
        BYTE           N06     Cn1   v038
        BYTE   W06
        BYTE           N24     Dn1   v029
        BYTE           N12     Gs1   v032
        BYTE   W12
        BYTE                   Gs1   v031
        BYTE           N06     Bn0   v038
        BYTE   W06
        BYTE                   Cn1
        BYTE   W06
        BYTE           N12     Gs1   v032
        BYTE           N24     Dn1   v031
        BYTE   W12
        BYTE           N06     Bn0   v038
        BYTE           N12     Gs1   v031
        BYTE   W06
        BYTE           N06     Cn1   v038
        BYTE   W06
        BYTE           N12     Gs1   v032
        BYTE           N24     Dn1   v029
        BYTE   W12
        BYTE           N06     Bn0   v038
        BYTE           N12     Gs1   v031
        BYTE   W06
        BYTE           N06     Cn1   v038
        BYTE   W06
        BYTE   PEND
// 016   ----------------------------------------
        BYTE           N12     Gs1
        BYTE           N24     Dn1   v032
        BYTE   W12
        BYTE           N12     Gs1   v031
        BYTE           N06     Bn0   v038
        BYTE   W06
        BYTE                   Cn1
        BYTE   W06
        BYTE           N12     Gs1   v032
        BYTE           N24     Dn1   v029
        BYTE   W12
        BYTE           N06     Bn0   v038
        BYTE           N06     Gs1   v031
        BYTE   W06
        BYTE                   Cn1   v038
        BYTE           N06     Gs1   v031
        BYTE   W06
        BYTE           N12     En1
        BYTE           N12     Bn0   v032
        BYTE   W18
        BYTE                   En1   v029
        BYTE           N12     Bn0   v031
        BYTE   W12
        BYTE           N06     En1
        BYTE           N06     Cn1   v032
        BYTE   W06
        BYTE           N12     En1
        BYTE           N12     Bn0   v035
        BYTE   W12
// 017   ----------------------------------------
        BYTE   PATT
         POIN2  BeforeTheGallows_8_15
// 018   ----------------------------------------
        BYTE           N12     Gs1   v038
        BYTE           N24     Dn1   v032
        BYTE   W12
        BYTE           N12     Gs1   v031
        BYTE           N06     Bn0   v038
        BYTE   W06
        BYTE                   Cn1
        BYTE   W06
        BYTE           N12     Gs1   v032
        BYTE           N24     Dn1   v029
        BYTE   W12
        BYTE           N06     Bn0   v038
        BYTE           N06     Gs1   v031
        BYTE   W06
        BYTE                   Cn1   v038
        BYTE           N06     Gs1   v031
        BYTE   W06
        BYTE           N12     Gs1   v032
        BYTE           N24     Dn1   v031
        BYTE   W12
        BYTE           N12     Gs1
        BYTE           N06     Bn0   v038
        BYTE   W06
        BYTE                   Cn1
        BYTE   W06
        BYTE           N12     Gs1   v032
        BYTE           N18     Dn1   v029
        BYTE   W12
        BYTE           N12     Gs1   v031
        BYTE           N06     Bn0   v038
        BYTE   W06
        BYTE                   En1   v036
        BYTE   W06
// 019   ----------------------------------------
        BYTE           N12     Gs1   v038
        BYTE           N24     Dn1   v032
        BYTE   W12
        BYTE           N12     Gs1   v031
        BYTE           N06     Bn0   v038
        BYTE   W06
        BYTE                   Cn1
        BYTE   W06
        BYTE           N24     Dn1   v029
        BYTE           N12     Gs1   v032
        BYTE   W12
        BYTE           N06     Bn0   v038
        BYTE           N12     Gs1   v031
        BYTE   W06
        BYTE           N06     Cn1   v038
        BYTE   W06
        BYTE           N24     Dn1   v031
        BYTE           N12     Gs1   v032
        BYTE   W12
        BYTE           N06     Bn0   v038
        BYTE           N12     Gs1   v031
        BYTE   W06
        BYTE           N06     Cn1   v038
        BYTE   W06
        BYTE           N24     Dn1   v029
        BYTE           N12     Gs1   v032
        BYTE   W12
        BYTE           N06     Bn0   v038
        BYTE           N12     Gs1   v031
        BYTE   W06
        BYTE           N06     Cn1   v038
        BYTE   W06
// 020   ----------------------------------------
        BYTE           N12     Gs1
        BYTE           N24     Dn1   v032
        BYTE   W12
        BYTE           N12     Gs1   v031
        BYTE           N06     Bn0   v038
        BYTE   W06
        BYTE                   Cn1
        BYTE   W06
        BYTE           N12     Gs1   v032
        BYTE           N24     Dn1   v029
        BYTE   W12
        BYTE           N06     Bn0   v038
        BYTE           N06     Gs1   v031
        BYTE   W06
        BYTE                   Cn1   v038
        BYTE           N06     Gs1   v031
        BYTE   W06
        BYTE           N12     Ds1
        BYTE   W12
        BYTE           N06     Bn0   v038
        BYTE   W06
        BYTE           N12     Ds1   v031
        BYTE           N06     Cn1   v038
        BYTE   W18
        BYTE                   Ds1   v031
        BYTE           N06     Bn0   v038
        BYTE   W06
        BYTE                   Ds1   v031
        BYTE           N06     Cn1   v038
        BYTE   W06
// 021   ----------------------------------------
        BYTE   PATT
         POIN2  BeforeTheGallows_8_7
// 022   ----------------------------------------
        BYTE   PATT
         POIN2  BeforeTheGallows_8_10
// 023   ----------------------------------------
        BYTE   PATT
         POIN2  BeforeTheGallows_8_11
// 024   ----------------------------------------
        BYTE           N24     Cs2   v024
        BYTE           N12     Bn0   v032
        BYTE   W12
        BYTE                   Cn1   v031
        BYTE   W12
        BYTE                   Bn0   v032
        BYTE           N18     Dn1   v031
        BYTE   W12
        BYTE           N06     Cn1
        BYTE   W06
        BYTE                   Dn1   v029
        BYTE   W06
        BYTE           N24     Cs2   v024
        BYTE           N12     Bn0   v032
        BYTE   W12
        BYTE                   Cn1   v031
        BYTE   W12
        BYTE           N06     Dn1
        BYTE           N06     Bn0   v032
        BYTE   W06
        BYTE                   Cn1   v031
        BYTE   W03
        BYTE                   Dn1   v029
        BYTE   W03
        BYTE                   Bn0   v035
        BYTE   W06
        BYTE                   Dn1   v029
        BYTE           N06     Cn1   v031
        BYTE   W06
// 025   ----------------------------------------
BeforeTheGallows_8_25:
        BYTE           N24     Cs2   v024
        BYTE           N12     Bn0   v032
        BYTE   W12
        BYTE                   Cn1   v031
        BYTE   W12
        BYTE           N24     Dn1
        BYTE           N12     Bn0   v032
        BYTE   W12
        BYTE                   Cn1   v031
        BYTE   W12
        BYTE           N24     Cs2   v024
        BYTE           N12     Bn0   v032
        BYTE   W12
        BYTE                   Cn1   v031
        BYTE   W12
        BYTE           N24     Dn1
        BYTE           N12     Bn0   v032
        BYTE   W12
        BYTE                   Cn1   v031
        BYTE   W12
        BYTE   PEND
// 026   ----------------------------------------
        BYTE   PATT
         POIN2  BeforeTheGallows_8_10
// 027   ----------------------------------------
        BYTE           N12     Dn1   v032
        BYTE   W12
        BYTE                   En1   v031
        BYTE   W12
        BYTE                   Dn1   v032
        BYTE   W12
        BYTE                   En1   v031
        BYTE   W12
        BYTE                   Dn1   v032
        BYTE   W12
        BYTE                   En1   v031
        BYTE   W12
        BYTE                   Dn1   v032
        BYTE   W12
        BYTE                   En1   v031
        BYTE   W12
// 028   ----------------------------------------
        BYTE                   Dn1   v032
        BYTE   W12
        BYTE                   En1   v031
        BYTE   W12
        BYTE                   Dn1   v032
        BYTE   W12
        BYTE           N06     En1   v031
        BYTE   W12
        BYTE           N12     Gn1   v044
        BYTE   W18
        BYTE                   Fn1
        BYTE   W18
        BYTE                   En1   v036
        BYTE   W12
// 029   ----------------------------------------
        BYTE           N96     Cs2   v035
        BYTE           N12     Bn0   v044
        BYTE   W12
        BYTE                   Cn1   v036
        BYTE   W12
        BYTE                   Bn0   v038
        BYTE           N24     En1   v031
        BYTE   W12
        BYTE           N12     Cn1   v036
        BYTE   W12
        BYTE                   Bn0   v038
        BYTE   W12
        BYTE                   Cn1   v036
        BYTE   W12
        BYTE                   Bn0   v038
        BYTE           N24     En1   v031
        BYTE   W12
        BYTE           N12     Cn1   v036
        BYTE   W12
// 030   ----------------------------------------
BeforeTheGallows_8_30:
        BYTE           N12     Bn0   v044
        BYTE   W12
        BYTE                   Cn1   v036
        BYTE   W12
        BYTE                   Bn0   v038
        BYTE           N24     En1   v031
        BYTE   W12
        BYTE           N06     Cn1   v036
        BYTE   W06
        BYTE                   Bn0
        BYTE   W06
        BYTE           N12     Bn0   v038
        BYTE   W12
        BYTE                   Cn1   v036
        BYTE   W12
        BYTE                   Bn0   v038
        BYTE           N24     En1   v031
        BYTE   W12
        BYTE           N12     Cn1   v036
        BYTE   W12
        BYTE   PEND
// 031   ----------------------------------------
BeforeTheGallows_8_31:
        BYTE           N12     Bn0   v044
        BYTE   W12
        BYTE                   Cn1   v036
        BYTE   W12
        BYTE                   Bn0   v038
        BYTE           N24     En1   v031
        BYTE   W12
        BYTE           N12     Cn1   v036
        BYTE   W12
        BYTE                   Bn0   v038
        BYTE   W12
        BYTE                   Cn1   v036
        BYTE   W12
        BYTE                   Bn0   v038
        BYTE           N24     En1   v031
        BYTE   W12
        BYTE           N12     Cn1   v036
        BYTE   W12
        BYTE   PEND
// 032   ----------------------------------------
        BYTE                   Bn0   v044
        BYTE   W12
        BYTE                   Cn1   v036
        BYTE   W12
        BYTE                   Bn0   v038
        BYTE           N24     En1   v031
        BYTE   W12
        BYTE           N06     Cn1   v036
        BYTE   W06
        BYTE                   Bn0
        BYTE   W06
        BYTE           N12     Ds1   v031
        BYTE   W12
        BYTE                   Ds1   v032
        BYTE   W12
        BYTE                   Ds1   v035
        BYTE   W12
        BYTE                   Ds1   v036
        BYTE   W12
// 033   ----------------------------------------
        BYTE                   Bn0   v044
        BYTE   W12
        BYTE                   Cn1   v036
        BYTE   W12
        BYTE           N24     En1   v031
        BYTE           N12     Bn0   v038
        BYTE   W12
        BYTE                   Cn1   v036
        BYTE   W12
        BYTE                   Bn0   v038
        BYTE   W12
        BYTE                   Cn1   v036
        BYTE   W12
        BYTE                   Bn0   v038
        BYTE           N24     En1   v031
        BYTE   W12
        BYTE           N12     Cn1   v036
        BYTE   W12
// 034   ----------------------------------------
        BYTE   PATT
         POIN2  BeforeTheGallows_8_30
// 035   ----------------------------------------
        BYTE   PATT
         POIN2  BeforeTheGallows_8_31
// 036   ----------------------------------------
        BYTE           N12     Cn1   v025
        BYTE           N12     Dn1
        BYTE   W12
        BYTE                   Dn1   v028
        BYTE           N12     Cn1
        BYTE   W12
        BYTE                   Dn1   v029
        BYTE           N12     Cn1
        BYTE   W12
        BYTE                   Cn1   v031
        BYTE           N12     Dn1
        BYTE   W12
        BYTE                   Dn1   v032
        BYTE           N12     Cn1
        BYTE   W12
        BYTE                   Dn1   v035
        BYTE           N12     Cn1
        BYTE   W12
        BYTE           N06     Cn1   v038
        BYTE           N06     Dn1
        BYTE   W06
        BYTE                   Cn1
        BYTE           N06     Gn1   v044
        BYTE   W06
        BYTE                   Gn1
        BYTE           N06     Cn1   v038
        BYTE   W06
        BYTE                   Fn1   v044
        BYTE           N06     Cn1   v038
        BYTE   W06
// 037   ----------------------------------------
        BYTE           N24     Cs2   v024
        BYTE           N12     Bn0   v032
        BYTE   W12
        BYTE                   Cn1   v031
        BYTE   W12
        BYTE           N24     Dn1   v029
        BYTE           N12     Bn0   v032
        BYTE   W12
        BYTE                   Cn1   v031
        BYTE   W12
        BYTE           N24     Cs2   v024
        BYTE           N12     Bn0   v032
        BYTE   W12
        BYTE                   Cn1   v031
        BYTE   W12
        BYTE           N24     Dn1   v029
        BYTE           N12     Bn0   v032
        BYTE   W12
        BYTE                   Cn1   v031
        BYTE   W12
// 038   ----------------------------------------
        BYTE           N24     Cs2   v024
        BYTE           N12     Bn0   v032
        BYTE   W12
        BYTE                   Cn1   v031
        BYTE   W12
        BYTE           N18     Dn1   v029
        BYTE           N12     Bn0   v032
        BYTE   W12
        BYTE           N06     Cn1   v031
        BYTE   W06
        BYTE                   Dn1   v029
        BYTE   W06
        BYTE           N24     Cs2   v024
        BYTE           N12     Bn0   v032
        BYTE   W12
        BYTE                   Cn1   v031
        BYTE   W12
        BYTE           N24     Dn1
        BYTE           N12     Bn0   v032
        BYTE   W12
        BYTE                   As1
        BYTE           N12     Cn1   v031
        BYTE   W12
// 039   ----------------------------------------
        BYTE   PATT
         POIN2  BeforeTheGallows_8_25
// 040   ----------------------------------------
        BYTE           N24     Cs2   v024
        BYTE           N12     Bn0   v032
        BYTE   W12
        BYTE                   Cn1   v031
        BYTE   W12
        BYTE           N18     Dn1
        BYTE           N12     Bn0   v032
        BYTE   W12
        BYTE           N06     Cn1   v031
        BYTE   W06
        BYTE                   Dn1   v029
        BYTE   W06
        BYTE           N24     Cs2   v024
        BYTE           N12     Bn0   v032
        BYTE   W12
        BYTE                   Cn1   v031
        BYTE   W12
        BYTE           N06     Bn0   v032
        BYTE           N06     Dn1   v031
        BYTE   W06
        BYTE                   Cn1
        BYTE   W03
        BYTE                   Dn1   v029
        BYTE   W03
        BYTE                   Bn0   v035
        BYTE   W06
        BYTE                   Cn1   v031
        BYTE           N06     Dn1   v029
        BYTE   W06
// 041   ----------------------------------------
        BYTE   PATT
         POIN2  BeforeTheGallows_8_25
// 042   ----------------------------------------
        BYTE           N24     Cs2   v024
        BYTE           N12     Bn0   v032
        BYTE   W12
        BYTE                   Cn1   v031
        BYTE   W12
        BYTE           N18     Dn1
        BYTE           N12     Bn0   v032
        BYTE   W12
        BYTE           N06     Cn1   v031
        BYTE   W06
        BYTE                   Dn1   v029
        BYTE   W06
        BYTE           N24     Cs2   v024
        BYTE           N12     Bn0   v032
        BYTE   W12
        BYTE                   Cn1   v031
        BYTE   W12
        BYTE           N24     Dn1
        BYTE           N12     Bn0   v032
        BYTE   W12
        BYTE                   Cn1   v031
        BYTE           N12     As1   v032
        BYTE   W12
// 043   ----------------------------------------
        BYTE   PATT
         POIN2  BeforeTheGallows_8_25
// 044   ----------------------------------------
        BYTE           N12     Dn1   v031
        BYTE           N24     Cs2   v024
        BYTE   W12
        BYTE           N12     Dn1   v031
        BYTE   W24
        BYTE           N24
        BYTE   W12
        BYTE           N12     Cn1
        BYTE   W12
        BYTE           N24     Dn1
        BYTE   W36
// 045   ----------------------------------------
        BYTE                   Cn1
        BYTE           N24     Fs1
        BYTE           N24     Dn1
        BYTE   W48
        BYTE                   Cn1
        BYTE           N24     Fs1
        BYTE           N24     Dn1   v029
        BYTE   W48
// 046   ----------------------------------------
        BYTE                   Cn1   v031
        BYTE           N24     Fs1
        BYTE           N24     Dn1
        BYTE   W48
        BYTE                   Dn1
        BYTE           N24     Fs1
        BYTE           N24     Cn1
        BYTE   W48
// 047   ----------------------------------------
        BYTE                   Cn1
        BYTE           N24     Fs1
        BYTE           N24     Dn1
        BYTE   W48
        BYTE                   Cn1
        BYTE           N24     Dn1   v029
        BYTE           N24     Fs1   v031
        BYTE   W48
// 048   ----------------------------------------
        BYTE                   Cn1
        BYTE           N24     Dn1
        BYTE           N24     Fs1
        BYTE   W48
        BYTE                   Fs1
        BYTE           N24     Dn1
        BYTE           N24     Cn1
        BYTE   W24
        BYTE           N12     Dn1   v028
        BYTE           N12     Cn1
        BYTE   W12
        BYTE                   Cn1   v029
        BYTE           N12     Dn1
        BYTE   W12
// 049   ----------------------------------------
BeforeTheGallows_8_49:
        BYTE           N24     Cn1   v031
        BYTE           N24     Fs1
        BYTE           N24     Dn1
        BYTE   W36
        BYTE           N12     Cn1   v028
        BYTE           N12     Dn1
        BYTE           N12     Fs1
        BYTE   W12
        BYTE           N24     Cn1   v031
        BYTE           N24     Dn1   v029
        BYTE           N24     Fs1   v031
        BYTE   W36
        BYTE           N12     Cn1   v028
        BYTE           N12     Dn1
        BYTE           N12     Fs1
        BYTE   W12
        BYTE   PEND
// 050   ----------------------------------------
        BYTE           N24     Cn1   v031
        BYTE           N24     Dn1
        BYTE           N24     Fs1
        BYTE   W36
        BYTE           N12     Cn1   v028
        BYTE           N12     Dn1
        BYTE           N12     Fs1
        BYTE   W12
        BYTE           N24     Fs1   v031
        BYTE           N24     Dn1
        BYTE           N24     Cn1
        BYTE   W36
        BYTE           N12     Cn1   v028
        BYTE           N12     Dn1
        BYTE           N12     Fs1
        BYTE   W12
// 051   ----------------------------------------
        BYTE   PATT
         POIN2  BeforeTheGallows_8_49
// 052   ----------------------------------------
        BYTE           N24     Cn1   v031
        BYTE           N24     Dn1
        BYTE           N24     Fs1
        BYTE   W48
        BYTE                   Fs1
        BYTE           N24     Dn1
        BYTE           N24     Cn1
        BYTE   W24
        BYTE           N06     En1
        BYTE   W06
        BYTE                   En1
        BYTE   W06
        BYTE                   Dn1
        BYTE   W06
        BYTE                   Dn1
        BYTE   W06
// 053   ----------------------------------------
        BYTE           N24     Cn1   v024
        BYTE           N24     Fs1
        BYTE           N24     Dn1
        BYTE   W24
        BYTE                   Cn1   v022
        BYTE           N24     Dn1
        BYTE           N24     Fs1
        BYTE   W24
        BYTE                   Fs1   v024
        BYTE           N24     Dn1
        BYTE           N24     Cn1
        BYTE   W24
        BYTE                   Cn1   v022
        BYTE           N24     Dn1
        BYTE           N24     Fs1
        BYTE   W24
// 054   ----------------------------------------
BeforeTheGallows_8_54:
        BYTE           N24     Cn1   v024
        BYTE           N24     Dn1
        BYTE           N24     Fs1
        BYTE   W24
        BYTE                   Cn1   v022
        BYTE           N24     Dn1
        BYTE           N24     Fs1
        BYTE   W24
        BYTE                   Fs1   v024
        BYTE           N24     Dn1
        BYTE           N24     Cn1
        BYTE   W24
        BYTE                   Cn1   v022
        BYTE           N24     Dn1
        BYTE           N24     Fs1
        BYTE   W24
        BYTE   PEND
// 055   ----------------------------------------
        BYTE   PATT
         POIN2  BeforeTheGallows_8_54
// 056   ----------------------------------------
        BYTE           N24     Cn1   v024
        BYTE           N24     Dn1
        BYTE           N24     Fs1
        BYTE   W24
        BYTE                   Cn1   v022
        BYTE           N24     Dn1
        BYTE           N24     Fs1
        BYTE   W24
        BYTE           N12     Dn1   v025
        BYTE   W12
        BYTE                   Cn1   v028
        BYTE           N12     Dn1
        BYTE   W12
        BYTE                   Dn1   v025
        BYTE   W12
        BYTE                   Dn1   v028
        BYTE           N12     Cn1
        BYTE   W12
// 057   ----------------------------------------
        BYTE                   Fs1   v024
        BYTE           N12     Cn1
        BYTE           N12     Dn1
        BYTE   W12
        BYTE                   Fs1   v010
        BYTE           N12     Cn1
        BYTE           N12     Dn1
        BYTE   W12
        BYTE                   Fs1   v011
        BYTE           N12     Cn1
        BYTE           N12     Dn1
        BYTE   W12
        BYTE                   Dn1   v014
        BYTE           N12     Cn1
        BYTE           N12     Fs1
        BYTE   W12
        BYTE                   Dn1   v015
        BYTE           N12     Cn1
        BYTE           N12     Fs1
        BYTE   W12
        BYTE                   Fs1   v017
        BYTE           N12     Cn1
        BYTE           N12     Dn1
        BYTE   W12
        BYTE                   Fs1   v018
        BYTE           N12     Cn1
        BYTE           N12     Dn1
        BYTE   W12
        BYTE                   Dn1   v021
        BYTE           N12     Cn1
        BYTE           N12     Fs1
        BYTE   W12
// 058   ----------------------------------------
        BYTE                   Fs1   v022
        BYTE           N12     Dn1
        BYTE           N12     Cn1
        BYTE   W12
        BYTE                   Dn1   v024
        BYTE           N12     Cn1
        BYTE           N12     Fs1
        BYTE   W12
        BYTE                   Cn1   v025
        BYTE           N12     Dn1
        BYTE           N12     Fs1
        BYTE   W12
        BYTE                   Dn1   v028
        BYTE           N12     Fs1
        BYTE           N12     Cn1
        BYTE   W12
        BYTE                   Cn1   v029
        BYTE           N12     Dn1
        BYTE           N12     Fs1
        BYTE   W12
        BYTE                   Cn1   v031
        BYTE           N12     Dn1
        BYTE           N12     Fs1
        BYTE   W12
        BYTE                   Cn1   v032
        BYTE           N12     Dn1
        BYTE           N12     Fs1
        BYTE   W12
        BYTE                   Dn1   v035
        BYTE           N12     Cn1
        BYTE           N12     Fs1
        BYTE   W12
// 059   ----------------------------------------
        BYTE           N06     Dn1   v031
        BYTE   W06
        BYTE           N12     Dn1   v032
        BYTE   W06
        BYTE           N06     Cn1   v035
        BYTE   W06
        BYTE                   Dn1
        BYTE   W06
        BYTE                   En1   v031
        BYTE   W03
        BYTE                   Cn1   v035
        BYTE   W06
        BYTE                   En1   v032
        BYTE   W03
        BYTE                   Cn1   v035
        BYTE   W06
        BYTE                   En1
        BYTE   W06
        BYTE                   Dn1   v031
        BYTE   W06
        BYTE           N12     Dn1   v032
        BYTE   W06
        BYTE           N06     Cn1   v035
        BYTE   W06
        BYTE                   Dn1
        BYTE   W03
        BYTE                   Cn1   v032
        BYTE   W03
        BYTE                   Dn1
        BYTE   W06
        BYTE           N12
        BYTE           N06     Cn1
        BYTE   W09
        BYTE                   Cn1
        BYTE   W03
        BYTE                   Dn1
        BYTE   W06
// 060   ----------------------------------------
        BYTE           N12     Dn1   v035
        BYTE           N12     Cn1
        BYTE           N12     Cs2
        BYTE   W06
        BYTE           N06     An1
        BYTE   W06
        BYTE                   Gn1
        BYTE   W06
        BYTE           N12     Cs2
        BYTE           N12     Cn1
        BYTE           N12     Dn1
        BYTE   W06
        BYTE           N06     Gn1
        BYTE   W06
        BYTE                   Fn1
        BYTE   W06
        BYTE           N12     Cs2
        BYTE           N12     Cn1
        BYTE           N12     Dn1
        BYTE   W12
        BYTE           N06     Gn1
        BYTE   W06
        BYTE                   Fn1
        BYTE           N12     Dn1
        BYTE           N12     Cn1
        BYTE           N12     Cs2
        BYTE   W12
        BYTE           N06     Gn1
        BYTE   W06
        BYTE                   Fn1
        BYTE           N12     Dn1
        BYTE           N12     Cn1
        BYTE           N12     Cs2
        BYTE   W12
        BYTE           N06     En1
        BYTE   W06
        BYTE                   Cs2
        BYTE           N06     Cn1
        BYTE           N06     Dn1
        BYTE   W06
// 061   ----------------------------------------
        BYTE           N12     Fs1
        BYTE           N24     Dn1
        BYTE           N96     Cs2
        BYTE   W12
        BYTE           N12     Fs1   v031
        BYTE   W12
        BYTE                   Fs1   v032
        BYTE           N24     Dn1   v031
        BYTE   W12
        BYTE           N12     Fs1
        BYTE   W12
        BYTE                   Fs1   v035
        BYTE           N24     Dn1   v032
        BYTE   W12
        BYTE           N12     Fs1   v031
        BYTE           N12     En1   v035
        BYTE   W12
        BYTE                   Fs1   v032
        BYTE           N24     Dn1   v031
        BYTE   W12
        BYTE           N12     Fs1
        BYTE           N12     En1   v035
        BYTE   W12
// 062   ----------------------------------------
        BYTE                   Fs1
        BYTE           N24     Dn1
        BYTE   W12
        BYTE           N12     Fs1   v031
        BYTE   W12
        BYTE           N18     Dn1
        BYTE           N12     Fs1   v032
        BYTE   W12
        BYTE                   Fs1   v031
        BYTE   W06
        BYTE           N06     Dn1
        BYTE   W06
        BYTE           N12     Fs1   v035
        BYTE           N24     Dn1   v032
        BYTE   W12
        BYTE           N12     Fs1   v031
        BYTE           N12     En1   v035
        BYTE   W12
        BYTE                   Fs1   v032
        BYTE           N24     Dn1   v031
        BYTE   W12
        BYTE           N12     Fs1
        BYTE           N12     En1   v035
        BYTE   W12
// 063   ----------------------------------------
BeforeTheGallows_8_63:
        BYTE           N12     Fs1   v035
        BYTE           N24     Dn1
        BYTE   W12
        BYTE           N12     Fs1   v031
        BYTE   W12
        BYTE                   Fs1   v032
        BYTE           N24     Dn1   v031
        BYTE   W12
        BYTE           N12     Fs1
        BYTE   W12
        BYTE                   Fs1   v035
        BYTE           N24     Dn1   v032
        BYTE   W12
        BYTE           N12     Fs1   v031
        BYTE           N12     En1   v035
        BYTE   W12
        BYTE                   Fs1   v032
        BYTE           N24     Dn1   v031
        BYTE   W12
        BYTE           N12     Fs1
        BYTE           N12     En1   v035
        BYTE   W12
        BYTE   PEND
// 064   ----------------------------------------
        BYTE           N24     Dn1
        BYTE           N12     Fs1
        BYTE   W12
        BYTE                   Fs1   v031
        BYTE   W12
        BYTE           N18     Dn1
        BYTE           N12     Fs1   v032
        BYTE   W12
        BYTE                   Fs1   v031
        BYTE   W06
        BYTE           N06     Dn1
        BYTE   W06
        BYTE           N12
        BYTE   W06
        BYTE                   En1   v035
        BYTE   W12
        BYTE                   Dn1   v032
        BYTE   W06
        BYTE                   En1   v036
        BYTE   W12
        BYTE                   Dn1   v035
        BYTE   W06
        BYTE           N06     En1   v036
        BYTE   W06
// 065   ----------------------------------------
        BYTE           N12     Fs1   v035
        BYTE           N24     Dn1
        BYTE   W12
        BYTE           N12     Fs1   v031
        BYTE   W12
        BYTE                   Fs1   v032
        BYTE           N24     Dn1   v031
        BYTE   W12
        BYTE           N12     Fs1
        BYTE   W12
        BYTE                   Fs1   v035
        BYTE           N24     Dn1   v032
        BYTE   W12
        BYTE           N12     Fs1   v031
        BYTE           N12     En1   v035
        BYTE   W12
        BYTE           N24     Dn1   v031
        BYTE           N12     Fs1   v032
        BYTE   W12
        BYTE                   Fs1   v031
        BYTE           N12     En1   v035
        BYTE   W12
// 066   ----------------------------------------
        BYTE           N24     Dn1
        BYTE           N12     Fs1
        BYTE   W12
        BYTE                   Fs1   v031
        BYTE   W12
        BYTE           N18     Dn1
        BYTE           N12     Fs1   v032
        BYTE   W12
        BYTE                   Fs1   v031
        BYTE   W06
        BYTE           N06     Dn1
        BYTE   W06
        BYTE           N24     Dn1   v032
        BYTE           N12     Fs1   v035
        BYTE   W12
        BYTE                   En1
        BYTE           N12     Fs1   v031
        BYTE   W12
        BYTE           N24     Dn1
        BYTE           N12     Fs1   v032
        BYTE   W12
        BYTE                   En1   v035
        BYTE           N12     Fs1   v031
        BYTE   W12
// 067   ----------------------------------------
        BYTE   PATT
         POIN2  BeforeTheGallows_8_63
// 068   ----------------------------------------
        BYTE           N12     Fs1   v035
        BYTE           N24     Dn1
        BYTE   W12
        BYTE           N12     Fs1   v031
        BYTE   W12
        BYTE                   Fs1   v032
        BYTE           N18     Dn1   v031
        BYTE   W12
        BYTE           N12     Fs1
        BYTE   W06
        BYTE           N06     Dn1
        BYTE   W06
        BYTE           N12     En1   v035
        BYTE   W12
        BYTE                   En1   v031
        BYTE   W12
        BYTE           N24     Dn1   v029
        BYTE   W24
// 069   ----------------------------------------
BeforeTheGallows_8_69:
        BYTE           N12     Fs1   v032
        BYTE           N24     Cn1   v044
        BYTE   W12
        BYTE           N12     Fs1   v029
        BYTE   W12
        BYTE                   Fs1   v031
        BYTE           N24     Dn1   v035
        BYTE   W12
        BYTE           N12     Fs1   v029
        BYTE   W12
        BYTE                   Fs1   v032
        BYTE           N12     Cn1   v039
        BYTE   W12
        BYTE                   Fs1   v029
        BYTE           N24     Dn1   v032
        BYTE   W12
        BYTE           N12     Fs1   v031
        BYTE   W12
        BYTE                   Fs1   v029
        BYTE   W12
        BYTE   PEND
// 070   ----------------------------------------
BeforeTheGallows_8_70:
        BYTE           N12     Fs1   v032
        BYTE           N24     Cn1   v044
        BYTE   W12
        BYTE           N12     Fs1   v029
        BYTE   W12
        BYTE                   Fs1   v031
        BYTE           N24     Dn1   v035
        BYTE   W12
        BYTE           N12     Fs1   v029
        BYTE   W12
        BYTE                   Fs1   v032
        BYTE           N12     Cn1   v039
        BYTE   W12
        BYTE                   Dn1   v032
        BYTE           N12     Fs1   v029
        BYTE   W12
        BYTE                   Dn1
        BYTE           N12     Fs1   v031
        BYTE   W12
        BYTE                   Fs1   v029
        BYTE   W12
        BYTE   PEND
// 071   ----------------------------------------
        BYTE   PATT
         POIN2  BeforeTheGallows_8_69
// 072   ----------------------------------------
        BYTE   PATT
         POIN2  BeforeTheGallows_8_70
// 073   ----------------------------------------
        BYTE           N24     Cn1   v044
        BYTE   W24
        BYTE                   Dn1   v035
        BYTE   W24
        BYTE           N12     Cn1   v039
        BYTE   W12
        BYTE           N24     Dn1   v032
        BYTE   W36
// 074   ----------------------------------------
        BYTE                   Cn1   v044
        BYTE   W24
        BYTE                   Dn1   v035
        BYTE   W24
        BYTE           N12     Cn1   v039
        BYTE   W12
        BYTE           N24     Dn1   v032
        BYTE   W24
        BYTE           N12     Cn1   v025
        BYTE           N12     Dn1
        BYTE   W12
// 075   ----------------------------------------
        BYTE           N24     Cn1   v028
        BYTE           N24     Dn1
        BYTE           N24     Fs1
        BYTE   W24
        BYTE                   Dn1   v031
        BYTE           N24     Cn1
        BYTE           N24     Fs1
        BYTE   W24
        BYTE                   Cn1   v035
        BYTE           N24     Dn1
        BYTE           N24     Fs1
        BYTE   W24
        BYTE                   Cn1   v038
        BYTE           N24     Dn1
        BYTE           N24     Fs1
        BYTE   W24
// 076   ----------------------------------------
        BYTE           N12     Fs1   v025
        BYTE           N12     Dn1
        BYTE           N12     Cn1
        BYTE   W12
        BYTE                   Fs1   v028
        BYTE           N12     Dn1
        BYTE           N12     Cn1
        BYTE   W12
        BYTE                   Dn1   v029
        BYTE           N12     Cn1
        BYTE           N12     Fs1
        BYTE   W12
        BYTE                   Dn1   v031
        BYTE           N12     Cn1
        BYTE           N12     Fs1
        BYTE   W12
        BYTE                   Fs1   v032
        BYTE           N12     Dn1
        BYTE           N12     Cn1
        BYTE   W12
        BYTE                   Dn1   v035
        BYTE           N12     Cn1
        BYTE           N12     Fs1
        BYTE   W12
        BYTE           N06     Dn1   v038
        BYTE           N06     Cn1
        BYTE   W06
        BYTE                   Gn1   v044
        BYTE           N06     Cn1   v038
        BYTE   W06
        BYTE                   Gn1   v044
        BYTE           N06     Cn1   v038
        BYTE   W06
        BYTE                   Cn1
        BYTE           N06     Fn1   v044
        BYTE   W06
// 077   ----------------------------------------
        BYTE   GoTo
         POIN2  BeforeTheGallows_8_LOOP
        BYTE   FINE


//********************** End of Song ***********************//

        ALIGN 4
BeforeTheGallows:
        BYTE   9                       // Num Tracks
        BYTE   0                       // Unknown
        BYTE   BeforeTheGallows_pri    // Priority
        BYTE   BeforeTheGallows_rev    // Reverb

        POIN2   BeforeTheGallows_grp   

        POIN2   BeforeTheGallows_0
        POIN2   BeforeTheGallows_1
        POIN2   BeforeTheGallows_2
        POIN2   BeforeTheGallows_3
        POIN2   BeforeTheGallows_4
        POIN2   BeforeTheGallows_5
        POIN2   BeforeTheGallows_6
        POIN2   BeforeTheGallows_7
        POIN2   BeforeTheGallows_8

        
