//Event file generated from Sappy .s format.
        #include "MPlayDef.event"

        #define    TheStormUponUs_grp  voicegroup000
        #define    TheStormUponUs_pri  0
        #define    TheStormUponUs_rev  0
        #define    TheStormUponUs_key  0

        // .rodata
        // TheStormUponUs
        ALIGN 4

//****************** Track 0 (Midi-Chn.0) ******************//

TheStormUponUs_0:
        BYTE   KEYSH   TheStormUponUs_key+0
// 000   ----------------------------------------
        BYTE   TEMPO   234/2
TheStormUponUs_0_LOOP:
        BYTE           VOICE   100
        BYTE           VOL     55
        BYTE           PAN     c_v-7
        BYTE           N11     Gs3   v102
        BYTE   W12
        BYTE                   Ds3
        BYTE   W12
        BYTE                   Bn2
        BYTE   W12
        BYTE                   Fs3
        BYTE   W12
        BYTE                   Ds3
        BYTE   W12
        BYTE                   Bn2
        BYTE   W12
        BYTE                   As2
        BYTE   W12
        BYTE                   Gs2
        BYTE   W12
// 001   ----------------------------------------
TheStormUponUs_0_1:
        BYTE           N11     Bn2   v102
        BYTE   W12
        BYTE                   Gs3
        BYTE   W12
        BYTE                   Ds3
        BYTE   W12
        BYTE                   Bn2
        BYTE   W12
        BYTE                   As2
        BYTE   W12
        BYTE                   Gs3
        BYTE   W12
        BYTE                   Ds3
        BYTE   W12
        BYTE                   Bn3
        BYTE   W12
        BYTE   PEND
// 002   ----------------------------------------
TheStormUponUs_0_2:
        BYTE           N11     Gs3   v102
        BYTE   W12
        BYTE                   Ds3
        BYTE   W12
        BYTE                   Bn2
        BYTE   W12
        BYTE                   Fs3
        BYTE   W12
        BYTE                   Ds3
        BYTE   W12
        BYTE                   Bn2
        BYTE   W12
        BYTE                   As2
        BYTE   W12
        BYTE                   Gs2
        BYTE   W12
        BYTE   PEND
// 003   ----------------------------------------
TheStormUponUs_0_3:
        BYTE           N11     Bn2   v102
        BYTE   W12
        BYTE                   Gs3
        BYTE   W12
        BYTE                   Ds3
        BYTE   W12
        BYTE                   Bn2
        BYTE   W12
        BYTE                   Fs3
        BYTE   W12
        BYTE                   Bn3
        BYTE   W12
        BYTE                   As3
        BYTE   W12
        BYTE                   Gs3
        BYTE   W12
        BYTE   PEND
// 004   ----------------------------------------
        BYTE   PATT
         POIN2  TheStormUponUs_0_2
// 005   ----------------------------------------
        BYTE   PATT
         POIN2  TheStormUponUs_0_1
// 006   ----------------------------------------
        BYTE   PATT
         POIN2  TheStormUponUs_0_2
// 007   ----------------------------------------
        BYTE   PATT
         POIN2  TheStormUponUs_0_3
// 008   ----------------------------------------
        BYTE   PATT
         POIN2  TheStormUponUs_0_2
// 009   ----------------------------------------
        BYTE   PATT
         POIN2  TheStormUponUs_0_1
// 010   ----------------------------------------
        BYTE   PATT
         POIN2  TheStormUponUs_0_2
// 011   ----------------------------------------
        BYTE   PATT
         POIN2  TheStormUponUs_0_3
// 012   ----------------------------------------
        BYTE   PATT
         POIN2  TheStormUponUs_0_2
// 013   ----------------------------------------
        BYTE   PATT
         POIN2  TheStormUponUs_0_1
// 014   ----------------------------------------
        BYTE   PATT
         POIN2  TheStormUponUs_0_2
// 015   ----------------------------------------
        BYTE   PATT
         POIN2  TheStormUponUs_0_3
// 016   ----------------------------------------
        BYTE   PATT
         POIN2  TheStormUponUs_0_2
// 017   ----------------------------------------
        BYTE   PATT
         POIN2  TheStormUponUs_0_1
// 018   ----------------------------------------
        BYTE   PATT
         POIN2  TheStormUponUs_0_2
// 019   ----------------------------------------
        BYTE   PATT
         POIN2  TheStormUponUs_0_3
// 020   ----------------------------------------
        BYTE   PATT
         POIN2  TheStormUponUs_0_2
// 021   ----------------------------------------
        BYTE   PATT
         POIN2  TheStormUponUs_0_1
// 022   ----------------------------------------
        BYTE   PATT
         POIN2  TheStormUponUs_0_2
// 023   ----------------------------------------
        BYTE   PATT
         POIN2  TheStormUponUs_0_3
// 024   ----------------------------------------
        BYTE   PATT
         POIN2  TheStormUponUs_0_2
// 025   ----------------------------------------
        BYTE   PATT
         POIN2  TheStormUponUs_0_1
// 026   ----------------------------------------
        BYTE   PATT
         POIN2  TheStormUponUs_0_2
// 027   ----------------------------------------
        BYTE   PATT
         POIN2  TheStormUponUs_0_3
// 028   ----------------------------------------
        BYTE   PATT
         POIN2  TheStormUponUs_0_2
// 029   ----------------------------------------
        BYTE   PATT
         POIN2  TheStormUponUs_0_1
// 030   ----------------------------------------
        BYTE   PATT
         POIN2  TheStormUponUs_0_2
// 031   ----------------------------------------
        BYTE   PATT
         POIN2  TheStormUponUs_0_3
// 032   ----------------------------------------
        BYTE   PATT
         POIN2  TheStormUponUs_0_2
// 033   ----------------------------------------
        BYTE   PATT
         POIN2  TheStormUponUs_0_1
// 034   ----------------------------------------
        BYTE   PATT
         POIN2  TheStormUponUs_0_2
// 035   ----------------------------------------
        BYTE   PATT
         POIN2  TheStormUponUs_0_3
// 036   ----------------------------------------
        BYTE   PATT
         POIN2  TheStormUponUs_0_2
// 037   ----------------------------------------
        BYTE   PATT
         POIN2  TheStormUponUs_0_1
// 038   ----------------------------------------
        BYTE   PATT
         POIN2  TheStormUponUs_0_2
// 039   ----------------------------------------
        BYTE   PATT
         POIN2  TheStormUponUs_0_3
// 040   ----------------------------------------
TheStormUponUs_0_40:
        BYTE           N11     Ds4   v102
        BYTE   W12
        BYTE                   Fn4
        BYTE   W12
        BYTE                   Fs4
        BYTE   W12
        BYTE                   Fn4
        BYTE   W12
        BYTE                   Cs4
        BYTE   W12
        BYTE                   Ds4
        BYTE   W12
        BYTE                   Cs4
        BYTE   W12
        BYTE                   Bn3
        BYTE   W12
        BYTE   PEND
// 041   ----------------------------------------
TheStormUponUs_0_41:
        BYTE           N11     As3   v102
        BYTE   W12
        BYTE                   Ds4
        BYTE   W12
        BYTE                   Cs4
        BYTE   W12
        BYTE                   Ds4
        BYTE   W12
        BYTE                   Bn3
        BYTE   W12
        BYTE                   As3
        BYTE   W12
        BYTE                   Gs3
        BYTE   W12
        BYTE                   Bn3
        BYTE   W12
        BYTE   PEND
// 042   ----------------------------------------
TheStormUponUs_0_42:
        BYTE           N11     Gs4   v102
        BYTE   W12
        BYTE                   Ds4
        BYTE   W12
        BYTE                   Fs4
        BYTE   W12
        BYTE                   Bn3
        BYTE   W12
        BYTE                   Ds4
        BYTE   W12
        BYTE                   Fn4
        BYTE   W12
        BYTE                   Fs4
        BYTE   W12
        BYTE                   Fn4
        BYTE   W12
        BYTE   PEND
// 043   ----------------------------------------
TheStormUponUs_0_43:
        BYTE           N11     Bn3   v102
        BYTE   W12
        BYTE                   As3
        BYTE   W12
        BYTE                   Gs3
        BYTE   W12
        BYTE                   As3
        BYTE   W12
        BYTE                   Bn3
        BYTE   W12
        BYTE                   Cs4
        BYTE   W12
        BYTE                   Ds4
        BYTE   W12
        BYTE                   Bn3
        BYTE   W12
        BYTE   PEND
// 044   ----------------------------------------
        BYTE   PATT
         POIN2  TheStormUponUs_0_40
// 045   ----------------------------------------
        BYTE   PATT
         POIN2  TheStormUponUs_0_41
// 046   ----------------------------------------
        BYTE   PATT
         POIN2  TheStormUponUs_0_42
// 047   ----------------------------------------
TheStormUponUs_0_47:
        BYTE           N11     Cs4   v102
        BYTE   W12
        BYTE                   Bn3
        BYTE   W12
        BYTE                   As3
        BYTE   W12
        BYTE           N05     Ds4
        BYTE   W06
        BYTE                   En4
        BYTE   W06
        BYTE                   Ds4
        BYTE   W06
        BYTE                   Cs4
        BYTE   W06
        BYTE           N11     Bn3
        BYTE   W12
        BYTE                   As3
        BYTE   W24
        BYTE   PEND
// 048   ----------------------------------------
        BYTE   PATT
         POIN2  TheStormUponUs_0_2
// 049   ----------------------------------------
        BYTE   PATT
         POIN2  TheStormUponUs_0_1
// 050   ----------------------------------------
        BYTE   PATT
         POIN2  TheStormUponUs_0_2
// 051   ----------------------------------------
        BYTE   PATT
         POIN2  TheStormUponUs_0_3
// 052   ----------------------------------------
        BYTE   PATT
         POIN2  TheStormUponUs_0_2
// 053   ----------------------------------------
        BYTE   PATT
         POIN2  TheStormUponUs_0_1
// 054   ----------------------------------------
        BYTE   PATT
         POIN2  TheStormUponUs_0_2
// 055   ----------------------------------------
        BYTE   PATT
         POIN2  TheStormUponUs_0_3
// 056   ----------------------------------------
        BYTE   PATT
         POIN2  TheStormUponUs_0_2
// 057   ----------------------------------------
        BYTE   PATT
         POIN2  TheStormUponUs_0_1
// 058   ----------------------------------------
        BYTE   PATT
         POIN2  TheStormUponUs_0_2
// 059   ----------------------------------------
        BYTE   PATT
         POIN2  TheStormUponUs_0_3
// 060   ----------------------------------------
        BYTE   PATT
         POIN2  TheStormUponUs_0_2
// 061   ----------------------------------------
        BYTE   PATT
         POIN2  TheStormUponUs_0_1
// 062   ----------------------------------------
        BYTE   PATT
         POIN2  TheStormUponUs_0_2
// 063   ----------------------------------------
        BYTE   PATT
         POIN2  TheStormUponUs_0_3
// 064   ----------------------------------------
        BYTE   PATT
         POIN2  TheStormUponUs_0_2
// 065   ----------------------------------------
        BYTE   PATT
         POIN2  TheStormUponUs_0_1
// 066   ----------------------------------------
        BYTE   PATT
         POIN2  TheStormUponUs_0_2
// 067   ----------------------------------------
        BYTE   PATT
         POIN2  TheStormUponUs_0_3
// 068   ----------------------------------------
        BYTE   PATT
         POIN2  TheStormUponUs_0_40
// 069   ----------------------------------------
        BYTE   PATT
         POIN2  TheStormUponUs_0_41
// 070   ----------------------------------------
        BYTE   PATT
         POIN2  TheStormUponUs_0_42
// 071   ----------------------------------------
        BYTE   PATT
         POIN2  TheStormUponUs_0_43
// 072   ----------------------------------------
        BYTE   PATT
         POIN2  TheStormUponUs_0_40
// 073   ----------------------------------------
        BYTE   PATT
         POIN2  TheStormUponUs_0_41
// 074   ----------------------------------------
        BYTE   PATT
         POIN2  TheStormUponUs_0_42
// 075   ----------------------------------------
        BYTE   PATT
         POIN2  TheStormUponUs_0_47
// 076   ----------------------------------------
        BYTE   GoTo
         POIN2  TheStormUponUs_0_LOOP
        BYTE   FINE

//****************** Track 1 (Midi-Chn.1) ******************//

TheStormUponUs_1:
        BYTE   KEYSH   TheStormUponUs_key+0
// 000   ----------------------------------------
TheStormUponUs_1_LOOP:
        BYTE           VOICE   29
        BYTE           PAN     c_v+31
        BYTE           VOL     60
        BYTE   W96
// 001   ----------------------------------------
        BYTE   W96
// 002   ----------------------------------------
        BYTE   W96
// 003   ----------------------------------------
        BYTE   W96
// 004   ----------------------------------------
        BYTE   W96
// 005   ----------------------------------------
        BYTE   W96
// 006   ----------------------------------------
        BYTE   W96
// 007   ----------------------------------------
        BYTE   W96
// 008   ----------------------------------------
        BYTE           N68     En3   v080
        BYTE   W72
        BYTE           N22     Fs3
        BYTE   W24
// 009   ----------------------------------------
        BYTE           N68     Ds3
        BYTE   W72
        BYTE           N22     En3
        BYTE   W24
// 010   ----------------------------------------
        BYTE           N68     Fs3
        BYTE   W72
        BYTE           N22     En3
        BYTE   W24
// 011   ----------------------------------------
        BYTE           N68     Bn2
        BYTE   W72
        BYTE           N22     En3
        BYTE   W24
// 012   ----------------------------------------
        BYTE           N44     Cs3   v080   gtp1
        BYTE   W48
        BYTE           N22     En3
        BYTE   W24
        BYTE                   Ds3
        BYTE   W24
// 013   ----------------------------------------
        BYTE                   Bn2
        BYTE   W24
        BYTE                   Gs2
        BYTE   W24
        BYTE                   As2
        BYTE   W24
        BYTE                   Bn2
        BYTE   W24
// 014   ----------------------------------------
        BYTE           N44     Cs3   v080   gtp1
        BYTE   W48
        BYTE                   En3
        BYTE   W48
// 015   ----------------------------------------
        BYTE           N22     Ds3
        BYTE   W24
        BYTE                   Cs3
        BYTE   W24
        BYTE                   Bn2
        BYTE   W24
        BYTE                   Gs2
        BYTE   W24
// 016   ----------------------------------------
        BYTE                   Cs3
        BYTE   W24
        BYTE           N11     En3
        BYTE   W12
        BYTE                   Ds3
        BYTE   W12
        BYTE           N22     Cs3
        BYTE   W24
        BYTE                   Bn2
        BYTE   W24
// 017   ----------------------------------------
        BYTE                   As2
        BYTE   W24
        BYTE                   Fs2
        BYTE   W24
        BYTE                   Ds3
        BYTE   W24
        BYTE                   As2
        BYTE   W24
// 018   ----------------------------------------
        BYTE           N11     Bn2
        BYTE   W12
        BYTE                   Bn2
        BYTE   W24
        BYTE                   Bn2
        BYTE   W12
        BYTE                   Bn2
        BYTE   W12
        BYTE                   Bn2
        BYTE   W24
        BYTE                   Bn2
        BYTE   W12
// 019   ----------------------------------------
        BYTE                   As2
        BYTE   W12
        BYTE                   As2
        BYTE   W24
        BYTE                   As2
        BYTE   W12
        BYTE                   As2
        BYTE   W12
        BYTE                   As2
        BYTE   W24
        BYTE                   As2
        BYTE   W12
// 020   ----------------------------------------
        BYTE   W36
        BYTE           N56     Bn2
        BYTE   W60
// 021   ----------------------------------------
        BYTE           N32     As2   v080   gtp2
        BYTE   W36
        BYTE           N56     Bn2
        BYTE   W60
// 022   ----------------------------------------
        BYTE   W96
// 023   ----------------------------------------
        BYTE   W96
// 024   ----------------------------------------
        BYTE           N32     Cs3   v080   gtp2
        BYTE   W36
        BYTE           N56     En3
        BYTE   W60
// 025   ----------------------------------------
        BYTE           N32     Gs3   v080   gtp2
        BYTE   W36
        BYTE           N56     En3
        BYTE   W60
// 026   ----------------------------------------
        BYTE           N32     Ds3   v080   gtp2
        BYTE   W36
        BYTE           N56     Cs3
        BYTE   W60
// 027   ----------------------------------------
        BYTE           N11     Ds3
        BYTE   W12
        BYTE                   Cs3
        BYTE   W12
        BYTE                   Bn2
        BYTE   W12
        BYTE                   Cs3
        BYTE   W12
        BYTE                   Ds3
        BYTE   W12
        BYTE                   En3
        BYTE   W12
        BYTE                   Ds3
        BYTE   W12
        BYTE                   Cs3
        BYTE   W12
// 028   ----------------------------------------
        BYTE   W96
// 029   ----------------------------------------
        BYTE   W96
// 030   ----------------------------------------
        BYTE   W96
// 031   ----------------------------------------
        BYTE   W96
// 032   ----------------------------------------
        BYTE   W96
// 033   ----------------------------------------
        BYTE   W96
// 034   ----------------------------------------
        BYTE   W96
// 035   ----------------------------------------
        BYTE           N90     Ds3   v080   gtp1
        BYTE   W96
// 036   ----------------------------------------
        BYTE                   Cs3
        BYTE   W96
// 037   ----------------------------------------
        BYTE                   Bn2
        BYTE   W96
// 038   ----------------------------------------
        BYTE                   As2
        BYTE   W96
// 039   ----------------------------------------
        BYTE                   Bn2
        BYTE   W96
// 040   ----------------------------------------
        BYTE   W96
// 041   ----------------------------------------
        BYTE   W96
// 042   ----------------------------------------
        BYTE   W96
// 043   ----------------------------------------
        BYTE   W96
// 044   ----------------------------------------
        BYTE   W96
// 045   ----------------------------------------
        BYTE   W96
// 046   ----------------------------------------
        BYTE   W96
// 047   ----------------------------------------
        BYTE   W96
// 048   ----------------------------------------
TheStormUponUs_1_48:
        BYTE           N11     Gs3   v080
        BYTE   W12
        BYTE                   Fs3
        BYTE   W12
        BYTE                   En3
        BYTE   W12
        BYTE                   Fs3
        BYTE   W12
        BYTE                   Gs3
        BYTE   W12
        BYTE                   As3
        BYTE   W12
        BYTE                   Bn3
        BYTE   W12
        BYTE                   Gs3
        BYTE   W12
        BYTE   PEND
// 049   ----------------------------------------
TheStormUponUs_1_49:
        BYTE           N11     As3   v080
        BYTE   W12
        BYTE                   Gs3
        BYTE   W12
        BYTE                   Fs3
        BYTE   W12
        BYTE                   Cs4
        BYTE   W12
        BYTE                   Bn3
        BYTE   W12
        BYTE                   Cs4
        BYTE   W12
        BYTE                   Bn3
        BYTE   W12
        BYTE                   As3
        BYTE   W12
        BYTE   PEND
// 050   ----------------------------------------
        BYTE   PATT
         POIN2  TheStormUponUs_1_48
// 051   ----------------------------------------
TheStormUponUs_1_51:
        BYTE           N11     As3   v080
        BYTE   W12
        BYTE                   Gs3
        BYTE   W12
        BYTE                   Fs3
        BYTE   W12
        BYTE                   Cs4
        BYTE   W12
        BYTE                   Bn3
        BYTE   W12
        BYTE           N32     As3   v080   gtp2
        BYTE   W36
        BYTE   PEND
// 052   ----------------------------------------
        BYTE   W96
// 053   ----------------------------------------
        BYTE   W96
// 054   ----------------------------------------
        BYTE   W96
// 055   ----------------------------------------
        BYTE   W96
// 056   ----------------------------------------
        BYTE   PATT
         POIN2  TheStormUponUs_1_48
// 057   ----------------------------------------
        BYTE   PATT
         POIN2  TheStormUponUs_1_49
// 058   ----------------------------------------
        BYTE   PATT
         POIN2  TheStormUponUs_1_48
// 059   ----------------------------------------
        BYTE   PATT
         POIN2  TheStormUponUs_1_51
// 060   ----------------------------------------
        BYTE   W96
// 061   ----------------------------------------
        BYTE   W96
// 062   ----------------------------------------
        BYTE   W96
// 063   ----------------------------------------
        BYTE   W96
// 064   ----------------------------------------
        BYTE   PATT
         POIN2  TheStormUponUs_1_48
// 065   ----------------------------------------
        BYTE           N11     As3   v080
        BYTE   W12
        BYTE                   Bn3
        BYTE   W12
        BYTE                   Cs4
        BYTE   W12
        BYTE                   Ds4
        BYTE   W12
        BYTE                   Cs4
        BYTE   W12
        BYTE                   Bn3
        BYTE   W12
        BYTE           N22     As3
        BYTE   W24
// 066   ----------------------------------------
        BYTE                   En3
        BYTE   W24
        BYTE           N11     As2
        BYTE   W12
        BYTE                   As2
        BYTE   W12
        BYTE           N22     Ds3
        BYTE   W24
        BYTE           N11     As2
        BYTE   W12
        BYTE                   As2
        BYTE   W12
// 067   ----------------------------------------
        BYTE           N22     Fs3
        BYTE   W24
        BYTE           N11     As2
        BYTE   W12
        BYTE                   As2
        BYTE   W12
        BYTE           N22     Gs3
        BYTE   W24
        BYTE           N11     As2
        BYTE   W12
        BYTE                   As2
        BYTE   W12
// 068   ----------------------------------------
        BYTE   W96
// 069   ----------------------------------------
        BYTE   W96
// 070   ----------------------------------------
        BYTE   W96
// 071   ----------------------------------------
        BYTE   W96
// 072   ----------------------------------------
        BYTE           N68     En3
        BYTE   W72
        BYTE           N22     Cs3
        BYTE   W24
// 073   ----------------------------------------
        BYTE           N68     Ds3
        BYTE   W72
        BYTE           N22     Bn2
        BYTE   W24
// 074   ----------------------------------------
        BYTE                   Cs3
        BYTE   W24
        BYTE                   As2
        BYTE   W24
        BYTE                   Fs2
        BYTE   W24
        BYTE                   Cs3
        BYTE   W24
// 075   ----------------------------------------
        BYTE           N44     Bn2   v080   gtp1
        BYTE   W48
        BYTE                   Gs2
        BYTE   W48
// 076   ----------------------------------------
        BYTE   GoTo
         POIN2  TheStormUponUs_1_LOOP
        BYTE   FINE

//****************** Track 2 (Midi-Chn.2) ******************//

TheStormUponUs_2:
        BYTE   KEYSH   TheStormUponUs_key+0
// 000   ----------------------------------------
TheStormUponUs_2_LOOP:
        BYTE           VOICE   40
        BYTE           PAN     c_v-32
        BYTE           VOL     55
        BYTE   W96
// 001   ----------------------------------------
        BYTE   W96
// 002   ----------------------------------------
        BYTE   W96
// 003   ----------------------------------------
        BYTE   W96
// 004   ----------------------------------------
        BYTE   W96
// 005   ----------------------------------------
        BYTE   W96
// 006   ----------------------------------------
        BYTE   W96
// 007   ----------------------------------------
        BYTE   W96
// 008   ----------------------------------------
        BYTE           N68     En4   v080   gtp3
        BYTE   W72
        BYTE           N23     Fs4
        BYTE   W24
// 009   ----------------------------------------
        BYTE           N68     Ds4   v080   gtp3
        BYTE   W72
        BYTE           N23     En4
        BYTE   W24
// 010   ----------------------------------------
        BYTE           N68     Fs4   v080   gtp3
        BYTE   W72
        BYTE           N23     En4
        BYTE   W24
// 011   ----------------------------------------
        BYTE           N68     Bn3   v080   gtp3
        BYTE   W72
        BYTE           N23     En4
        BYTE   W24
// 012   ----------------------------------------
        BYTE           N44     Cs4   v080   gtp3
        BYTE   W48
        BYTE           N23     En4
        BYTE   W24
        BYTE                   Ds4
        BYTE   W24
// 013   ----------------------------------------
        BYTE                   Bn3
        BYTE   W24
        BYTE                   Gs3
        BYTE   W24
        BYTE                   As3
        BYTE   W24
        BYTE                   Bn3
        BYTE   W24
// 014   ----------------------------------------
        BYTE           N44     Cs4   v080   gtp3
        BYTE   W48
        BYTE                   En4
        BYTE   W48
// 015   ----------------------------------------
        BYTE           N23     Ds4
        BYTE   W24
        BYTE                   Cs4
        BYTE   W24
        BYTE                   Bn3
        BYTE   W24
        BYTE                   Gs3
        BYTE   W24
// 016   ----------------------------------------
        BYTE                   Cs4
        BYTE   W24
        BYTE           N11     En4
        BYTE   W12
        BYTE                   Ds4
        BYTE   W12
        BYTE           N23     Cs4
        BYTE   W24
        BYTE                   Bn3
        BYTE   W24
// 017   ----------------------------------------
        BYTE                   As3
        BYTE   W24
        BYTE                   Fs3
        BYTE   W24
        BYTE                   Ds4
        BYTE   W24
        BYTE                   As3
        BYTE   W24
// 018   ----------------------------------------
        BYTE           N11     Bn3
        BYTE   W12
        BYTE                   Bn3
        BYTE   W24
        BYTE                   Bn3
        BYTE   W12
        BYTE                   Bn3
        BYTE   W12
        BYTE                   Bn3
        BYTE   W24
        BYTE                   Bn3
        BYTE   W12
// 019   ----------------------------------------
        BYTE                   As3
        BYTE   W12
        BYTE                   As3
        BYTE   W24
        BYTE                   As3
        BYTE   W12
        BYTE                   As3
        BYTE   W12
        BYTE                   As3
        BYTE   W24
        BYTE                   As3
        BYTE   W12
// 020   ----------------------------------------
        BYTE   W36
        BYTE           N56     Bn3   v080   gtp3
        BYTE   W60
// 021   ----------------------------------------
        BYTE           N32     As3   v080   gtp3
        BYTE   W36
        BYTE           N56     Bn3   v080   gtp3
        BYTE   W60
// 022   ----------------------------------------
        BYTE   W96
// 023   ----------------------------------------
        BYTE   W96
// 024   ----------------------------------------
        BYTE           N32     Cs4   v080   gtp3
        BYTE   W36
        BYTE           N56     En4   v080   gtp3
        BYTE   W60
// 025   ----------------------------------------
        BYTE           N32     Gs4   v080   gtp3
        BYTE   W36
        BYTE           N56     En4   v080   gtp3
        BYTE   W60
// 026   ----------------------------------------
        BYTE           N32     Ds4   v080   gtp3
        BYTE   W36
        BYTE           N56     Cs4   v080   gtp3
        BYTE   W60
// 027   ----------------------------------------
        BYTE           N11     Ds4
        BYTE   W12
        BYTE                   Cs4
        BYTE   W12
        BYTE                   Bn3
        BYTE   W12
        BYTE                   Cs4
        BYTE   W12
        BYTE                   Ds4
        BYTE   W12
        BYTE                   En4
        BYTE   W12
        BYTE                   Ds4
        BYTE   W12
        BYTE                   Cs4
        BYTE   W12
// 028   ----------------------------------------
        BYTE   W96
// 029   ----------------------------------------
        BYTE   W96
// 030   ----------------------------------------
        BYTE   W96
// 031   ----------------------------------------
        BYTE   W96
// 032   ----------------------------------------
        BYTE   W96
// 033   ----------------------------------------
        BYTE   W96
// 034   ----------------------------------------
        BYTE   W96
// 035   ----------------------------------------
        BYTE           N92     Ds4   v080   gtp3
        BYTE   W96
// 036   ----------------------------------------
        BYTE                   Cs4
        BYTE   W96
// 037   ----------------------------------------
        BYTE                   Bn3
        BYTE   W96
// 038   ----------------------------------------
        BYTE                   As3
        BYTE   W96
// 039   ----------------------------------------
        BYTE                   Bn3
        BYTE   W96
// 040   ----------------------------------------
        BYTE   W96
// 041   ----------------------------------------
        BYTE   W96
// 042   ----------------------------------------
        BYTE   W96
// 043   ----------------------------------------
        BYTE   W96
// 044   ----------------------------------------
        BYTE   W96
// 045   ----------------------------------------
        BYTE   W96
// 046   ----------------------------------------
        BYTE   W96
// 047   ----------------------------------------
        BYTE   W96
// 048   ----------------------------------------
TheStormUponUs_2_48:
        BYTE           N11     Gs4   v080
        BYTE   W12
        BYTE                   Fs4
        BYTE   W12
        BYTE                   En4
        BYTE   W12
        BYTE                   Fs4
        BYTE   W12
        BYTE                   Gs4
        BYTE   W12
        BYTE                   As4
        BYTE   W12
        BYTE                   Bn4
        BYTE   W12
        BYTE                   Gs4
        BYTE   W12
        BYTE   PEND
// 049   ----------------------------------------
TheStormUponUs_2_49:
        BYTE           N11     As4   v080
        BYTE   W12
        BYTE                   Gs4
        BYTE   W12
        BYTE                   Fs4
        BYTE   W12
        BYTE                   Cs5
        BYTE   W12
        BYTE                   Bn4
        BYTE   W12
        BYTE                   Cs5
        BYTE   W12
        BYTE                   Bn4
        BYTE   W12
        BYTE                   As4
        BYTE   W12
        BYTE   PEND
// 050   ----------------------------------------
        BYTE   PATT
         POIN2  TheStormUponUs_2_48
// 051   ----------------------------------------
TheStormUponUs_2_51:
        BYTE           N11     As4   v080
        BYTE   W12
        BYTE                   Gs4
        BYTE   W12
        BYTE                   Fs4
        BYTE   W12
        BYTE                   Cs5
        BYTE   W12
        BYTE                   Bn4
        BYTE   W12
        BYTE           N32     As4   v080   gtp3
        BYTE   W36
        BYTE   PEND
// 052   ----------------------------------------
        BYTE   W96
// 053   ----------------------------------------
        BYTE   W96
// 054   ----------------------------------------
        BYTE   W96
// 055   ----------------------------------------
        BYTE   W96
// 056   ----------------------------------------
        BYTE   PATT
         POIN2  TheStormUponUs_2_48
// 057   ----------------------------------------
        BYTE   PATT
         POIN2  TheStormUponUs_2_49
// 058   ----------------------------------------
        BYTE   PATT
         POIN2  TheStormUponUs_2_48
// 059   ----------------------------------------
        BYTE   PATT
         POIN2  TheStormUponUs_2_51
// 060   ----------------------------------------
        BYTE   W96
// 061   ----------------------------------------
        BYTE   W96
// 062   ----------------------------------------
        BYTE   W96
// 063   ----------------------------------------
        BYTE   W96
// 064   ----------------------------------------
        BYTE   PATT
         POIN2  TheStormUponUs_2_48
// 065   ----------------------------------------
        BYTE           N11     As4   v080
        BYTE   W12
        BYTE                   Bn4
        BYTE   W12
        BYTE                   Cs5
        BYTE   W12
        BYTE                   Ds5
        BYTE   W12
        BYTE                   Cs5
        BYTE   W12
        BYTE                   Bn4
        BYTE   W12
        BYTE           N23     As4
        BYTE   W24
// 066   ----------------------------------------
        BYTE                   En4
        BYTE   W24
        BYTE           N11     As3
        BYTE   W12
        BYTE                   As3
        BYTE   W12
        BYTE           N23     Ds4
        BYTE   W24
        BYTE           N11     As3
        BYTE   W12
        BYTE                   As3
        BYTE   W12
// 067   ----------------------------------------
        BYTE           N23     Fs4
        BYTE   W24
        BYTE           N11     As3
        BYTE   W12
        BYTE                   As3
        BYTE   W12
        BYTE           N23     Gs4
        BYTE   W24
        BYTE           N11     As3
        BYTE   W12
        BYTE                   As3
        BYTE   W12
// 068   ----------------------------------------
        BYTE   W96
// 069   ----------------------------------------
        BYTE   W96
// 070   ----------------------------------------
        BYTE   W96
// 071   ----------------------------------------
        BYTE   W96
// 072   ----------------------------------------
        BYTE           N68     En4   v080   gtp3
        BYTE   W72
        BYTE           N23     Cs4
        BYTE   W24
// 073   ----------------------------------------
        BYTE           N68     Ds4   v080   gtp3
        BYTE   W72
        BYTE           N23     Bn3
        BYTE   W24
// 074   ----------------------------------------
        BYTE                   Cs4
        BYTE   W24
        BYTE                   As3
        BYTE   W24
        BYTE                   Fs3
        BYTE   W24
        BYTE                   Cs4
        BYTE   W24
// 075   ----------------------------------------
        BYTE           N44     Bn3   v080   gtp3
        BYTE   W48
        BYTE                   Gs3
        BYTE   W48
// 076   ----------------------------------------
        BYTE   GoTo
         POIN2  TheStormUponUs_2_LOOP
        BYTE   FINE

//****************** Track 3 (Midi-Chn.3) ******************//

TheStormUponUs_3:
        BYTE   KEYSH   TheStormUponUs_key+0
// 000   ----------------------------------------
TheStormUponUs_3_LOOP:
        BYTE           VOICE   19
        BYTE           VOL     40
        BYTE   W96
// 001   ----------------------------------------
        BYTE   W96
// 002   ----------------------------------------
        BYTE   W96
// 003   ----------------------------------------
        BYTE   W96
// 004   ----------------------------------------
        BYTE           N92     Gs4   v080   gtp3
        BYTE   W96
// 005   ----------------------------------------
        BYTE                   Fs4
        BYTE   W96
// 006   ----------------------------------------
        BYTE                   Fn4
        BYTE   W96
// 007   ----------------------------------------
        BYTE                   Ds4
        BYTE   W96
// 008   ----------------------------------------
        BYTE                   Cs4
        BYTE   W96
// 009   ----------------------------------------
        BYTE                   Bn3
        BYTE   W96
// 010   ----------------------------------------
        BYTE                   As3
        BYTE   W96
// 011   ----------------------------------------
        BYTE                   Ds4
        BYTE   W96
// 012   ----------------------------------------
        BYTE                   Gs4
        BYTE   W96
// 013   ----------------------------------------
        BYTE                   Fs4
        BYTE   W96
// 014   ----------------------------------------
        BYTE                   Fn4
        BYTE   W96
// 015   ----------------------------------------
        BYTE                   Ds4
        BYTE   W96
// 016   ----------------------------------------
        BYTE                   Cs4
        BYTE   W96
// 017   ----------------------------------------
        BYTE                   Bn3
        BYTE   W96
// 018   ----------------------------------------
        BYTE                   As3
        BYTE   W96
// 019   ----------------------------------------
        BYTE                   Ds4
        BYTE   W96
// 020   ----------------------------------------
        BYTE                   Gs4
        BYTE   W96
// 021   ----------------------------------------
        BYTE                   Fs4
        BYTE   W96
// 022   ----------------------------------------
        BYTE                   Fn4
        BYTE   W96
// 023   ----------------------------------------
        BYTE                   Ds4
        BYTE   W96
// 024   ----------------------------------------
        BYTE                   Cs4
        BYTE   W96
// 025   ----------------------------------------
        BYTE                   Bn3
        BYTE   W96
// 026   ----------------------------------------
        BYTE                   As3
        BYTE   W96
// 027   ----------------------------------------
        BYTE                   Ds4
        BYTE   W96
// 028   ----------------------------------------
        BYTE                   Gs4
        BYTE   W96
// 029   ----------------------------------------
        BYTE                   Fs4
        BYTE   W96
// 030   ----------------------------------------
        BYTE                   Fn4
        BYTE   W96
// 031   ----------------------------------------
        BYTE                   Ds4
        BYTE   W96
// 032   ----------------------------------------
        BYTE                   Cs4
        BYTE   W96
// 033   ----------------------------------------
        BYTE                   Bn3
        BYTE   W96
// 034   ----------------------------------------
        BYTE                   As3
        BYTE   W96
// 035   ----------------------------------------
        BYTE                   Ds4
        BYTE   W96
// 036   ----------------------------------------
        BYTE                   Gs4
        BYTE   W96
// 037   ----------------------------------------
        BYTE                   Fs4
        BYTE   W96
// 038   ----------------------------------------
        BYTE                   Fn4
        BYTE   W96
// 039   ----------------------------------------
        BYTE                   Ds4
        BYTE   W96
// 040   ----------------------------------------
        BYTE   W96
// 041   ----------------------------------------
        BYTE   W96
// 042   ----------------------------------------
        BYTE   W96
// 043   ----------------------------------------
        BYTE   W96
// 044   ----------------------------------------
        BYTE                   Gs4
        BYTE   W96
// 045   ----------------------------------------
        BYTE                   Fs4
        BYTE   W96
// 046   ----------------------------------------
        BYTE                   Fn4
        BYTE   W96
// 047   ----------------------------------------
        BYTE                   Ds4
        BYTE   W96
// 048   ----------------------------------------
        BYTE                   Cs4
        BYTE   W96
// 049   ----------------------------------------
        BYTE                   Bn3
        BYTE   W96
// 050   ----------------------------------------
        BYTE                   As3
        BYTE   W96
// 051   ----------------------------------------
        BYTE                   Ds4
        BYTE   W96
// 052   ----------------------------------------
        BYTE                   Gs4
        BYTE   W96
// 053   ----------------------------------------
        BYTE                   Fs4
        BYTE   W96
// 054   ----------------------------------------
        BYTE                   Fn4
        BYTE   W96
// 055   ----------------------------------------
        BYTE                   Ds4
        BYTE   W96
// 056   ----------------------------------------
        BYTE                   Cs4
        BYTE   W96
// 057   ----------------------------------------
        BYTE                   Bn3
        BYTE   W96
// 058   ----------------------------------------
        BYTE                   As3
        BYTE   W96
// 059   ----------------------------------------
        BYTE                   Ds4
        BYTE   W96
// 060   ----------------------------------------
        BYTE                   Gs4
        BYTE   W96
// 061   ----------------------------------------
        BYTE                   Fs4
        BYTE   W96
// 062   ----------------------------------------
        BYTE                   Fn4
        BYTE   W96
// 063   ----------------------------------------
        BYTE                   Ds4
        BYTE   W96
// 064   ----------------------------------------
        BYTE                   Cs4
        BYTE   W96
// 065   ----------------------------------------
        BYTE                   Bn3
        BYTE   W96
// 066   ----------------------------------------
        BYTE                   As3
        BYTE   W96
// 067   ----------------------------------------
        BYTE                   Ds4
        BYTE   W96
// 068   ----------------------------------------
        BYTE                   Gs4
        BYTE   W96
// 069   ----------------------------------------
        BYTE                   Fs4
        BYTE   W96
// 070   ----------------------------------------
        BYTE                   Fn4
        BYTE   W96
// 071   ----------------------------------------
        BYTE                   Ds4
        BYTE   W96
// 072   ----------------------------------------
        BYTE                   Cs4
        BYTE   W96
// 073   ----------------------------------------
        BYTE                   Bn3
        BYTE   W96
// 074   ----------------------------------------
        BYTE                   As3
        BYTE   W96
// 075   ----------------------------------------
        BYTE                   Ds4
        BYTE   W96
// 076   ----------------------------------------
        BYTE   GoTo
         POIN2  TheStormUponUs_3_LOOP
        BYTE   FINE

//****************** Track 4 (Midi-Chn.4) ******************//

TheStormUponUs_4:
        BYTE   KEYSH   TheStormUponUs_key+0
// 000   ----------------------------------------
TheStormUponUs_4_LOOP:
        BYTE           VOICE   8
        BYTE           VOL     50
        BYTE   W96
// 001   ----------------------------------------
        BYTE   W96
// 002   ----------------------------------------
        BYTE   W96
// 003   ----------------------------------------
        BYTE   W96
// 004   ----------------------------------------
        BYTE   W96
// 005   ----------------------------------------
        BYTE   W96
// 006   ----------------------------------------
        BYTE   W96
// 007   ----------------------------------------
        BYTE   W96
// 008   ----------------------------------------
        BYTE   W96
// 009   ----------------------------------------
        BYTE   W96
// 010   ----------------------------------------
        BYTE   W96
// 011   ----------------------------------------
        BYTE   W96
// 012   ----------------------------------------
        BYTE   W96
// 013   ----------------------------------------
        BYTE   W96
// 014   ----------------------------------------
        BYTE   W96
// 015   ----------------------------------------
        BYTE   W96
// 016   ----------------------------------------
TheStormUponUs_4_16:
        BYTE           N11     Gs4   v102
        BYTE   W12
        BYTE                   Fs4
        BYTE   W12
        BYTE                   En4
        BYTE   W12
        BYTE                   Fs4
        BYTE   W12
        BYTE                   Gs4
        BYTE   W12
        BYTE                   As4
        BYTE   W12
        BYTE                   Bn4
        BYTE   W12
        BYTE                   Gs4
        BYTE   W12
        BYTE   PEND
// 017   ----------------------------------------
        BYTE                   As4
        BYTE   W12
        BYTE                   Gs4
        BYTE   W12
        BYTE                   Fs4
        BYTE   W12
        BYTE                   Cs5
        BYTE   W12
        BYTE                   Bn4
        BYTE   W12
        BYTE                   Cs5
        BYTE   W12
        BYTE                   Bn4
        BYTE   W12
        BYTE                   As4
        BYTE   W12
// 018   ----------------------------------------
        BYTE   PATT
         POIN2  TheStormUponUs_4_16
// 019   ----------------------------------------
        BYTE           N11     As4   v102
        BYTE   W12
        BYTE                   Gs4
        BYTE   W12
        BYTE                   Fs4
        BYTE   W12
        BYTE                   Cs5
        BYTE   W12
        BYTE                   Bn4
        BYTE   W12
        BYTE           N32     As4   v102   gtp3
        BYTE   W36
// 020   ----------------------------------------
        BYTE   W96
// 021   ----------------------------------------
        BYTE   W96
// 022   ----------------------------------------
        BYTE   W96
// 023   ----------------------------------------
        BYTE   W96
// 024   ----------------------------------------
        BYTE   W96
// 025   ----------------------------------------
        BYTE   W96
// 026   ----------------------------------------
        BYTE   W96
// 027   ----------------------------------------
        BYTE   W96
// 028   ----------------------------------------
TheStormUponUs_4_28:
        BYTE           N11     Ds5   v102
        BYTE   W12
        BYTE                   Fn5
        BYTE   W12
        BYTE                   Fs5
        BYTE   W12
        BYTE                   Fn5
        BYTE   W12
        BYTE                   Cs5
        BYTE   W12
        BYTE                   Ds5
        BYTE   W12
        BYTE                   Cs5
        BYTE   W12
        BYTE                   Bn4
        BYTE   W12
        BYTE   PEND
// 029   ----------------------------------------
TheStormUponUs_4_29:
        BYTE           N11     As4   v102
        BYTE   W12
        BYTE                   Ds5
        BYTE   W12
        BYTE                   Cs5
        BYTE   W12
        BYTE                   Ds5
        BYTE   W12
        BYTE                   Bn4
        BYTE   W12
        BYTE                   As4
        BYTE   W12
        BYTE                   Gs4
        BYTE   W12
        BYTE                   Bn4
        BYTE   W12
        BYTE   PEND
// 030   ----------------------------------------
TheStormUponUs_4_30:
        BYTE           N11     Gs5   v102
        BYTE   W12
        BYTE                   Ds5
        BYTE   W12
        BYTE                   Fs5
        BYTE   W12
        BYTE                   Bn4
        BYTE   W12
        BYTE                   Ds5
        BYTE   W12
        BYTE                   Fn5
        BYTE   W12
        BYTE                   Fs5
        BYTE   W12
        BYTE                   Fn5
        BYTE   W12
        BYTE   PEND
// 031   ----------------------------------------
        BYTE                   Bn4
        BYTE   W12
        BYTE                   As4
        BYTE   W12
        BYTE                   Gs4
        BYTE   W12
        BYTE                   As4
        BYTE   W12
        BYTE                   Bn4
        BYTE   W12
        BYTE                   Cs5
        BYTE   W12
        BYTE                   Ds5
        BYTE   W12
        BYTE                   Bn4
        BYTE   W12
// 032   ----------------------------------------
        BYTE   PATT
         POIN2  TheStormUponUs_4_28
// 033   ----------------------------------------
        BYTE   PATT
         POIN2  TheStormUponUs_4_29
// 034   ----------------------------------------
        BYTE   PATT
         POIN2  TheStormUponUs_4_30
// 035   ----------------------------------------
        BYTE           N11     Cs5   v102
        BYTE   W12
        BYTE                   Bn4
        BYTE   W12
        BYTE                   As4
        BYTE   W12
        BYTE           N05     Ds5
        BYTE   W06
        BYTE                   En5
        BYTE   W06
        BYTE                   Ds5
        BYTE   W06
        BYTE                   Cs5
        BYTE   W06
        BYTE           N11     Bn4
        BYTE   W12
        BYTE                   As4
        BYTE   W24
// 036   ----------------------------------------
        BYTE   W96
// 037   ----------------------------------------
        BYTE   W96
// 038   ----------------------------------------
        BYTE   W96
// 039   ----------------------------------------
        BYTE           N92     Bn4   v102   gtp3
        BYTE   W96
// 040   ----------------------------------------
        BYTE   W96
// 041   ----------------------------------------
        BYTE   W96
// 042   ----------------------------------------
        BYTE   W96
// 043   ----------------------------------------
        BYTE   W96
// 044   ----------------------------------------
        BYTE   W96
// 045   ----------------------------------------
        BYTE   W96
// 046   ----------------------------------------
        BYTE   W96
// 047   ----------------------------------------
        BYTE   W96
// 048   ----------------------------------------
        BYTE   W96
// 049   ----------------------------------------
        BYTE   W96
// 050   ----------------------------------------
        BYTE   W96
// 051   ----------------------------------------
        BYTE   W96
// 052   ----------------------------------------
TheStormUponUs_4_52:
        BYTE           N23     Bn4   v102
        BYTE   W24
        BYTE           N11     As4
        BYTE   W12
        BYTE                   As4
        BYTE   W12
        BYTE           N23     Bn4
        BYTE   W24
        BYTE           N11     As4
        BYTE   W12
        BYTE                   As4
        BYTE   W12
        BYTE   PEND
// 053   ----------------------------------------
        BYTE   PATT
         POIN2  TheStormUponUs_4_52
// 054   ----------------------------------------
TheStormUponUs_4_54:
        BYTE           N23     Cs5   v102
        BYTE   W24
        BYTE           N11     As4
        BYTE   W12
        BYTE                   As4
        BYTE   W12
        BYTE           N23     Cs5
        BYTE   W24
        BYTE           N11     As4
        BYTE   W12
        BYTE                   As4
        BYTE   W12
        BYTE   PEND
// 055   ----------------------------------------
TheStormUponUs_4_55:
        BYTE           N23     Ds5   v102
        BYTE   W24
        BYTE           N11     As4
        BYTE   W12
        BYTE                   As4
        BYTE   W12
        BYTE           N23     Ds5
        BYTE   W24
        BYTE           N11     As4
        BYTE   W12
        BYTE                   As4
        BYTE   W12
        BYTE   PEND
// 056   ----------------------------------------
        BYTE   PATT
         POIN2  TheStormUponUs_4_52
// 057   ----------------------------------------
        BYTE   PATT
         POIN2  TheStormUponUs_4_52
// 058   ----------------------------------------
        BYTE   PATT
         POIN2  TheStormUponUs_4_54
// 059   ----------------------------------------
        BYTE   PATT
         POIN2  TheStormUponUs_4_55
// 060   ----------------------------------------
TheStormUponUs_4_60:
        BYTE           N23     En5   v102
        BYTE   W24
        BYTE           N11     As4
        BYTE   W12
        BYTE                   As4
        BYTE   W12
        BYTE           N23     Ds5
        BYTE   W24
        BYTE           N11     As4
        BYTE   W12
        BYTE                   As4
        BYTE   W12
        BYTE   PEND
// 061   ----------------------------------------
        BYTE           N23     Cs5
        BYTE   W24
        BYTE           N11     As4
        BYTE   W12
        BYTE                   As4
        BYTE   W12
        BYTE           N23     Bn4
        BYTE   W24
        BYTE           N11     As4
        BYTE   W12
        BYTE                   As4
        BYTE   W12
// 062   ----------------------------------------
        BYTE           N23
        BYTE   W24
        BYTE           N11
        BYTE   W12
        BYTE                   As4
        BYTE   W12
        BYTE           N23     Bn4
        BYTE   W24
        BYTE           N11     As4
        BYTE   W12
        BYTE                   As4
        BYTE   W12
// 063   ----------------------------------------
TheStormUponUs_4_63:
        BYTE           N23     Cs5   v102
        BYTE   W24
        BYTE           N11     As4
        BYTE   W12
        BYTE                   As4
        BYTE   W12
        BYTE           N23     Ds5
        BYTE   W24
        BYTE           N11     As4
        BYTE   W12
        BYTE                   As4
        BYTE   W12
        BYTE   PEND
// 064   ----------------------------------------
        BYTE           N23     Gs4
        BYTE   W24
        BYTE           N11     As4
        BYTE   W12
        BYTE                   As4
        BYTE   W12
        BYTE           N23     Bn4
        BYTE   W24
        BYTE           N11     As4
        BYTE   W12
        BYTE                   As4
        BYTE   W12
// 065   ----------------------------------------
        BYTE   PATT
         POIN2  TheStormUponUs_4_63
// 066   ----------------------------------------
        BYTE   PATT
         POIN2  TheStormUponUs_4_60
// 067   ----------------------------------------
        BYTE           N23     Fs5   v102
        BYTE   W24
        BYTE           N11     As4
        BYTE   W12
        BYTE                   As4
        BYTE   W12
        BYTE           N23     Gs5
        BYTE   W24
        BYTE           N11     As4
        BYTE   W12
        BYTE                   As4
        BYTE   W12
// 068   ----------------------------------------
        BYTE   W96
// 069   ----------------------------------------
        BYTE   W96
// 070   ----------------------------------------
        BYTE   W96
// 071   ----------------------------------------
        BYTE   W96
// 072   ----------------------------------------
        BYTE   W96
// 073   ----------------------------------------
        BYTE   W96
// 074   ----------------------------------------
        BYTE   W96
// 075   ----------------------------------------
        BYTE   W96
// 076   ----------------------------------------
        BYTE   GoTo
         POIN2  TheStormUponUs_4_LOOP
        BYTE   FINE

//****************** Track 5 (Midi-Chn.5) ******************//

TheStormUponUs_5:
        BYTE   KEYSH   TheStormUponUs_key+0
// 000   ----------------------------------------
TheStormUponUs_5_LOOP:
        BYTE           VOICE   124
        BYTE           VOL     50
        BYTE           PAN     c_v+6
        BYTE   W96
// 001   ----------------------------------------
        BYTE   W96
// 002   ----------------------------------------
        BYTE   W96
// 003   ----------------------------------------
        BYTE   W96
// 004   ----------------------------------------
TheStormUponUs_5_4:
        BYTE           N23     Dn1   v080
        BYTE           N23     Cn1
        BYTE   W24
        BYTE                   En1
        BYTE           N23     Cn1
        BYTE   W24
        BYTE                   Dn1
        BYTE           N23     Cn1
        BYTE   W24
        BYTE                   Fs1
        BYTE           N11     Cn1
        BYTE   W12
        BYTE                   Cn1
        BYTE   W12
        BYTE   PEND
// 005   ----------------------------------------
TheStormUponUs_5_5:
        BYTE           N23     Dn1   v080
        BYTE           N23     Cn1
        BYTE   W24
        BYTE                   En1
        BYTE           N23     Cn1
        BYTE   W24
        BYTE                   Dn1
        BYTE           N11     Cn1
        BYTE   W12
        BYTE                   Cn1
        BYTE   W12
        BYTE           N23     As1
        BYTE           N23     Cn1
        BYTE   W24
        BYTE   PEND
// 006   ----------------------------------------
TheStormUponUs_5_6:
        BYTE           N23     Dn1   v080
        BYTE           N23     Cn1
        BYTE   W24
        BYTE                   En1
        BYTE           N11     Cn1
        BYTE   W12
        BYTE                   Cn1
        BYTE   W12
        BYTE           N23     Fs1
        BYTE           N23     Cn1
        BYTE   W24
        BYTE                   As1
        BYTE           N23     Cn1
        BYTE   W24
        BYTE   PEND
// 007   ----------------------------------------
TheStormUponUs_5_7:
        BYTE           N23     Dn1   v080
        BYTE           N11     Cn1
        BYTE   W12
        BYTE                   Cn1
        BYTE   W12
        BYTE           N23     As1
        BYTE           N23     Cn1
        BYTE   W24
        BYTE                   En1
        BYTE           N23     Cn1
        BYTE   W24
        BYTE                   Cs2
        BYTE           N23     Cn1
        BYTE   W24
        BYTE   PEND
// 008   ----------------------------------------
        BYTE   PATT
         POIN2  TheStormUponUs_5_4
// 009   ----------------------------------------
        BYTE   PATT
         POIN2  TheStormUponUs_5_5
// 010   ----------------------------------------
        BYTE   PATT
         POIN2  TheStormUponUs_5_6
// 011   ----------------------------------------
        BYTE   PATT
         POIN2  TheStormUponUs_5_7
// 012   ----------------------------------------
        BYTE   PATT
         POIN2  TheStormUponUs_5_4
// 013   ----------------------------------------
        BYTE   PATT
         POIN2  TheStormUponUs_5_5
// 014   ----------------------------------------
        BYTE   PATT
         POIN2  TheStormUponUs_5_6
// 015   ----------------------------------------
        BYTE   PATT
         POIN2  TheStormUponUs_5_7
// 016   ----------------------------------------
        BYTE   PATT
         POIN2  TheStormUponUs_5_4
// 017   ----------------------------------------
        BYTE   PATT
         POIN2  TheStormUponUs_5_5
// 018   ----------------------------------------
        BYTE   PATT
         POIN2  TheStormUponUs_5_6
// 019   ----------------------------------------
        BYTE   PATT
         POIN2  TheStormUponUs_5_7
// 020   ----------------------------------------
        BYTE   PATT
         POIN2  TheStormUponUs_5_4
// 021   ----------------------------------------
        BYTE   PATT
         POIN2  TheStormUponUs_5_5
// 022   ----------------------------------------
        BYTE   PATT
         POIN2  TheStormUponUs_5_6
// 023   ----------------------------------------
        BYTE   PATT
         POIN2  TheStormUponUs_5_7
// 024   ----------------------------------------
        BYTE   PATT
         POIN2  TheStormUponUs_5_4
// 025   ----------------------------------------
        BYTE   PATT
         POIN2  TheStormUponUs_5_5
// 026   ----------------------------------------
        BYTE   PATT
         POIN2  TheStormUponUs_5_6
// 027   ----------------------------------------
        BYTE   PATT
         POIN2  TheStormUponUs_5_7
// 028   ----------------------------------------
        BYTE   PATT
         POIN2  TheStormUponUs_5_4
// 029   ----------------------------------------
        BYTE   PATT
         POIN2  TheStormUponUs_5_5
// 030   ----------------------------------------
        BYTE   PATT
         POIN2  TheStormUponUs_5_6
// 031   ----------------------------------------
        BYTE   PATT
         POIN2  TheStormUponUs_5_7
// 032   ----------------------------------------
        BYTE   PATT
         POIN2  TheStormUponUs_5_4
// 033   ----------------------------------------
        BYTE   PATT
         POIN2  TheStormUponUs_5_5
// 034   ----------------------------------------
        BYTE   PATT
         POIN2  TheStormUponUs_5_6
// 035   ----------------------------------------
        BYTE   PATT
         POIN2  TheStormUponUs_5_7
// 036   ----------------------------------------
        BYTE   PATT
         POIN2  TheStormUponUs_5_4
// 037   ----------------------------------------
        BYTE   PATT
         POIN2  TheStormUponUs_5_5
// 038   ----------------------------------------
        BYTE   PATT
         POIN2  TheStormUponUs_5_6
// 039   ----------------------------------------
        BYTE   PATT
         POIN2  TheStormUponUs_5_7
// 040   ----------------------------------------
        BYTE   W96
// 041   ----------------------------------------
        BYTE   W96
// 042   ----------------------------------------
        BYTE   W96
// 043   ----------------------------------------
        BYTE   W96
// 044   ----------------------------------------
        BYTE   PATT
         POIN2  TheStormUponUs_5_4
// 045   ----------------------------------------
        BYTE   PATT
         POIN2  TheStormUponUs_5_5
// 046   ----------------------------------------
        BYTE   PATT
         POIN2  TheStormUponUs_5_6
// 047   ----------------------------------------
        BYTE   PATT
         POIN2  TheStormUponUs_5_7
// 048   ----------------------------------------
        BYTE   PATT
         POIN2  TheStormUponUs_5_4
// 049   ----------------------------------------
        BYTE   PATT
         POIN2  TheStormUponUs_5_5
// 050   ----------------------------------------
        BYTE   PATT
         POIN2  TheStormUponUs_5_6
// 051   ----------------------------------------
        BYTE   PATT
         POIN2  TheStormUponUs_5_7
// 052   ----------------------------------------
        BYTE   PATT
         POIN2  TheStormUponUs_5_4
// 053   ----------------------------------------
        BYTE   PATT
         POIN2  TheStormUponUs_5_5
// 054   ----------------------------------------
        BYTE   PATT
         POIN2  TheStormUponUs_5_6
// 055   ----------------------------------------
        BYTE   PATT
         POIN2  TheStormUponUs_5_7
// 056   ----------------------------------------
        BYTE   PATT
         POIN2  TheStormUponUs_5_4
// 057   ----------------------------------------
        BYTE   PATT
         POIN2  TheStormUponUs_5_5
// 058   ----------------------------------------
        BYTE   PATT
         POIN2  TheStormUponUs_5_6
// 059   ----------------------------------------
        BYTE   PATT
         POIN2  TheStormUponUs_5_7
// 060   ----------------------------------------
        BYTE   PATT
         POIN2  TheStormUponUs_5_4
// 061   ----------------------------------------
        BYTE   PATT
         POIN2  TheStormUponUs_5_5
// 062   ----------------------------------------
        BYTE   PATT
         POIN2  TheStormUponUs_5_6
// 063   ----------------------------------------
        BYTE   PATT
         POIN2  TheStormUponUs_5_7
// 064   ----------------------------------------
        BYTE   PATT
         POIN2  TheStormUponUs_5_4
// 065   ----------------------------------------
        BYTE   PATT
         POIN2  TheStormUponUs_5_5
// 066   ----------------------------------------
        BYTE   PATT
         POIN2  TheStormUponUs_5_6
// 067   ----------------------------------------
        BYTE   PATT
         POIN2  TheStormUponUs_5_7
// 068   ----------------------------------------
        BYTE   PATT
         POIN2  TheStormUponUs_5_4
// 069   ----------------------------------------
        BYTE   PATT
         POIN2  TheStormUponUs_5_5
// 070   ----------------------------------------
        BYTE   PATT
         POIN2  TheStormUponUs_5_6
// 071   ----------------------------------------
        BYTE   PATT
         POIN2  TheStormUponUs_5_7
// 072   ----------------------------------------
        BYTE   PATT
         POIN2  TheStormUponUs_5_4
// 073   ----------------------------------------
        BYTE   PATT
         POIN2  TheStormUponUs_5_5
// 074   ----------------------------------------
        BYTE   PATT
         POIN2  TheStormUponUs_5_6
// 075   ----------------------------------------
        BYTE   PATT
         POIN2  TheStormUponUs_5_7
// 076   ----------------------------------------
        BYTE   GoTo
         POIN2  TheStormUponUs_5_LOOP
        BYTE   FINE

//****************** Track 6 (Midi-Chn.6) ******************//

TheStormUponUs_6:
        BYTE   KEYSH   TheStormUponUs_key+0
// 000   ----------------------------------------
TheStormUponUs_6_LOOP:
        BYTE           VOICE   14
        BYTE           VOL     65
        BYTE           N11     Gs4   v102
        BYTE   W12
        BYTE                   Ds4
        BYTE   W12
        BYTE                   Bn3
        BYTE   W12
        BYTE                   Fs4
        BYTE   W12
        BYTE                   Ds4
        BYTE   W12
        BYTE                   Bn3
        BYTE   W12
        BYTE                   As3
        BYTE   W12
        BYTE                   Gs3
        BYTE   W12
// 001   ----------------------------------------
        BYTE                   Bn3
        BYTE   W12
        BYTE                   Gs4
        BYTE   W12
        BYTE                   Ds4
        BYTE   W12
        BYTE                   Bn3
        BYTE   W12
        BYTE                   As3
        BYTE   W12
        BYTE                   Gs4
        BYTE   W12
        BYTE                   Ds4
        BYTE   W12
        BYTE                   Bn4
        BYTE   W12
// 002   ----------------------------------------
        BYTE                   Gs4
        BYTE   W12
        BYTE                   Ds4
        BYTE   W12
        BYTE                   Bn3
        BYTE   W12
        BYTE                   Fs4
        BYTE   W12
        BYTE                   Ds4
        BYTE   W12
        BYTE                   Bn3
        BYTE   W12
        BYTE                   As3
        BYTE   W12
        BYTE                   Gs3
        BYTE   W12
// 003   ----------------------------------------
        BYTE                   Bn3
        BYTE   W12
        BYTE                   Gs4
        BYTE   W12
        BYTE                   Ds4
        BYTE   W12
        BYTE                   Bn3
        BYTE   W12
        BYTE                   Fs4
        BYTE   W12
        BYTE                   Bn4
        BYTE   W12
        BYTE                   As4
        BYTE   W12
        BYTE                   Gs4
        BYTE   W12
// 004   ----------------------------------------
TheStormUponUs_6_4:
        BYTE   W48
        BYTE           N44     Gs4   v102   gtp3
        BYTE   W48
        BYTE   PEND
// 005   ----------------------------------------
TheStormUponUs_6_5:
        BYTE   W48
        BYTE           N44     Fs4   v102   gtp3
        BYTE   W48
        BYTE   PEND
// 006   ----------------------------------------
TheStormUponUs_6_6:
        BYTE   W48
        BYTE           N44     Fn4   v102   gtp3
        BYTE   W48
        BYTE   PEND
// 007   ----------------------------------------
TheStormUponUs_6_7:
        BYTE   W48
        BYTE           N44     Ds4   v102   gtp3
        BYTE   W48
        BYTE   PEND
// 008   ----------------------------------------
TheStormUponUs_6_8:
        BYTE   W48
        BYTE           N44     Cs4   v102   gtp3
        BYTE   W48
        BYTE   PEND
// 009   ----------------------------------------
TheStormUponUs_6_9:
        BYTE   W48
        BYTE           N44     Bn3   v102   gtp3
        BYTE   W48
        BYTE   PEND
// 010   ----------------------------------------
TheStormUponUs_6_10:
        BYTE   W48
        BYTE           N44     As3   v102   gtp3
        BYTE   W48
        BYTE   PEND
// 011   ----------------------------------------
        BYTE   PATT
         POIN2  TheStormUponUs_6_7
// 012   ----------------------------------------
        BYTE   PATT
         POIN2  TheStormUponUs_6_4
// 013   ----------------------------------------
        BYTE   PATT
         POIN2  TheStormUponUs_6_5
// 014   ----------------------------------------
        BYTE   PATT
         POIN2  TheStormUponUs_6_6
// 015   ----------------------------------------
        BYTE   PATT
         POIN2  TheStormUponUs_6_7
// 016   ----------------------------------------
        BYTE   PATT
         POIN2  TheStormUponUs_6_8
// 017   ----------------------------------------
        BYTE   PATT
         POIN2  TheStormUponUs_6_9
// 018   ----------------------------------------
        BYTE   PATT
         POIN2  TheStormUponUs_6_10
// 019   ----------------------------------------
        BYTE   PATT
         POIN2  TheStormUponUs_6_7
// 020   ----------------------------------------
        BYTE   PATT
         POIN2  TheStormUponUs_6_4
// 021   ----------------------------------------
        BYTE   PATT
         POIN2  TheStormUponUs_6_5
// 022   ----------------------------------------
        BYTE   PATT
         POIN2  TheStormUponUs_6_6
// 023   ----------------------------------------
        BYTE   PATT
         POIN2  TheStormUponUs_6_7
// 024   ----------------------------------------
        BYTE   PATT
         POIN2  TheStormUponUs_6_8
// 025   ----------------------------------------
        BYTE   PATT
         POIN2  TheStormUponUs_6_9
// 026   ----------------------------------------
        BYTE   PATT
         POIN2  TheStormUponUs_6_10
// 027   ----------------------------------------
        BYTE   PATT
         POIN2  TheStormUponUs_6_7
// 028   ----------------------------------------
        BYTE   PATT
         POIN2  TheStormUponUs_6_4
// 029   ----------------------------------------
        BYTE   PATT
         POIN2  TheStormUponUs_6_5
// 030   ----------------------------------------
        BYTE   PATT
         POIN2  TheStormUponUs_6_6
// 031   ----------------------------------------
        BYTE   PATT
         POIN2  TheStormUponUs_6_7
// 032   ----------------------------------------
        BYTE   PATT
         POIN2  TheStormUponUs_6_8
// 033   ----------------------------------------
        BYTE   PATT
         POIN2  TheStormUponUs_6_9
// 034   ----------------------------------------
        BYTE   PATT
         POIN2  TheStormUponUs_6_10
// 035   ----------------------------------------
        BYTE   PATT
         POIN2  TheStormUponUs_6_7
// 036   ----------------------------------------
        BYTE   PATT
         POIN2  TheStormUponUs_6_4
// 037   ----------------------------------------
        BYTE   PATT
         POIN2  TheStormUponUs_6_5
// 038   ----------------------------------------
        BYTE   PATT
         POIN2  TheStormUponUs_6_6
// 039   ----------------------------------------
        BYTE   PATT
         POIN2  TheStormUponUs_6_7
// 040   ----------------------------------------
        BYTE   PATT
         POIN2  TheStormUponUs_0_40
// 041   ----------------------------------------
        BYTE   PATT
         POIN2  TheStormUponUs_0_41
// 042   ----------------------------------------
        BYTE   PATT
         POIN2  TheStormUponUs_0_42
// 043   ----------------------------------------
        BYTE   PATT
         POIN2  TheStormUponUs_0_43
// 044   ----------------------------------------
        BYTE   PATT
         POIN2  TheStormUponUs_6_4
// 045   ----------------------------------------
        BYTE   PATT
         POIN2  TheStormUponUs_6_5
// 046   ----------------------------------------
        BYTE   PATT
         POIN2  TheStormUponUs_6_6
// 047   ----------------------------------------
        BYTE   PATT
         POIN2  TheStormUponUs_6_7
// 048   ----------------------------------------
        BYTE   PATT
         POIN2  TheStormUponUs_6_8
// 049   ----------------------------------------
        BYTE   PATT
         POIN2  TheStormUponUs_6_9
// 050   ----------------------------------------
        BYTE   PATT
         POIN2  TheStormUponUs_6_10
// 051   ----------------------------------------
        BYTE   PATT
         POIN2  TheStormUponUs_6_7
// 052   ----------------------------------------
        BYTE   PATT
         POIN2  TheStormUponUs_6_4
// 053   ----------------------------------------
        BYTE   PATT
         POIN2  TheStormUponUs_6_5
// 054   ----------------------------------------
        BYTE   PATT
         POIN2  TheStormUponUs_6_6
// 055   ----------------------------------------
        BYTE   PATT
         POIN2  TheStormUponUs_6_7
// 056   ----------------------------------------
        BYTE   PATT
         POIN2  TheStormUponUs_6_8
// 057   ----------------------------------------
        BYTE   PATT
         POIN2  TheStormUponUs_6_9
// 058   ----------------------------------------
        BYTE   PATT
         POIN2  TheStormUponUs_6_10
// 059   ----------------------------------------
        BYTE   PATT
         POIN2  TheStormUponUs_6_7
// 060   ----------------------------------------
        BYTE   PATT
         POIN2  TheStormUponUs_6_4
// 061   ----------------------------------------
        BYTE   PATT
         POIN2  TheStormUponUs_6_5
// 062   ----------------------------------------
        BYTE   PATT
         POIN2  TheStormUponUs_6_6
// 063   ----------------------------------------
        BYTE   PATT
         POIN2  TheStormUponUs_6_7
// 064   ----------------------------------------
        BYTE   PATT
         POIN2  TheStormUponUs_6_8
// 065   ----------------------------------------
        BYTE   PATT
         POIN2  TheStormUponUs_6_9
// 066   ----------------------------------------
        BYTE   PATT
         POIN2  TheStormUponUs_6_10
// 067   ----------------------------------------
        BYTE   PATT
         POIN2  TheStormUponUs_6_7
// 068   ----------------------------------------
        BYTE   PATT
         POIN2  TheStormUponUs_6_4
// 069   ----------------------------------------
        BYTE   PATT
         POIN2  TheStormUponUs_6_5
// 070   ----------------------------------------
        BYTE   PATT
         POIN2  TheStormUponUs_6_6
// 071   ----------------------------------------
        BYTE   PATT
         POIN2  TheStormUponUs_6_7
// 072   ----------------------------------------
        BYTE   PATT
         POIN2  TheStormUponUs_6_8
// 073   ----------------------------------------
        BYTE   PATT
         POIN2  TheStormUponUs_6_9
// 074   ----------------------------------------
        BYTE   PATT
         POIN2  TheStormUponUs_6_10
// 075   ----------------------------------------
        BYTE   PATT
         POIN2  TheStormUponUs_6_7
// 076   ----------------------------------------
        BYTE   GoTo
         POIN2  TheStormUponUs_6_LOOP
        BYTE   FINE

//****************** Track 7 (Midi-Chn.7) ******************//

TheStormUponUs_7:
        BYTE   KEYSH   TheStormUponUs_key+0
// 000   ----------------------------------------
TheStormUponUs_7_LOOP:
        BYTE           VOICE   36
        BYTE           PAN     c_v+6
        BYTE           VOL     60
        BYTE   W96
// 001   ----------------------------------------
        BYTE   W96
// 002   ----------------------------------------
        BYTE   W96
// 003   ----------------------------------------
        BYTE   W96
// 004   ----------------------------------------
TheStormUponUs_7_4:
        BYTE           N11     Gs1   v102
        BYTE   W12
        BYTE                   Ds1
        BYTE   W12
        BYTE                   Bn0
        BYTE   W12
        BYTE                   Fs1
        BYTE   W12
        BYTE                   Ds1
        BYTE   W12
        BYTE                   Bn0
        BYTE   W12
        BYTE                   As0
        BYTE   W12
        BYTE                   Gs0
        BYTE   W12
        BYTE   PEND
// 005   ----------------------------------------
TheStormUponUs_7_5:
        BYTE           N11     Bn0   v102
        BYTE   W12
        BYTE                   Gs1
        BYTE   W12
        BYTE                   Ds1
        BYTE   W12
        BYTE                   Bn0
        BYTE   W12
        BYTE                   As0
        BYTE   W12
        BYTE                   Gs1
        BYTE   W12
        BYTE                   Ds1
        BYTE   W12
        BYTE                   Bn1
        BYTE   W12
        BYTE   PEND
// 006   ----------------------------------------
        BYTE   PATT
         POIN2  TheStormUponUs_7_4
// 007   ----------------------------------------
TheStormUponUs_7_7:
        BYTE           N11     Bn0   v102
        BYTE   W12
        BYTE                   Gs1
        BYTE   W12
        BYTE                   Ds1
        BYTE   W12
        BYTE                   Bn0
        BYTE   W12
        BYTE                   Fs1
        BYTE   W12
        BYTE                   Bn1
        BYTE   W12
        BYTE                   As1
        BYTE   W12
        BYTE                   Gs1
        BYTE   W12
        BYTE   PEND
// 008   ----------------------------------------
        BYTE   PATT
         POIN2  TheStormUponUs_7_4
// 009   ----------------------------------------
        BYTE   PATT
         POIN2  TheStormUponUs_7_5
// 010   ----------------------------------------
        BYTE   PATT
         POIN2  TheStormUponUs_7_4
// 011   ----------------------------------------
        BYTE   PATT
         POIN2  TheStormUponUs_7_7
// 012   ----------------------------------------
        BYTE   PATT
         POIN2  TheStormUponUs_7_4
// 013   ----------------------------------------
        BYTE   PATT
         POIN2  TheStormUponUs_7_5
// 014   ----------------------------------------
        BYTE   PATT
         POIN2  TheStormUponUs_7_4
// 015   ----------------------------------------
        BYTE   PATT
         POIN2  TheStormUponUs_7_7
// 016   ----------------------------------------
        BYTE   PATT
         POIN2  TheStormUponUs_7_4
// 017   ----------------------------------------
        BYTE   PATT
         POIN2  TheStormUponUs_7_5
// 018   ----------------------------------------
        BYTE   PATT
         POIN2  TheStormUponUs_7_4
// 019   ----------------------------------------
        BYTE   PATT
         POIN2  TheStormUponUs_7_7
// 020   ----------------------------------------
        BYTE   PATT
         POIN2  TheStormUponUs_7_4
// 021   ----------------------------------------
        BYTE   PATT
         POIN2  TheStormUponUs_7_5
// 022   ----------------------------------------
        BYTE   PATT
         POIN2  TheStormUponUs_7_4
// 023   ----------------------------------------
        BYTE   PATT
         POIN2  TheStormUponUs_7_7
// 024   ----------------------------------------
        BYTE   PATT
         POIN2  TheStormUponUs_7_4
// 025   ----------------------------------------
        BYTE   PATT
         POIN2  TheStormUponUs_7_5
// 026   ----------------------------------------
        BYTE   PATT
         POIN2  TheStormUponUs_7_4
// 027   ----------------------------------------
        BYTE   PATT
         POIN2  TheStormUponUs_7_7
// 028   ----------------------------------------
        BYTE   PATT
         POIN2  TheStormUponUs_7_4
// 029   ----------------------------------------
        BYTE   PATT
         POIN2  TheStormUponUs_7_5
// 030   ----------------------------------------
        BYTE   PATT
         POIN2  TheStormUponUs_7_4
// 031   ----------------------------------------
        BYTE   PATT
         POIN2  TheStormUponUs_7_7
// 032   ----------------------------------------
        BYTE   PATT
         POIN2  TheStormUponUs_7_4
// 033   ----------------------------------------
        BYTE   PATT
         POIN2  TheStormUponUs_7_5
// 034   ----------------------------------------
        BYTE   PATT
         POIN2  TheStormUponUs_7_4
// 035   ----------------------------------------
        BYTE   PATT
         POIN2  TheStormUponUs_7_7
// 036   ----------------------------------------
        BYTE   PATT
         POIN2  TheStormUponUs_7_4
// 037   ----------------------------------------
        BYTE   PATT
         POIN2  TheStormUponUs_7_5
// 038   ----------------------------------------
        BYTE   PATT
         POIN2  TheStormUponUs_7_4
// 039   ----------------------------------------
        BYTE   PATT
         POIN2  TheStormUponUs_7_7
// 040   ----------------------------------------
        BYTE   W96
// 041   ----------------------------------------
        BYTE   W96
// 042   ----------------------------------------
        BYTE   W96
// 043   ----------------------------------------
        BYTE   W96
// 044   ----------------------------------------
TheStormUponUs_7_44:
        BYTE           N11     Ds2   v102
        BYTE   W12
        BYTE                   Fn2
        BYTE   W12
        BYTE                   Fs2
        BYTE   W12
        BYTE                   Fn2
        BYTE   W12
        BYTE                   Cs2
        BYTE   W12
        BYTE                   Ds2
        BYTE   W12
        BYTE                   Cs2
        BYTE   W12
        BYTE                   Bn1
        BYTE   W12
        BYTE   PEND
// 045   ----------------------------------------
TheStormUponUs_7_45:
        BYTE           N11     As1   v102
        BYTE   W12
        BYTE                   Ds2
        BYTE   W12
        BYTE                   Cs2
        BYTE   W12
        BYTE                   Ds2
        BYTE   W12
        BYTE                   Bn1
        BYTE   W12
        BYTE                   As1
        BYTE   W12
        BYTE                   Gs1
        BYTE   W12
        BYTE                   Bn1
        BYTE   W12
        BYTE   PEND
// 046   ----------------------------------------
TheStormUponUs_7_46:
        BYTE           N11     Gs2   v102
        BYTE   W12
        BYTE                   Ds2
        BYTE   W12
        BYTE                   Fs2
        BYTE   W12
        BYTE                   Bn1
        BYTE   W12
        BYTE                   Ds2
        BYTE   W12
        BYTE                   Fn2
        BYTE   W12
        BYTE                   Fs2
        BYTE   W12
        BYTE                   Fn2
        BYTE   W12
        BYTE   PEND
// 047   ----------------------------------------
TheStormUponUs_7_47:
        BYTE           N11     Cs2   v102
        BYTE   W12
        BYTE                   Bn1
        BYTE   W12
        BYTE                   As1
        BYTE   W12
        BYTE           N05     Ds2
        BYTE   W06
        BYTE                   En2
        BYTE   W06
        BYTE                   Ds2
        BYTE   W06
        BYTE                   Cs2
        BYTE   W06
        BYTE           N11     Bn1
        BYTE   W12
        BYTE                   As1
        BYTE   W24
        BYTE   PEND
// 048   ----------------------------------------
        BYTE   PATT
         POIN2  TheStormUponUs_7_4
// 049   ----------------------------------------
        BYTE   PATT
         POIN2  TheStormUponUs_7_5
// 050   ----------------------------------------
        BYTE   PATT
         POIN2  TheStormUponUs_7_4
// 051   ----------------------------------------
        BYTE   PATT
         POIN2  TheStormUponUs_7_7
// 052   ----------------------------------------
        BYTE   PATT
         POIN2  TheStormUponUs_7_4
// 053   ----------------------------------------
        BYTE   PATT
         POIN2  TheStormUponUs_7_5
// 054   ----------------------------------------
        BYTE   PATT
         POIN2  TheStormUponUs_7_4
// 055   ----------------------------------------
        BYTE   PATT
         POIN2  TheStormUponUs_7_7
// 056   ----------------------------------------
        BYTE   PATT
         POIN2  TheStormUponUs_7_4
// 057   ----------------------------------------
        BYTE   PATT
         POIN2  TheStormUponUs_7_5
// 058   ----------------------------------------
        BYTE   PATT
         POIN2  TheStormUponUs_7_4
// 059   ----------------------------------------
        BYTE   PATT
         POIN2  TheStormUponUs_7_7
// 060   ----------------------------------------
        BYTE   PATT
         POIN2  TheStormUponUs_7_4
// 061   ----------------------------------------
        BYTE   PATT
         POIN2  TheStormUponUs_7_5
// 062   ----------------------------------------
        BYTE   PATT
         POIN2  TheStormUponUs_7_4
// 063   ----------------------------------------
        BYTE   PATT
         POIN2  TheStormUponUs_7_7
// 064   ----------------------------------------
        BYTE   PATT
         POIN2  TheStormUponUs_7_4
// 065   ----------------------------------------
        BYTE   PATT
         POIN2  TheStormUponUs_7_5
// 066   ----------------------------------------
        BYTE   PATT
         POIN2  TheStormUponUs_7_4
// 067   ----------------------------------------
        BYTE   PATT
         POIN2  TheStormUponUs_7_7
// 068   ----------------------------------------
        BYTE   PATT
         POIN2  TheStormUponUs_7_44
// 069   ----------------------------------------
        BYTE   PATT
         POIN2  TheStormUponUs_7_45
// 070   ----------------------------------------
        BYTE   PATT
         POIN2  TheStormUponUs_7_46
// 071   ----------------------------------------
        BYTE           N11     Bn1   v102
        BYTE   W12
        BYTE                   As1
        BYTE   W12
        BYTE                   Gs1
        BYTE   W12
        BYTE                   As1
        BYTE   W12
        BYTE                   Bn1
        BYTE   W12
        BYTE                   Cs2
        BYTE   W12
        BYTE                   Ds2
        BYTE   W12
        BYTE                   Bn1
        BYTE   W12
// 072   ----------------------------------------
        BYTE   PATT
         POIN2  TheStormUponUs_7_44
// 073   ----------------------------------------
        BYTE   PATT
         POIN2  TheStormUponUs_7_45
// 074   ----------------------------------------
        BYTE   PATT
         POIN2  TheStormUponUs_7_46
// 075   ----------------------------------------
        BYTE   PATT
         POIN2  TheStormUponUs_7_47
// 076   ----------------------------------------
        BYTE   GoTo
         POIN2  TheStormUponUs_7_LOOP
        BYTE   FINE

//****************** Track 8 (Midi-Chn.8) ******************//

TheStormUponUs_8:
        BYTE   KEYSH   TheStormUponUs_key+0
// 000   ----------------------------------------
TheStormUponUs_8_LOOP:
        BYTE           VOICE   124
        BYTE           VOL     45
        BYTE           PAN     c_v-7
        BYTE   W96
// 001   ----------------------------------------
        BYTE   W96
// 002   ----------------------------------------
        BYTE   W96
// 003   ----------------------------------------
        BYTE   W96
// 004   ----------------------------------------
TheStormUponUs_8_4:
        BYTE           N23     En1   v080
        BYTE           N11     Cn1
        BYTE   W12
        BYTE                   Cn1
        BYTE   W12
        BYTE                   Dn1
        BYTE           N11     Cn1
        BYTE   W12
        BYTE           N05     An1
        BYTE           N05     Cn1
        BYTE   W06
        BYTE                   Bn1
        BYTE           N05     Cn1
        BYTE   W06
        BYTE           N23     En1
        BYTE           N11     Cn1
        BYTE   W12
        BYTE                   Cn1
        BYTE   W12
        BYTE           N05     Bn1
        BYTE           N05     Cn1
        BYTE   W06
        BYTE                   Cn2
        BYTE           N05     Cn1
        BYTE   W06
        BYTE           N11     Dn1
        BYTE           N11     Cn1
        BYTE   W12
        BYTE   PEND
// 005   ----------------------------------------
TheStormUponUs_8_5:
        BYTE           N11     En1   v080
        BYTE           N11     Cn1
        BYTE   W12
        BYTE           N05     Cn2
        BYTE           N05     Cn1
        BYTE   W06
        BYTE                   Dn2
        BYTE           N05     Cn1
        BYTE   W06
        BYTE           N11     Dn1
        BYTE           N11     Cn1
        BYTE   W12
        BYTE           N23     Fs1
        BYTE           N11     Cn1
        BYTE   W12
        BYTE           N05
        BYTE   W06
        BYTE                   Cn1
        BYTE   W06
        BYTE           N11     En1
        BYTE           N11     Cn1
        BYTE   W12
        BYTE           N23     As1
        BYTE           N11     Cn1
        BYTE   W12
        BYTE                   Cn1
        BYTE   W12
        BYTE   PEND
// 006   ----------------------------------------
TheStormUponUs_8_6:
        BYTE           N05     En1   v080
        BYTE           N11     Cn1
        BYTE   W06
        BYTE           N05     Dn1
        BYTE   W06
        BYTE                   En1
        BYTE           N11     Cn1
        BYTE   W06
        BYTE           N05     Dn1
        BYTE   W06
        BYTE           N11     Fs1
        BYTE           N11     Cn1
        BYTE   W12
        BYTE                   As1
        BYTE           N05     Cn1
        BYTE   W06
        BYTE                   Cn1
        BYTE   W06
        BYTE           N23     En1
        BYTE           N11     Cn1
        BYTE   W12
        BYTE                   Cn1
        BYTE   W12
        BYTE           N05     Bn1
        BYTE           N05     Cn1
        BYTE   W06
        BYTE                   Cn2
        BYTE           N05     Cn1
        BYTE   W06
        BYTE           N11     Cs2
        BYTE           N11     Cn1
        BYTE   W12
        BYTE   PEND
// 007   ----------------------------------------
TheStormUponUs_8_7:
        BYTE           N11     As1   v080
        BYTE           N11     Cn1
        BYTE   W12
        BYTE           N05     En1
        BYTE           N05     Cn1
        BYTE   W06
        BYTE                   Dn1
        BYTE           N05     Cn1
        BYTE   W06
        BYTE                   Dn2
        BYTE           N11     Cn1
        BYTE   W06
        BYTE           N05     Cn2
        BYTE   W06
        BYTE                   Bn1
        BYTE           N11     Cn1
        BYTE   W06
        BYTE           N05     An1
        BYTE   W06
        BYTE           N11     As1
        BYTE           N05     Cn1
        BYTE   W06
        BYTE                   Cn1
        BYTE   W06
        BYTE                   Fs1
        BYTE           N11     Cn1
        BYTE   W06
        BYTE           N05     Dn1
        BYTE   W06
        BYTE           N23     Cs2
        BYTE           N23     Cn1
        BYTE   W24
        BYTE   PEND
// 008   ----------------------------------------
        BYTE   PATT
         POIN2  TheStormUponUs_8_4
// 009   ----------------------------------------
        BYTE   PATT
         POIN2  TheStormUponUs_8_5
// 010   ----------------------------------------
        BYTE   PATT
         POIN2  TheStormUponUs_8_6
// 011   ----------------------------------------
        BYTE   PATT
         POIN2  TheStormUponUs_8_7
// 012   ----------------------------------------
        BYTE   PATT
         POIN2  TheStormUponUs_8_4
// 013   ----------------------------------------
        BYTE   PATT
         POIN2  TheStormUponUs_8_5
// 014   ----------------------------------------
        BYTE   PATT
         POIN2  TheStormUponUs_8_6
// 015   ----------------------------------------
        BYTE   PATT
         POIN2  TheStormUponUs_8_7
// 016   ----------------------------------------
        BYTE   PATT
         POIN2  TheStormUponUs_8_4
// 017   ----------------------------------------
        BYTE   PATT
         POIN2  TheStormUponUs_8_5
// 018   ----------------------------------------
        BYTE   PATT
         POIN2  TheStormUponUs_8_6
// 019   ----------------------------------------
        BYTE   PATT
         POIN2  TheStormUponUs_8_7
// 020   ----------------------------------------
        BYTE   PATT
         POIN2  TheStormUponUs_8_4
// 021   ----------------------------------------
        BYTE   PATT
         POIN2  TheStormUponUs_8_5
// 022   ----------------------------------------
        BYTE   PATT
         POIN2  TheStormUponUs_8_6
// 023   ----------------------------------------
        BYTE   PATT
         POIN2  TheStormUponUs_8_7
// 024   ----------------------------------------
        BYTE   PATT
         POIN2  TheStormUponUs_8_4
// 025   ----------------------------------------
        BYTE   PATT
         POIN2  TheStormUponUs_8_5
// 026   ----------------------------------------
        BYTE   PATT
         POIN2  TheStormUponUs_8_6
// 027   ----------------------------------------
        BYTE   PATT
         POIN2  TheStormUponUs_8_7
// 028   ----------------------------------------
        BYTE   PATT
         POIN2  TheStormUponUs_8_4
// 029   ----------------------------------------
        BYTE   PATT
         POIN2  TheStormUponUs_8_5
// 030   ----------------------------------------
        BYTE   PATT
         POIN2  TheStormUponUs_8_6
// 031   ----------------------------------------
        BYTE   PATT
         POIN2  TheStormUponUs_8_7
// 032   ----------------------------------------
        BYTE   PATT
         POIN2  TheStormUponUs_8_4
// 033   ----------------------------------------
        BYTE   PATT
         POIN2  TheStormUponUs_8_5
// 034   ----------------------------------------
        BYTE   PATT
         POIN2  TheStormUponUs_8_6
// 035   ----------------------------------------
        BYTE   PATT
         POIN2  TheStormUponUs_8_7
// 036   ----------------------------------------
        BYTE   PATT
         POIN2  TheStormUponUs_8_4
// 037   ----------------------------------------
        BYTE   PATT
         POIN2  TheStormUponUs_8_5
// 038   ----------------------------------------
        BYTE   PATT
         POIN2  TheStormUponUs_8_6
// 039   ----------------------------------------
        BYTE   PATT
         POIN2  TheStormUponUs_8_7
// 040   ----------------------------------------
        BYTE   W96
// 041   ----------------------------------------
        BYTE   W96
// 042   ----------------------------------------
        BYTE   W96
// 043   ----------------------------------------
        BYTE   W96
// 044   ----------------------------------------
        BYTE   PATT
         POIN2  TheStormUponUs_8_4
// 045   ----------------------------------------
        BYTE   PATT
         POIN2  TheStormUponUs_8_5
// 046   ----------------------------------------
        BYTE   PATT
         POIN2  TheStormUponUs_8_6
// 047   ----------------------------------------
        BYTE   PATT
         POIN2  TheStormUponUs_8_7
// 048   ----------------------------------------
        BYTE   PATT
         POIN2  TheStormUponUs_8_4
// 049   ----------------------------------------
        BYTE   PATT
         POIN2  TheStormUponUs_8_5
// 050   ----------------------------------------
        BYTE   PATT
         POIN2  TheStormUponUs_8_6
// 051   ----------------------------------------
        BYTE   PATT
         POIN2  TheStormUponUs_8_7
// 052   ----------------------------------------
        BYTE   PATT
         POIN2  TheStormUponUs_8_4
// 053   ----------------------------------------
        BYTE   PATT
         POIN2  TheStormUponUs_8_5
// 054   ----------------------------------------
        BYTE   PATT
         POIN2  TheStormUponUs_8_6
// 055   ----------------------------------------
        BYTE   PATT
         POIN2  TheStormUponUs_8_7
// 056   ----------------------------------------
        BYTE   PATT
         POIN2  TheStormUponUs_8_4
// 057   ----------------------------------------
        BYTE   PATT
         POIN2  TheStormUponUs_8_5
// 058   ----------------------------------------
        BYTE   PATT
         POIN2  TheStormUponUs_8_6
// 059   ----------------------------------------
        BYTE   PATT
         POIN2  TheStormUponUs_8_7
// 060   ----------------------------------------
        BYTE   PATT
         POIN2  TheStormUponUs_8_4
// 061   ----------------------------------------
        BYTE   PATT
         POIN2  TheStormUponUs_8_5
// 062   ----------------------------------------
        BYTE   PATT
         POIN2  TheStormUponUs_8_6
// 063   ----------------------------------------
        BYTE   PATT
         POIN2  TheStormUponUs_8_7
// 064   ----------------------------------------
        BYTE   PATT
         POIN2  TheStormUponUs_8_4
// 065   ----------------------------------------
        BYTE   PATT
         POIN2  TheStormUponUs_8_5
// 066   ----------------------------------------
        BYTE   PATT
         POIN2  TheStormUponUs_8_6
// 067   ----------------------------------------
        BYTE   PATT
         POIN2  TheStormUponUs_8_7
// 068   ----------------------------------------
        BYTE   PATT
         POIN2  TheStormUponUs_8_4
// 069   ----------------------------------------
        BYTE   PATT
         POIN2  TheStormUponUs_8_5
// 070   ----------------------------------------
        BYTE   PATT
         POIN2  TheStormUponUs_8_6
// 071   ----------------------------------------
        BYTE   PATT
         POIN2  TheStormUponUs_8_7
// 072   ----------------------------------------
        BYTE   PATT
         POIN2  TheStormUponUs_8_4
// 073   ----------------------------------------
        BYTE   PATT
         POIN2  TheStormUponUs_8_5
// 074   ----------------------------------------
        BYTE   PATT
         POIN2  TheStormUponUs_8_6
// 075   ----------------------------------------
        BYTE   PATT
         POIN2  TheStormUponUs_8_7
// 076   ----------------------------------------
        BYTE   GoTo
         POIN2  TheStormUponUs_8_LOOP
        BYTE   FINE


//********************** End of Song ***********************//

        ALIGN 4
TheStormUponUs:
        BYTE   9                       // Num Tracks
        BYTE   0                       // Unknown
        BYTE   TheStormUponUs_pri      // Priority
        BYTE   TheStormUponUs_rev      // Reverb

        POIN2   TheStormUponUs_grp     

        POIN2   TheStormUponUs_0
        POIN2   TheStormUponUs_1
        POIN2   TheStormUponUs_2
        POIN2   TheStormUponUs_3
        POIN2   TheStormUponUs_4
        POIN2   TheStormUponUs_5
        POIN2   TheStormUponUs_6
        POIN2   TheStormUponUs_7
        POIN2   TheStormUponUs_8

        
